<?xml version="1.0" encoding="UTF-8"?>
<!DOCTYPE svg PUBLIC "-//W3C//DTD SVG 1.1//EN" "http://www.w3.org/Graphics/SVG/1.1/DTD/svg11.dtd">
<!-- Creator: CorelDRAW -->
<svg xmlns="http://www.w3.org/2000/svg" xml:space="preserve" width="1.66666in" height="1.66666in" version="1.1" style="shape-rendering:geometricPrecision; text-rendering:geometricPrecision; image-rendering:optimizeQuality; fill-rule:evenodd; clip-rule:evenodd"
viewBox="0 0 1666.66 1666.66"
 xmlns:xlink="http://www.w3.org/1999/xlink"
 xmlns:xodm="http://www.corel.com/coreldraw/odm/2003">
 <defs>
  <style type="text/css">
   <![CDATA[
    .fil0 {fill:#201E1E;fill-rule:nonzero}
    .fil1 {fill:url(#id0)}
   ]]>
  </style>
  <radialGradient id="id0" gradientUnits="userSpaceOnUse" gradientTransform="matrix(0.954597 -0 -0 -0.954597 19 1629)" cx="423.78" cy="833.33" r="174.65" fx="423.78" fy="833.33">
   <stop offset="0" style="stop-opacity:1; stop-color:#FFF212"/>
   <stop offset="0.45098" style="stop-opacity:1; stop-color:#A2D433"/>
   <stop offset="1" style="stop-opacity:1; stop-color:#45B653"/>
  </radialGradient>
 </defs>
 <g id="Layer_x0020_1">
  <metadata id="CorelCorpID_0Corel-Layer"/>
  <g id="_2110480756656">
   <path class="fil0" d="M696.05 850.03l35.87 0c2.36,0 4.29,-1.85 4.29,-4.13 0,-2.4 -1.89,-4.28 -4.29,-4.28l-35.87 0c-19.94,0 -36.15,-16.25 -36.15,-36.24l0 -3.91 65.65 0c2.26,0 4.1,-1.93 4.1,-4.3 0,-2.22 -1.88,-4.11 -4.1,-4.11l-65.65 0 0 -3.92c0,-19.97 16.21,-36.24 36.15,-36.24l35.87 0c2.41,0 4.29,-1.89 4.29,-4.29 0,-2.26 -1.93,-4.11 -4.29,-4.11l-35.87 0c-24.14,0 -44.54,20.44 -44.54,44.64l0 16.24c0,24.2 20.41,44.64 44.54,44.64z"/>
   <path class="fil0" d="M797.49 769.34l-14.03 0c-17.93,0 -32.85,14.75 -33.24,32.94l0 43.44c0,2.42 1.87,4.3 4.28,4.3 2.26,0 4.11,-1.93 4.11,-4.3l0 -43.58c0.35,-13.24 11.72,-24.42 24.85,-24.42l14.03 0c13.47,0 24.86,11.42 24.86,24.92l0 43.08c0,2.37 1.83,4.3 4.09,4.3 2.41,0 4.29,-1.89 4.29,-4.3l0 -43.44c0,-17.86 -15.24,-32.94 -33.25,-32.94z"/>
   <path class="fil0" d="M899.07 839.83l27.06 -64.78c0.4,-0.61 0.4,-1.33 0.4,-1.78 0,-2.19 -1.8,-3.92 -4.11,-3.92 -1.4,0 -3.09,0.97 -3.4,2.35l-27.13 65.07c-1.57,3.32 -4.44,5.21 -7.89,5.21 -3.71,0 -6.43,-1.78 -7.87,-5.13l-27.18 -65.26c-0.65,-1.3 -2.15,-2.24 -3.57,-2.24 -2.29,0 -4.1,1.72 -4.1,3.92 0,0.44 0,1.15 0.39,1.76l27.07 64.82c2.72,6.28 8.57,10.17 15.26,10.17 6.74,0 12.52,-3.91 15.07,-10.2z"/>
   <path class="fil0" d="M944.83 770.26c-2.4,0 -4.29,1.89 -4.29,4.29l0 71.36c0,2.26 1.93,4.11 4.29,4.11 2.22,0 4.1,-1.89 4.1,-4.11l0 -71.36c0,-2.36 -1.83,-4.29 -4.1,-4.29z"/>
   <path class="fil0" d="M944.83 748.71c-2.76,0 -5.02,2.25 -5.02,5.03 0,2.78 2.25,5.03 5.02,5.03 2.76,0 5.01,-2.25 5.01,-5.03 0,-2.78 -2.25,-5.03 -5.01,-5.03z"/>
   <path class="fil0" d="M973.41 850.03c2.36,0 4.3,-1.85 4.3,-4.11l0 -23.82 29.58 0c2.36,0 4.29,-1.85 4.29,-4.11 0,-2.39 -1.89,-4.28 -4.29,-4.28l-29.58 0 0 -36.25c0,-13.53 10.98,-24.54 24.48,-24.54l6.93 0c2.26,0 4.1,-1.93 4.1,-4.29 0,-2.22 -1.87,-4.11 -4.1,-4.11l-6.93 0c-18.13,0 -32.87,14.79 -32.87,32.94l0 68.46c0,2.22 1.87,4.11 4.09,4.11z"/>
   <path class="fil0" d="M1097.26 769.35c-2.26,0 -4.09,1.93 -4.09,4.29l0 43.07c0,13.51 -11.39,24.92 -24.86,24.92l-6.56 0c-13.37,0 -24.53,-11.03 -24.86,-24.54l0 -43.44c0,-2.36 -1.83,-4.29 -4.1,-4.29 -2.4,0 -4.29,1.89 -4.29,4.29l0 43.47c0.39,18.15 15.31,32.92 33.25,32.92l6.56 0c17.94,0 32.85,-14.76 33.25,-32.94l0 -43.44c0,-2.4 -1.89,-4.29 -4.29,-4.29z"/>
   <path class="fil0" d="M1153.72 841.63l-6.92 0c-13.52,0 -24.5,-11.01 -24.5,-24.57l0 -39.5 29.6 0c2.4,0 4.28,-1.89 4.28,-4.29 0,-2.26 -1.92,-4.11 -4.28,-4.11l-29.6 0 0 -20.54c0,-2.26 -1.92,-4.1 -4.28,-4.1 -2.22,0 -4.11,1.88 -4.11,4.1l0 68.44c0,18.18 14.75,32.96 32.89,32.96l6.92 0c2.22,0 4.1,-1.87 4.1,-4.09 0,-2.36 -1.83,-4.3 -4.1,-4.3z"/>
   <path class="fil0" d="M1243.33 769.35c-2.26,0 -4.11,1.93 -4.11,4.29l0 43.07c0,13.51 -11.37,24.92 -24.85,24.92l-6.56 0c-13.37,0 -24.51,-11.03 -24.86,-24.54l0 -43.44c0,-2.36 -1.83,-4.29 -4.09,-4.29 -2.41,0 -4.29,1.89 -4.29,4.29l0 43.47c0.4,18.15 15.3,32.92 33.25,32.92l6.56 0c17.94,0 32.85,-14.76 33.25,-32.94l0 -43.44c0,-2.4 -1.89,-4.29 -4.29,-4.29z"/>
   <path class="fil0" d="M1303.06 769.34l-9.83 0c-17.94,0 -32.85,14.75 -33.25,33.14l0 43.25c0,2.42 1.89,4.3 4.29,4.3 2.26,0 4.11,-1.93 4.11,-4.3l0 -43.58c0.32,-13.24 11.71,-24.42 24.85,-24.42l9.83 0c6.31,0 12.71,2.69 17.54,7.36 0.85,0.83 1.82,1.24 3.04,1.24 2.26,0 4.11,-1.93 4.11,-4.3 0,-1.3 -0.57,-2.44 -1.22,-2.85 -6.14,-6.35 -14.47,-9.85 -23.47,-9.85z"/>
   <path class="fil0" d="M1370.27 777.74l14.03 0c13.47,0 24.85,11.4 24.85,24.91l0 10.68 -63.74 0 0 -10.68c0,-13.51 11.39,-24.91 24.86,-24.91zm14.03 -8.39l-14.03 0c-18.01,0 -33.25,15.25 -33.25,33.3l0 12.6c0,19.5 14.61,34.78 33.25,34.78l33.88 0c2.26,0 4.11,-1.93 4.11,-4.29 0,-2.24 -1.89,-4.11 -4.11,-4.11l-33.88 0c-9.7,0 -18.79,-5.96 -22.62,-14.83l-2.22 -5.06 66.02 0c3.36,0 6.09,-2.82 6.09,-6.29l0 -12.8c0,-18.06 -15.22,-33.3 -33.23,-33.3z"/>
   <path class="fil0" d="M691.85 920.37c-2.68,-1.06 -6.26,-2.14 -10.67,-3.22 -3.82,-0.96 -6.88,-1.85 -9.07,-2.68 -2.03,-0.75 -3.68,-1.81 -5.06,-3.24 -1.21,-1.26 -1.81,-2.96 -1.81,-5.18 0,-2.97 1.18,-5.33 3.58,-7.22 2.49,-1.96 6.33,-2.96 11.42,-2.96 2.61,0 5.29,0.42 7.97,1.21 2.72,0.82 5.14,1.96 7.36,3.5 0.43,0.31 0.96,0.42 1.44,0.25 0.5,-0.13 0.9,-0.47 1.13,-0.94l1.59 -3.49c0.36,-0.75 0.13,-1.67 -0.57,-2.14 -2.46,-1.75 -5.39,-3.15 -8.74,-4.17 -3.31,-1 -6.74,-1.52 -10.2,-1.52 -5.03,0 -9.11,0.75 -12.47,2.26 -3.44,1.56 -6.06,3.72 -7.76,6.4 -1.71,2.68 -2.57,5.68 -2.57,8.91 0,3.98 1.08,7.24 3.18,9.69 2.03,2.33 4.52,4.08 7.41,5.19 2.72,1.07 6.22,2.11 10.72,3.22 3.76,0.89 6.78,1.75 8.99,2.58 2,0.75 3.69,1.85 5.04,3.25 1.21,1.25 1.79,2.93 1.79,5.17 0,2.9 -1.18,5.21 -3.62,7.04 -2.57,1.92 -6.56,2.89 -11.81,2.89 -3.64,0 -7.18,-0.67 -10.53,-1.96 -3.26,-1.28 -5.89,-2.96 -7.82,-5 -0.39,-0.39 -0.91,-0.68 -1.46,-0.53 -0.53,0.06 -1.01,0.36 -1.29,0.83l-1.96 3.24c-0.4,0.67 -0.31,1.5 0.21,2.07 2.39,2.58 5.71,4.68 9.87,6.29 4.11,1.56 8.52,2.36 13.07,2.36 4.93,0 9.15,-0.76 12.59,-2.28 3.53,-1.56 6.2,-3.68 7.93,-6.35 1.74,-2.67 2.62,-5.65 2.62,-8.86 0,-3.93 -1.08,-7.15 -3.2,-9.54 -2.02,-2.28 -4.49,-3.99 -7.33,-5.1z"/>
   <path class="fil0" d="M747.43 928.1c0,3.32 -0.71,6.3 -2.12,8.87l0 0.01c-1.39,2.54 -3.32,4.56 -5.74,5.96 -2.43,1.44 -5.13,2.15 -8.25,2.15 -3.07,0 -5.85,-0.72 -8.25,-2.17 -2.41,-1.39 -4.33,-3.4 -5.74,-5.96 -1.41,-2.56 -2.11,-5.54 -2.11,-8.87 0,-3.32 0.71,-6.31 2.11,-8.88 1.41,-2.54 3.35,-4.56 5.75,-5.96 2.4,-1.44 5.18,-2.17 8.24,-2.17 3.07,0 5.85,0.74 8.26,2.18 2.39,1.39 4.32,3.39 5.72,5.93 1.41,2.58 2.12,5.58 2.12,8.89zm-3.9 -21.17c-7.25,-4.15 -17.17,-4.15 -24.4,0 -3.61,2.06 -6.52,4.99 -8.6,8.71 -2.07,3.67 -3.11,7.86 -3.11,12.46 0,4.59 1.04,8.8 3.11,12.48 2.07,3.71 4.97,6.64 8.6,8.7 3.62,2.08 7.72,3.12 12.19,3.12 4.49,0 8.58,-1.04 12.21,-3.12 3.63,-2.07 6.52,-5 8.6,-8.71 2.07,-3.7 3.11,-7.89 3.11,-12.47 0,-4.57 -1.04,-8.76 -3.11,-12.47 -2.1,-3.71 -4.99,-6.64 -8.6,-8.7z"/>
   <path class="fil0" d="M770.91 885.41l-4.25 0c-0.96,0 -1.74,0.78 -1.74,1.74l0 63.18c0,0.96 0.78,1.74 1.74,1.74l4.25 0c0.96,0 1.74,-0.78 1.74,-1.74l0 -63.18c0,-0.96 -0.78,-1.74 -1.74,-1.74z"/>
   <path class="fil0" d="M827.65 904.15l-4.25 0c-0.96,0 -1.74,0.78 -1.74,1.74l0 23.67c0,4.87 -1.26,8.6 -3.9,11.42 -2.6,2.79 -6.07,4.14 -10.58,4.14 -4.13,0 -7.35,-1.14 -9.56,-3.4 -2.2,-2.25 -3.32,-5.67 -3.32,-10.18l0 -25.64c0,-0.96 -0.78,-1.74 -1.74,-1.74l-4.25 0c-0.96,0 -1.74,0.78 -1.74,1.74l0 25.97c0,6.53 1.83,11.64 5.44,15.19 3.61,3.56 8.6,5.36 14.81,5.36 4.21,0 7.94,-0.96 11.09,-2.83 1.47,-0.89 2.78,-1.94 3.92,-3.15l0 3.91c0,0.97 0.78,1.74 1.74,1.74l4.07 0c0.96,0 1.74,-0.77 1.74,-1.74l0 -44.44c0,-0.96 -0.78,-1.74 -1.74,-1.74z"/>
   <path class="fil0" d="M867.38 943.64c-0.26,-0.46 -0.72,-0.76 -1.24,-0.85 -0.52,-0.1 -1.06,0.09 -1.43,0.46 -1.48,1.35 -3.35,2.02 -5.71,2.02 -2.24,0 -3.83,-0.56 -4.89,-1.7 -1.07,-1.17 -1.63,-3 -1.63,-5.43l0 -26.86 12.37 0c0.96,0 1.74,-0.78 1.74,-1.74l0 -3.67c0,-0.96 -0.78,-1.74 -1.74,-1.74l-12.37 0 0 -7.97c0,-0.96 -0.78,-1.74 -1.74,-1.74l-4.24 0c-0.96,0 -1.74,0.78 -1.74,1.74l0 7.97 -6.42 0c-0.96,0 -1.74,0.78 -1.74,1.74l0 3.67c0,0.96 0.78,1.74 1.74,1.74l6.42 0 0 27.31c0,4.25 1.22,7.65 3.64,10.08 2.42,2.48 5.83,3.74 10.17,3.74 1.91,0 3.8,-0.31 5.59,-0.9 1.83,-0.61 3.41,-1.52 4.68,-2.72 0.58,-0.56 0.71,-1.44 0.29,-2.14l-1.78 -3z"/>
   <path class="fil0" d="M883.72 904.15l-4.25 0c-0.96,0 -1.74,0.78 -1.74,1.74l0 44.44c0,0.97 0.78,1.74 1.74,1.74l4.25 0c0.96,0 1.74,-0.77 1.74,-1.74l0 -44.44c0,-0.96 -0.78,-1.74 -1.74,-1.74z"/>
   <path class="fil0" d="M877.91 887.96c-1.02,1.01 -1.53,2.26 -1.53,3.71 0,1.42 0.53,2.69 1.54,3.67 1,0.97 2.26,1.47 3.68,1.47 1.42,0 2.7,-0.54 3.68,-1.54 1.02,-1.01 1.54,-2.25 1.54,-3.68 0,-1.46 -0.53,-2.7 -1.59,-3.71 -2.04,-1.93 -5.41,-1.85 -7.33,0.08z"/>
   <path class="fil0" d="M935.09 928.1c0,3.32 -0.71,6.3 -2.13,8.87l0 0.01c-1.39,2.54 -3.32,4.56 -5.74,5.96 -2.43,1.44 -5.13,2.15 -8.24,2.15 -3.14,0 -5.83,-0.71 -8.26,-2.17 -2.4,-1.39 -4.32,-3.4 -5.72,-5.96 -1.41,-2.56 -2.12,-5.54 -2.12,-8.87 0,-3.32 0.71,-6.31 2.12,-8.88 1.42,-2.56 3.33,-4.56 5.74,-5.96 2.41,-1.44 5.18,-2.17 8.25,-2.17 3.1,0 5.79,0.71 8.25,2.18 2.39,1.39 4.32,3.39 5.72,5.93 1.42,2.58 2.13,5.58 2.13,8.89zm-3.91 -21.17c-7.24,-4.15 -17.17,-4.15 -24.4,0 -3.61,2.06 -6.5,4.99 -8.61,8.71 -2.06,3.68 -3.1,7.88 -3.1,12.46 0,4.58 1.04,8.79 3.11,12.48 2.08,3.7 4.97,6.63 8.6,8.7 3.63,2.08 7.72,3.12 12.21,3.12 4.47,0 8.57,-1.04 12.19,-3.12 3.63,-2.07 6.52,-5 8.6,-8.71 2.07,-3.7 3.11,-7.89 3.11,-12.47 0,-4.57 -1.04,-8.76 -3.11,-12.47 -2.1,-3.71 -4.98,-6.64 -8.6,-8.7z"/>
   <path class="fil0" d="M975.98 903.81c-4.43,0 -8.33,0.96 -11.61,2.87 -1.59,0.92 -3.01,2.04 -4.24,3.3l0 -4.11c0,-0.96 -0.78,-1.74 -1.74,-1.74l-4.08 0c-0.94,0 -1.74,0.78 -1.74,1.74l0 44.46c0,0.96 0.79,1.74 1.74,1.74l4.26 0c0.94,0 1.74,-0.78 1.74,-1.74l0 -23.67c0,-4.79 1.35,-8.64 4.02,-11.4 2.68,-2.81 6.3,-4.17 11.07,-4.17 4.06,0 7.11,1.11 9.32,3.4 2.2,2.26 3.31,5.69 3.31,10.19l0 25.64c0,0.96 0.78,1.74 1.74,1.74l4.24 0c0.96,0 1.74,-0.78 1.74,-1.74l0 -25.99c0,-6.53 -1.81,-11.63 -5.35,-15.17 -3.56,-3.57 -8.39,-5.37 -14.41,-5.37z"/>
   <path class="fil0" d="M1033.17 926.83c0,0 0,0 -0.02,-0.01 -2.17,-0.71 -4.98,-1.39 -8.57,-2.02 -3.14,-0.65 -5.46,-1.21 -7.1,-1.74 -1.47,-0.46 -2.68,-1.14 -3.71,-2.07 -0.82,-0.79 -1.22,-1.89 -1.22,-3.38 0,-1.96 0.76,-3.41 2.43,-4.64 1.78,-1.3 4.57,-1.97 8.32,-1.97 2.26,0 4.5,0.33 6.65,0.97 2.11,0.63 4.03,1.53 5.67,2.71 0.4,0.29 0.9,0.4 1.37,0.28 0.49,-0.1 0.91,-0.41 1.14,-0.82l1.96 -3.4c0.44,-0.78 0.24,-1.74 -0.47,-2.26 -1.93,-1.44 -4.35,-2.56 -7.35,-3.42 -2.9,-0.85 -5.89,-1.26 -8.89,-1.26 -5.75,0 -10.29,1.29 -13.53,3.82 -3.33,2.64 -5.03,6.03 -5.03,10.1 0,3.35 0.93,6.03 2.76,7.99 1.75,1.89 3.85,3.24 6.21,4.03 2.25,0.78 5.11,1.46 8.75,2.11 2.87,0.54 5.19,1.07 6.87,1.57 1.42,0.43 2.64,1.11 3.61,1.98 0.81,0.78 1.19,1.78 1.19,3.18 0,2.01 -0.8,3.56 -2.44,4.69 -1.82,1.26 -4.82,1.91 -8.92,1.91 -2.89,0 -5.71,-0.49 -8.38,-1.42 -2.65,-0.97 -4.83,-2.17 -6.47,-3.54 -0.39,-0.33 -0.96,-0.47 -1.41,-0.37 -0.52,0.08 -0.94,0.39 -1.21,0.83l-1.96 3.41c-0.4,0.71 -0.26,1.6 0.33,2.15 1.97,1.79 4.74,3.29 8.19,4.44 3.41,1.14 7.02,1.71 10.74,1.71 5.89,0 10.59,-1.24 13.93,-3.65 3.53,-2.54 5.3,-6 5.3,-10.25 0,-3.24 -0.9,-5.83 -2.68,-7.75 -1.67,-1.8 -3.72,-3.11 -6.09,-3.92z"/>
   <path class="fil1" d="M407.72 674.93l-1.23 0c-4.83,0.03 -9.6,0.31 -14.31,0.75 -4.97,0.49 -9.86,1.22 -14.69,2.14 -5.02,0.96 -9.92,2.17 -14.75,3.59 -5.06,1.48 -10.01,3.21 -14.86,5.17 -5.09,2.08 -10.09,4.37 -14.91,6.96 -49.86,26.65 -83.82,79.25 -83.82,139.82 0,60.57 33.97,113.18 83.83,139.82 4.83,2.57 9.83,4.86 14.93,6.93 4.83,1.96 9.8,3.69 14.83,5.18 4.85,1.4 9.75,2.61 14.75,3.57 4.83,0.92 9.74,1.67 14.69,2.13 4.94,0.47 9.96,0.76 15.03,0.76 0.02,0 0.03,0 0.06,0 4.99,0 9.92,-0.3 14.79,-0.75 5.06,-0.47 10.07,-1.18 14.99,-2.13 4.93,-0.93 9.79,-2.1 14.56,-3.48 4.69,-1.39 9.28,-3 13.76,-4.8 4.76,-1.89 9.4,-3.98 13.92,-6.3 4.72,-2.43 9.32,-5.07 13.76,-7.94 4.47,-2.92 8.78,-6.06 12.92,-9.4 5.17,-4.14 10.07,-8.61 14.67,-13.36 3.85,-3.97 7.51,-8.14 10.93,-12.5l-0.26 -0.21 -1.21 -0.94 -1.19 -0.96 -1.19 -0.94 -1.21 -0.96 -1.2 -0.94 -1.21 -0.94 -1.19 -0.96 -1.19 -0.94 -1.21 -0.96 -1.2 -0.94 -1.21 -0.96 -1.19 -0.96 -1.19 -0.94 -1.21 -0.94 -1.2 -0.96 -1.21 -0.94 -1.19 -0.96 -1.19 -0.94 -1.22 -0.94 -1.19 -0.96 -1.2 -0.94 -1.21 -0.96 -1.19 -0.94 -1.21 -0.96 -1.19 -0.94 -1.2 -0.96 -1.21 -0.96 -1.19 -0.94 -1.21 -0.94 -1.19 -0.96 -1.2 -0.94 -1.21 -0.96 -1.19 -0.94 -1.21 -0.94 -1.19 -0.96 -1.2 -0.94 -1.21 -0.96 -1.19 -0.94 -1.21 -0.94 -1.19 -0.97 -1.21 -0.94 -1.22 -0.96 -1.21 -0.97 -1.2 -0.96 -1.22 -0.96 -1.21 -0.97 -1.21 -0.96 -1.21 -0.94 -1.22 -0.97 -1.21 -0.96 -1.22 -0.96 -0.42 -0.35c-0.93,1.21 -1.99,2.29 -2.99,3.43 -1.9,2.18 -3.9,4.24 -6.01,6.2 -2.03,1.85 -4.13,3.6 -6.33,5.25 -2.08,1.54 -4.22,3 -6.44,4.33 -2.08,1.25 -4.18,2.44 -6.39,3.52 -2.14,1.04 -4.33,2 -6.58,2.83 -2.33,0.87 -4.75,1.58 -7.18,2.24 -2.4,0.64 -4.85,1.14 -7.32,1.56 -2.43,0.41 -4.87,0.68 -7.36,0.88 -1.89,0.14 -3.76,0.32 -5.69,0.32 -0.5,0 -1,-0.06 -1.51,-0.07 -2.54,-0.06 -5.07,-0.19 -7.54,-0.47 -2.6,-0.3 -5.17,-0.74 -7.68,-1.26 -2.68,-0.6 -5.3,-1.32 -7.87,-2.15 -2.74,-0.9 -5.39,-1.97 -8,-3.15 -2.78,-1.28 -5.46,-2.7 -8.06,-4.28 -2.79,-1.68 -5.46,-3.52 -8,-5.5 -2.91,-2.28 -5.65,-4.76 -8.21,-7.43 -3.22,-3.35 -6.17,-6.96 -8.76,-10.83 -3.61,-5.39 -6.52,-11.31 -8.72,-17.54 -2.93,-8.28 -4.61,-17.14 -4.61,-26.42 0,-9.28 1.68,-18.14 4.61,-26.4 2.2,-6.24 5.1,-12.14 8.71,-17.56 2.58,-3.87 5.54,-7.47 8.75,-10.83 2.56,-2.67 5.3,-5.14 8.22,-7.43 2.54,-2 5.21,-3.83 7.99,-5.5 2.59,-1.58 5.28,-3.01 8.07,-4.28 2.6,-1.18 5.25,-2.26 8,-3.17 2.56,-0.83 5.17,-1.56 7.86,-2.14 2.52,-0.56 5.07,-0.97 7.67,-1.26 2.49,-0.29 5,-0.44 7.54,-0.49 0.53,-0.01 1.04,-0.08 1.56,-0.08 2.07,0 4.08,0.15 6.11,0.26 3.03,0.17 6,0.44 8.93,0.83 3.92,0.53 7.72,1.25 11.42,2.17 4.97,1.25 9.69,2.87 14.15,4.83 5.65,2.48 10.81,5.53 15.36,9.08 3.36,2.63 6.49,5.43 9.1,8.6l-0.26 0.11 -1.52 0.69 -1.51 0.68 -1.52 0.7 -1.51 0.69 -1.53 0.69 -1.59 0.72 -1.59 0.72 -1.58 0.71 -1.59 0.72 -1.59 0.74 -1.59 0.71 -1.64 0.75 -1.68 0.76 -1.69 0.76 -1.87 0.85 -1.74 0.81 -1.74 0.78 -1.74 0.8 -1.74 0.79 -1.89 0.86 -2.1 0.94 -2.08 0.96 -2.08 0.93 -2.1 0.96 -2.76 1.25 -2.75 1.25 -3.47 1.59 -5 2.26 -2.2 1.01 2.53 0.49 4.41 0.86 13.99 2.72 4.35 0.85 3.14 0.6 2.82 0.56 2.35 0.46 2.36 0.47 2.35 0.44 1.93 0.37 1.94 0.39 1.93 0.37 1.93 0.38 1.93 0.37 1.94 0.37 1.74 0.33 1.68 0.33 1.71 0.33 1.9 0.37 1.75 0.33 1.68 0.32 1.67 0.33 1.67 0.32 1.65 0.33 1.65 0.32 1.67 0.32 1.65 0.32 1.67 0.32 1.61 0.32 1.6 0.31 1.58 0.32 1.58 0.31 1.6 0.3 1.6 0.31 1.58 0.32 1.59 0.31 1.59 0.3 0.17 0.04 -0.15 0.06 -1.46 0.56 -1.46 0.54 -1.46 0.56 -1.46 0.57 -1.46 0.54 -1.47 0.56 -1.5 0.57 -1.5 0.57 -1.48 0.57 -1.5 0.57 -1.52 0.57 -1.5 0.56 -1.5 0.59 -1.5 0.56 -1.5 0.58 -1.5 0.56 -1.5 0.58 -1.48 0.56 -1.59 0.6 -1.58 0.61 -1.59 0.6 -1.59 0.6 -1.58 0.59 -1.58 0.6 -1.6 0.61 -1.58 0.61 -1.58 0.6 -1.6 0.6 -1.58 0.59 -1.74 0.67 -1.82 0.68 -1.79 0.68 -1.81 0.7 -1.8 0.68 -2.1 0.79 -2.18 0.82 -2.32 0.89 -2.87 1.08 -3.99 1.5 -8.37 3.18 -4.11 1.57 -2.93 1.11 -2.32 0.87 -2.3 0.87 -1.89 0.72 -1.89 0.7 -1.87 0.71 -1.87 0.72 -1.67 0.63 -1.64 0.61 -1.63 0.63 -1.64 0.62 -1.64 0.61 -1.64 0.62 -1.64 0.63 -1.64 0.63 -1.54 0.57 -1.5 0.57 -1.5 0.57 -1.5 0.58 -1.65 0.63 -1.54 0.57 -1.54 0.58 -1.53 0.59 -1.48 0.56 -1.49 0.58 -1.48 0.56 -1.49 0.57 -1.48 0.56 -1.48 0.57 -1.03 0.39 1.13 -0.26 1.61 -0.39 1.63 -0.39 1.63 -0.38 1.63 -0.39 1.69 -0.41 1.69 -0.4 1.7 -0.4 1.71 -0.39 1.69 -0.42 1.71 -0.4 1.85 -0.43 1.86 -0.44 1.85 -0.43 1.86 -0.44 1.86 -0.43 1.86 -0.46 1.86 -0.43 2.13 -0.5 2.24 -0.53 2.22 -0.53 2.22 -0.53 2.79 -0.65 2.92 -0.69 3.76 -0.91 6.37 -1.5 6.11 -1.44 6.28 -1.49 3.35 -0.79 3.13 -0.74 2.46 -0.58 2.44 -0.58 2.4 -0.56 1.97 -0.47 1.99 -0.47 1.98 -0.47 1.99 -0.46 2 -0.47 1.83 -0.44 1.72 -0.4 1.71 -0.4 1.74 -0.4 1.98 -0.47 1.68 -0.41 1.68 -0.4 1.67 -0.4 1.68 -0.39 1.68 -0.39 1.68 -0.4 1.68 -0.39 1.59 -0.39 1.6 -0.37 1.6 -0.37 1.59 -0.39 1.61 -0.37 1.59 -0.38 1.61 -0.37 1.6 -0.39 1.6 -0.37 1.61 -0.37 1.6 -0.39 1.56 -0.36 1.56 -0.37 1.54 -0.36 1.54 -0.36 1.56 -0.36 1.53 -0.37 1.56 -0.36 1.56 -0.36 1.54 -0.36 1.54 -0.38 1.56 -0.36 1.54 -0.38 1.56 -0.36 1.53 -0.38 1.56 -0.36 1.56 -0.36 1.53 -0.36 1.56 -0.37 1.56 -0.36 1.54 -0.36 1.54 -0.36 1.56 -0.37 1.5 -0.35 1.52 -0.37 1.51 -0.36 1.52 -0.35 1.51 -0.36 1.5 -0.35 1.52 -0.36 1.52 -0.36 1.51 -0.36 1.52 -0.36 1.5 -0.35 1.5 -0.36 1.51 -0.35 1.52 -0.36 1.51 -0.35 1.5 -0.37 1.52 -0.36 1.51 -0.35 1.52 -0.36 1.51 -0.35 1.5 -0.36 1.52 -0.36 1.51 -0.36 1.5 -0.36 1.52 -0.35 1.51 -0.36 1.5 -0.35 1.52 -0.36 1.51 -0.35 1.52 -0.37 1.52 -0.36 1.5 -0.35 1.51 -0.36 1.52 -0.35 1.51 -0.36 1.5 -0.36 8.74 -2.07 -8.92 -1.48 -1.54 -0.25 -1.54 -0.26 -1.6 -0.26 -1.58 -0.26 -1.57 -0.26 -1.6 -0.26 -1.58 -0.26 -1.58 -0.26 -1.59 -0.26 -1.58 -0.26 -1.58 -0.26 -1.6 -0.28 -1.57 -0.26 -1.58 -0.25 -1.59 -0.26 -1.59 -0.26 -1.57 -0.26 -1.6 -0.26 -1.58 -0.28 -1.58 -0.26 -1.58 -0.26 -1.58 -0.26 -1.58 -0.26 -1.59 -0.25 -1.58 -0.28 -1.58 -0.26 -1.58 -0.26 -1.58 -0.26 -1.58 -0.26 -1.59 -0.26 -1.64 -0.28 -1.64 -0.26 -1.65 -0.28 -1.65 -0.28 -1.65 -0.28 -1.64 -0.26 -1.64 -0.28 -1.65 -0.28 -1.65 -0.28 -1.64 -0.28 -1.65 -0.26 -1.64 -0.28 -1.65 -0.28 -1.64 -0.28 -1.65 -0.28 -1.65 -0.26 -1.72 -0.29 -1.74 -0.29 -1.72 -0.31 -1.74 -0.28 -1.74 -0.29 -1.74 -0.29 -1.72 -0.28 -1.74 -0.29 -1.72 -0.29 -1.74 -0.28 -1.85 -0.32 -1.35 -0.22 0.94 -0.63 1.28 -0.86 1.29 -0.86 1.28 -0.86 1.29 -0.86 1.28 -0.85 1.28 -0.86 1.3 -0.86 1.28 -0.85 1.28 -0.86 1.28 -0.85 1.29 -0.87 1.29 -0.86 1.26 -0.85 1.29 -0.86 1.28 -0.85 1.29 -0.86 1.28 -0.86 1.28 -0.86 1.29 -0.86 1.28 -0.85 1.28 -0.86 1.28 -0.86 1.29 -0.85 1.28 -0.86 1.28 -0.86 1.29 -0.86 1.28 -0.86 1.28 -0.85 1.29 -0.86 1.28 -0.85 1.29 -0.86 1.26 -0.87 1.29 -0.85 1.29 -0.86 1.28 -0.85 1.28 -0.86 1.28 -0.85 1.29 -0.86 1.29 -0.86 1.26 -0.86 1.29 -0.86 0.93 -0.61 0.06 -0.03c0,-0.01 0,-0.01 0,-0.01 -0.79,-1.65 -1.7,-3.25 -2.54,-4.87 -3.93,-7.5 -8.4,-14.64 -13.43,-21.38 -4.13,-5.53 -8.61,-10.76 -13.43,-15.71 -4.58,-4.72 -9.47,-9.14 -14.61,-13.26 -4.07,-3.26 -8.26,-6.37 -12.65,-9.22 -4.5,-2.93 -9.22,-5.58 -14.03,-8.06 -4.44,-2.26 -8.98,-4.36 -13.65,-6.22 -4.48,-1.78 -9.07,-3.4 -13.73,-4.78 -4.91,-1.43 -9.92,-2.57 -14.99,-3.52 -4.85,-0.93 -9.75,-1.62 -14.74,-2.09 -4.7,-0.43 -9.43,-0.74 -14.22,-0.76z"/>
  </g>
 </g>
</svg>
