<?xml version="1.0" encoding="UTF-8"?>
<!DOCTYPE svg PUBLIC "-//W3C//DTD SVG 1.1//EN" "http://www.w3.org/Graphics/SVG/1.1/DTD/svg11.dtd">
<!-- Creator: CorelDRAW -->
<svg xmlns="http://www.w3.org/2000/svg" xml:space="preserve" width="1.66666in" height="1.66666in" version="1.1" style="shape-rendering:geometricPrecision; text-rendering:geometricPrecision; image-rendering:optimizeQuality; fill-rule:evenodd; clip-rule:evenodd"
viewBox="0 0 1666.66 1666.66"
 xmlns:xlink="http://www.w3.org/1999/xlink"
 xmlns:xodm="http://www.corel.com/coreldraw/odm/2003">
 <defs>
  <style type="text/css">
   <![CDATA[
    .fil0 {fill:#201E1E;fill-rule:nonzero}
   ]]>
  </style>
 </defs>
 <g id="Layer_x0020_1">
  <metadata id="CorelCorpID_0Corel-Layer"/>
  <g id="_2108447898944">
   <path class="fil0" d="M500.98 1005.29l-1.25 -13.32c2.42,-2.56 4.42,-5.68 5.63,-9.21l2.19 19.21 -6.57 3.32zm-14.4 -11.36l0 -14.41 14 0c-1.56,6.9 -7.65,12.46 -14,14.41zm-4.43 20.88l-1.43 -16.06c2.5,0.17 4.89,0.21 7.09,-0.08 0.07,-0.01 0.15,-0.04 0.24,-0.06l1.09 12.67 -6.98 3.53zm-14.6 -21.07l0 -14.22 17.56 0 0 14.8c-0.54,0.11 -1.08,0.24 -1.63,0.29 -4.53,0.52 -9.67,-0.06 -15.93,-0.87zm-1.47 -15.71l-17.57 0 0 -11.47c4.21,-1.18 10.64,-3.65 17.57,-5.53l0 17zm0 15.52c-5.03,-0.67 -10.78,-1.42 -17.57,-1.93l0 -12.09 17.57 0 0 14.03zm-26.01 42.53l-0.99 -41.85c2.64,0.07 5.07,0.22 7.47,0.39l1.96 37.18 -8.44 4.28zm-10.59 -44.92l0 2.18 -0.57 0 0 -25.61 0.57 0 0 1.31c2.88,-0.14 9.35,-0.57 16.86,-1.94 0.21,-0.04 0.49,-0.13 0.71,-0.17l0 11.11 -17.57 0 0 1.49 17.57 0 0 11.97c-5.21,-0.35 -11.07,-0.48 -17.57,-0.33zm14.6 -43.31l0.87 16.52c-2.35,0.44 -4.54,0.79 -6.56,1.06l-0.35 -14.83 6.03 -2.74zm23.47 12.81c5.92,-1.52 12.11,-2.47 17.56,-1.75l0 19.13 -17.56 0 0 -17.37zm19.03 -1.47c3.82,0.76 7.25,2.4 9.82,5.46 3.82,4.56 4.97,9.18 4.43,13.39l-14.25 0 0 -18.85zm-59.14 18.85l-17.56 0 0 -11.11c0.22,0.04 0.48,0.13 0.69,0.17 7.53,1.37 14,1.81 16.86,1.94l0 9zm0 13.13c-6.49,-0.15 -12.36,-0.02 -17.56,0.33l0 -11.97 17.56 0 0 11.64zm-19.03 -13.13l-17.57 0 0 -17c6.94,1.87 13.36,4.35 17.57,5.53l0 11.47zm0 13.58c-6.78,0.52 -12.53,1.26 -17.57,1.93l0 -14.03 17.57 0 0 12.09zm-19.03 -13.58l-17.57 0 0 -19.13c5.46,-0.72 11.65,0.24 17.57,1.75l0 17.37zm0 15.71c-6.26,0.82 -11.42,1.39 -15.94,0.87 -0.54,-0.06 -1.08,-0.18 -1.63,-0.29l0 -14.8 17.57 0 0 14.22zm-14.6 21.07l-7 -3.53 1.1 -12.67c0.08,0.02 0.17,0.04 0.25,0.06 2.18,0.29 4.56,0.25 7.06,0.08l-1.4 16.06zm-18.43 -35.29l14 0 0 14.41c-6.36,-1.96 -12.44,-7.51 -14,-14.41zm4.18 -14.88c2.57,-3.06 5.98,-4.69 9.82,-5.46l0 18.85 -14.26 0c-0.53,-4.21 0.62,-8.83 4.44,-13.39zm52.3 -16.79l6.03 2.74 -0.35 14.83c-2.02,-0.26 -4.21,-0.61 -6.56,-1.06l0.87 -16.52zm104.97 -33.76l10.33 77.49 -7.65 3.86 -9.46 -78.28 -12.52 5.64 4.58 40.18c-0.44,-0.76 -0.87,-1.52 -1.4,-2.26 -1.54,-2.15 -3.36,-3.75 -5.37,-4.93l-2.88 -30.7 -11.37 5.14 2 22.96c-2.39,0.1 -4.83,0.4 -7.3,0.92l-1.81 -20.35 -12.53 5.57 1.85 18.44c-1.96,0.71 -3.86,1.43 -5.63,2.13l-1.62 -17.94 2.76 -1.44 -30.75 13.68 -1.07 0.46 -0.09 0.04 0 0 0 0 0 0 -28.03 -12.75 0.03 0.02 -1.63 17.94c-1.76,-0.7 -3.67,-1.42 -5.61,-2.13l1.82 -18.29 -12.6 -5.74 -1.78 20.35c-2.46,-0.5 -4.89,-0.82 -7.28,-0.9l2.02 -23.14 -11.53 -5.18 -2.83 31.01c-1.96,1.17 -3.74,2.72 -5.25,4.83 -0.58,0.83 -1.06,1.67 -1.54,2.48l4.51 -40.62 -12.43 -5.59 -9.33 78.44 -0.24 -0.12c5.7,2.87 11.49,5.8 17.28,8.74l-4.1 -2.07 2.15 -19.35c1.21,3.57 3.21,6.74 5.64,9.32l-1.22 13.35c10.51,5.31 20.92,10.57 30.42,15.36l2.35 -23.46c1.98,-0.32 4.07,-0.61 6.28,-0.93l-2.48 27.48 -3.11 -1.57c8.93,4.51 16.92,8.56 23.33,11.79l-4.3 -2.18 1.96 -37.18c2.41,-0.17 4.85,-0.32 7.47,-0.39l-0.97 41.85c7.2,3.64 11.6,5.86 11.6,5.86 0,0 17.44,-8.82 40.57,-20.5l-4.61 2.32 -2.48 -27.48c2.21,0.32 4.3,0.61 6.28,0.93l2.35 23.46c20.11,-10.15 44.24,-22.33 64.97,-32.81l-8.93 -77.74 -8.79 3.97z"/>
   <path class="fil0" d="M330.2 909.98l-8.81 77.86c2.42,1.22 4.87,2.46 7.37,3.72l10.26 -77.61 -8.83 -3.97z"/>
   <path class="fil0" d="M360.62 721.39c0,0 -9.97,-23.31 -29.32,-12.75 -18.86,10.28 -4.41,30.06 -4.41,30.06l33.72 -17.3z"/>
   <path class="fil0" d="M356.58 799.06c-7.68,0 -13.92,-6.06 -13.92,-13.53 0,-7.46 6.24,-13.51 13.92,-13.51 7.68,0 13.91,6.06 13.91,13.51 0,7.47 -6.22,13.53 -13.91,13.53zm11.42 -27.96l4.63 -7.78 -4.28 -2.41 -4.62 7.78c-1.47,-0.6 -3.04,-1.02 -4.68,-1.21l0 -9 -4.93 0 0 9c-1.65,0.19 -3.22,0.63 -4.69,1.21l-4.63 -7.78 -4.28 2.41 4.62 7.79c-1.28,0.96 -2.41,2.07 -3.4,3.32l-8.04 -4.52 -2.47 4.17 8.04 4.5c-0.63,1.44 -1.06,2.98 -1.26,4.58l-9.24 0 0 4.8 9.25 0c0.22,1.59 0.65,3.1 1.25,4.54l-8.01 4.5 2.47 4.15 8.03 -4.5c0.98,1.25 2.12,2.35 3.4,3.3l-4.61 7.78 4.26 2.4 4.62 -7.78c1.47,0.59 3.04,1.01 4.68,1.21l0 8.98 4.93 0 0 -8.98c1.64,-0.2 3.19,-0.61 4.67,-1.2l4.63 7.76 4.28 -2.4 -4.62 -7.78c1.29,-0.96 2.44,-2.08 3.44,-3.33l7.97 4.47 2.46 -4.15 -7.96 -4.47c0.6,-1.42 1.03,-2.93 1.24,-4.52l9.25 0 0 -4.8 -9.24 0c-0.21,-1.58 -0.64,-3.13 -1.24,-4.56l7.98 -4.49 -2.47 -4.15 -7.98 4.47c-1,-1.25 -2.15,-2.37 -3.44,-3.35z"/>
   <path class="fil0" d="M506.35 659.17c0.03,-0.01 0.06,-0.03 0.08,-0.04 -0.5,-0.06 -1.04,-0.03 -1.56,-0.07 -4.56,-0.33 -9.18,-0.56 -13.91,-0.56l0 0c-8.67,0 -16.22,0.02 -22.97,0.02 -12.61,0 -21.97,0 -28.47,0 -5.43,-0.02 -8.86,-0.02 -10.49,-0.02l0 0 0 0c0,0 -0.24,0 -0.57,0 -0.35,0 -0.57,0 -0.59,0l0 0 0 0c-1.62,0 -5.06,0 -10.47,0.02 -6.5,0 -15.86,0 -28.47,0 -6.75,0 -14.3,-0.02 -22.97,-0.02l-0.02 0c-4.74,0 -9.36,0.22 -13.92,0.56 -0.51,0.04 -1.04,0.03 -1.54,0.07 0.03,0.01 0.06,0.03 0.08,0.04 -1.43,0.11 -2.86,0.22 -4.26,0.38 7.87,-7.21 17.06,-13.15 27.51,-17.57 15.74,-6.63 34.28,-10.02 55.15,-10.04l0.24 0c20.67,0 38.9,3.7 54.21,10.97 8.89,4.24 16.82,9.72 23.71,16.32 -0.25,-0.01 -0.52,-0.03 -0.78,-0.06zm-210.07 235.63l5.65 2.57 -14.29 73.43 -6.09 -3.08 14.74 -72.92zm330.01 -5.67c-0.01,-0.47 -0.03,-1.08 -0.04,-1.72 -0.14,-4.57 -0.43,-12.97 -0.91,-23.79 -0.01,0 -0.01,0 -0.01,-0.01 -0.11,-2.61 -0.25,-5.39 -0.39,-8.26 0,0 0,0 0,0 0,-0.2 -0.02,-0.39 -0.03,-0.58 -0.14,-3.04 -0.31,-6.18 -0.49,-9.44 0,-0.07 0,-0.14 0,-0.21 -0.17,-3.08 -0.36,-6.31 -0.54,-9.56 -0.06,-0.81 -0.1,-1.63 -0.15,-2.44 -0.19,-3.14 -0.39,-6.32 -0.61,-9.56 -0.06,-0.82 -0.11,-1.64 -0.17,-2.47 -0.17,-2.47 -0.35,-4.97 -0.53,-7.49 -0.06,-0.79 -0.11,-1.57 -0.17,-2.36 0,-0.01 -0.01,-0.01 -0.01,-0.01 -0.17,-2.28 -0.35,-4.57 -0.53,-6.86 0,0.02 0,0.02 0,0.02 -0.02,-0.14 -0.03,-0.25 -0.04,-0.39 -0.67,-8.32 -1.43,-16.67 -2.29,-24.69 -0.02,-0.06 -0.02,-0.11 -0.03,-0.17 0,-0.01 0,-0.01 0,-0.01 -0.31,-2.92 -0.64,-5.76 -0.99,-8.58 0,0 0.02,0 0.02,0 -0.1,-0.82 -0.21,-1.61 -0.31,-2.43 -0.12,-1.03 -0.26,-2.07 -0.39,-3.09 -0.17,-1.21 -0.33,-2.39 -0.49,-3.57 -0.14,-1.02 -0.28,-2.03 -0.43,-3.02 -0.17,-1.15 -0.33,-2.26 -0.5,-3.39 -0.15,-0.97 -0.31,-1.94 -0.46,-2.89 -0.18,-1.06 -0.35,-2.08 -0.53,-3.11 -0.17,-0.96 -0.33,-1.92 -0.5,-2.85 -0.18,-0.94 -0.36,-1.86 -0.54,-2.78 -0.18,-0.93 -0.36,-1.85 -0.54,-2.74 -0.18,-0.85 -0.37,-1.68 -0.56,-2.5 -0.19,-0.86 -0.39,-1.72 -0.6,-2.54 -0.18,-0.78 -0.37,-1.51 -0.57,-2.24 -0.21,-0.79 -0.42,-1.56 -0.63,-2.29 -0.2,-0.68 -0.4,-1.32 -0.6,-1.96 -0.22,-0.7 -0.44,-1.39 -0.68,-2.03 -0.08,-0.25 -0.17,-0.56 -0.26,-0.79 0,-0.02 -0.03,-0.02 -0.04,-0.03 -0.67,-1.81 -1.36,-3.46 -2.08,-4.75 -0.64,-1.17 -1.36,-2.25 -2.03,-3.39 0.03,0.02 0.07,0.03 0.1,0.03 -0.35,-0.58 -0.75,-1.11 -1.1,-1.69 -1.22,-1.97 -2.47,-3.89 -3.76,-5.75 -0.65,-0.96 -1.3,-1.91 -1.98,-2.85 -1.46,-2 -2.99,-3.93 -4.54,-5.8 -0.54,-0.64 -1.06,-1.32 -1.59,-1.94 -2.13,-2.46 -4.32,-4.81 -6.61,-7.04 -0.43,-0.43 -0.9,-0.82 -1.36,-1.25 -1.86,-1.76 -3.76,-3.46 -5.72,-5.08 -0.28,-0.22 -0.53,-0.49 -0.8,-0.71 -0.06,-0.02 -0.11,-0.03 -0.17,-0.04 -3.3,-2.67 -6.74,-5.15 -10.29,-7.42 0.02,0 0.06,-0.01 0.07,-0.01 -0.15,-0.1 -0.32,-0.17 -0.47,-0.26 -3.29,-2.07 -6.72,-3.94 -10.22,-5.68 -0.8,-0.39 -1.59,-0.76 -2.38,-1.14 -3.59,-1.68 -7.28,-3.25 -11.08,-4.6 -0.29,-0.11 -0.6,-0.2 -0.89,-0.29 -3.62,-1.26 -7.36,-2.33 -11.17,-3.29 -0.83,-0.21 -1.65,-0.44 -2.5,-0.64 -3.54,-0.82 -7.13,-1.56 -10.81,-2.12 -15.8,-18.25 -42.89,-35.81 -89.17,-35.81l-0.25 0c-50.33,0.07 -78.86,18.69 -94.75,36.6 -2.18,0.42 -4.35,0.85 -6.48,1.33 -0.83,0.2 -1.67,0.43 -2.5,0.64 -3.81,0.96 -7.54,2.03 -11.17,3.29 -0.29,0.09 -0.59,0.18 -0.89,0.28 -3.8,1.36 -7.48,2.93 -11.09,4.63 -0.78,0.36 -1.56,0.74 -2.33,1.11 -3.53,1.75 -6.97,3.64 -10.28,5.72 -0.14,0.08 -0.3,0.15 -0.43,0.24 0.02,0 0.04,0.01 0.07,0.01 -3.57,2.26 -7,4.75 -10.31,7.42 -0.04,0.02 -0.11,0.03 -0.17,0.04 -0.28,0.22 -0.53,0.48 -0.79,0.71 -1.97,1.62 -3.87,3.33 -5.75,5.09 -0.44,0.42 -0.9,0.81 -1.35,1.24 -2.28,2.24 -4.48,4.58 -6.61,7.04 -0.54,0.63 -1.04,1.29 -1.57,1.93 -1.57,1.89 -3.09,3.81 -4.57,5.82 -0.68,0.93 -1.33,1.89 -1.99,2.85 -1.29,1.86 -2.54,3.78 -3.75,5.74 -0.36,0.6 -0.75,1.11 -1.11,1.71 0.03,0 0.09,-0.01 0.11,-0.03 -0.68,1.14 -1.39,2.22 -2.04,3.39 -0.72,1.29 -1.42,2.94 -2.08,4.75 -0.02,0.01 -0.03,0.01 -0.04,0.03 -0.09,0.25 -0.18,0.56 -0.26,0.8 -0.22,0.64 -0.44,1.31 -0.67,1.99 -0.19,0.65 -0.4,1.3 -0.61,2 -0.21,0.72 -0.41,1.47 -0.61,2.25 -0.19,0.74 -0.39,1.5 -0.58,2.29 -0.19,0.79 -0.39,1.63 -0.58,2.47 -0.19,0.85 -0.37,1.7 -0.57,2.58 -0.18,0.85 -0.35,1.74 -0.53,2.64 -0.18,0.94 -0.37,1.89 -0.56,2.87 -0.17,0.89 -0.32,1.81 -0.48,2.74 -0.18,1.06 -0.36,2.13 -0.54,3.24 -0.14,0.9 -0.29,1.82 -0.43,2.75 -0.18,1.17 -0.36,2.32 -0.53,3.53 -0.14,0.93 -0.28,1.89 -0.4,2.85 -0.17,1.24 -0.35,2.48 -0.52,3.75 -0.13,0.96 -0.24,1.93 -0.36,2.89 -0.11,0.86 -0.22,1.71 -0.33,2.57 0.01,0 0.01,0 0.01,0 -0.33,2.8 -0.67,5.67 -0.98,8.58 0,0 0,0 0,0.01 0,0.06 -0.02,0.13 -0.02,0.2 -0.86,8.03 -1.63,16.35 -2.3,24.67 -0.02,0.13 -0.03,0.25 -0.03,0.39 0,0 0,0 0,-0.02 -0.18,2.29 -0.36,4.58 -0.54,6.86 0,0 0,0 0,0.01 -0.07,0.83 -0.13,1.67 -0.18,2.5 -0.18,2.46 -0.36,4.89 -0.51,7.31 -0.07,0.85 -0.13,1.68 -0.18,2.53 -0.21,3.24 -0.42,6.42 -0.61,9.56 -0.04,0.82 -0.09,1.63 -0.14,2.43 -0.19,3.25 -0.37,6.47 -0.54,9.56 -0.02,0.07 -0.02,0.14 -0.02,0.21 -0.18,3.26 -0.33,6.4 -0.48,9.44 -0.02,0.19 -0.02,0.39 -0.03,0.58 0,0 0,0 0,0 -0.14,2.87 -0.26,5.65 -0.39,8.26 0,0.01 0,0.01 0,0.01 -0.49,10.82 -0.76,19.22 -0.91,23.79 -0.03,0.64 -0.04,1.25 -0.06,1.72 0,0.04 0,0.11 0,0.15 -0.04,1.25 -0.06,1.96 -0.06,1.96l0 0 0.78 0 56.3 -0.39 -13.54 73.11c0.37,0.18 18.15,9.17 41.5,20.96l-0.32 -0.17 9.56 -77.18 -8.78 -3.94 -11.92 75.47 -5.98 -3 11.87 -75.18 -22.39 -10.07 0 0 0 0 4.2 -19.75 1.86 -8.75 5.9 -27.76 1.96 -9.17 6.08 -28.65 2.04 -9.57 5.35 -25.15 2.06 -9.67 2.03 -9.54 0 0c-0.01,-0.03 -14.68,-20.18 -3.09,-35.38 2.04,-2.69 4.86,-5.22 8.78,-7.46 0.24,-0.14 0.42,-0.29 0.67,-0.43 17.74,-9.64 29.98,0.35 36.59,8.94 1.2,1.57 2.24,3.09 3.06,4.44 1.78,2.89 2.67,4.96 2.68,4.97l22.28 -0.01 9.37 -0.02 28.43 -0.01 0 0 0 0 29.6 0.01 9.37 0.02 22.28 0.01c0,-0.01 0.9,-2.08 2.67,-4.97 0.83,-1.35 1.86,-2.87 3.07,-4.44 6.6,-8.6 18.85,-18.59 36.58,-8.94 0.25,0.14 0.43,0.29 0.68,0.43 3.9,2.24 6.72,4.76 8.78,7.46 11.59,15.21 -3.09,35.38 -3.09,35.38l-0.02 0 2.04 9.56 2.06 9.65 5.35 25.15 2.03 9.57 6.1 28.65 1.94 9.17 5.9 27.76 1.87 8.75 4.2 19.75 0 0 -0.02 0 -8.64 3.91 14.75 72.96 -6.11 3.08 -14.33 -73.47 -8.2 3.71 12.04 75.07 -6 3 -12.08 -75.35 -8.74 3.94 9.69 77.06c23.07,-11.65 40.64,-20.53 41.17,-20.8l-13.53 -73.11 56.3 0.39 0.78 0 0 0c0,0 -0.03,-0.71 -0.06,-1.96 0,-0.04 0,-0.11 -0.02,-0.15z"/>
   <path class="fil0" d="M500.34 816.92c-17.82,0 -32.28,-14.06 -32.28,-31.39 0,-17.32 14.46,-31.37 32.28,-31.37 17.83,0 32.28,14.06 32.28,31.37 0,17.33 -14.44,31.39 -32.28,31.39zm0.56 18.31c-15,1.6 -22.97,-16.64 -22.97,-16.64 0,0 8.64,6.26 22.32,6.17 13.67,-0.1 22.52,-7.49 22.52,-7.49 0,0 -6.86,16.38 -21.86,17.96zm-0.14 19.47c-11.36,1.36 -17.41,-14.18 -17.41,-14.18 0,0 6.56,5.33 16.92,5.26 10.36,-0.08 17.06,-6.39 17.06,-6.39 0,0 -5.19,13.94 -16.57,15.31zm-0.07 16.61c-9.22,1 -14.11,-10.46 -14.11,-10.46 0,0 5.3,3.93 13.69,3.89 8.4,-0.06 13.83,-4.71 13.83,-4.71 0,0 -4.22,10.28 -13.42,11.28zm-2.1 -133.81c15.07,0.72 22.93,16.65 22.93,16.65 0,0 -9.28,-6.86 -22.93,-6.15 -13.67,0.71 -21.89,7.47 -21.89,7.47 0,0 6.8,-18.69 21.89,-17.97zm-69.92 185.6l-15.56 -10.24c1.99,-7.42 11.5,-47.22 12.15,-134.43 0.2,-26.53 -8.61,-36.17 -12.28,-39.03 1.67,-2.85 6.46,-9.52 15.18,-10.07 8.82,0.53 13.59,7.13 15.25,9.99 -3.65,2.87 -12.43,12.56 -12.08,39.09 1.08,87.2 10.79,126.96 12.83,134.36l-15.5 10.32zm-72.08 -106.18c-17.83,0 -32.28,-14.06 -32.28,-31.39 0,-17.32 14.44,-31.37 32.28,-31.37 17.82,0 32.28,14.06 32.28,31.37 0,17.33 -14.46,31.39 -32.28,31.39zm-0.56 18.31c-15,-1.58 -21.86,-17.96 -21.86,-17.96 0,0 8.85,7.39 22.52,7.49 13.68,0.1 22.31,-6.17 22.31,-6.17 0,0 -7.96,18.24 -22.96,16.64zm0.14 19.47c-11.37,-1.36 -16.58,-15.31 -16.58,-15.31 0,0 6.71,6.31 17.07,6.39 10.36,0.07 16.9,-5.26 16.9,-5.26 0,0 -6.03,15.54 -17.39,14.18zm0.07 16.61c-9.19,-1 -13.42,-11.28 -13.42,-11.28 0,0 5.43,4.65 13.82,4.71 8.39,0.04 13.7,-3.89 13.7,-3.89 0,0 -4.87,11.46 -14.1,10.46zm2.11 -133.81c15.07,-0.72 21.88,17.97 21.88,17.97 0,0 -8.22,-6.76 -21.88,-7.47 -13.67,-0.71 -22.94,6.15 -22.94,6.15 0,0 7.86,-15.93 22.94,-16.65zm172.91 10.14l-43.96 -22.5 -4.56 -0.02c-5.63,7.58 -13.79,21.76 -19.6,45.65 -16.46,67.78 1.57,141.56 1.57,141.56 -8.82,-16.63 -19.15,-42.76 -20.6,-75.78 -1.3,-30.13 -3.29,-61.7 12.44,-89.1 14.63,-25.44 32.53,-29.52 32.57,-29.53l0 0 0 0 0 0 0 0 -60.1 -0.04 -0.57 0 -0.59 0 0 0 -60.08 0.04 0 0 -0.01 0 0.01 0 0 0c0.06,0.01 17.96,4.09 32.56,29.53 15.74,27.4 13.76,58.97 12.44,89.1 -1.43,33 -11.76,59.15 -20.59,75.76 0.01,-0.03 18.04,-73.78 1.57,-141.54 -5.8,-23.89 -13.96,-38.07 -19.58,-45.65l-4.57 0.02 -43.94 22.5 -29.58 139.07 87.39 39.29 8.69 -13.62 0.04 -0.04 16.99 0.92c-0.14,0.72 0.11,1.46 0.73,1.87l17.63 11.6c0.06,0.03 0.13,0.07 0.18,0.11 0.24,0.14 0.5,0.21 0.76,0.24 0.06,0 0.11,0 0.17,0 0.31,0 0.61,-0.07 0.88,-0.21 0.08,-0.04 0.18,-0.1 0.25,-0.15l17.56 -11.68c0.61,-0.4 0.85,-1.11 0.72,-1.79l16.64 -0.9 0.02 0.02 8.79 13.78 87.3 -39.4 -29.57 -139.08z"/>
   <path class="fil0" d="M525.62 708.63c-19.36,-10.56 -29.32,12.75 -29.32,12.75l33.72 17.3c0,0 14.46,-19.78 -4.4,-30.06z"/>
   <path class="fil0" d="M500.34 799.06c-7.68,0 -13.91,-6.06 -13.91,-13.53 0,-7.46 6.22,-13.51 13.91,-13.51 7.68,0 13.9,6.06 13.9,13.51 0,7.47 -6.22,13.53 -13.9,13.53zm27.82 -11.09l0 -4.8 -9.24 0c-0.22,-1.6 -0.64,-3.14 -1.26,-4.58l8.03 -4.5 -2.47 -4.17 -8.03 4.52c-0.98,-1.25 -2.14,-2.36 -3.4,-3.32l4.61 -7.79 -4.28 -2.41 -4.61 7.78c-1.47,-0.58 -3.06,-1.02 -4.69,-1.21l0 -9 -4.93 0 0 9c-1.65,0.19 -3.21,0.61 -4.68,1.21l-4.63 -7.78 -4.29 2.41 4.64 7.78c-1.31,0.97 -2.46,2.1 -3.46,3.35l-7.97 -4.47 -2.47 4.15 7.98 4.49c-0.61,1.43 -1.03,2.97 -1.24,4.56l-9.24 0 0 4.8 9.25 0c0.21,1.59 0.62,3.1 1.24,4.52l-7.97 4.47 2.47 4.15 7.97 -4.47c1,1.25 2.15,2.37 3.44,3.33l-4.62 7.78 4.28 2.4 4.63 -7.76c1.47,0.58 3.03,1 4.67,1.2l0 8.98 4.93 0 0 -8.98c1.64,-0.2 3.21,-0.61 4.68,-1.21l4.61 7.78 4.28 -2.4 -4.61 -7.78c1.26,-0.96 2.42,-2.06 3.4,-3.3l8.03 4.5 2.46 -4.15 -8.02 -4.5c0.61,-1.44 1.04,-2.96 1.26,-4.54l9.25 0z"/>
   <polygon class="fil0" points="808.07,720.94 762.94,795.44 717.05,720.94 699.38,720.94 699.38,833.35 719.87,833.35 719.87,759.85 757.85,820.5 767.44,820.5 805.45,758.87 805.59,833.35 825.91,833.35 825.76,720.94 "/>
   <path class="fil0" d="M901.74 741.76l21.74 49.19 -43.39 0 21.65 -49.19zm-28.86 65.58l57.83 0 11.5 26.02 22.46 0 -52.19 -112.42 -21.15 0 -52.04 112.42 22.14 0 11.46 -26.02z"/>
   <path class="fil0" d="M1048.51 777.79c-4.03,-2.25 -8.49,-4.07 -13.39,-5.46 -4.89,-1.39 -9.82,-2.65 -14.78,-3.78 -4.96,-1.13 -9.44,-2.26 -13.46,-3.46 -4.03,-1.17 -7.28,-2.8 -9.75,-4.89 -2.47,-2.09 -3.72,-4.85 -3.72,-8.28 0,-2.89 0.86,-5.46 2.57,-7.69 1.71,-2.26 4.41,-4.09 8.09,-5.47 3.69,-1.39 8.51,-2.09 14.46,-2.09 5.07,0 10.35,0.72 15.86,2.17 5.5,1.44 10.85,3.67 16.03,6.67l6.76 -16.22c-5.07,-3.22 -11.02,-5.68 -17.83,-7.39 -6.83,-1.71 -13.71,-2.57 -20.65,-2.57 -10.57,0 -19.3,1.53 -26.18,4.58 -6.89,3.04 -12.02,7.11 -15.36,12.21 -3.36,5.09 -5.04,10.68 -5.04,16.78 0,6 1.26,10.92 3.81,14.76 2.53,3.86 5.8,6.94 9.82,9.25 4.03,2.3 8.48,4.17 13.39,5.61 4.89,1.44 9.79,2.71 14.69,3.78 4.9,1.07 9.36,2.22 13.39,3.46 4.01,1.22 7.29,2.89 9.82,4.97 2.54,2.08 3.81,4.85 3.81,8.28 0,2.78 -0.89,5.26 -2.65,7.46 -1.75,2.2 -4.52,3.94 -8.25,5.22 -3.75,1.29 -8.65,1.93 -14.71,1.93 -7.15,0 -14.15,-1.18 -20.97,-3.53 -6.83,-2.36 -12.56,-5.3 -17.18,-8.83l-7.43 16.22c4.83,3.96 11.39,7.19 19.65,9.71 8.26,2.52 16.9,3.78 25.93,3.78 10.57,0 19.33,-1.53 26.26,-4.57 6.94,-3.06 12.1,-7.13 15.44,-12.22 3.36,-5.08 5.04,-10.62 5.04,-16.61 0,-5.89 -1.24,-10.76 -3.71,-14.62 -2.48,-3.85 -5.74,-6.91 -9.75,-9.15z"/>
   <polygon class="fil0" points="1186.03,720.94 1161.91,720.94 1104.75,778.62 1104.75,720.94 1083.28,720.94 1083.28,833.35 1104.75,833.35 1104.75,804.56 1123.17,786.23 1163.89,833.35 1189,833.35 1137.39,771.17 "/>
   <path class="fil0" d="M732.74 901.77c-3.57,2.9 -8.79,4.35 -15.67,4.35l-18.26 0 0 -33.42 18.26 0c6.88,0 12.1,1.46 15.67,4.39 3.57,2.93 5.35,7.07 5.35,12.4 0,5.29 -1.78,9.37 -5.35,12.28zm-0.44 -32.47c-4.2,-1.81 -9.2,-2.71 -15.03,-2.71l-25.72 0 0 66.83 7.26 0 0 -21.1 18.46 0c5.83,0 10.83,-0.93 15.03,-2.78 4.19,-1.83 7.42,-4.46 9.68,-7.87 2.25,-3.4 3.37,-7.46 3.37,-12.18 0,-4.83 -1.13,-8.94 -3.37,-12.36 -2.26,-3.4 -5.49,-6.01 -9.68,-7.83z"/>
   <path class="fil0" d="M786.7 906.21l-18.26 0 0 -33.51 18.26 0c6.87,0 12.1,1.46 15.67,4.39 3.57,2.93 5.35,7.07 5.35,12.4 0,5.29 -1.78,9.4 -5.35,12.32 -3.57,2.93 -8.79,4.4 -15.67,4.4zm15.22 3.29c4.2,-1.82 7.42,-4.41 9.67,-7.83 2.26,-3.41 3.39,-7.46 3.39,-12.18 0,-4.83 -1.12,-8.94 -3.39,-12.36 -2.25,-3.4 -5.47,-6.01 -9.67,-7.83 -4.19,-1.8 -9.19,-2.7 -15.03,-2.7l-25.72 0 0 66.83 7.26 0 0 -21.19 18.46 0c1.94,0 3.67,-0.25 5.43,-0.46l15.78 21.65 7.96 0 -16.93 -23.09c0.92,-0.3 1.94,-0.46 2.79,-0.82z"/>
   <path class="fil0" d="M888.83 911.02c-1.44,3.33 -3.46,6.28 -6.04,8.79 -2.58,2.52 -5.63,4.44 -9.14,5.82 -3.5,1.37 -7.3,2.06 -11.43,2.06 -4.13,0 -7.96,-0.68 -11.5,-2.06 -3.53,-1.38 -6.58,-3.31 -9.18,-5.82 -2.58,-2.51 -4.61,-5.46 -6.08,-8.83 -1.47,-3.37 -2.21,-7.04 -2.21,-10.99 0,-4 0.74,-7.68 2.21,-11.03 1.47,-3.35 3.5,-6.26 6.08,-8.78 2.6,-2.52 5.65,-4.46 9.18,-5.83 3.54,-1.36 7.37,-2.04 11.5,-2.04 4.13,0 7.93,0.68 11.43,2.04 3.52,1.37 6.56,3.32 9.14,5.83 2.58,2.51 4.59,5.43 6.04,8.78 1.44,3.35 2.15,7.03 2.15,11.03 0,4.02 -0.71,7.7 -2.15,11.03zm-0.83 -35.37c-3.25,-3.06 -7.06,-5.43 -11.44,-7.11 -4.39,-1.68 -9.17,-2.53 -14.33,-2.53 -5.25,0 -10.06,0.85 -14.44,2.53 -4.37,1.68 -8.19,4.07 -11.43,7.17 -3.25,3.08 -5.76,6.68 -7.57,10.78 -1.8,4.11 -2.69,8.61 -2.69,13.51 0,4.91 0.89,9.41 2.69,13.52 1.81,4.1 4.32,7.71 7.57,10.79 3.24,3.08 7.07,5.47 11.48,7.15 4.42,1.69 9.21,2.53 14.39,2.53 5.17,0 9.94,-0.83 14.33,-2.53 4.39,-1.68 8.19,-4.06 11.44,-7.11 3.24,-3.06 5.75,-6.65 7.56,-10.8 1.8,-4.12 2.71,-8.65 2.71,-13.56 0,-4.9 -0.91,-9.41 -2.71,-13.56 -1.81,-4.14 -4.32,-7.74 -7.56,-10.79z"/>
   <path class="fil0" d="M968.47 914.17c-2.49,4.11 -5.97,7.32 -10.46,9.65 -4.48,2.32 -9.76,3.49 -15.86,3.49l-20.32 0 0 -54.63 20.32 0c6.1,0 11.38,1.17 15.86,3.48 4.49,2.33 7.97,5.53 10.46,9.6 2.48,4.07 3.74,8.82 3.74,14.22 0,5.36 -1.25,10.08 -3.74,14.18zm-6.63 -43.35c-5.53,-2.83 -11.97,-4.24 -19.31,-4.24l-27.98 0 0 66.82 27.98 0c7.33,0 13.78,-1.4 19.31,-4.24 5.53,-2.83 9.83,-6.78 12.92,-11.79 3.07,-5.04 4.61,-10.83 4.61,-17.39 0,-6.54 -1.54,-12.33 -4.61,-17.38 -3.08,-5.03 -7.39,-8.96 -12.92,-11.79z"/>
   <path class="fil0" d="M1044.48 904.58c0,7.89 -1.83,13.72 -5.5,17.47 -3.67,3.76 -8.87,5.64 -15.61,5.64 -6.68,0 -11.85,-1.88 -15.51,-5.64 -3.68,-3.75 -5.52,-9.58 -5.52,-17.47l0 -38 -7.26 0 0 38.29c0,9.61 2.53,16.87 7.57,21.76 5.04,4.9 11.94,7.35 20.72,7.35 8.76,0 15.65,-2.44 20.67,-7.35 5.01,-4.89 7.51,-12.15 7.51,-21.76l0 -38.29 -7.07 0 0 38z"/>
   <path class="fil0" d="M1082.88 880.19c2.61,-2.52 5.69,-4.46 9.24,-5.83 3.53,-1.36 7.36,-2.04 11.48,-2.04 3.93,0 7.6,0.61 11,1.86 3.4,1.24 6.52,3.27 9.33,6.06l4.61 -4.49c-3.02,-3.24 -6.71,-5.68 -11.1,-7.3 -4.39,-1.63 -9.07,-2.43 -14.04,-2.43 -5.18,0 -9.96,0.85 -14.35,2.53 -4.38,1.7 -8.2,4.06 -11.43,7.13 -3.25,3.04 -5.76,6.64 -7.57,10.78 -1.8,4.14 -2.7,8.65 -2.7,13.56 0,4.9 0.9,9.43 2.7,13.57 1.8,4.14 4.3,7.72 7.51,10.79 3.21,3.04 7,5.42 11.39,7.11 4.39,1.68 9.17,2.53 14.35,2.53 5.03,0 9.75,-0.83 14.14,-2.49 4.39,-1.65 8.08,-4.11 11.1,-7.35l-4.61 -4.49c-2.82,2.8 -5.93,4.83 -9.33,6.1 -3.4,1.28 -7.07,1.92 -11,1.92 -4.13,0 -7.96,-0.68 -11.48,-2.06 -3.54,-1.36 -6.63,-3.31 -9.24,-5.82 -2.63,-2.52 -4.67,-5.44 -6.14,-8.79 -1.47,-3.33 -2.21,-7.02 -2.21,-11.03 0,-4 0.74,-7.68 2.21,-11.03 1.47,-3.33 3.52,-6.26 6.14,-8.78z"/>
   <polygon class="fil0" points="1132.47,872.69 1156.62,872.69 1156.62,933.42 1163.9,933.42 1163.9,872.69 1188.05,872.69 1188.05,866.58 1132.47,866.58 "/>
   <polygon class="fil0" points="1199.64,933.43 1206.9,933.43 1206.9,866.59 1199.64,866.59 "/>
   <path class="fil0" d="M1285.96 911.02c-1.44,3.33 -3.46,6.28 -6.04,8.79 -2.58,2.52 -5.63,4.44 -9.14,5.82 -3.5,1.37 -7.31,2.06 -11.43,2.06 -4.12,0 -7.96,-0.68 -11.5,-2.06 -3.53,-1.38 -6.58,-3.31 -9.18,-5.82 -2.58,-2.51 -4.61,-5.46 -6.08,-8.83 -1.47,-3.37 -2.21,-7.04 -2.21,-10.99 0,-4 0.74,-7.68 2.21,-11.03 1.47,-3.35 3.5,-6.26 6.08,-8.78 2.6,-2.52 5.65,-4.46 9.18,-5.83 3.54,-1.36 7.38,-2.04 11.5,-2.04 4.13,0 7.93,0.68 11.43,2.04 3.51,1.37 6.56,3.32 9.14,5.83 2.58,2.51 4.6,5.43 6.04,8.78 1.44,3.35 2.15,7.03 2.15,11.03 0,4.02 -0.71,7.7 -2.15,11.03zm-0.83 -35.37c-3.25,-3.06 -7.06,-5.43 -11.44,-7.11 -4.39,-1.68 -9.17,-2.53 -14.33,-2.53 -5.25,0 -10.06,0.85 -14.44,2.53 -4.37,1.68 -8.19,4.07 -11.43,7.17 -3.25,3.08 -5.76,6.68 -7.57,10.78 -1.8,4.11 -2.69,8.61 -2.69,13.51 0,4.91 0.89,9.41 2.69,13.52 1.81,4.1 4.32,7.71 7.57,10.79 3.24,3.08 7.07,5.47 11.48,7.15 4.42,1.69 9.21,2.53 14.39,2.53 5.17,0 9.94,-0.83 14.33,-2.53 4.39,-1.68 8.19,-4.06 11.44,-7.11 3.24,-3.06 5.75,-6.65 7.56,-10.8 1.81,-4.12 2.71,-8.65 2.71,-13.56 0,-4.9 -0.9,-9.41 -2.71,-13.56 -1.81,-4.14 -4.32,-7.74 -7.56,-10.79z"/>
   <polygon class="fil0" points="1361.96,920.78 1317.67,866.59 1311.69,866.59 1311.69,933.42 1318.95,933.42 1318.95,879.22 1363.15,933.42 1369.13,933.42 1369.13,866.59 1361.96,866.59 "/>
   <path class="fil0" d="M1433.8 907.26c-1.54,-2.17 -3.57,-3.9 -6.1,-5.21 -2.52,-1.31 -5.26,-2.36 -8.24,-3.19 -2.99,-0.83 -5.99,-1.58 -8.99,-2.29 -3.01,-0.7 -5.78,-1.5 -8.3,-2.39 -2.52,-0.89 -4.54,-2.13 -6.08,-3.72 -1.54,-1.59 -2.31,-3.69 -2.31,-6.3 0,-2.29 0.64,-4.35 1.9,-6.15 1.28,-1.82 3.26,-3.26 5.94,-4.35 2.7,-1.08 6.1,-1.63 10.22,-1.63 3.07,0 6.26,0.44 9.57,1.33 3.31,0.89 6.43,2.29 9.38,4.21l2.46 -5.64c-2.75,-1.83 -6.03,-3.29 -9.82,-4.35 -3.81,-1.06 -7.63,-1.57 -11.49,-1.57 -5.83,0 -10.61,0.85 -14.35,2.53 -3.72,1.68 -6.5,3.91 -8.29,6.68 -1.8,2.78 -2.69,5.81 -2.69,9.13 0,3.57 0.76,6.44 2.3,8.64 1.53,2.2 3.56,3.96 6.09,5.31 2.51,1.33 5.29,2.4 8.3,3.19 3,0.8 6.02,1.54 9.03,2.24 3.02,0.71 5.76,1.52 8.25,2.44 2.48,0.92 4.5,2.18 6.04,3.76 1.53,1.6 2.31,3.7 2.31,6.31 0,2.17 -0.64,4.14 -1.92,5.92 -1.28,1.78 -3.28,3.21 -5.98,4.25 -2.72,1.06 -6.24,1.58 -10.56,1.58 -4.53,0 -8.83,-0.78 -12.91,-2.35 -4.1,-1.56 -7.35,-3.48 -9.78,-5.78l-2.85 5.44c2.56,2.56 6.17,4.62 10.86,6.25 4.68,1.63 9.57,2.43 14.68,2.43 5.89,0 10.72,-0.83 14.49,-2.51 3.75,-1.69 6.56,-3.93 8.39,-6.69 1.83,-2.76 2.75,-5.78 2.75,-9.03 0,-3.48 -0.78,-6.32 -2.3,-8.48z"/>
  </g>
 </g>
</svg>
