<?xml version="1.0" encoding="UTF-8"?>
<!DOCTYPE svg PUBLIC "-//W3C//DTD SVG 1.1//EN" "http://www.w3.org/Graphics/SVG/1.1/DTD/svg11.dtd">
<!-- Creator: CorelDRAW -->
<svg xmlns="http://www.w3.org/2000/svg" xml:space="preserve" width="1.66666in" height="1.66666in" version="1.1" style="shape-rendering:geometricPrecision; text-rendering:geometricPrecision; image-rendering:optimizeQuality; fill-rule:evenodd; clip-rule:evenodd"
viewBox="0 0 1666.66 1666.66"
 xmlns:xlink="http://www.w3.org/1999/xlink"
 xmlns:xodm="http://www.corel.com/coreldraw/odm/2003">
 <defs>
  <style type="text/css">
   <![CDATA[
    .fil1 {fill:#A03546}
    .fil0 {fill:#A03546;fill-rule:nonzero}
   ]]>
  </style>
 </defs>
 <g id="Layer_x0020_1">
  <metadata id="CorelCorpID_0Corel-Layer"/>
  <g id="_2067657901264">
   <path class="fil0" d="M818.29 483.43c1.21,-4.75 2.03,-9.47 3.65,-14.21 -2.44,-6.15 -5.28,-12.32 -8.12,-18 -1.64,6.64 -2.86,13.26 -3.67,20.36 2.85,3.81 5.29,7.58 8.14,11.85z"/>
   <path class="fil0" d="M856.93 472.07c-0.8,-7.11 -2.44,-14.21 -3.67,-20.36 -2.85,5.68 -5.69,11.36 -8.13,17.99 1.21,4.75 2.43,9.48 3.65,14.21 2.03,-4.72 4.89,-8.52 8.14,-11.83z"/>
   <path class="fil0" d="M822.35 580.05c-3.25,-4.74 -5.69,-9.47 -7.33,-15.15 -2.43,-7.58 -3.65,-16.1 -3.65,-26.04 0,-13.74 2.04,-30.79 5.29,-47.37 -2.44,-4.25 -4.89,-8.04 -7.74,-11.36 -0.81,-0.94 -1.63,-1.89 -2.43,-3.3 -0.82,-0.96 -1.64,-1.91 -2.44,-2.86 -5.71,-5.68 -12.61,-8.99 -21.97,-8.99l-4.07 0c12.61,10.42 13.83,32.21 15.06,53.52 1.63,28.89 2.85,56.83 28.07,63.46 1.22,0.49 2.85,0.49 4.47,0.96 -1.22,-0.47 -2.44,-1.42 -3.25,-2.85z"/>
   <path class="fil0" d="M884.6 465.44c-9.36,0 -16.28,3.79 -21.97,9l-2.44 2.83c-0.8,0.96 -1.63,1.91 -2.44,3.32 -2.83,3.32 -5.28,7.58 -7.72,11.83 3.26,16.58 5.29,33.15 5.29,47.37 0,9.47 -1.22,18 -3.67,25.57 -1.63,5.68 -4.06,10.42 -7.32,15.15 -0.82,1.43 -1.62,2.36 -2.85,3.79 1.64,0 3.25,-0.47 4.47,-0.94 25.22,-6.64 26.44,-34.1 28.07,-63.47 1.22,-21.3 2.44,-43.57 15.06,-53.51 -1.63,-0.94 -2.85,-0.94 -4.47,-0.94z"/>
   <path class="fil0" d="M843.92 491.48c-0.8,-4.26 -1.63,-8.53 -2.85,-12.79 -0.4,-1.89 -0.82,-3.32 -1.22,-5.21 -0.4,-1.42 -0.82,-3.32 -1.22,-4.74 -1.63,-5.68 -3.26,-11.37 -5.29,-17.06 -2.03,5.22 -3.65,10.9 -5.28,17.06 -0.41,1.42 -0.82,3.32 -1.22,4.74 -0.42,1.89 -0.82,3.32 -1.22,5.21 -0.82,4.26 -2.04,8.53 -2.85,12.79 -3.26,17.04 -5.29,34.1 -5.29,47.83 0,13.26 2.85,24.62 8.14,34.09l4.87 7.11c0.82,0.94 1.22,1.41 2.04,2.36 0.41,0.47 0.41,0.47 0.81,0.96 0.42,-0.49 0.42,-0.49 0.82,-0.96 0.82,-0.94 1.63,-1.41 2.04,-2.36 2.03,-2.38 3.65,-4.74 4.87,-7.11 5.29,-9 8.14,-20.36 8.14,-34.09 0.41,-14.21 -1.63,-31.26 -5.29,-47.83z"/>
   <path class="fil1" d="M706.8 544.53c17.5,54 44.75,72.93 73.65,78.63 10.15,2.36 17.89,12.78 17.07,25.1 -4.46,88.57 17.1,220.24 28.08,266.65l6.11 -195.14 1.61 0 1.64 0 6.5 195.14c11.4,-46.91 31.74,-178.09 27.26,-266.65 -0.82,-12.32 6.92,-22.74 17.08,-25.1 28.89,-6.17 56.15,-25.11 74.06,-78.63l-0.82 0.94c-3.65,6.64 -8.94,12.32 -15.86,18 -27.26,21.32 -77.3,30.78 -109.44,30.78 -32.54,0 -82.58,-9.46 -109.44,-30.78 -6.91,-5.68 -12.2,-11.83 -15.87,-18l-1.63 -0.94z"/>
   <path class="fil0" d="M507.24 1036.13c0,7.11 0,15.63 -0.41,24.63l0 19.91 0 31.26 0 12.3 -7.74 4.26c-11.8,-18.47 -23.18,-35.53 -33.35,-50.68 -10.18,-15.15 -16.29,-23.68 -17.92,-26.06 0,12.32 0,27.49 0.42,45.47 0,18 0.4,28.42 0.4,30.78l-9.36 0 0 -12.31 0 -29.36 0 -19.89c0,-8.06 0,-17.06 -0.41,-26.53l8.94 -4.74c0.82,0.94 6.92,9.94 18.31,26.51 11.4,16.58 21.97,32.21 32.15,46.9 0,-7.11 0,-18.94 -0.42,-35.53 0,-16.58 -0.4,-28.89 -0.4,-36.94l9.76 0z"/>
   <path class="fil0" d="M617.09 1128.02l-9.76 0 0 -14.68 0 -30.3 0 -20.38c0,-8.53 0,-17.51 -0.41,-26.51l9.75 0c0,6.63 0,14.21 -0.39,22.72l0 21.31 0 32.22c0.81,7.59 0.81,12.78 0.81,15.63z"/>
   <path class="fil0" d="M778.2 1121.87l-6.91 7.58c-9.37,-10.43 -18.32,-20.36 -27.28,-29.85 -8.94,-9 -13.83,-14.68 -15.04,-15.63l0 -0.47c2.43,-2.85 7.74,-9 15.86,-18.96 8.14,-9.47 15.86,-19.4 24,-29.82l6.52 7.09c-6.92,7.59 -13.83,15.63 -20.75,24.15 -7.32,8.53 -11.79,13.74 -13.42,16.11 0.81,0.93 4.88,5.2 11.79,12.78 6.92,7.1 15.46,16.1 25.22,27zm-51.26 6.15l-9.76 0c0,-2.85 0,-9 0.4,-18l0 -33.63 0 -18.46c0,-7.11 0,-14.22 -0.4,-21.32l9.76 0 0 23.68 0 22.72 0 30.32 0 14.68z"/>
   <path class="fil0" d="M906.37 1086.34c-2.04,-5.68 -4.47,-11.36 -6.52,-17.53 -2.04,-6.15 -4.87,-12.31 -7.32,-18.94l-0.42 0c-2.03,5.21 -4.47,11.36 -7.32,18.47 -2.85,7.58 -5.29,13.26 -6.92,18l28.49 0zm25.63 37.89l-9.36 5.68c0,-0.46 -1.22,-3.79 -3.65,-10.42 -2.44,-6.15 -5.29,-14.68 -9.36,-24.63l-34.98 0c-4.07,10.89 -7.32,18.94 -9.76,24.63 -2.44,5.68 -3.67,9 -3.67,9.96l-7.72 -5.22c0.81,-2.36 5.29,-12.78 12.61,-31.72 7.32,-18.48 15.06,-38.37 23.2,-58.74l7.72 0c7.74,20.36 15.46,40.25 23.18,59.68 7.74,19.89 11.4,30.31 11.81,30.78z"/>
   <path class="fil0" d="M1059.35 1086.34c-2.04,-5.68 -4.47,-11.36 -6.51,-17.53 -2.43,-6.15 -4.87,-12.31 -7.31,-18.94l-0.43 0c-2.03,5.21 -4.47,11.36 -7.32,18.47 -2.85,7.58 -5.29,13.26 -6.92,18l28.48 0zm25.63 37.89l-9.36 5.68c0,-0.46 -1.22,-3.79 -3.65,-10.42 -2.44,-6.15 -5.29,-14.68 -9.36,-24.63l-34.98 0c-4.07,10.89 -7.32,18.94 -9.77,24.63 -2.44,5.68 -3.67,9 -3.67,9.96l-7.72 -5.22c0.8,-2.36 5.29,-12.78 12.61,-31.72 7.32,-18.48 15.06,-38.37 23.19,-58.74l7.72 0c7.74,20.36 15.46,40.25 23.18,59.68 7.33,19.89 11.4,30.31 11.8,30.78z"/>
   <path class="fil0" d="M1227.79 1040.4c-0.42,0.47 -4.07,6.17 -11.79,17.06 -7.33,10.89 -13.43,19.89 -17.91,26.52l0 26.06c0,9 0,15.15 0.41,18l-9.78 0c0,-2.85 0,-9 0.42,-18l0 -25.11c-4.87,-7.57 -10.58,-16.09 -17.91,-26.98 -6.91,-10.42 -10.98,-16.1 -11.39,-17.06l7.74 -7.1c0.4,0.94 3.65,5.68 9.36,14.68 5.68,9 11.39,17.52 17.07,26.52 5.69,-8.52 11.4,-17.04 17.5,-26.04 6.11,-9 9.36,-14.21 9.76,-14.68l6.52 6.15z"/>
   <polygon class="fil0" points="438.88,1186.11 442.44,1186.11 442.44,1215.11 438.88,1215.11 "/>
   <path class="fil0" d="M482.26 1195.37c1.42,1.62 2.13,3.98 2.13,7.11l0 12.64 -3.43 0 0 -12.18c0,-2.14 -0.43,-3.74 -1.3,-4.8 -0.88,-1.08 -2.14,-1.63 -3.78,-1.63 -1.85,0 -3.31,0.63 -4.37,1.89 -1.07,1.25 -1.61,3.06 -1.61,5.4l0 11.32 -3.41 0 0 -21.96 3.28 0 0 3.29c0.68,-1.11 1.61,-1.99 2.78,-2.6 1.18,-0.6 2.52,-0.92 4.02,-0.92 2.4,0 4.29,0.82 5.71,2.43z"/>
   <path class="fil0" d="M508.72 1214.64c-1.43,-0.49 -2.54,-1.1 -3.35,-1.85l1.43 -3.15c0.83,0.69 1.82,1.24 3.01,1.67 1.18,0.42 2.39,0.61 3.6,0.61 3,0 4.49,-1 4.49,-2.97 0,-0.67 -0.21,-1.19 -0.6,-1.58 -0.4,-0.39 -0.92,-0.67 -1.52,-0.85 -0.61,-0.18 -1.47,-0.37 -2.58,-0.6 -1.53,-0.28 -2.76,-0.59 -3.72,-0.96 -0.96,-0.35 -1.78,-0.97 -2.47,-1.82 -0.7,-0.85 -1.04,-2.06 -1.04,-3.61 0,-1.99 0.72,-3.59 2.14,-4.79 1.43,-1.2 3.35,-1.8 5.74,-1.8 1.25,0 2.52,0.18 3.76,0.54 1.26,0.36 2.31,0.85 3.11,1.44l-1.46 3.15c-1.56,-1.17 -3.36,-1.74 -5.44,-1.74 -1.46,0 -2.56,0.28 -3.32,0.82 -0.76,0.56 -1.14,1.29 -1.14,2.19 0,0.72 0.21,1.29 0.65,1.71 0.42,0.41 0.94,0.71 1.57,0.92 0.63,0.18 1.52,0.4 2.65,0.65 1.53,0.3 2.75,0.63 3.68,0.98 0.94,0.33 1.74,0.93 2.4,1.75 0.67,0.83 1,1.98 1,3.48 0,1.99 -0.74,3.57 -2.19,4.74 -1.46,1.18 -3.44,1.76 -5.96,1.76 -1.54,0 -3.02,-0.25 -4.44,-0.72z"/>
   <path class="fil0" d="M542.64 1193.15l3.41 0 0 21.96 -3.41 0 0 -21.96zm0.06 -4.98c-0.44,-0.49 -0.67,-1.09 -0.67,-1.82 0,-0.7 0.22,-1.33 0.67,-1.83 0.43,-0.5 0.98,-0.78 1.65,-0.78 0.67,0 1.21,0.25 1.65,0.74 0.44,0.47 0.65,1.08 0.65,1.81 0,0.74 -0.21,1.37 -0.65,1.87 -0.44,0.53 -0.98,0.78 -1.65,0.78 -0.67,0 -1.22,-0.25 -1.65,-0.76z"/>
   <path class="fil0" d="M580.93 1210.9c0.97,-0.64 1.74,-1.56 2.28,-2.72 0.54,-1.18 0.82,-2.53 0.82,-4.06 0,-1.52 -0.28,-2.86 -0.82,-4.03 -0.54,-1.18 -1.31,-2.09 -2.28,-2.72 -0.97,-0.63 -2.06,-0.94 -3.24,-0.94 -1.21,0 -2.29,0.32 -3.26,0.94 -0.96,0.64 -1.72,1.54 -2.28,2.72 -0.56,1.17 -0.83,2.51 -0.83,4.03 0,1.53 0.28,2.87 0.83,4.06 0.56,1.17 1.32,2.08 2.28,2.72 0.97,0.65 2.06,0.99 3.26,0.99 1.18,0 2.26,-0.33 3.24,-0.99zm6.49 -26.53l0 30.75 -3.28 0 0 -3.5c-0.76,1.22 -1.72,2.15 -2.89,2.79 -1.17,0.64 -2.44,0.94 -3.85,0.94 -1.82,0 -3.46,-0.47 -4.92,-1.41 -1.44,-0.96 -2.57,-2.28 -3.39,-3.96 -0.82,-1.71 -1.24,-3.65 -1.24,-5.87 0,-2.2 0.42,-4.14 1.24,-5.83 0.82,-1.68 1.94,-3 3.39,-3.93 1.46,-0.94 3.1,-1.42 4.92,-1.42 1.36,0 2.6,0.29 3.74,0.89 1.14,0.59 2.08,1.48 2.85,2.64l0 -12.1 3.43 0z"/>
   <path class="fil0" d="M614.56 1198.05c-1.1,1.15 -1.75,2.68 -1.94,4.54l12.1 0c-0.18,-1.83 -0.83,-3.35 -1.93,-4.51 -1.09,-1.18 -2.48,-1.78 -4.11,-1.78 -1.64,0 -3.01,0.58 -4.11,1.75zm13.36 7.41l-15.31 0c0.21,1.93 0.94,3.49 2.2,4.65 1.24,1.18 2.79,1.76 4.64,1.76 2.25,0 4.07,-0.87 5.44,-2.65l1.89 2.57c-0.86,1.17 -1.91,2.04 -3.18,2.65 -1.28,0.61 -2.7,0.9 -4.25,0.9 -2,0 -3.78,-0.47 -5.3,-1.43 -1.54,-0.94 -2.74,-2.28 -3.59,-3.99 -0.85,-1.72 -1.26,-3.65 -1.26,-5.8 0,-2.13 0.41,-4.04 1.22,-5.75 0.82,-1.72 1.96,-3.06 3.39,-4 1.43,-0.96 3.06,-1.43 4.86,-1.43 1.81,0 3.41,0.47 4.82,1.43 1.41,0.94 2.52,2.28 3.31,4 0.79,1.71 1.19,3.67 1.19,5.87 0,0.31 -0.03,0.71 -0.07,1.21z"/>
   <path class="fil0" d="M676.45 1206.41c-0.64,-0.72 -0.94,-1.64 -0.94,-2.74 0,-1.06 0.32,-1.93 0.96,-2.67 0.64,-0.74 1.41,-1.1 2.28,-1.1 0.87,0 1.64,0.36 2.25,1.1 0.64,0.74 0.94,1.61 0.94,2.67 0,1.1 -0.3,2.02 -0.94,2.74 -0.61,0.72 -1.37,1.07 -2.25,1.07 -0.9,0 -1.67,-0.35 -2.29,-1.07z"/>
   <path class="fil0" d="M747.91 1210.3c1.46,-0.96 2.61,-2.29 3.44,-4 0.85,-1.68 1.28,-3.6 1.28,-5.7 0,-2.09 -0.43,-4 -1.28,-5.69 -0.83,-1.69 -1.99,-3.03 -3.44,-4 -1.46,-0.96 -3.1,-1.43 -4.93,-1.43 -1.83,0 -3.48,0.47 -4.97,1.43 -1.47,0.97 -2.64,2.31 -3.48,4 -0.83,1.69 -1.26,3.6 -1.26,5.69 0,2.1 0.43,4.02 1.26,5.7 0.85,1.71 2.01,3.04 3.48,4 1.49,0.97 3.14,1.46 4.97,1.46 1.83,0 3.47,-0.48 4.93,-1.46zm-11.74 3.21c-2.02,-1.28 -3.6,-3.06 -4.75,-5.31 -1.14,-2.28 -1.72,-4.79 -1.72,-7.6 0,-2.78 0.58,-5.3 1.72,-7.57 1.15,-2.26 2.74,-4.04 4.75,-5.33 2.01,-1.28 4.29,-1.93 6.8,-1.93 2.49,0 4.75,0.65 6.76,1.93 2.02,1.29 3.59,3.06 4.72,5.31 1.15,2.25 1.72,4.79 1.72,7.59 0,2.83 -0.57,5.36 -1.72,7.61 -1.14,2.25 -2.71,4.01 -4.72,5.29 -2.01,1.29 -4.28,1.93 -6.76,1.93 -2.51,0 -4.79,-0.64 -6.8,-1.93z"/>
   <path class="fil0" d="M795.76 1193.15l0 21.96 -3.24 0 0 -3.32c-0.69,1.14 -1.59,2 -2.74,2.64 -1.12,0.61 -2.35,0.93 -3.67,0.93 -2.53,0 -4.51,-0.81 -5.94,-2.43 -1.44,-1.61 -2.18,-3.99 -2.18,-7.14l0 -12.64 3.42 0 0 12.18c0,2.13 0.44,3.72 1.32,4.83 0.88,1.08 2.13,1.62 3.78,1.62 1.79,0 3.22,-0.62 4.26,-1.9 1.04,-1.26 1.57,-3.07 1.57,-5.39l0 -11.35 3.42 0z"/>
   <path class="fil0" d="M829.93 1213.83c-0.5,0.5 -1.11,0.87 -1.85,1.14 -0.74,0.26 -1.5,0.39 -2.28,0.39 -1.9,0 -3.37,-0.6 -4.42,-1.78 -1.04,-1.19 -1.57,-2.89 -1.57,-5.09l0 -12.06 -3.19 0 0 -3.27 3.19 0 0 -4.82 3.42 0 0 4.82 5.41 0 0 3.27 -5.41 0 0 11.89c0,1.2 0.26,2.11 0.76,2.74 0.52,0.64 1.25,0.96 2.2,0.96 1.04,0 1.93,-0.35 2.68,-1.04l1.06 2.86z"/>
   <path class="fil0" d="M852.07 1214.64c-1.43,-0.49 -2.54,-1.1 -3.35,-1.85l1.43 -3.15c0.83,0.69 1.82,1.24 3.02,1.67 1.18,0.42 2.39,0.61 3.59,0.61 3,0 4.47,-1 4.47,-2.97 0,-0.67 -0.18,-1.19 -0.58,-1.58 -0.4,-0.39 -0.9,-0.67 -1.51,-0.85 -0.61,-0.18 -1.47,-0.37 -2.59,-0.6 -1.51,-0.28 -2.76,-0.59 -3.72,-0.96 -0.96,-0.35 -1.78,-0.97 -2.47,-1.82 -0.69,-0.85 -1.04,-2.06 -1.04,-3.61 0,-1.99 0.72,-3.59 2.14,-4.79 1.43,-1.2 3.35,-1.8 5.74,-1.8 1.25,0 2.51,0.18 3.76,0.54 1.26,0.36 2.3,0.85 3.11,1.44l-1.46 3.15c-1.56,-1.17 -3.36,-1.74 -5.46,-1.74 -1.44,0 -2.54,0.28 -3.31,0.82 -0.76,0.56 -1.14,1.29 -1.14,2.19 0,0.72 0.21,1.29 0.64,1.71 0.43,0.41 0.96,0.71 1.59,0.92 0.62,0.18 1.51,0.4 2.65,0.65 1.53,0.3 2.75,0.63 3.68,0.98 0.94,0.33 1.74,0.93 2.41,1.75 0.67,0.83 1,1.98 1,3.48 0,1.99 -0.74,3.57 -2.2,4.74 -1.46,1.18 -3.44,1.76 -5.96,1.76 -1.54,0 -3.02,-0.25 -4.44,-0.72z"/>
   <path class="fil0" d="M885.99 1193.15l3.42 0 0 21.96 -3.42 0 0 -21.96zm0.06 -4.98c-0.44,-0.49 -0.67,-1.09 -0.67,-1.82 0,-0.7 0.22,-1.33 0.67,-1.83 0.44,-0.5 1,-0.78 1.65,-0.78 0.67,0 1.21,0.25 1.65,0.74 0.44,0.47 0.65,1.08 0.65,1.81 0,0.74 -0.21,1.37 -0.65,1.87 -0.44,0.53 -0.98,0.78 -1.65,0.78 -0.65,0 -1.21,-0.25 -1.65,-0.76z"/>
   <path class="fil0" d="M924.28 1210.9c0.97,-0.64 1.74,-1.56 2.28,-2.72 0.54,-1.18 0.82,-2.53 0.82,-4.06 0,-1.52 -0.28,-2.86 -0.82,-4.03 -0.54,-1.18 -1.31,-2.09 -2.28,-2.72 -0.97,-0.63 -2.06,-0.94 -3.24,-0.94 -1.21,0 -2.29,0.32 -3.26,0.94 -0.96,0.64 -1.72,1.54 -2.28,2.72 -0.56,1.17 -0.83,2.51 -0.83,4.03 0,1.53 0.28,2.87 0.83,4.06 0.56,1.17 1.32,2.08 2.28,2.72 0.97,0.65 2.06,0.99 3.26,0.99 1.18,0 2.26,-0.33 3.24,-0.99zm6.47 -26.53l0 30.75 -3.26 0 0 -3.5c-0.76,1.22 -1.72,2.15 -2.89,2.79 -1.17,0.64 -2.44,0.94 -3.85,0.94 -1.82,0 -3.46,-0.47 -4.9,-1.41 -1.46,-0.96 -2.58,-2.28 -3.4,-3.96 -0.82,-1.71 -1.22,-3.65 -1.22,-5.87 0,-2.2 0.4,-4.14 1.22,-5.83 0.82,-1.68 1.94,-3 3.4,-3.93 1.44,-0.94 3.08,-1.42 4.9,-1.42 1.36,0 2.6,0.29 3.75,0.89 1.12,0.59 2.07,1.48 2.83,2.64l0 -12.1 3.42 0z"/>
   <path class="fil0" d="M957.9 1198.05c-1.1,1.15 -1.75,2.68 -1.94,4.54l12.11 0c-0.2,-1.83 -0.85,-3.35 -1.94,-4.51 -1.1,-1.18 -2.47,-1.78 -4.11,-1.78 -1.64,0 -3.01,0.58 -4.11,1.75zm13.36 7.41l-15.31 0c0.22,1.93 0.94,3.49 2.2,4.65 1.25,1.18 2.79,1.76 4.65,1.76 2.25,0 4.06,-0.87 5.43,-2.65l1.89 2.57c-0.85,1.17 -1.91,2.04 -3.18,2.65 -1.28,0.61 -2.7,0.9 -4.25,0.9 -2,0 -3.76,-0.47 -5.3,-1.43 -1.54,-0.94 -2.74,-2.28 -3.59,-3.99 -0.83,-1.72 -1.26,-3.65 -1.26,-5.8 0,-2.13 0.42,-4.04 1.24,-5.75 0.82,-1.72 1.94,-3.06 3.38,-4 1.44,-0.96 3.06,-1.43 4.86,-1.43 1.82,0 3.41,0.47 4.82,1.43 1.4,0.94 2.51,2.28 3.32,4 0.79,1.71 1.19,3.67 1.19,5.87 0,0.31 -0.03,0.71 -0.08,1.21z"/>
   <path class="fil0" d="M1019.79 1206.41c-0.63,-0.72 -0.94,-1.64 -0.94,-2.74 0,-1.06 0.32,-1.93 0.96,-2.67 0.65,-0.74 1.4,-1.1 2.28,-1.1 0.89,0 1.64,0.36 2.26,1.1 0.63,0.74 0.94,1.61 0.94,2.67 0,1.1 -0.32,2.02 -0.94,2.74 -0.63,0.72 -1.37,1.07 -2.26,1.07 -0.89,0 -1.65,-0.35 -2.29,-1.07z"/>
   <path class="fil0" d="M1091.39 1210.59c1.01,-0.76 1.53,-1.98 1.53,-3.64 0,-3.22 -2.03,-4.86 -6.08,-4.86l-8.2 0 0 9.67 8.2 0c2.01,0 3.54,-0.39 4.56,-1.17zm-12.75 -21.13l0 9.28 7.31 0c1.82,0 3.24,-0.39 4.21,-1.19 0.98,-0.78 1.48,-1.92 1.48,-3.44 0,-1.53 -0.5,-2.67 -1.48,-3.46 -0.97,-0.79 -2.39,-1.18 -4.21,-1.18l-7.31 0zm16.63 13.15c0.83,1.22 1.25,2.78 1.25,4.67 0,2.51 -0.82,4.43 -2.44,5.79 -1.63,1.36 -3.99,2.03 -7.1,2.03l-11.9 0 0 -29 11.19 0c2.85,0 5.04,0.67 6.6,1.98 1.56,1.32 2.33,3.17 2.33,5.52 0,1.51 -0.3,2.83 -0.9,3.93 -0.63,1.11 -1.42,1.96 -2.44,2.53 1.44,0.49 2.58,1.33 3.42,2.56z"/>
   <polygon class="fil0" points="1118.58,1184.38 1122,1184.38 1122,1215.11 1118.58,1215.11 "/>
   <path class="fil0" d="M1145.56 1193.15l3.42 0 0 21.96 -3.42 0 0 -21.96zm0.06 -4.98c-0.44,-0.49 -0.67,-1.09 -0.67,-1.82 0,-0.7 0.22,-1.33 0.67,-1.83 0.43,-0.5 0.98,-0.78 1.65,-0.78 0.67,0 1.21,0.25 1.65,0.74 0.44,0.47 0.65,1.08 0.65,1.81 0,0.74 -0.21,1.37 -0.65,1.87 -0.44,0.53 -0.98,0.78 -1.65,0.78 -0.67,0 -1.22,-0.25 -1.65,-0.76z"/>
   <path class="fil0" d="M1173.5 1214.64c-1.43,-0.49 -2.54,-1.1 -3.35,-1.85l1.43 -3.15c0.83,0.69 1.82,1.24 3.01,1.67 1.2,0.42 2.39,0.61 3.61,0.61 2.99,0 4.47,-1 4.47,-2.97 0,-0.67 -0.19,-1.19 -0.59,-1.58 -0.41,-0.39 -0.91,-0.67 -1.52,-0.85 -0.61,-0.18 -1.47,-0.37 -2.58,-0.6 -1.52,-0.28 -2.76,-0.59 -3.72,-0.96 -0.96,-0.35 -1.78,-0.97 -2.47,-1.82 -0.7,-0.85 -1.04,-2.06 -1.04,-3.61 0,-1.99 0.72,-3.59 2.15,-4.79 1.42,-1.2 3.33,-1.8 5.72,-1.8 1.26,0 2.52,0.18 3.78,0.54 1.25,0.36 2.29,0.85 3.1,1.44l-1.46 3.15c-1.56,-1.17 -3.36,-1.74 -5.44,-1.74 -1.46,0 -2.56,0.28 -3.32,0.82 -0.76,0.56 -1.14,1.29 -1.14,2.19 0,0.72 0.21,1.29 0.65,1.71 0.41,0.41 0.94,0.71 1.57,0.92 0.63,0.18 1.52,0.4 2.65,0.65 1.53,0.3 2.75,0.63 3.68,0.98 0.93,0.33 1.74,0.93 2.4,1.75 0.68,0.83 1,1.98 1,3.48 0,1.99 -0.72,3.57 -2.18,4.74 -1.47,1.18 -3.46,1.76 -5.96,1.76 -1.54,0 -3.03,-0.25 -4.46,-0.72z"/>
   <path class="fil0" d="M1208.38 1214.64c-1.43,-0.49 -2.54,-1.1 -3.35,-1.85l1.43 -3.15c0.83,0.69 1.82,1.24 3.02,1.67 1.18,0.42 2.39,0.61 3.59,0.61 3,0 4.49,-1 4.49,-2.97 0,-0.67 -0.21,-1.19 -0.6,-1.58 -0.4,-0.39 -0.92,-0.67 -1.51,-0.85 -0.61,-0.18 -1.47,-0.37 -2.59,-0.6 -1.53,-0.28 -2.75,-0.59 -3.72,-0.96 -0.96,-0.35 -1.78,-0.97 -2.47,-1.82 -0.69,-0.85 -1.04,-2.06 -1.04,-3.61 0,-1.99 0.72,-3.59 2.14,-4.79 1.43,-1.2 3.35,-1.8 5.74,-1.8 1.25,0 2.51,0.18 3.76,0.54 1.26,0.36 2.3,0.85 3.11,1.44l-1.46 3.15c-1.56,-1.17 -3.36,-1.74 -5.44,-1.74 -1.46,0 -2.56,0.28 -3.32,0.82 -0.76,0.56 -1.14,1.29 -1.14,2.19 0,0.72 0.21,1.29 0.64,1.71 0.43,0.41 0.96,0.71 1.59,0.92 0.62,0.18 1.51,0.4 2.65,0.65 1.53,0.3 2.75,0.63 3.68,0.98 0.94,0.33 1.74,0.93 2.41,1.75 0.67,0.83 1,1.98 1,3.48 0,1.99 -0.72,3.57 -2.2,4.74 -1.46,1.18 -3.44,1.76 -5.96,1.76 -1.54,0 -3.02,-0.25 -4.44,-0.72z"/>
  </g>
 </g>
</svg>
