<?xml version="1.0" encoding="UTF-8"?>
<!DOCTYPE svg PUBLIC "-//W3C//DTD SVG 1.1//EN" "http://www.w3.org/Graphics/SVG/1.1/DTD/svg11.dtd">
<!-- Creator: CorelDRAW -->
<svg xmlns="http://www.w3.org/2000/svg" xml:space="preserve" width="1.66666in" height="1.66666in" version="1.1" style="shape-rendering:geometricPrecision; text-rendering:geometricPrecision; image-rendering:optimizeQuality; fill-rule:evenodd; clip-rule:evenodd"
viewBox="0 0 1666.66 1666.66"
 xmlns:xlink="http://www.w3.org/1999/xlink"
 xmlns:xodm="http://www.corel.com/coreldraw/odm/2003">
 <defs>
  <style type="text/css">
   <![CDATA[
    .fil0 {fill:#201E1E;fill-rule:nonzero}
   ]]>
  </style>
 </defs>
 <g id="Layer_x0020_1">
  <metadata id="CorelCorpID_0Corel-Layer"/>
  <g id="_2110167635920">
   <path class="fil0" d="M1129.35 1060.65c-8.58,5.03 -16.44,10.75 -21.08,20.1 10.11,8.25 20,16.32 30.6,24.97 6.72,-12.76 17.33,-20.17 30.74,-25.2 -8.14,-6.65 -15.41,-12.67 -22.72,-18.61 -8.29,-6.71 -8.29,-6.67 -17.53,-1.26z"/>
   <path class="fil0" d="M1045.11 1057.4c-11.03,5.61 -21.71,11.7 -27.92,23.33 9.79,7.98 19.43,15.83 29.46,24.01 6.36,-12.08 16.67,-19.3 29.52,-24.25 -9.52,-7.82 -18.24,-15.06 -27.1,-22.13 -0.97,-0.79 -3.04,-1.43 -3.96,-0.97z"/>
   <path class="fil0" d="M1151.85 853.98c-25.53,-0.75 -48.26,-8.36 -68.35,-23.64 -16.8,-12.78 -30.09,-28.69 -42.9,-45.08 -17.43,-22.28 -34.24,-45.06 -52.61,-66.57 -19.2,-22.46 -43,-39.37 -71.89,-48.75 -4.9,-1.58 -9.93,-2.83 -15.44,-4.41 5.43,-4.94 10.42,-9.28 15.17,-13.85 15.63,-15.07 29.88,-31.15 38.17,-51.39 8.48,-20.69 6.69,-40.25 -7.64,-57.98 -10.85,-13.4 -25.3,-22.35 -40.96,-29.6 -25.31,-11.75 -52.21,-18.08 -79.83,-21.61 -9.15,-1.15 -18.46,-1.14 -27.68,-1.65 -0.11,0.57 -0.21,1.15 -0.31,1.72 5.61,2.15 11.06,5.24 16.89,6.25 9.25,1.63 18.85,1.44 28.17,2.78 16.87,2.4 33.13,6.93 47.69,15.93 16.81,10.37 27.67,24.56 28.42,44.47 0.7,17.86 -6.57,33.31 -17.3,47.25 -20.03,25.98 -47.09,42.94 -77.71,54.47 -23.42,8.81 -46.38,18.22 -67.18,32.06 -0.36,0.25 -0.99,0.14 -1.74,0.2 5.39,-10.78 10.92,-21.11 15.81,-31.73 17.97,-39.09 32.14,-79.13 30.06,-122.85 -0.94,-19.47 -6.26,-37.75 -17.81,-53.96 -16.6,-23.25 -40.63,-35.72 -67.81,-43.24 -34.78,-9.61 -70.4,-10.44 -106.18,-8.79 -8.24,0.37 -16.44,1.18 -24.65,1.76 7.62,4.19 15.25,7.26 22.96,10.1 1.5,0.56 3.37,0.25 5.08,0.19 21.06,-0.78 42.15,-2.67 63.17,-2.11 21.79,0.58 42.94,5.62 62.04,16.61 23.13,13.35 36.68,32.26 34.94,59.37 -1.18,18.49 -9.58,34.21 -21.13,48.43 -20.14,24.86 -46.54,41.76 -75.59,54.98 -51.79,23.56 -106.96,33.22 -163.54,36.85 -10.35,0.67 -20.72,1.03 -31.61,1.57 0.78,2.86 1.35,5.26 2.06,7.63 23.22,76.85 56,149.56 99.82,217.44 35.07,54.35 76.6,103.29 128.81,143.07 70.48,53.72 150.32,80.96 240.12,79.37 13.36,-0.24 26.7,-1.68 40.04,-2.56 0.04,-0.54 0.1,-1.08 0.15,-1.61 -9.02,-3.74 -18.02,-7.51 -27.07,-11.17 -1.19,-0.47 -2.69,-0.33 -4.06,-0.33 -21.67,-0.06 -43.39,0.64 -65.01,-0.28 -30.92,-1.31 -60.94,-7.78 -89.47,-19.5 -76.86,-31.56 -119.71,-88.09 -128.18,-168.61 -2.61,-24.68 -0.44,-49.47 5.89,-73.68 2.32,-8.87 5.29,-17.58 7.96,-26.36 4.46,32.53 18.33,60.06 42.1,82.32 37.11,34.75 82.43,49.97 133.44,49.36 37.87,-0.46 72.18,-11.82 103.22,-33.31 15.37,-10.67 22.6,-25.25 26.92,-42.53 -0.72,0.57 -1.26,0.82 -1.54,1.22 -24.22,34.09 -57.8,52.47 -100.08,55.25 -33.86,2.22 -64.53,-6.93 -90.26,-28.74 -44.42,-37.63 -43.1,-96.58 2.69,-132.65 19.67,-15.51 42.41,-23.98 67.71,-25.68 21.53,-1.43 42.93,-1.19 63.81,5.14 24.14,7.32 44.85,20.56 64.04,36.09 21.98,17.78 43.19,36.51 65.41,54.04 25.33,20.02 53.25,35.14 86.94,36.42 9.99,0.37 20.04,-0.81 30.08,-1.26 0,-1.01 0.02,-2.06 0.03,-3.08 -11.42,-1.32 -22.82,-3.47 -34.27,-3.81z"/>
   <path class="fil0" d="M545.32 1190.17l0 -5.44 -7.86 0 0 35.3 8.25 0 0 -17.11c0,-3.61 0.93,-6.33 2.78,-8.17 1.86,-1.83 4.33,-2.75 7.47,-2.75 0.31,0 0.61,0.01 0.93,0.04 0.3,0.02 0.62,0.08 0.98,0.17l0 -7.86c-3.39,0 -6.22,0.61 -8.5,1.85 -1.75,0.94 -3.03,2.35 -4.06,3.98z"/>
   <path class="fil0" d="M589.57 1208.26c-0.89,1.68 -2.15,2.96 -3.74,3.83 -1.58,0.89 -3.39,1.33 -5.42,1.33 -1.98,0 -3.75,-0.44 -5.32,-1.33 -1.56,-0.87 -2.8,-2.15 -3.74,-3.83 -0.92,-1.67 -1.39,-3.63 -1.39,-5.87 0,-2.29 0.47,-4.26 1.39,-5.92 0.93,-1.65 2.18,-2.93 3.74,-3.81 1.57,-0.87 3.36,-1.32 5.39,-1.32 1.98,0 3.76,0.44 5.35,1.32 1.58,0.88 2.85,2.15 3.74,3.81 0.9,1.65 1.36,3.63 1.36,5.92 0,2.25 -0.46,4.21 -1.36,5.87zm0.6 -21.61c-2.83,-1.54 -6.1,-2.31 -9.75,-2.31 -3.61,0 -6.82,0.76 -9.65,2.31 -2.82,1.54 -5.04,3.68 -6.67,6.37 -1.64,2.71 -2.44,5.83 -2.44,9.36 0,3.47 0.81,6.58 2.44,9.32 1.63,2.72 3.85,4.87 6.67,6.44 2.83,1.56 6.04,2.35 9.65,2.35 3.65,0 6.92,-0.79 9.75,-2.35 2.85,-1.57 5.07,-3.72 6.67,-6.44 1.63,-2.74 2.42,-5.85 2.42,-9.32 0,-3.57 -0.79,-6.71 -2.42,-9.39 -1.59,-2.69 -3.82,-4.8 -6.67,-6.35z"/>
   <path class="fil0" d="M632.2 1208.26c-0.89,1.68 -2.15,2.96 -3.74,3.83 -1.58,0.89 -3.39,1.33 -5.41,1.33 -1.99,0 -3.75,-0.44 -5.32,-1.33 -1.56,-0.87 -2.8,-2.15 -3.74,-3.83 -0.91,-1.67 -1.39,-3.63 -1.39,-5.87 0,-2.29 0.47,-4.26 1.39,-5.92 0.93,-1.65 2.18,-2.93 3.74,-3.81 1.57,-0.87 3.36,-1.32 5.39,-1.32 1.99,0 3.76,0.44 5.35,1.32 1.59,0.88 2.85,2.15 3.74,3.81 0.91,1.65 1.36,3.63 1.36,5.92 0,2.25 -0.46,4.21 -1.36,5.87zm0.6 -21.61c-2.83,-1.54 -6.1,-2.31 -9.75,-2.31 -3.61,0 -6.82,0.76 -9.65,2.31 -2.82,1.54 -5.04,3.68 -6.67,6.37 -1.64,2.71 -2.44,5.83 -2.44,9.36 0,3.47 0.8,6.58 2.44,9.32 1.63,2.72 3.85,4.87 6.67,6.44 2.83,1.56 6.04,2.35 9.65,2.35 3.65,0 6.91,-0.79 9.75,-2.35 2.85,-1.57 5.07,-3.72 6.67,-6.44 1.63,-2.74 2.42,-5.85 2.42,-9.32 0,-3.57 -0.79,-6.71 -2.42,-9.39 -1.59,-2.69 -3.82,-4.8 -6.67,-6.35z"/>
   <path class="fil0" d="M677.41 1185.99c-2.24,-1.09 -4.75,-1.65 -7.57,-1.65 -3.08,0 -5.81,0.61 -8.17,1.8 -1.43,0.74 -2.58,1.74 -3.59,2.85l0 -18 -8.26 0 0 49.04 8.26 0 0 -17.85c0,-2.39 0.4,-4.35 1.22,-5.92 0.81,-1.57 1.97,-2.75 3.47,-3.54 1.49,-0.79 3.21,-1.18 5.15,-1.18 2.64,0 4.69,0.76 6.17,2.3 1.49,1.54 2.22,3.87 2.22,7l0 19.18 8.26 0 0 -20.24c0,-3.57 -0.64,-6.48 -1.92,-8.75 -1.28,-2.28 -3.03,-3.96 -5.25,-5.06z"/>
   <path class="fil0" d="M741.02 1208.26c-0.93,1.68 -2.17,2.96 -3.74,3.83 -1.57,0.89 -3.33,1.33 -5.32,1.33 -1.98,0 -3.76,-0.44 -5.35,-1.33 -1.6,-0.87 -2.85,-2.15 -3.76,-3.83 -0.93,-1.67 -1.39,-3.63 -1.39,-5.87 0,-2.29 0.46,-4.26 1.39,-5.92 0.92,-1.65 2.17,-2.93 3.76,-3.81 1.58,-0.87 3.36,-1.32 5.35,-1.32 1.99,0 3.75,0.44 5.32,1.32 1.57,0.88 2.81,2.15 3.74,3.81 0.92,1.65 1.39,3.63 1.39,5.92 0,2.25 -0.47,4.21 -1.39,5.87zm1.1 -21.68c-2.68,-1.48 -5.75,-2.24 -9.22,-2.24 -3,0 -5.67,0.64 -8,1.94 -1.44,0.81 -2.64,1.96 -3.69,3.28l0 -4.83 -7.87 0 0 48.13 8.26 0 0 -17.26c1.01,1.17 2.15,2.17 3.47,2.92 2.35,1.32 4.96,1.98 7.83,1.98 3.47,0 6.54,-0.76 9.22,-2.25 2.67,-1.5 4.78,-3.6 6.35,-6.32 1.56,-2.71 2.33,-5.89 2.33,-9.54 0,-3.67 -0.78,-6.83 -2.33,-9.53 -1.57,-2.68 -3.68,-4.78 -6.35,-6.28z"/>
   <path class="fil0" d="M786.27 1185.99c-2.24,-1.09 -4.75,-1.65 -7.57,-1.65 -3.08,0 -5.8,0.61 -8.17,1.8 -1.43,0.74 -2.58,1.74 -3.6,2.85l0 -18 -8.26 0 0 49.04 8.26 0 0 -17.85c0,-2.39 0.41,-4.35 1.22,-5.92 0.8,-1.57 1.97,-2.75 3.47,-3.54 1.48,-0.79 3.21,-1.18 5.15,-1.18 2.64,0 4.69,0.76 6.17,2.3 1.48,1.54 2.22,3.87 2.22,7l0 19.18 8.26 0 0 -20.24c0,-3.57 -0.64,-6.48 -1.92,-8.75 -1.28,-2.28 -3.03,-3.96 -5.25,-5.06z"/>
   <path class="fil0" d="M829.02 1208.26c-0.9,1.68 -2.15,2.96 -3.74,3.83 -1.58,0.89 -3.39,1.33 -5.42,1.33 -1.98,0 -3.75,-0.44 -5.32,-1.33 -1.56,-0.87 -2.8,-2.15 -3.74,-3.83 -0.92,-1.67 -1.39,-3.63 -1.39,-5.87 0,-2.29 0.47,-4.26 1.39,-5.92 0.93,-1.65 2.18,-2.93 3.74,-3.81 1.57,-0.87 3.36,-1.32 5.39,-1.32 1.98,0 3.76,0.44 5.35,1.32 1.58,0.88 2.83,2.15 3.74,3.81 0.9,1.65 1.36,3.63 1.36,5.92 0,2.25 -0.46,4.21 -1.36,5.87zm0.6 -21.61c-2.83,-1.54 -6.1,-2.31 -9.75,-2.31 -3.61,0 -6.82,0.76 -9.65,2.31 -2.82,1.54 -5.04,3.68 -6.67,6.37 -1.64,2.71 -2.44,5.83 -2.44,9.36 0,3.47 0.81,6.58 2.44,9.32 1.63,2.72 3.85,4.87 6.67,6.44 2.83,1.56 6.04,2.35 9.65,2.35 3.65,0 6.92,-0.79 9.75,-2.35 2.85,-1.57 5.07,-3.72 6.67,-6.44 1.63,-2.74 2.42,-5.85 2.42,-9.32 0,-3.57 -0.79,-6.71 -2.42,-9.39 -1.59,-2.69 -3.82,-4.8 -6.67,-6.35z"/>
   <path class="fil0" d="M860.92 1213.68c-1.56,0 -2.75,-0.46 -3.6,-1.39 -0.87,-0.93 -1.3,-2.22 -1.3,-3.89l0 -16.79 9.46 0 0 -6.63 -9.46 0 0 -8.06 -8.25 0 0 8.06 -5.82 0 0 6.63 5.82 0 0 16.98c0,3.92 1.06,6.89 3.17,8.88 2.12,2.01 5.11,3.03 8.98,3.03 1.5,0 2.96,-0.21 4.37,-0.6 1.41,-0.4 2.58,-1 3.56,-1.79l-2.3 -5.89c-1.24,0.97 -2.78,1.46 -4.63,1.46z"/>
   <path class="fil0" d="M898.49 1208.26c-0.89,1.68 -2.15,2.96 -3.74,3.83 -1.58,0.89 -3.39,1.33 -5.41,1.33 -1.99,0 -3.75,-0.44 -5.32,-1.33 -1.56,-0.87 -2.8,-2.15 -3.73,-3.83 -0.92,-1.67 -1.39,-3.63 -1.39,-5.87 0,-2.29 0.47,-4.26 1.39,-5.92 0.93,-1.65 2.18,-2.93 3.73,-3.81 1.57,-0.87 3.36,-1.32 5.39,-1.32 1.99,0 3.76,0.44 5.35,1.32 1.59,0.88 2.85,2.15 3.74,3.81 0.91,1.65 1.36,3.63 1.36,5.92 0,2.25 -0.46,4.21 -1.36,5.87zm0.6 -21.61c-2.83,-1.54 -6.1,-2.31 -9.75,-2.31 -3.61,0 -6.82,0.76 -9.65,2.31 -2.82,1.54 -5.04,3.68 -6.67,6.37 -1.64,2.71 -2.44,5.83 -2.44,9.36 0,3.47 0.8,6.58 2.44,9.32 1.63,2.72 3.85,4.87 6.67,6.44 2.83,1.56 6.04,2.35 9.65,2.35 3.65,0 6.91,-0.79 9.75,-2.35 2.85,-1.57 5.07,-3.72 6.67,-6.44 1.63,-2.74 2.42,-5.85 2.42,-9.32 0,-3.57 -0.79,-6.71 -2.42,-9.39 -1.59,-2.69 -3.82,-4.8 -6.67,-6.35z"/>
   <path class="fil0" d="M941.65 1206.58c-0.91,1.53 -2.18,2.71 -3.79,3.57 -1.64,0.85 -3.49,1.28 -5.56,1.28 -2.07,0 -3.93,-0.43 -5.6,-1.28 -1.65,-0.86 -2.93,-2.04 -3.82,-3.57 -0.91,-1.53 -1.36,-3.28 -1.36,-5.25 0,-1.98 0.46,-3.74 1.36,-5.26 0.89,-1.51 2.17,-2.68 3.82,-3.5 1.67,-0.82 3.53,-1.22 5.6,-1.22 2.07,0 3.91,0.4 5.56,1.22 1.61,0.82 2.89,1.99 3.79,3.5 0.9,1.53 1.35,3.28 1.35,5.26 0,1.97 -0.44,3.72 -1.35,5.25zm1.62 -16.93c-1.19,-1.44 -2.53,-2.71 -4.17,-3.53 -2.39,-1.19 -5.07,-1.78 -8.07,-1.78 -3.35,0 -6.37,0.69 -9.08,2.11 -2.71,1.4 -4.85,3.39 -6.4,5.94 -1.57,2.56 -2.36,5.53 -2.36,8.93 0,3.43 0.79,6.43 2.36,8.99 1.56,2.56 3.69,4.54 6.4,5.97 2.71,1.43 5.74,2.15 9.08,2.15 3,0 5.68,-0.61 8.07,-1.82 1.44,-0.74 2.67,-1.82 3.76,-3.04l0 2.01c0,3.57 -0.9,6.25 -2.71,8.04 -1.8,1.78 -4.65,2.67 -8.53,2.67 -2.43,0 -4.82,-0.39 -7.17,-1.15 -2.36,-0.78 -4.31,-1.8 -5.85,-3.07l-3.71 6.21c1.98,1.64 4.53,2.87 7.64,3.74 3.1,0.86 6.28,1.29 9.56,1.29 6.17,0 10.87,-1.52 14.14,-4.53 3.26,-3.02 4.89,-7.72 4.89,-14.11l0 -29.94 -7.86 0 0 4.92z"/>
   <path class="fil0" d="M969.85 1190.17l0 -5.44 -7.86 0 0 35.3 8.25 0 0 -17.11c0,-3.61 0.93,-6.33 2.78,-8.17 1.85,-1.83 4.33,-2.75 7.47,-2.75 0.31,0 0.61,0.01 0.93,0.04 0.3,0.02 0.62,0.08 0.98,0.17l0 -7.86c-3.39,0 -6.22,0.61 -8.5,1.85 -1.75,0.94 -3.03,2.35 -4.06,3.98z"/>
   <path class="fil0" d="M1008.17 1208.98c-0.69,1.81 -1.86,3.17 -3.47,4.1 -1.61,0.93 -3.43,1.39 -5.44,1.39 -2.13,0 -3.78,-0.43 -4.96,-1.32 -1.19,-0.87 -1.79,-2.07 -1.79,-3.57 0,-1.32 0.48,-2.43 1.46,-3.35 0.97,-0.89 2.86,-1.35 5.7,-1.35l8.51 0 0 4.1zm-7.79 -24.65c-2.83,0 -5.54,0.37 -8.17,1.08 -2.63,0.74 -4.87,1.82 -6.78,3.28l3.24 6.01c1.33,-1.09 2.94,-1.96 4.86,-2.58 1.92,-0.61 3.87,-0.92 5.85,-0.92 2.96,0 5.17,0.67 6.61,2.02 1.46,1.35 2.18,3.24 2.18,5.65l0 0.53 -9.11 0c-3.58,0 -6.44,0.47 -8.6,1.39 -2.17,0.93 -3.72,2.18 -4.67,3.78 -0.94,1.58 -1.42,3.36 -1.42,5.35 0,2.03 0.54,3.83 1.63,5.46 1.07,1.6 2.61,2.86 4.58,3.75 1.99,0.92 4.31,1.36 6.94,1.36 3.13,0 5.72,-0.57 7.76,-1.72 1.49,-0.82 2.52,-1.97 3.35,-3.29l0 4.56 7.79 0 0 -20.7c0,-5.09 -1.39,-8.87 -4.19,-11.33 -2.81,-2.44 -6.76,-3.67 -11.86,-3.67z"/>
   <path class="fil0" d="M1054.7 1208.26c-0.93,1.68 -2.17,2.96 -3.74,3.83 -1.57,0.89 -3.33,1.33 -5.32,1.33 -1.99,0 -3.76,-0.44 -5.35,-1.33 -1.6,-0.87 -2.85,-2.15 -3.76,-3.83 -0.93,-1.67 -1.39,-3.63 -1.39,-5.87 0,-2.29 0.46,-4.26 1.39,-5.92 0.91,-1.65 2.17,-2.93 3.76,-3.81 1.58,-0.87 3.36,-1.32 5.35,-1.32 1.98,0 3.75,0.44 5.32,1.32 1.57,0.88 2.81,2.15 3.74,3.81 0.93,1.65 1.39,3.63 1.39,5.92 0,2.25 -0.46,4.21 -1.39,5.87zm1.1 -21.68c-2.68,-1.48 -5.75,-2.24 -9.22,-2.24 -3,0 -5.67,0.64 -8,1.94 -1.44,0.81 -2.63,1.96 -3.69,3.28l0 -4.83 -7.87 0 0 48.13 8.26 0 0 -17.26c1.01,1.17 2.15,2.17 3.47,2.92 2.35,1.32 4.96,1.98 7.83,1.98 3.47,0 6.54,-0.76 9.22,-2.25 2.67,-1.5 4.78,-3.6 6.35,-6.32 1.56,-2.71 2.33,-5.89 2.33,-9.54 0,-3.67 -0.78,-6.83 -2.33,-9.53 -1.57,-2.68 -3.68,-4.78 -6.35,-6.28z"/>
   <path class="fil0" d="M1099.95 1185.99c-2.24,-1.09 -4.75,-1.65 -7.57,-1.65 -3.09,0 -5.81,0.61 -8.17,1.8 -1.43,0.74 -2.58,1.74 -3.59,2.85l0 -18 -8.27 0 0 49.04 8.27 0 0 -17.85c0,-2.39 0.4,-4.35 1.22,-5.92 0.81,-1.57 1.97,-2.75 3.47,-3.54 1.48,-0.79 3.21,-1.18 5.15,-1.18 2.64,0 4.69,0.76 6.17,2.3 1.49,1.54 2.22,3.87 2.22,7l0 19.18 8.27 0 0 -20.24c0,-3.57 -0.64,-6.48 -1.92,-8.75 -1.28,-2.28 -3.03,-3.96 -5.25,-5.06z"/>
   <path class="fil0" d="M1130.9 1210.84l-11.09 -26.11 -8.58 0 15.41 35.42 -0.62 1.4c-0.79,1.76 -1.65,3.02 -2.57,3.76 -0.93,0.75 -2.14,1.13 -3.64,1.13 -1.1,0 -2.18,-0.22 -3.24,-0.67 -1.06,-0.43 -2.02,-1.03 -2.85,-1.78l-3.29 6.08c1.12,1.02 2.57,1.81 4.29,2.38 1.71,0.57 3.43,0.86 5.15,0.86 1.99,0 3.81,-0.32 5.46,-0.93 1.64,-0.61 3.14,-1.69 4.48,-3.24 1.35,-1.54 2.57,-3.64 3.67,-6.28l16.53 -38.14 -7.93 0 -11.18 26.11z"/>
  </g>
 </g>
</svg>
