<?xml version="1.0" encoding="UTF-8"?>
<!DOCTYPE svg PUBLIC "-//W3C//DTD SVG 1.1//EN" "http://www.w3.org/Graphics/SVG/1.1/DTD/svg11.dtd">
<!-- Creator: CorelDRAW -->
<svg xmlns="http://www.w3.org/2000/svg" xml:space="preserve" width="1.66666in" height="1.66666in" version="1.1" style="shape-rendering:geometricPrecision; text-rendering:geometricPrecision; image-rendering:optimizeQuality; fill-rule:evenodd; clip-rule:evenodd"
viewBox="0 0 1666.66 1666.66"
 xmlns:xlink="http://www.w3.org/1999/xlink"
 xmlns:xodm="http://www.corel.com/coreldraw/odm/2003">
 <defs>
  <style type="text/css">
   <![CDATA[
    .fil0 {fill:#1BB1C5;fill-rule:nonzero}
   ]]>
  </style>
 </defs>
 <g id="Layer_x0020_1">
  <metadata id="CorelCorpID_0Corel-Layer"/>
  <g id="_2108009308688">
   <path class="fil0" d="M584.57 900.66c0,26.57 35.24,40.72 89.83,28.31 35.82,-7.79 79.72,-22.24 125.07,-36.97 -7.8,-7.79 -15.59,-14.15 -24.56,-19.07 -71.35,-38.98 -185.72,-14.14 -190.35,27.74z"/>
   <path class="fil0" d="M1048.25 875.36c-43.64,-12.78 -124.5,17.29 -124.5,17.29 61.49,47.3 107.97,43.79 132.83,27.78 42.11,-27.09 -8.33,-45.07 -8.33,-45.07z"/>
   <path class="fil0" d="M1037.78 823.82l0 -4.04c4.33,-2.3 6.93,-7.22 4.92,-13.29l-6.36 -23.4 -36.68 0 -6.36 23.4c-1.44,6.07 0.29,10.99 4.62,13.29l0 4.04 -36.4 0 0 -3.47c6.07,-2.02 11.28,-7.22 13.29,-13.86l29.75 -111.21c1.15,-4.61 -0.86,-9.82 -5.2,-12.42l0 -3.46 45.64 0 34.08 127.08c2.01,6.64 6.64,11.85 13.29,13.86l0 3.47 -54.6 0zm47.67 93.01c-5.5,13 -16.47,21.67 -32.93,26.28 -52.29,15.3 -115.83,-4.9 -161.47,-41.31 -18.19,5.79 -36.68,11.85 -55.46,18.21 11.26,27.43 10.97,57.18 -2.89,83.47 -12.42,22.24 -30.33,41.02 -57.49,40.14 -21.94,-0.86 -41.01,-15.3 -39.57,-36.09 2.03,-34.08 41.01,-34.08 45.93,-20.5 -18.48,-2.32 -23.11,24.54 -5.48,30.61 18.48,6.06 35.24,-6.07 45.64,-20.22 14.15,-20.8 11.83,-47.65 0.29,-72.78 -38.43,12.69 -76.26,25.13 -110.06,32.92 -37.85,8.37 -102.54,13.29 -128.83,-15.89 -19.35,-21.65 -13.28,-56.32 6.65,-75.67 38.69,-36.41 131.42,-42.18 193.53,-6.07 12.71,7.21 23.39,16.46 32.35,26.86 14.15,-4.63 28.02,-8.96 42.17,-13.29 -37.83,-30.04 -69.61,-49.68 -96.18,-49.68l-8.37 0 0 -3.47c5.48,-2.31 9.53,-7.22 9.53,-13.86l0 -110.04c0,-6.07 -4.04,-11.56 -9.53,-13.59l0 -3.46 55.17 0 0 3.46c-5.49,2.03 -9.53,7.52 -9.53,13.59l0 120.73c23.97,6.64 51.98,19.35 89.25,47.09 24.56,-6.94 49.68,-13.59 74.82,-17.92 38.11,-6.07 97.04,-6.64 117.85,25.71 7.8,11.85 10.11,30.92 4.62,44.78zm-409.03 -240.33c12.72,0 24.28,3.18 31.5,6.36 3.17,0.86 5.78,-0.29 6.64,-3.46l7.22 0 9.82 36.1 -14.44 0c-3.75,-14.72 -25.12,-24.26 -41.01,-22.82 -19.35,1.44 -25.71,23.41 0.86,32.64 27.73,10.11 63.56,18.78 63.56,55.17 0,32.36 -27.74,45.94 -55.46,45.94 -11.56,0 -21.67,-3.19 -32.35,-7.81 -5.79,-2.61 -13.58,-3.76 -15.61,5.2l-4.91 0 0 -54.89 6.64 0c3.76,10.69 9.25,21.96 18.19,30.04 10.11,9.54 30.92,15.89 42.47,5.79 6.92,-6.07 7.79,-17.06 2.02,-23.7 -11.56,-12.42 -41.59,-15.3 -60.07,-30.04 -9.54,-7.79 -14.46,-17.91 -14.46,-29.17 -0.86,-28.3 22.54,-45.36 49.39,-45.36zm213.75 0.01c12.14,0 26.58,4.32 31.48,6.35 4.92,2.03 5.78,-0.29 6.65,-3.46l6.64 0 9.53 36.1 -14.15 0c-10.39,-36.68 -63.83,-34.67 -67.31,20.51 -1.44,31.76 11.85,71.92 47.67,76.54l0 -55.75c0,-6.64 -4.04,-11.56 -9.53,-13.57l0 -3.47 55.17 0 0 3.47c-5.49,2.01 -9.25,6.93 -9.53,13l0.28 59.79c-14.72,6.64 -30.61,9.53 -46.79,9.82 -104.56,1.43 -97.33,-147.9 -10.11,-149.33zm-56.83 -176.53c-184.1,0 -333.33,149.25 -333.33,333.33 0,184.09 149.23,333.35 333.33,333.35 184.11,0 333.33,-149.25 333.33,-333.35 0,-184.08 -149.22,-333.33 -333.33,-333.33z"/>
   <polygon class="fil0" points="1003.4,768.94 1032.86,768.94 1018.13,714.07 "/>
  </g>
 </g>
</svg>
