<?xml version="1.0" encoding="UTF-8"?>
<!DOCTYPE svg PUBLIC "-//W3C//DTD SVG 1.1//EN" "http://www.w3.org/Graphics/SVG/1.1/DTD/svg11.dtd">
<!-- Creator: CorelDRAW -->
<svg xmlns="http://www.w3.org/2000/svg" xml:space="preserve" width="1.66666in" height="1.66666in" version="1.1" style="shape-rendering:geometricPrecision; text-rendering:geometricPrecision; image-rendering:optimizeQuality; fill-rule:evenodd; clip-rule:evenodd"
viewBox="0 0 1666.66 1666.66"
 xmlns:xlink="http://www.w3.org/1999/xlink"
 xmlns:xodm="http://www.corel.com/coreldraw/odm/2003">
 <defs>
  <style type="text/css">
   <![CDATA[
    .fil0 {fill:#325C92;fill-rule:nonzero}
   ]]>
  </style>
 </defs>
 <g id="Layer_x0020_1">
  <metadata id="CorelCorpID_0Corel-Layer"/>
  <g id="_2108447898224">
   <path class="fil0" d="M865.63 1022.67c-2.65,17.1 -9.8,29.68 -14.47,37.76 -12.36,21.46 -28.36,34.93 -38.39,42.18 -27.93,-10.65 -61.63,-26.82 -94.72,-53.1 -50.67,-40.22 -107.93,-107.8 -134.36,-217.2 0,0 -38.91,-171.32 27.54,-295.06l34.18 23.6c-19.39,86.02 16.9,157.99 29.82,183.58 1.78,3.52 39.17,76.28 92.44,116 4.99,3.72 20.11,14.6 37.63,32.41 11.46,11.64 25.97,26.58 38.71,49.14 11.46,20.26 26.8,47.44 21.62,80.69zm4.17 -144.46c-16.72,-19.58 -33.17,-33.64 -45.14,-42.86 -40.67,-28.8 -66.26,-59.4 -81.15,-80.13 -20.39,-28.4 -51.1,-71.17 -52.89,-131.21 -0.58,-19.61 1.94,-40.32 8.6,-62.01 0,0 37.19,-100.9 113.56,-142.78 0,0 60.69,39.97 88.09,93.28l45.04 -30.46c0,0 -66.57,-87.56 -133.14,-129.44 0,0 -109.64,70.43 -146.85,152.29 -0.26,0.57 -0.56,1.21 -0.83,1.8l-83.36 -45.59c0,0 -142.92,258.9 7.83,517.78 15.08,25.64 36.4,56.03 66.32,86.42 56.32,57.21 116.93,87.82 156.89,103.96 0,0 80.28,-32.37 105.72,-129.44 9.02,-43.09 1.06,-74.6 -4.5,-90.6 -10.93,-31.46 -27.76,-51.79 -44.19,-71z"/>
   <path class="fil0" d="M1043.8 459.2c0,0 -146.85,70.1 -231.04,191.15l-79.57 -90.25 -12.44 57.1c0,0 82.24,89.47 92.02,161.81 0,0 50.91,-194.17 207.54,-241.75 0,0 45.83,174.07 27.42,277.92 -19.58,110.4 -25.46,163.71 -101.82,266.51 0,0 93.98,-76.15 148.81,-234.15 0,0 48.96,-209.39 -50.91,-388.33z"/>
   <path class="fil0" d="M497.29 1254.39c-5.86,-2.12 -9.65,-4.08 -11.36,-5.85 -1.71,-1.76 -2.57,-4.08 -2.57,-6.97 0,-3.39 1.19,-6.15 3.57,-8.29 2.37,-2.15 5.46,-3.22 9.25,-3.22 4.9,0 8.82,1.48 11.78,4.43 2.93,2.96 4.69,7.19 5.24,12.71l3.01 0c-0.07,-1.94 -0.11,-3.76 -0.17,-5.44 -0.04,-1.68 -0.07,-3.26 -0.07,-4.76 0,-0.98 0.03,-2.22 0.07,-3.68 0.06,-1.47 0.1,-3.17 0.17,-5.09l-2.82 0 -0.74 3.61c-2.6,-1.86 -5.39,-3.25 -8.4,-4.17 -3,-0.91 -6.21,-1.37 -9.6,-1.37 -6.87,0 -12.33,1.74 -16.37,5.22 -4.04,3.48 -6.06,8.15 -6.06,14.03 0,3.09 0.57,5.75 1.71,7.98 1.14,2.24 2.96,4.24 5.46,6 2.6,1.86 6.93,3.85 13.04,5.94 1.21,0.39 2.09,0.69 2.68,0.89 4.79,1.72 8.07,3.48 9.86,5.3 1.78,1.83 2.68,4.18 2.68,7.03 0,3.63 -1.19,6.49 -3.57,8.59 -2.37,2.09 -5.58,3.15 -9.61,3.15 -5.53,0 -9.96,-1.8 -13.3,-5.39 -3.35,-3.61 -5.21,-8.6 -5.57,-14.99l-3.29 0c0,1.04 0.04,2.5 0.1,4.36 0.07,3.06 0.09,5.04 0.09,5.93 0,1.06 -0.06,3.38 -0.14,6.93 -0.03,1.9 -0.06,3.36 -0.06,4.4l2.74 0 1.15 -4.57c2.8,2.33 5.79,4.07 8.93,5.22 3.14,1.17 6.53,1.74 10.18,1.74 7.15,0 12.89,-1.76 17.21,-5.31 4.3,-3.53 6.47,-8.22 6.47,-14.04 0,-4.57 -1.37,-8.3 -4.11,-11.14 -2.75,-2.85 -8.61,-5.9 -17.59,-9.18z"/>
   <path class="fil0" d="M598.26 1227.59c-0.93,0 -2.15,-0.04 -3.68,-0.11 -1.53,-0.07 -3.71,-0.18 -6.54,-0.35l-18.46 50.56 -18.42 -50.56c-3.01,0.17 -5.39,0.28 -7.11,0.35 -1.74,0.07 -3.15,0.11 -4.26,0.11 -1.19,0 -2.64,-0.04 -4.29,-0.11 -1.67,-0.07 -3.74,-0.18 -6.21,-0.35l0 3.65c3.49,0.06 5.67,0.37 6.54,0.94 0.89,0.57 1.32,1.82 1.32,3.78l0 0.44 -0.56 44.21c-0.06,4.5 -0.58,7.18 -1.6,8.06 -0.98,0.86 -3.33,1.35 -7,1.44l-0.04 3.6c1.97,-0.13 3.86,-0.21 5.67,-0.28 1.79,-0.06 3.46,-0.08 4.97,-0.08 1.35,0 2.86,0.03 4.53,0.08 1.67,0.07 3.44,0.15 5.32,0.28l0 -3.6c-3.18,0 -5.26,-0.54 -6.26,-1.6 -1.02,-1.07 -1.5,-3.44 -1.5,-7.14l0 -1.13 0.46 -46.41 0.65 0 21.42 58.97 4.48 0.44 21.78 -59.41 0.47 0 -0.1 48.53c0,3.39 -0.46,5.54 -1.36,6.41 -0.91,0.89 -3.06,1.33 -6.41,1.33l0 3.6c3.86,-0.18 6.82,-0.31 8.86,-0.36 2.06,-0.07 3.74,-0.1 5.07,-0.1 1.32,0 2.97,0.03 4.94,0.1 1.97,0.06 4.82,0.18 8.51,0.36l0 -3.6c-3.36,0 -5.5,-0.42 -6.4,-1.25 -0.92,-0.82 -1.37,-2.99 -1.37,-6.5l0 -43.75c0,-3.3 0.47,-5.33 1.4,-6.13 0.92,-0.76 3.04,-1.19 6.37,-1.25l0 -3.65c-2.65,0.17 -4.86,0.28 -6.61,0.35 -1.76,0.07 -3.29,0.11 -4.58,0.11z"/>
   <path class="fil0" d="M694.8 1285.52c-3.46,2.57 -7.72,3.86 -12.81,3.86 -7.37,0 -13,-2.56 -16.89,-7.67 -3.89,-5.11 -5.83,-12.54 -5.83,-22.29 0,-9.74 1.8,-17.08 5.41,-22.03 3.61,-4.94 8.99,-7.43 16.11,-7.43 5.85,0 10.56,1.92 14.14,5.74 3.58,3.83 5.65,9.2 6.21,16.09l3.15 0c-0.04,-0.75 -0.07,-1.81 -0.11,-3.2 -0.06,-3.26 -0.08,-5.48 -0.08,-6.65 0,-1.98 0.08,-5.33 0.26,-10.07 0.04,-0.91 0.07,-1.58 0.11,-2.07l-3.07 0 -0.82 4.58c-2.63,-2.58 -5.79,-4.57 -9.5,-5.97 -3.68,-1.42 -7.64,-2.12 -11.83,-2.12 -9.93,0 -17.98,3.19 -24.17,9.56 -6.18,6.37 -9.28,14.67 -9.28,24.9 0,10.04 3.03,18.11 9.1,24.19 6.06,6.09 14.08,9.13 24.07,9.13 7.38,0 13.35,-1.69 17.96,-5.08 4.6,-3.39 7.37,-8.19 8.36,-14.43l-3.52 0c-1.19,4.74 -3.53,8.39 -6.98,10.97z"/>
   <path class="fil0" d="M744.17 1285.83c-1.92,3.42 -4.65,5.13 -8.24,5.13 -3.49,0 -6.15,-1.71 -8.03,-5.13 -1.86,-3.42 -2.79,-8.32 -2.79,-14.71 0,-6.32 0.96,-11.19 2.89,-14.64 1.93,-3.43 4.67,-5.15 8.21,-5.15 3.49,0 6.15,1.71 8.03,5.14 1.86,3.42 2.81,8.31 2.81,14.65 0,6.39 -0.96,11.29 -2.87,14.71zm-8.06 -37.72c-6.47,0 -11.82,2.18 -16.02,6.56 -4.22,4.39 -6.33,10.03 -6.33,16.96 0,6.86 2.03,12.32 6.06,16.38 4.03,4.04 9.44,6.07 16.3,6.07 6.41,0 11.75,-2.17 15.98,-6.47 4.24,-4.33 6.36,-9.82 6.36,-16.47 0,-7.09 -1.99,-12.71 -5.96,-16.85 -3.98,-4.11 -9.44,-6.17 -16.39,-6.17z"/>
   <path class="fil0" d="M813.42 1283.85l0 -19.25c0,-5.72 -1.18,-9.92 -3.53,-12.54 -2.33,-2.64 -6.02,-3.96 -11.06,-3.96 -3.82,0 -7.21,0.89 -10.19,2.68 -2.97,1.78 -5.47,4.43 -7.52,7.93l0 -10.61c-2.93,0.39 -5.89,0.7 -8.89,0.92 -2.99,0.22 -5.99,0.37 -9.02,0.47l0 3.25c3.52,0.03 5.67,0.33 6.47,0.93 0.81,0.61 1.21,2.07 1.21,4.4l0 25.78c0,2.69 -0.35,4.35 -1.06,4.92 -0.72,0.59 -2.86,1.04 -6.44,1.33l0 3.15c3.43,-0.18 6.06,-0.3 7.89,-0.36 1.83,-0.07 3.33,-0.09 4.51,-0.09 0.99,0 2.32,0.03 4.03,0.09 1.7,0.06 4.18,0.18 7.44,0.36l0 -3.15c-2.56,-0.24 -4.17,-0.65 -4.82,-1.24 -0.64,-0.58 -0.96,-2.25 -0.96,-5.01l0 -17.86c0,-2.96 1.39,-5.85 4.15,-8.67 2.78,-2.83 5.76,-4.22 8.93,-4.22 2.9,0 4.98,0.82 6.25,2.49 1.26,1.67 1.89,4.46 1.89,8.39l0 19.87c0,2.72 -0.35,4.37 -1.03,4.96 -0.71,0.56 -2.76,1 -6.18,1.29l0 3.15c3.29,-0.17 5.88,-0.29 7.72,-0.35 1.85,-0.07 3.35,-0.11 4.48,-0.11 0.96,0 2.25,0.03 3.89,0.09 1.63,0.06 4.14,0.18 7.48,0.36l0 -3.15c-2.48,-0.24 -4.07,-0.64 -4.7,-1.18 -0.65,-0.56 -0.97,-2.25 -0.97,-5.07z"/>
   <path class="fil0" d="M847.69 1266.81c-0.3,-0.1 -0.8,-0.25 -1.48,-0.46 -7.53,-2.18 -11.28,-4.86 -11.28,-8 0,-2.03 0.81,-3.69 2.43,-4.94 1.61,-1.26 3.75,-1.89 6.4,-1.89 3.42,0 6.17,0.91 8.24,2.76 2.06,1.83 3.32,4.48 3.79,7.93l2.82 0 0 -0.26c-0.13,-2.76 -0.18,-4.78 -0.18,-6.07 0,-0.69 0.04,-1.76 0.14,-3.24 0.09,-1.47 0.15,-2.56 0.18,-3.25l-2.87 0 -0.74 2.79c-1.76,-1.35 -3.67,-2.35 -5.74,-2.99 -2.07,-0.64 -4.36,-0.96 -6.89,-0.96 -4.94,0 -8.89,1.24 -11.89,3.69 -2.99,2.47 -4.49,5.76 -4.49,9.83 0,3.26 0.99,5.85 2.96,7.74 1.97,1.89 6.44,3.89 13.41,5.98 4.04,1.2 6.71,2.38 8,3.53 1.31,1.15 1.94,2.7 1.94,4.65 0,2.2 -0.83,3.92 -2.5,5.2 -1.67,1.28 -3.94,1.92 -6.85,1.92 -4.15,0 -7.35,-1.1 -9.56,-3.3 -2.21,-2.19 -3.44,-5.46 -3.71,-9.79l-2.97 0 0 2.92 0 3.14c0,1.57 -0.04,4.2 -0.14,7.88 0,0.59 -0.02,1.06 -0.04,1.36l2.78 0 0.74 -2.79c1.9,1.32 3.94,2.29 6.11,2.92 2.15,0.63 4.52,0.94 7.07,0.94 5.56,0 9.94,-1.28 13.17,-3.82 3.22,-2.56 4.83,-6 4.83,-10.35 0,-3.24 -1.02,-5.85 -3.04,-7.82 -2.01,-1.99 -5.57,-3.74 -10.65,-5.26z"/>
   <path class="fil0" d="M915.96 1284.04l0 -35.93c-2.4,0.32 -5,0.59 -7.78,0.79 -2.78,0.22 -6.06,0.42 -9.85,0.6l0 3.19c3.15,0.08 5.1,0.43 5.85,1.03 0.76,0.6 1.13,2.06 1.13,4.36l0 23.11c-1,2.5 -2.6,4.44 -4.75,5.83 -2.17,1.39 -4.68,2.08 -7.56,2.08 -3.17,0 -5.41,-0.75 -6.76,-2.26 -1.35,-1.52 -2.01,-4.14 -2.01,-7.85l0 -30.89c-2.85,0.32 -5.72,0.59 -8.67,0.85 -2.96,0.24 -5.93,0.43 -8.96,0.58l0 3.19c3.15,0.06 5.1,0.39 5.86,0.99 0.75,0.6 1.13,2.06 1.13,4.36l0 19.79c0,5.67 1.21,9.78 3.62,12.35 2.42,2.56 6.28,3.85 11.54,3.85 3.89,0 7.17,-0.6 9.86,-1.78 2.68,-1.18 4.98,-3.04 6.93,-5.56l0.19 6.53c2.1,-0.1 3.83,-0.17 5.2,-0.21 1.39,-0.04 2.39,-0.07 3.04,-0.07 1.75,0 3.18,0.02 4.28,0.03 1.08,0 2.15,0.04 3.17,0.07l0 -3.15c-2.47,-0.22 -4,-0.58 -4.58,-1.13 -0.58,-0.54 -0.87,-2.13 -0.87,-4.76z"/>
   <path class="fil0" d="M944.6 1283.85l0 -59.14c-4.07,0.3 -7.56,0.51 -10.44,0.65 -2.92,0.14 -5.61,0.22 -8.11,0.29l-0.04 3.11c3.85,0.11 6.15,0.48 6.88,1.09 0.71,0.61 1.08,2 1.08,4.17l0 49.82c0,2.72 -0.37,4.39 -1.08,4.97 -0.72,0.58 -2.75,1.03 -6.1,1.33l0 3.1c3.86,-0.18 6.63,-0.3 8.29,-0.36 1.67,-0.07 2.94,-0.09 3.83,-0.09 1.14,0 2.67,0.03 4.56,0.09 1.9,0.06 4.71,0.18 8.4,0.36l0 -3.15c-3.21,-0.11 -5.22,-0.47 -6.04,-1.06 -0.81,-0.58 -1.22,-2.3 -1.22,-5.19z"/>
   <path class="fil0" d="M981 1287.63c-1.02,0.75 -2.26,1.12 -3.75,1.12 -2,0 -3.43,-0.59 -4.3,-1.79 -0.86,-1.21 -1.28,-3.35 -1.28,-6.44l0 -1.53 0.68 -25.18 11.65 0 0 -3.2 -11.56 0 0.37 -13.89 -3.43 0c-0.74,3.59 -2.14,6.57 -4.2,8.94 -2.07,2.36 -4.89,4.22 -8.47,5.57l0 2.57 5 0 -0.64 25.54 0 1.35c0,4.86 0.92,8.31 2.79,10.33 1.88,2.02 4.97,3.03 9.32,3.03 3.18,0 5.93,-0.79 8.24,-2.39 2.3,-1.58 3.9,-3.75 4.76,-6.51l-2.49 -1.13c-0.78,1.65 -1.68,2.85 -2.69,3.6z"/>
   <path class="fil0" d="M1018.76 1282.63c-1.51,2.17 -3.19,3.82 -5.03,5 -1.83,1.17 -3.67,1.75 -5.47,1.75 -1.98,0 -3.57,-0.68 -4.79,-2.03 -1.22,-1.35 -1.83,-3.13 -1.83,-5.35 0,-2.79 1.14,-4.93 3.37,-6.41 2.26,-1.5 6.87,-2.87 13.85,-4.17l-0.1 11.19zm16.32 5.11c-0.68,0.4 -1.43,0.59 -2.26,0.59 -1.39,0 -2.35,-0.39 -2.89,-1.17 -0.54,-0.78 -0.81,-2.58 -0.81,-5.43l0 -2.04 0.08 -16.32 0 -0.26c0,-5.19 -1.35,-8.99 -4.04,-11.4 -2.7,-2.42 -6.92,-3.63 -12.65,-3.63 -5.21,0 -9.67,1.17 -13.36,3.51 -3.71,2.35 -5.56,5.06 -5.56,8.14 0,1.37 0.4,2.47 1.19,3.28 0.81,0.81 1.89,1.22 3.25,1.22 1.44,0 2.65,-0.58 3.63,-1.71 0.97,-1.14 1.46,-2.57 1.46,-4.28 0,-0.59 -0.03,-1.25 -0.1,-1.93 -0.06,-0.7 -0.17,-1.53 -0.32,-2.53 1.11,-0.83 2.31,-1.47 3.61,-1.9 1.29,-0.43 2.67,-0.65 4.11,-0.65 3.08,0 5.26,0.76 6.53,2.29 1.26,1.53 1.9,4.36 1.9,8.5l0 4.94c0,1.06 -1.35,1.82 -4.03,2.29 -1.24,0.21 -2.26,0.4 -3.1,0.59 -8.58,1.74 -14.13,3.59 -16.67,5.53 -2.53,1.94 -3.79,4.7 -3.79,8.28 0,3.19 1.07,5.74 3.18,7.6 2.11,1.85 4.97,2.79 8.57,2.79 3.54,0 6.56,-0.58 9,-1.71 2.46,-1.14 4.83,-3.06 7.15,-5.72 0.31,2.61 1.13,4.5 2.47,5.67 1.35,1.18 3.35,1.76 6.04,1.76 2.33,0 4.48,-0.6 6.44,-1.78 1.96,-1.19 3.57,-2.89 4.83,-5.11l-1.98 -1.29c-0.58,0.83 -1.22,1.46 -1.91,1.86z"/>
   <path class="fil0" d="M1090.86 1283.85l0 -19.25c0,-5.72 -1.18,-9.92 -3.53,-12.54 -2.33,-2.64 -6.01,-3.96 -11.06,-3.96 -3.82,0 -7.21,0.89 -10.19,2.68 -2.97,1.78 -5.47,4.43 -7.52,7.93l0 -10.61c-2.93,0.39 -5.89,0.7 -8.89,0.92 -2.99,0.22 -5.99,0.37 -9.02,0.47l0 3.25c3.52,0.03 5.67,0.33 6.47,0.93 0.81,0.61 1.21,2.07 1.21,4.4l0 25.78c0,2.69 -0.35,4.35 -1.06,4.92 -0.72,0.59 -2.86,1.04 -6.44,1.33l0 3.15c3.43,-0.18 6.06,-0.3 7.89,-0.36 1.83,-0.07 3.33,-0.09 4.51,-0.09 0.99,0 2.32,0.03 4.03,0.09 1.7,0.06 4.18,0.18 7.44,0.36l0 -3.15c-2.56,-0.24 -4.17,-0.65 -4.82,-1.24 -0.64,-0.58 -0.96,-2.25 -0.96,-5.01l0 -17.86c0,-2.96 1.39,-5.85 4.15,-8.67 2.78,-2.83 5.76,-4.22 8.93,-4.22 2.9,0 4.98,0.82 6.25,2.49 1.25,1.67 1.89,4.46 1.89,8.39l0 19.87c0,2.72 -0.35,4.37 -1.03,4.96 -0.71,0.56 -2.76,1 -6.18,1.29l0 3.15c3.29,-0.17 5.87,-0.29 7.72,-0.35 1.85,-0.07 3.35,-0.11 4.48,-0.11 0.96,0 2.25,0.03 3.89,0.09 1.63,0.06 4.14,0.18 7.48,0.36l0 -3.15c-2.48,-0.24 -4.07,-0.64 -4.71,-1.18 -0.65,-0.56 -0.97,-2.25 -0.97,-5.07z"/>
   <path class="fil0" d="M1137.7 1286.41c-2.53,1.57 -5.52,2.33 -9,2.33 -4.6,0 -8.14,-1.52 -10.61,-4.54 -2.49,-3.03 -3.74,-7.33 -3.74,-12.94 0,-6.15 1.22,-10.98 3.64,-14.53 2.42,-3.54 5.69,-5.3 9.82,-5.3 2.39,0 4.4,0.44 6.07,1.35 1.67,0.89 2.5,1.83 2.5,2.79 0,0.29 -0.2,0.93 -0.58,1.9 -0.39,0.97 -0.59,1.89 -0.59,2.72 0,1.59 0.49,2.91 1.43,3.96 0.96,1.06 2.17,1.58 3.63,1.58 1.44,0 2.58,-0.44 3.39,-1.33 0.82,-0.89 1.22,-2.1 1.22,-3.67 0,-3.44 -1.67,-6.42 -5.02,-8.9 -3.35,-2.49 -7.51,-3.74 -12.51,-3.74 -7.33,0 -13.22,2.22 -17.67,6.65 -4.44,4.44 -6.67,10.3 -6.67,17.59 0,6.68 2.02,11.97 6.02,15.88 4.01,3.89 9.46,5.85 16.33,5.85 5.21,0 9.57,-1.14 13.04,-3.4 3.48,-2.26 6.07,-5.64 7.72,-10.14l-2.48 -1.08c-1.46,3.1 -3.43,5.42 -5.94,6.97z"/>
   <path class="fil0" d="M1190.32 1249.31c-1.3,0.06 -2.44,0.08 -3.47,0.08 -1.2,0 -2.47,-0.03 -3.81,-0.08 -1.35,-0.06 -2.76,-0.15 -4.24,-0.28l0 3.11c2.18,0.06 3.72,0.29 4.57,0.69 0.87,0.4 1.3,1.07 1.3,2 0,1.11 -0.51,3.21 -1.54,6.32 -1.04,3.1 -3.47,9.53 -7.29,19.26l-9.43 -22.35c-0.37,-0.86 -0.64,-1.57 -0.76,-2.1 -0.15,-0.51 -0.22,-0.96 -0.22,-1.32 0,-0.9 0.4,-1.54 1.18,-1.9 0.79,-0.39 2.11,-0.57 3.96,-0.57l0 -3.15c-2.04,0.13 -4.04,0.22 -6.02,0.28 -1.97,0.06 -3.91,0.08 -5.83,0.08 -1.63,0 -3.33,-0.03 -5.13,-0.08 -1.79,-0.06 -3.67,-0.15 -5.6,-0.28l0 3.15c2.99,0.33 5.2,2.04 6.61,5.13 0.09,0.22 0.18,0.37 0.24,0.5l16 34.81c-1.54,5 -3.02,8.86 -4.42,11.54 -1.41,2.68 -2.61,4.02 -3.64,4.02 -0.48,0 -1.32,-0.58 -2.51,-1.75 -1.19,-1.17 -2.54,-1.75 -4.1,-1.75 -1.44,0 -2.67,0.43 -3.65,1.3 -0.98,0.88 -1.48,1.93 -1.48,3.2 0,1.4 0.61,2.58 1.83,3.5 1.22,0.93 2.79,1.39 4.69,1.39 3.26,0 6,-1.17 8.19,-3.53 2.18,-2.35 4.61,-6.94 7.26,-13.78l15.54 -39.81c0.67,-1.74 1.44,-2.96 2.33,-3.67 0.87,-0.69 2.06,-1.08 3.54,-1.14l0 -3.11c-1.46,0.13 -2.83,0.22 -4.12,0.28z"/>
  </g>
 </g>
</svg>
