<?xml version="1.0" encoding="UTF-8"?>
<!DOCTYPE svg PUBLIC "-//W3C//DTD SVG 1.1//EN" "http://www.w3.org/Graphics/SVG/1.1/DTD/svg11.dtd">
<!-- Creator: CorelDRAW -->
<svg xmlns="http://www.w3.org/2000/svg" xml:space="preserve" width="1.66666in" height="1.66666in" version="1.1" style="shape-rendering:geometricPrecision; text-rendering:geometricPrecision; image-rendering:optimizeQuality; fill-rule:evenodd; clip-rule:evenodd"
viewBox="0 0 1666.66 1666.66"
 xmlns:xlink="http://www.w3.org/1999/xlink"
 xmlns:xodm="http://www.corel.com/coreldraw/odm/2003">
 <defs>
  <style type="text/css">
   <![CDATA[
    .fil1 {fill:#FBB657}
    .fil0 {fill:#E75F68}
    .fil3 {fill:#6D4F82}
    .fil2 {fill:#6D4F82;fill-rule:nonzero}
   ]]>
  </style>
 </defs>
 <g id="Layer_x0020_1">
  <metadata id="CorelCorpID_0Corel-Layer"/>
  <g id="_2110174875920">
   <path class="fil0" d="M1121.89 605.95c10.64,15.19 20.24,30.8 28.81,46.75l51.85 -36.32 -0.9 0.63 95.97 -67.15c25.51,-16.32 32.96,-50.24 16.65,-75.75 -16.32,-25.52 -50.24,-32.97 -75.75,-16.65l-150.69 105.44 34.07 43.06zm-169.37 -15.65c90.31,16.94 163.14,66.32 198.29,137.33 -7.08,-110.33 -96.98,-184.88 -200.22,-209.65 13.8,21.86 14.58,49.72 1.93,72.32zm-378.11 120.63c-21.65,-7.21 -38.65,-24.6 -45.35,-46.49 -44.56,60.86 -62.07,132.21 -43.71,200.75 3.46,12.93 8.15,25.28 13.96,37.01 -4.33,-67.76 23.24,-135.61 75.1,-191.28zm648.5 -125.92c7.4,-31.78 -14.33,-62.87 -46.74,-66.83l70.36 -49.24c28.12,-18.54 69.5,6.61 61.4,43.47 -2.54,11.57 -8.46,19.06 -18.35,25.94l-66.68 46.65zm-732.24 319.5c-5.81,-11.72 -10.5,-24.08 -13.96,-37l20.37 76.04c37.53,140.07 219.36,213.06 406.13,163.02 186.76,-50.04 307.74,-204.17 270.2,-344.24l-20.37 -76.04c3.46,12.92 5.57,25.96 6.41,39.03 8.25,128.6 -107.09,259.78 -276.61,305.21 -169.54,45.43 -335.01,-10.53 -392.17,-126.01z"/>
   <polygon class="fil1" points="1322.91,963.3 1268.66,983.59 1248.37,1037.84 1228.07,983.59 1173.83,963.3 1228.07,943.01 1248.37,888.76 1268.66,943.01 "/>
   <polygon class="fil1" points="587.84,532.95 533.59,553.24 513.3,607.49 493.01,553.24 438.76,532.95 493.01,512.66 513.3,458.41 533.59,512.66 "/>
   <path class="fil1" d="M1108.61 815.88l-32.56 12.18 -12.17 32.54 -12.18 -32.54 -32.56 -12.18 32.56 -12.18 12.18 -32.54 12.17 32.54 32.56 12.18zm-342.21 166.65l-32.54 12.17 -12.18 32.56 -12.18 -32.56 -32.54 -12.17 32.54 -12.18 12.18 -32.56 12.18 32.56 32.54 12.18z"/>
   <path class="fil2" d="M364.7 967.97l57.86 -28.9 -3.7 -12.57 -33.79 -3.21 26.65 -21 -3.69 -12.57 -64.29 7.07 4.24 14.37 36.51 -4.61 -31.37 22.1 2.17 7.37 38.47 1.63 -33.29 15.93 4.24 14.39zm30.42 53.87l7.83 13.89 42.97 -53.42 -6.89 -12.22 -67.96 9.09 7.83 13.89 13.86 -2.26 11.46 20.35 -9.11 10.68zm13.46 -33.51l17.38 -2.81 -11.41 13.39 -5.97 -10.58zm16.68 78.11c4.15,5.06 9.07,8.51 14.22,10.31l-2.86 2.35 8.06 9.83 27.97 -22.9 -19.54 -23.86 -9.98 8.18 9.5 11.6c-6.31,1.74 -12.87,0 -16.48,-4.4 -5.96,-7.26 -4.2,-16.81 4.39,-23.83 8.67,-7.1 18.36,-6.94 24.31,0.32 2.89,3.53 3.67,9.26 2,14.56l15.35 4.97c2.67,-9.18 0.97,-19.32 -6.48,-28.43 -12.68,-15.49 -31.56,-15.47 -45.52,-4.04 -13.87,11.36 -17.6,29.87 -4.92,45.36zm30.75 33.76l10.28 10.9 46.32 -43.69 -10.29 -10.9 -46.3 43.69zm45.85 41.97c9.63,6.78 19.86,7.72 28.82,4.39l-6.04 -14.82c-5.03,2.04 -10.89,1.62 -14.7,-1.06 -7.68,-5.41 -8.54,-15.07 -2.14,-24.14 6.44,-9.17 15.82,-11.61 23.5,-6.19 3.72,2.63 6.1,8 5.9,13.54l16.04 0.63c0.11,-9.56 -4.24,-18.87 -13.86,-25.65 -16.36,-11.53 -34.56,-6.46 -44.93,8.28 -10.33,14.67 -8.97,33.5 7.4,45.03zm50.29 33.22l13.06 7.38 31.32 -55.44 -13.06 -7.36 -31.32 55.43zm87.9 -27.06l-16.06 34.71 -4.44 -44.18 -13.61 -6.29 -26.72 57.78 13.59 6.3 16.06 -34.71 4.44 44.18 13.61 6.29 26.74 -57.78 -13.61 -6.31zm87.59 40.44l3 -14.69 -46.86 -9.58 -12.75 62.37 46.85 9.58 3.02 -14.68 -32.17 -6.58 1.86 -9.11 17.47 3.58 3.02 -14.69 -17.49 -3.57 1.89 -9.21 32.17 6.58zm56.37 -7.29l-17.97 39.39 -9.89 -42.18 -15.48 -1.56 15.37 65.53 15.39 1.54 27.97 -61.2 -15.39 -1.53zm71.57 13.19l-1.19 -14.94 -47.67 3.82 5.09 63.47 47.67 -3.83 -1.2 -14.94 -32.74 2.64 -0.74 -9.28 17.78 -1.43 -1.19 -14.94 -17.8 1.43 -0.75 -9.36 32.72 -2.63zm19.74 46.61l14.89 -1.81 -2.4 -19.78 9.04 -1.1 12.2 18.6 14.89 -1.81 -14.09 -21.53c6.78,-4.74 10,-12.11 9.04,-20.02 -1.46,-11.97 -12.06,-20.53 -27.78,-18.61l-23.46 2.83 7.67 63.21zm10.79 -35.53l-1.89 -15.54 8.58 -1.04c6.11,-0.74 10.64,1.86 11.19,6.49 0.57,4.71 -3.19,8.32 -9.32,9.06l-8.57 1.04zm81.15 -49.14l-16.26 5.21 -6.54 21.54 -17.76 -13.74 -16.17 5.18 31.2 24.28 9.48 29.54 14.26 -4.58 -9.5 -29.63 11.29 -37.81zm50.81 49.63l21.54 -9.5c14.59,-6.43 19.71,-18.33 15.33,-28.22 -1.87,-4.26 -5.13,-7.39 -9.33,-9.17 1.49,-4.39 1.38,-8.9 -0.5,-13.15 -4.37,-9.91 -16.61,-14.14 -31.19,-7.71l-21.53 9.5 25.68 58.25zm-1.49 -40.51l-4.82 -10.94 7.82 -3.44c5.72,-2.53 10.5,-2.04 11.96,1.26 1.46,3.29 -1.4,7.15 -7.14,9.68l-7.82 3.44zm9.54 21.61l-4.79 -10.85 7.82 -3.44c5.74,-2.53 10.5,-2.04 11.93,1.17 1.44,3.31 -1.41,7.15 -7.14,9.68l-7.82 3.44zm49.69 -8.52l13.07 -7.35 -31.18 -55.51 -13.07 7.35 31.18 55.51zm28.68 -93.53l-39.14 28.14 8.75 12.18 13.49 -9.69 28.42 39.53 12.17 -8.75 -28.42 -39.53 13.49 -9.69 -8.75 -12.18zm55.28 -25.86l-9.47 -11.62 -37.08 30.21 40.21 49.36 37.08 -30.19 -9.47 -11.63 -25.46 20.74 -5.87 -7.21 13.83 -11.26 -9.46 -11.64 -13.83 11.26 -5.93 -7.28 25.46 -20.74z"/>
   <path class="fil3" d="M668.7 691.22l34.09 -81.8 40.82 0c-2.36,5.08 -3.89,17.74 -4.57,37.92 -0.68,20.19 -0.56,40.07 0.37,59.64 0.93,19.57 2.33,31.46 4.2,35.68l-46.78 0c4.6,-9.07 6.58,-34.85 5.96,-77.33l0 -40.25 -49.19 117.59 -6.33 0 -29.44 -104.17c-0.87,-2.48 -1.53,-4.35 -1.96,-5.59 -0.43,-1.24 -1.31,-3.2 -2.61,-5.86 -1.31,-2.68 -2.64,-4.69 -4,-6.07 -1.37,-1.36 -3.17,-2.51 -5.4,-3.44 -2.24,-0.93 -4.67,-1.14 -7.28,-0.65 -4.47,1.12 -7.85,4.01 -10.15,8.67 -2.29,4.67 -3.07,9.92 -2.33,15.75 0.87,7.46 4.04,13.79 9.51,19.02 5.46,5.21 12.97,7.69 22.54,7.44 -3.72,5.72 -9,9.69 -15.83,11.93 -6.83,2.24 -13.49,2.71 -19.94,1.4 -6.46,-1.3 -12.21,-4.29 -17.24,-8.94 -5.03,-4.67 -7.86,-10.41 -8.48,-17.24 -0.61,-6.6 0.69,-13.26 3.91,-20.04 3.24,-6.76 7.64,-11.96 13.24,-15.56 4.6,-3.11 10.03,-5.44 16.31,-6.99 6.28,-1.56 12.46,-2.33 18.54,-2.33l19.67 0 19.85 0 22.54 81.25zm30.87 -199.48c7.08,-0.63 15.13,-1.89 24.14,-3.82 9,-1.93 15.99,-3.88 20.96,-5.86 -2.99,6.46 -4.7,19.03 -5.13,37.74 -0.43,18.69 -0.03,36.21 1.21,52.54 1.25,16.35 2.56,26.07 3.92,29.17l-44.92 0c4.85,-10.18 6.65,-36.33 5.42,-78.46 -0.38,-15.9 -2.24,-26.33 -5.6,-31.3zm94.48 109.76l-41.93 0c3.35,-8.32 5.13,-26.31 5.31,-53.94 0.19,-27.64 -1.39,-46.13 -4.75,-55.44 11.68,6.08 21.86,9.87 30.57,11.36 2.6,0.37 5.21,0.63 7.82,0.75 -0.87,12.68 -1.31,26.96 -1.31,42.86 2.36,-9.19 5,-16.81 7.92,-22.82 2.93,-6.03 6.68,-10.42 11.28,-13.14 2.24,-1.38 4.82,-2.28 7.74,-2.71 2.92,-0.43 5.87,-0.25 8.85,0.56 2.98,0.82 5.75,2.24 8.29,4.29 2.56,2.06 4.64,5.15 6.25,9.32 1.61,4.15 2.41,9.1 2.41,14.82 0,0.36 -0.03,2.54 -0.08,6.52 -0.07,3.97 -0.07,7.18 0,9.59 0.06,2.43 0.13,5.91 0.18,10.44 0.07,4.53 0.18,8.42 0.37,11.64 0.18,3.24 0.46,6.65 0.83,10.25 0.37,3.61 0.85,6.74 1.4,9.42 0.56,2.67 1.21,4.75 1.96,6.24l-40.63 0c1.61,-2.24 2.94,-9.15 4,-20.78 1.06,-11.61 1.15,-22.98 0.28,-34.09 -0.86,-11.13 -2.91,-16.81 -6.14,-17.06 -2.61,-0.12 -4.97,2.18 -7.08,6.89 -2.11,4.72 -4.17,11.13 -6.15,19.2 -0.5,2.12 -1,4.29 -1.48,6.53 0.61,20.37 1.98,33.48 4.09,39.32zm-12.48 -181.87c8.32,-0.13 15.96,2.11 22.92,6.71 6.96,4.59 12.06,10.33 15.28,17.23 3.24,6.89 5.22,13.94 5.97,21.15 0.74,7.2 -0.75,13.78 -4.47,19.75 -3.74,5.96 -9.19,9.87 -16.4,11.74 -8.32,1.75 -15.75,1.93 -22.26,0.56 -6.53,-1.36 -13.51,-3.82 -20.97,-7.36 -7.46,-3.53 -14.13,-7.17 -20.03,-10.9 -5.9,-3.72 -12.43,-7.04 -19.57,-9.96 -7.15,-2.93 -13.69,-4.39 -19.67,-4.39 -7.82,-0.13 -14.4,1.5 -19.75,4.85 -5.35,3.36 -8.64,7.48 -9.88,12.4 -1.25,4.9 -1.25,9.75 0,14.53 1.24,4.78 4.57,8.82 9.97,12.11 5.41,3.3 12.02,4.88 19.85,4.75 -3.98,5.47 -9.41,9.32 -16.3,11.56 -6.9,2.24 -13.58,2.81 -20.04,1.68 -6.46,-1.11 -12.17,-4 -17.14,-8.67 -4.97,-4.65 -7.64,-10.59 -8.02,-17.8 -0.5,-6.58 0.33,-12.58 2.52,-17.98 2.17,-5.4 5.22,-9.85 9.13,-13.32 3.92,-3.49 8.54,-6.43 13.89,-8.86 5.35,-2.42 10.85,-4.19 16.48,-5.3 5.65,-1.13 11.47,-1.74 17.43,-1.86 8.7,-0.13 19.04,0.8 31.03,2.79 11.99,1.98 23.59,3.72 34.76,5.22 11.18,1.49 21.06,1.74 29.63,0.74 4.97,-0.48 9,-1.98 12.11,-4.47 3.11,-2.48 4.35,-5.53 3.72,-9.12 -0.61,-3.11 -2.57,-5.65 -5.86,-7.64 -3.29,-2 -7.06,-3.08 -11.28,-3.26 -4.22,-0.19 -8.39,0.18 -12.49,1.11 -4.1,0.93 -7.39,2.89 -9.87,5.87 -2.49,2.98 -3.42,6.58 -2.79,10.8 -6.22,-0.25 -10.57,-3.17 -13.06,-8.75 -2.49,-5.97 -1.74,-11.56 2.24,-16.78 4.59,-5.83 12.25,-8.89 22.93,-9.12zm153.74 150.57c-0.99,7.71 -4.15,14.39 -9.5,20.03 -5.35,5.65 -11.93,9.6 -19.75,11.83 -12.43,3.36 -24.04,1.75 -34.85,-4.83 -6.22,-3.74 -11.15,-8.61 -14.82,-14.64 -3.67,-6.02 -5.9,-12.26 -6.71,-18.72 -0.8,-6.46 -0.4,-13.02 1.21,-19.67 1.61,-6.64 4.26,-12.61 7.92,-17.89 3.67,-5.28 8.54,-9.57 14.64,-12.86 6.08,-3.29 12.74,-4.93 19.93,-4.93 11.18,0 20.82,3.97 28.89,11.93 8.09,7.94 12.61,17.82 13.61,29.62l-61.5 0c3.09,6.09 7.48,11.21 13.14,15.38 5.65,4.17 12.57,6.93 20.78,8.29 8.2,1.36 17.21,0.18 27.02,-3.54zm-63.17 -49.75c-2.36,0.48 -3.67,2.89 -3.92,7.17 -0.25,4.29 0.87,9.67 3.36,16.13l25.15 0c-2.36,-6.83 -6.15,-12.61 -11.37,-17.33 -5.21,-4.72 -9.63,-6.71 -13.22,-5.96zm-198.36 434.39c-22.46,-3.24 -40.54,-2.99 -54.26,0.72 2.74,-7.75 4.36,-16.22 4.85,-25.43 1.61,-27.78 2.02,-57.33 1.21,-88.68 -0.65,-24.22 -2.92,-39.81 -6.79,-46.75 8.57,-0.8 18.29,-2.54 29.19,-5.21 10.91,-2.67 19.43,-5.46 25.56,-8.36 -3.39,8.4 -5.32,27.62 -5.8,57.67l0 31.25c0.32,23.91 0.64,40.06 0.97,48.44 0.8,17.29 2.5,29.41 5.08,36.35zm15.26 -193.09c14.86,1.29 27.97,4.41 39.36,9.32 11.39,4.93 20.19,10.94 26.41,18.06 6.21,7.11 10.57,14.74 13.09,22.89 2.5,8.15 2.94,16.36 1.33,24.6 -2.43,9.53 -6.79,17.89 -13.08,25.07 -6.3,7.18 -13.86,12.72 -22.65,16.59 -8.8,3.88 -18.18,6.67 -28.11,8.36 -9.93,1.7 -20.3,2.29 -31.13,1.82l0 -3.89c10.82,-4.19 19.94,-9.72 27.38,-16.58 7.43,-6.87 12.68,-14.06 15.75,-21.57 3.07,-7.52 4.47,-15.31 4.24,-23.38 -0.25,-8.08 -2.14,-15.47 -5.69,-22.17 -3.56,-6.71 -8.81,-12.48 -15.75,-17.32 -6.94,-4.85 -15.01,-8 -24.22,-9.46 -8.07,-1.3 -16.35,-1.09 -24.83,0.61 -8.47,1.69 -16.51,4.93 -24.11,9.69 -7.58,4.76 -14.33,10.53 -20.22,17.32 -5.9,6.78 -10.33,15.06 -13.32,24.83 -3,9.76 -4,20.22 -3.04,31.37 0.82,10.02 3.51,19.02 8.12,27.02 4.6,7.98 10.86,14 18.78,18.04l0 0.25c-15.67,4.51 -29.08,5.32 -40.22,2.42 -11.14,-2.91 -19.78,-8.44 -25.92,-16.6 -6.14,-8.15 -9.38,-17.81 -9.7,-28.94 -0.32,-13.08 2.18,-25.32 7.52,-36.71 5.32,-11.39 12.79,-21.08 22.4,-29.07 9.61,-8 20.68,-14.74 33.2,-20.24 12.51,-5.49 26.04,-9.28 40.58,-11.38 14.53,-2.11 29.15,-2.43 43.85,-0.97zm144.14 131.54c0.17,-6.78 0.25,-11.63 0.25,-14.53 -0.32,0.15 -1.17,0.97 -2.54,2.42 -1.37,1.46 -2.26,2.39 -2.67,2.79 -0.41,0.4 -1.21,1.29 -2.43,2.67 -1.2,1.37 -2.06,2.42 -2.54,3.14 -0.49,0.74 -1.29,1.78 -2.42,3.15 -1.14,1.37 -1.94,2.54 -2.43,3.52 -0.47,0.97 -1.13,2.22 -1.93,3.75 -0.8,1.54 -1.46,2.96 -1.94,4.25 -0.48,1.29 -0.93,2.74 -1.33,4.36 -0.41,1.61 -0.76,3.22 -1.08,4.85 -0.65,3.87 -0.57,6.94 0.24,9.19 0.8,2.26 2.09,3.4 3.87,3.4 3.56,-0.33 6.67,-3.36 9.33,-9.08 2.67,-5.74 5.21,-13.69 7.63,-23.87zm100.54 2.43c0.17,26.97 2.26,45.54 6.3,55.72 -10.33,-4.04 -27.46,-4.36 -51.36,-0.97 -5.02,0.64 -9.29,1.13 -12.85,1.46 -3.54,0.32 -7.39,0.44 -11.5,0.36 -4.12,-0.08 -7.56,-0.53 -10.29,-1.33 -2.75,-0.8 -5.54,-2.14 -8.36,-4 -2.83,-1.86 -5.08,-4.24 -6.79,-7.15 -1.7,-2.9 -3.07,-6.57 -4.11,-11.01 -1.06,-4.44 -1.58,-9.57 -1.58,-15.39 -1.61,5.65 -3.26,10.54 -4.96,14.65 -1.7,4.13 -3.96,8.36 -6.79,12.72 -2.82,4.36 -6.38,7.71 -10.65,10.06 -4.28,2.35 -9.25,3.51 -14.9,3.51 -9.04,0 -16.2,-3.19 -21.44,-9.57 -5.24,-6.37 -7.58,-13.97 -7.02,-22.78 0.56,-8.79 3.99,-16.43 10.29,-22.89 4.53,-4.68 10.18,-8.76 16.96,-12.24 6.78,-3.47 12.8,-6.01 18.06,-7.63 5.24,-1.62 10.17,-4.08 14.78,-7.39 4.6,-3.32 7.54,-7.56 8.83,-12.72 1.29,-5.33 1.1,-10.29 -0.6,-14.9 -1.71,-4.6 -5.29,-7.07 -10.79,-7.39 -2.74,-0.32 -5.44,0.32 -8.11,1.94 -2.67,1.61 -4.68,3.67 -6.06,6.17 -1.37,2.52 -1.65,5.58 -0.85,9.21 0.8,3.64 2.98,7.24 6.54,10.79 -3.39,4.2 -8,6.99 -13.8,8.35 -5.82,1.38 -11.35,0.78 -16.6,-1.8 -5.25,-2.6 -8.61,-6.96 -10.06,-13.08 -1.14,-8.72 4.11,-16.24 15.75,-22.54 12.75,-6.61 26.89,-8.96 42.39,-7.01 18.57,2.25 31.1,10.57 37.56,24.94 2.75,6.14 4.11,13.17 4.11,21.09l0.25 44.57c0,17.61 4.04,25.53 12.11,23.75 4.68,-0.97 9.97,-4.97 15.87,-12 5.89,-7.03 10.86,-14.21 14.89,-21.56 4.04,-7.35 7.11,-14.1 9.21,-20.24 1.14,-2.91 2.63,-7.18 4.49,-12.83 1.86,-5.65 3.64,-10.63 5.33,-14.9 1.7,-4.28 3.58,-8.36 5.7,-12.24 3.87,-7.11 8.47,-12.28 13.8,-15.5 2.91,-1.78 6.21,-2.94 9.93,-3.52 3.71,-0.57 7.56,-0.32 11.5,0.72 3.96,1.06 7.56,2.91 10.79,5.57 3.22,2.67 5.89,6.71 7.98,12.13 2.1,5.4 3.15,11.82 3.15,19.25l0 10.18 0 13.21c0,3.14 0.04,7.58 0.13,13.32 0.08,5.74 0.28,10.59 0.59,14.54 0.33,3.94 0.7,8.15 1.1,12.58 0.4,4.44 1.02,8.32 1.82,11.64 0.81,3.31 1.7,5.93 2.67,7.88l-52.82 0c2.1,-2.92 3.83,-11.92 5.21,-27.02 1.38,-15.09 1.5,-29.89 0.36,-44.33 -1.13,-14.46 -3.79,-21.85 -7.98,-22.17 -1.46,-0.17 -2.96,0.41 -4.49,1.7 -1.54,1.29 -2.9,3.26 -4.13,5.93 -1.2,2.67 -2.29,5.13 -3.26,7.39 -0.97,2.26 -1.94,5.21 -2.9,8.85 -0.97,3.64 -1.63,6.22 -1.94,7.75 -0.32,1.53 -0.8,3.6 -1.46,6.18zm0 -44.58c-1.44,7.6 -4.11,16.76 -7.99,27.5 -3.87,10.74 -9.12,21.64 -15.75,32.71 -6.63,11.06 -13.17,18.04 -19.63,20.96 2.26,-16 2.75,-33.43 1.46,-52.33 -1.29,-18.91 -3.47,-31.25 -6.54,-37.07 16.79,-1.61 32.94,-5.17 48.44,-10.65l0 18.89zm-314.79 -108.67l-34.28 0.18c9.56,-4.72 14.35,-14.6 14.35,-29.63l0 -26.28c2.11,-0.75 4.15,-1.61 6.15,-2.61l0 28.89c0,7.33 1.21,13.51 3.63,18.54 2.43,5.03 5.81,8.67 10.15,10.91zm367.5 0.18l-40.81 0c2.72,-6.21 4.4,-13.5 5.03,-21.89 0.63,-8.39 0.4,-15.97 -0.65,-22.74 -1.06,-6.78 -2.51,-12.03 -4.37,-15.75 7.57,0 15.06,-0.8 22.46,-2.41 7.39,-1.63 13.5,-4.04 18.35,-7.28 -2.86,6.96 -4.44,17.96 -4.75,32.98 -0.3,15.04 1.28,27.41 4.75,37.09zm-59.26 -17.89c4.47,2.74 7.8,6.15 9.97,10.25 2.18,4.1 2.96,8.39 2.33,12.86 -0.62,4.47 -2.58,8.42 -5.87,11.83 -3.29,3.42 -7.57,6.21 -12.86,8.39 -5.28,2.17 -11.01,3.91 -17.24,5.2 -6.21,1.31 -12.91,2.21 -20.12,2.71 -41.38,2.86 -66.71,-12.11 -76.03,-44.91 -3.11,-11.56 -4.97,-18.5 -5.6,-20.86 -1.36,4.6 -2.92,8.82 -4.65,12.67 -1.74,3.85 -3.82,7.49 -6.25,10.9 -2.42,3.42 -5.28,6.09 -8.57,8.02 -3.29,1.93 -6.86,2.82 -10.71,2.69 -7.08,0 -12.65,-2.44 -16.68,-7.36 -4.04,-4.91 -5.8,-10.74 -5.32,-17.52 0.5,-6.76 3.11,-12.64 7.83,-17.61 3.35,-3.47 7.36,-6.4 12.01,-8.75 4.67,-2.36 9.44,-4.47 14.35,-6.35 4.92,-1.86 8.54,-3.54 10.91,-5.03 -0.61,-3.22 -1.43,-6.28 -2.42,-9.13 -1,-2.86 -2.24,-5.69 -3.72,-8.48 -1.5,-2.79 -3.36,-4.78 -5.59,-5.96 -2.24,-1.18 -4.65,-1.28 -7.26,-0.28 -1.99,0.74 -3.39,2.36 -4.2,4.85 -0.8,2.47 -0.56,5.15 0.75,8 1.3,2.86 3.69,5.1 7.17,6.72 -0.75,2.59 -2.21,4.96 -4.37,7.07 -2.18,2.11 -4.63,3.67 -7.36,4.67 -5.85,2.36 -10.8,2.14 -14.92,-0.65 -4.09,-2.79 -5.83,-7.03 -5.21,-12.67 0.61,-5.67 3.91,-10.9 9.88,-15.75 4.35,-3.61 9.75,-6.5 16.21,-8.67 6.46,-2.18 12.93,-3.33 19.39,-3.46 5.59,0 10.33,0.6 14.25,1.78 3.92,1.18 7.18,3.14 9.78,5.87 2.61,2.72 4.72,5.83 6.35,9.32 1.61,3.47 3.09,7.94 4.47,13.42l10.06 37.46c2.24,8.44 4.75,15.81 7.56,22.09 2.79,6.26 5.5,11.24 8.09,14.9 2.61,3.67 5.53,6.64 8.76,8.94 3.24,2.3 6.18,3.85 8.85,4.65 2.68,0.82 5.62,1.4 8.86,1.78 8.7,0.75 15.78,-1 21.24,-5.22 4.6,-3.47 5.53,-6.96 2.81,-10.43 -1,-1.25 -2.43,-2.36 -4.29,-3.36 -2.86,-1.36 -6.99,-2.67 -12.39,-3.91 -5.4,-1.25 -10.4,-2.28 -15,-3.08 -4.6,-0.81 -8.98,-2.17 -13.14,-4.1 -4.17,-1.93 -6.93,-4.32 -8.29,-7.18 -2.13,-3.6 -2.31,-7.57 -0.57,-11.92 1.75,-4.35 5.28,-7.89 10.63,-10.63 -4.97,-3.61 -8.72,-8.08 -11.28,-13.42 -2.54,-5.35 -3.67,-10.72 -3.35,-16.13 0.31,-5.4 2.52,-10.56 6.61,-15.46 4.1,-4.92 9.88,-8.61 17.33,-11.1 9.19,-2.74 17.43,-3.54 24.69,-2.42 7.26,1.11 13.75,3.8 19.47,8.02 3.85,-4.22 9.63,-8.02 17.33,-11.37 7.69,-3.35 15.75,-5.43 24.13,-6.24 8.39,-0.81 15.87,0.71 22.46,4.56 5.22,3.11 7.83,7.15 7.83,12.13 0,4.22 -1.99,7.89 -5.97,10.98 -3.97,3.11 -8.75,4.47 -14.35,4.1 -2.74,-0.13 -5.33,-0.68 -7.82,-1.67 -2.49,-1 -4.35,-1.93 -5.6,-2.8 -1.24,-0.86 -3.35,-2.54 -6.33,-5.03 -3.85,-2.99 -7.71,-4.75 -11.56,-5.31 -3.85,-0.57 -6.96,-0.37 -9.32,0.56 -2.36,0.93 -4.53,2.21 -6.52,3.82 3.85,3.97 6.52,8.36 8.02,13.14 1.48,4.78 1.74,9.53 0.74,14.25 -0.99,4.72 -3.75,9.26 -8.29,13.61 -4.53,4.35 -10.65,7.76 -18.35,10.25 -12.56,4.1 -23.92,3.72 -34.11,-1.13 -1.24,1.13 -1.89,2.4 -1.96,3.82 -0.06,1.43 0.35,2.46 1.21,3.08 2.36,1.86 6.13,2.8 11.28,2.8 5.15,0 10.38,-0.38 15.65,-1.11 5.28,-0.75 11.18,-0.87 17.71,-0.37 6.53,0.5 12.02,2.04 16.49,4.65zm-127.83 -24.42c-1.13,-5.08 -1.93,-8.63 -2.43,-10.61 -3.47,3.6 -6.31,7.19 -8.47,10.8 -2.18,3.6 -3.7,7.82 -4.57,12.67 -0.5,2.98 -0.43,5.35 0.19,7.08 0.61,1.74 1.61,2.61 2.97,2.61 4.47,-0.25 8.57,-7.76 12.31,-22.56zm72.68 -41.74c-2.49,0.5 -1.9,4.78 1.76,12.86 3.67,8.07 8.29,16.03 13.89,23.85 5.58,7.83 9.44,11.63 11.56,11.37 2.86,-0.25 2.61,-4.47 -0.75,-12.68 -3.36,-8.19 -7.89,-16.26 -13.59,-24.22 -5.72,-7.96 -10.02,-11.68 -12.86,-11.18zm140.87 2.99c-3.35,0.74 -4.58,4.65 -3.72,11.74 1.12,9.82 5.28,18.82 12.48,27.01 11.93,13.43 27.28,17.96 46.03,13.61 2.74,-0.62 5.53,-1.48 8.39,-2.61 -0.98,7.71 -4.17,14.39 -9.5,20.03 -5.35,5.65 -11.93,9.61 -19.75,11.85 -12.43,3.35 -24.04,1.74 -34.86,-4.85 -6.21,-3.74 -11.14,-8.61 -14.81,-14.64 -3.67,-6.02 -5.9,-12.26 -6.71,-18.72 -0.8,-6.46 -0.4,-13.01 1.21,-19.67 1.61,-6.64 4.25,-12.61 7.92,-17.89 3.67,-5.28 8.54,-9.57 14.63,-12.86 6.09,-3.3 12.74,-4.93 19.94,-4.93 9.07,0 15.15,3.04 18.26,9.13 3.11,6.1 3.07,12.21 -0.1,18.36 -3.17,6.15 -7.92,9.22 -14.25,9.22 -1.74,-6.83 -5.43,-12.86 -11.08,-18.07 -5.65,-5.22 -10.35,-7.46 -14.08,-6.7z"/>
  </g>
 </g>
</svg>
