<?xml version="1.0" encoding="UTF-8"?>
<!DOCTYPE svg PUBLIC "-//W3C//DTD SVG 1.1//EN" "http://www.w3.org/Graphics/SVG/1.1/DTD/svg11.dtd">
<!-- Creator: CorelDRAW -->
<svg xmlns="http://www.w3.org/2000/svg" xml:space="preserve" width="1.66666in" height="1.66666in" version="1.1" style="shape-rendering:geometricPrecision; text-rendering:geometricPrecision; image-rendering:optimizeQuality; fill-rule:evenodd; clip-rule:evenodd"
viewBox="0 0 1666.66 1666.66"
 xmlns:xlink="http://www.w3.org/1999/xlink"
 xmlns:xodm="http://www.corel.com/coreldraw/odm/2003">
 <defs>
  <style type="text/css">
   <![CDATA[
    .fil1 {fill:#FEFEFE;fill-rule:nonzero}
    .fil0 {fill:#55AF5D;fill-rule:nonzero}
   ]]>
  </style>
 </defs>
 <g id="Layer_x0020_1">
  <metadata id="CorelCorpID_0Corel-Layer"/>
  <g id="_2110186499840">
   <path class="fil0" d="M926.57 1130.26c115.91,-15.74 121.78,11.74 135.86,-40.63 69.18,-258.41 -9.26,-645.09 -97.43,-754.67 -15.58,-19.39 -37.17,-11.89 -61.21,-1.4 -312.9,137.32 -339.48,75.26 -321.89,146.83 68.81,280.32 80.56,511.49 72.99,699.52 25.65,-6.31 43.21,-7.47 97.61,-16.5 52.31,-15.64 145.04,-29.25 174.07,-33.15z"/>
   <path class="fil0" d="M671.77 1323.81c2.15,-3.14 2.69,-7.19 2.96,-11.07 0.33,-5.25 -0.01,-35.72 -9.93,-33.21 -8.4,2.07 -7.74,28.65 -7.89,34.89 -0.08,4.75 0.31,10.35 4.92,12.68 3.47,1.71 7.75,-0.17 9.94,-3.29zm-27.29 0.58c-6.7,-31.56 7.86,-83.89 11.33,-162.07 8.63,-0.63 14.25,-2.22 27.75,-3.82 2.65,23.83 17.1,127.91 2.72,171.08 -6.29,18.93 -36.32,20.39 -41.8,-5.2z"/>
   <path class="fil1" d="M843.71 649.46c-61.21,1.54 -109.76,53.06 -108.24,114.85 0.63,25.75 9.83,49.97 25.88,69.22 1.87,-6.17 4.37,-12.12 7.5,-17.78 -11.7,-10.64 -18.86,-25.81 -19.26,-42.26 -0.81,-32.44 24.68,-59.49 56.82,-60.29 13.98,-0.36 27.64,4.37 38.44,13.35 0.26,0.21 0.53,0.43 0.78,0.65 0.24,-0.24 0.5,-0.47 0.75,-0.7 10.35,-9.5 23.75,-14.92 37.74,-15.26 32.12,-0.8 58.92,24.93 59.72,57.37 0.4,16.46 -6,31.97 -17.15,43.17 3.39,5.48 6.18,11.32 8.36,17.39 15.07,-20.03 23.07,-44.68 22.43,-70.44 -1.51,-61.78 -52.56,-110.81 -113.76,-109.26z"/>
   <path class="fil1" d="M973.87 752.84c0.13,1.82 0.21,3.64 0.26,5.47 0.57,23.13 -5.1,46.02 -16.13,66.02 18.24,-4.25 31.67,-21 31.18,-40.61 -0.31,-12.46 -6.21,-23.59 -15.32,-30.87z"/>
   <path class="fil1" d="M718.81 759.25c-8.75,7.72 -14.08,19.15 -13.78,31.61 0.48,19.61 14.72,35.67 33.15,38.98 -12.01,-19.43 -18.79,-42 -19.36,-65.13 -0.04,-1.83 -0.04,-3.65 -0.02,-5.47z"/>
   <path class="fil1" d="M849.48 894.35c-13.1,0.33 -24.1,-15.18 -24.57,-34.64 -0.47,-19.46 9.74,-35.5 22.83,-35.83 13.08,-0.32 24.08,15.19 24.57,34.65 0.47,19.44 -9.74,35.5 -22.83,35.82zm44.51 -120.29c0.11,4.65 -3.53,8.5 -8.12,8.63 -4.6,0.1 -8.42,-3.57 -8.53,-8.21l-0.21 -8.4c-0.11,-4.64 3.51,-8.5 8.11,-8.61 4.6,-0.11 8.43,3.56 8.53,8.19l0.22 8.4zm-94.36 2.38l-0.21 -8.41c-0.11,-4.64 3.53,-8.5 8.12,-8.61 4.6,-0.13 8.42,3.54 8.53,8.19l0.2 8.39c0.11,4.65 -3.51,8.52 -8.11,8.63 -4.59,0.11 -8.42,-3.56 -8.54,-8.19zm127.56 -7.42c-0.57,-23.17 -19.71,-41.54 -42.67,-40.97 -10,0.25 -19.56,4.13 -26.96,10.9 -5.1,4.68 -8.94,10.53 -11.22,16.99 -2.61,-6.33 -6.74,-11.99 -12.07,-16.41 -7.71,-6.4 -17.46,-9.79 -27.46,-9.54 -22.94,0.58 -41.15,19.9 -40.59,43.08 0.43,17.28 11.18,31.9 26.15,37.97 -12.18,14.1 -18.86,32.37 -18.39,51.53 1.03,41.71 35.47,74.79 76.79,73.76 41.32,-1.04 74.09,-35.82 73.07,-77.53 -0.48,-19.15 -8.06,-37.07 -20.9,-50.54 14.64,-6.83 24.65,-21.96 24.24,-39.25z"/>
   <path class="fil1" d="M983.38 537.07c-2.53,-20.83 -12.44,-40.04 -29.19,-53.82 -16.72,-13.75 -38.47,-20.36 -59.94,-18.25 -7.85,0.94 -15.5,3.29 -22.61,6.96 5.32,-6.04 11.9,-9.94 18.85,-13 -9.15,-17.63 -25.47,-26.75 -46.5,-26.22 -21.63,0.54 -39.92,13.98 -47.86,32.85 -10.69,-4.29 -22.4,-6.52 -34.65,-6.21 -48.61,1.21 -87.04,41.98 -85.83,91.07 1.07,42.98 32.06,78.14 72.44,85.36 0,0 40.13,7.24 0.3,6.7l1.03 41.15c0.01,0.75 0.12,1.46 0.26,2.17 19.19,-30.57 52.71,-48.44 91.15,-49.41 34.74,-0.87 66.13,11.74 87.13,36.56l-1.14 -46.02c0,-0.21 8.94,-3.4 9.82,-3.82 25.32,-11.76 43.57,-36.72 46.79,-64.71 0.85,-7.21 0.82,-14.37 -0.03,-21.36z"/>
   <path class="fil0" d="M748.85 582.83c-0.15,0.01 -0.22,-0.03 -0.19,-0.15 0.03,-0.13 -0.04,-0.18 -0.19,-0.15 -0.17,0.02 -0.24,0.1 -0.26,0.26 -0.03,0.17 -0.03,0.32 0,0.47l0.22 -0.03 0.36 -0.04c0.07,0 0.09,-0.04 0.09,-0.13l-0.03 -0.24zm-0.5 -4.47c0.09,-0.08 0.1,-0.19 0.09,-0.36 -0.02,-0.15 -0.15,-0.22 -0.38,-0.19l-0.58 0.07 -0.13 0.02c-0.06,0.15 -0.06,0.4 -0.03,0.71l0.11 -0.02 0.58 -0.06c0.15,-0.03 0.26,-0.08 0.33,-0.17zm1.32 -47.92l-0.03 -0.22c-0.01,-0.15 -0.09,-0.22 -0.25,-0.21 -0.17,0.01 -0.28,0.06 -0.35,0.08 -0.07,0.06 -0.2,0.08 -0.35,0.1 -0.15,0.03 -0.24,0 -0.24,-0.09 -0.44,0.38 -0.64,0.63 -0.63,0.8 0.08,0.07 0.13,0.14 0.14,0.22 0.14,-0.18 0.4,-0.29 0.79,-0.33 0.37,-0.04 0.7,-0.15 0.91,-0.35zm-2.97 30.72c-0.1,-0.15 -0.24,-0.22 -0.38,-0.21l-0.58 0.07c0.04,0.41 0.18,0.58 0.4,0.56 0.24,-0.03 0.42,-0.17 0.56,-0.41zm-1.26 -24.3c-0.11,-0.14 -0.24,-0.2 -0.39,-0.18 -0.22,0.03 -0.33,0.08 -0.33,0.15 0.04,0.31 0.14,0.46 0.29,0.44 0.31,-0.04 0.46,-0.17 0.43,-0.42zm-1.68 47.83c-0.1,-0.14 -0.31,-0.24 -0.63,-0.28 -0.32,-0.04 -0.4,-0.07 -0.25,-0.09 -0.3,0.03 -0.59,0.22 -0.87,0.57 0.15,-0.01 0.29,0.03 0.43,0.13 0.12,0.11 0.26,0.15 0.41,0.14 0.39,-0.04 0.7,-0.21 0.91,-0.47zm-1.6 -16.48l-0.25 -0.21c-0.15,0.01 -0.26,0.08 -0.33,0.21 -0.07,0.12 -0.13,0.25 -0.21,0.32 0.01,0.08 0.1,0.11 0.25,0.09 0.09,-0.01 0.13,0.03 0.14,0.11l0.11 -0.02c0.06,-0.17 0.13,-0.24 0.22,-0.21 0.07,0.03 0.11,-0.03 0.09,-0.19l-0.02 -0.11zm0.57 -46.28l-0.03 -0.13c-0.02,-0.24 -0.15,-0.33 -0.39,-0.3 -0.08,0.01 -0.11,0.08 -0.1,0.25 0.04,0.24 0.13,0.35 0.28,0.33 0.08,-0.02 0.15,-0.07 0.24,-0.15zm0.72 6.6c-0.03,-0.25 -0.15,-0.35 -0.39,-0.32 -0.24,0.01 -0.53,0.09 -0.87,0.21 -0.33,0.12 -0.48,0.33 -0.44,0.65 0.04,0.39 0.33,0.56 0.87,0.49 0.46,-0.04 0.74,-0.39 0.83,-1.03zm-0.67 3.64c-0.17,-0.06 -0.41,-0.07 -0.71,-0.04 -0.39,0.04 -0.71,0.17 -0.97,0.35 -0.25,0.19 -0.36,0.44 -0.32,0.75 0,0.08 0.19,0.22 0.57,0.42 0.38,0.19 0.72,0.28 1.03,0.24 0.39,-0.04 0.61,-0.18 0.67,-0.43 0.04,-0.25 0.14,-0.53 0.26,-0.86 -0.17,0.01 -0.21,-0.06 -0.15,-0.22 0.06,-0.17 0.02,-0.24 -0.14,-0.22l-0.24 0.03zm-0.44 28.04c0.22,-0.11 0.33,-0.24 0.32,-0.41 -0.02,-0.07 -0.14,-0.09 -0.37,-0.07 -0.22,0.03 -0.41,0.07 -0.52,0.12 -0.11,0.06 -0.28,0.09 -0.51,0.11l-1.04 0.11c-0.24,0.03 -0.51,0.11 -0.82,0.22 -0.29,0.11 -0.43,0.25 -0.42,0.41 0.03,0.22 0.13,0.36 0.33,0.37 0.19,0.03 0.37,0.01 0.53,0 0.63,-0.07 1.07,-0.22 1.32,-0.44 0.24,-0.22 0.64,-0.37 1.18,-0.43zm-1.81 -7.89c-0.19,-0.22 -0.47,-0.31 -0.86,-0.26 -0.24,0.03 -0.46,0.08 -0.68,0.19 -0.22,0.1 -0.46,0.21 -0.68,0.31 0.01,0.17 0.08,0.24 0.19,0.22 0.13,-0.01 0.2,0.06 0.21,0.21l0.36 -0.03 0.93 -0.11c0.37,-0.04 0.56,-0.22 0.53,-0.53zm-2.37 -16.17c-0.56,0.06 -1.06,0.04 -1.54,-0.02 -0.48,-0.07 -0.94,-0.07 -1.41,-0.02 -0.24,0.03 -0.56,0.11 -0.97,0.28 -0.42,0.17 -0.61,0.44 -0.56,0.83 0.04,0.4 0.32,0.61 0.83,0.62 0.52,0.03 0.97,0.06 1.36,0.09 0.46,-0.21 1.07,-0.31 1.86,-0.32 0.78,-0.01 1.47,-0.14 2.08,-0.36l-0.02 -0.13c0.07,0 0.13,0.02 0.13,0.06 0,0.04 0.04,0.06 0.11,0.04 0.08,0 0.11,-0.1 0.1,-0.25l-0.04 -0.35 -0.01 -0.13c-0.43,-0.35 -1.07,-0.47 -1.92,-0.36zm-2.53 10.28c-0.46,0.21 -0.97,0.44 -1.57,0.71 -0.61,0.28 -0.94,0.74 -1.04,1.37 0.5,0.11 0.92,0.14 1.32,0.1 0.54,-0.07 0.98,-0.26 1.36,-0.57 0.35,-0.32 0.5,-0.72 0.44,-1.19l-0.03 -0.24 -0.24 0.03c-0.15,0.02 -0.24,-0.06 -0.25,-0.21zm-1.6 -12.33c0.07,-0.07 0.1,-0.19 0.08,-0.36 -0.03,-0.15 -0.15,-0.22 -0.39,-0.2 -0.15,0.02 -0.26,0.06 -0.33,0.1 -0.08,0.06 -0.15,0.08 -0.24,0.08 0.06,0.47 0.24,0.7 0.56,0.65l-0.01 -0.11 0.09 -0.14 0.24 -0.03zm5.47 6.78c-0.04,-0.32 -0.32,-0.53 -0.83,-0.63 -0.53,-0.09 -0.86,-0.14 -1.03,-0.13 -0.46,0.06 -0.82,0.28 -1.04,0.67 -0.24,0.37 -0.63,0.6 -1.18,0.65 -0.29,0.04 -0.67,-0.03 -1.07,-0.17 -0.41,-0.17 -0.71,-0.3 -0.87,-0.44 -0.15,0.1 -0.4,0.15 -0.75,0.15 -0.35,0 -0.53,0.11 -0.49,0.35 0.17,0.14 0.31,0.33 0.42,0.61 0.1,0.26 0.32,0.37 0.64,0.35l1.04 -0.11c0.37,-0.06 0.68,0 0.89,0.12 0.21,0.14 0.51,0.2 0.9,0.14 0.63,-0.07 1.24,-0.25 1.83,-0.56 0.58,-0.31 1.11,-0.65 1.54,-1.02zm-4.98 -14.1c-0.17,-0.06 -0.31,-0.07 -0.42,-0.01 -0.11,0.06 -0.18,0 -0.2,-0.15 -0.69,0.08 -1.28,0.26 -1.76,0.56 -0.48,0.29 -1.01,0.56 -1.62,0.78 0.19,0.39 0.64,0.53 1.35,0.44 0.71,-0.07 1.35,-0.21 1.96,-0.41 0.61,-0.18 0.89,-0.47 0.85,-0.86 -0.07,0 -0.13,-0.07 -0.14,-0.22l-0.01 -0.13zm-4.14 12.74c-0.09,-0.22 -0.24,-0.33 -0.39,-0.3 -0.15,0.01 -0.35,0.03 -0.59,0.06 0.02,0.17 0.02,0.25 -0.03,0.25 -0.04,0 -0.06,0.04 -0.06,0.13 0.03,0.15 0.28,0.21 0.74,0.15 0.07,0 0.18,-0.1 0.32,-0.28zm0.57 -4.47c-0.25,-0.12 -0.5,-0.29 -0.76,-0.5 -0.26,-0.22 -0.58,-0.29 -0.97,-0.25 -0.15,0.01 -0.35,0.19 -0.58,0.54 -0.24,0.35 -0.35,0.6 -0.33,0.75 0.08,0.07 0.13,0.14 0.14,0.22l0.01 0.13c0.26,0.21 0.63,0.28 1.1,0.24 0.39,-0.06 0.72,-0.11 1.03,-0.18 0.3,-0.08 0.44,-0.39 0.37,-0.94zm-4.47 -3.18c0.06,-0.08 0.08,-0.2 0.07,-0.37 -0.02,-0.07 -0.1,-0.09 -0.25,-0.08l-0.46 0.06c-0.24,0.03 -0.36,-0.04 -0.37,-0.19 -0.53,0.21 -0.78,0.44 -0.76,0.68 0.03,0.15 0.15,0.25 0.39,0.3 0.63,-0.07 1.09,-0.19 1.39,-0.39zm0.37 4.47c-0.21,-0.36 -0.56,-0.53 -1.06,-0.47 -0.51,0.06 -1,0.09 -1.47,0.06 -0.39,0.11 -0.53,0.57 -0.44,1.36 0.11,0.31 0.41,0.42 0.88,0.38l0.58 -0.07 0.33 -0.04c0.4,-0.04 0.65,-0.21 0.78,-0.5 0.13,-0.29 0.25,-0.53 0.4,-0.71zm-7.97 0.54c-0.08,-0.07 -0.29,-0.08 -0.59,-0.04 -0.31,0.03 -0.44,0.17 -0.43,0.41 0.03,0.15 0.15,0.22 0.39,0.19 0.46,-0.04 0.68,-0.24 0.64,-0.56zm7.82 -19.93c1.03,-0.03 2,-0.03 2.9,0.03 0.92,0.06 1.86,0.03 2.87,-0.08 0.63,-0.07 1.26,-0.18 1.92,-0.33 0.65,-0.15 1.33,-0.26 2.03,-0.35 0.39,-0.04 0.74,-0.06 1.06,-0.06 0.32,0 0.67,0.03 1.07,0.06 0.44,-0.21 0.86,-0.33 1.25,-0.39l0.93 -0.1c0.54,-0.06 1.06,-0.15 1.5,-0.29 0.47,-0.13 1,-0.24 1.62,-0.31 0.63,-0.06 1.21,-0.07 1.76,-0.01 0.56,0.06 1.11,0.06 1.65,0 0.54,-0.07 1.08,-0.17 1.61,-0.31 0.54,-0.14 1.04,-0.24 1.52,-0.29 0.39,-0.04 0.78,-0.03 1.18,0.04 0.4,0.08 0.8,0.1 1.19,0.04 1.08,-0.11 2.14,-0.32 3.17,-0.59 1.04,-0.26 2.14,-0.47 3.29,-0.6l0.82 -0.1c0.35,0.28 0.78,0.41 1.29,0.39 0.5,-0.01 1.03,-0.04 1.58,-0.06 0.54,-0.03 1.04,0.02 1.48,0.14 0.44,0.11 0.78,0.42 1,0.96 0.27,0.36 0.41,0.8 0.38,1.32 -0.02,0.53 0.15,0.96 0.5,1.3 0.09,0.17 0.17,0.43 0.21,0.82 0.04,0.39 0.04,0.78 0.01,1.12 -0.04,0.38 -0.04,0.75 0,1.14 0.04,0.39 0.2,0.85 0.44,1.37 0.25,0.53 0.43,1.22 0.53,2.08 0.07,0.64 0.1,1.31 0.1,2.02 0,0.72 0.04,1.43 0.13,2.14 0.06,0.47 0.14,0.94 0.28,1.44 0.13,0.51 0.37,0.93 0.72,1.29 -0.28,0.28 -0.56,0.76 -0.83,1.47 -0.28,0.71 -0.44,1.14 -0.5,1.3 -0.65,0.46 -1.21,0.86 -1.64,1.2 -0.43,0.33 -1.2,0.56 -2.29,0.67 -0.7,0.08 -1.33,0.04 -1.91,-0.14 -0.46,0.14 -0.97,0.28 -1.54,0.42 -0.57,0.14 -1.14,0.25 -1.68,0.3 -0.78,0.1 -1.47,0.03 -2.08,-0.18 -0.61,-0.21 -1.2,-0.29 -1.74,-0.22 -1.71,0.19 -2.93,0.83 -3.68,1.9 -0.75,1.08 -1.03,2.52 -0.82,4.32 0.03,0.32 0.18,0.64 0.46,0.96 0.26,0.33 0.43,0.69 0.47,1.08 0.04,0.39 0,0.74 -0.13,1.03 -0.12,0.29 -0.17,0.64 -0.11,1.02 0.04,0.56 0.22,1 0.49,1.33 0.28,0.32 0.43,0.72 0.48,1.18 0.06,0.49 0.06,1.03 0.02,1.68 -0.06,0.64 -0.06,1.15 -0.02,1.54 0.07,0.54 0.24,1.03 0.52,1.43 0.28,0.42 0.46,0.93 0.53,1.56 0.04,0.39 0.06,0.82 0.03,1.31 -0.03,0.47 -0.02,0.91 0.03,1.3 0.07,0.71 0.19,1.41 0.35,2.1 0.15,0.69 0.28,1.4 0.35,2.11 0.04,0.32 0.03,0.61 -0.01,0.9 -0.04,0.28 -0.06,0.54 -0.03,0.78 0.02,0.15 0.07,0.39 0.2,0.68 0.11,0.32 0.18,0.63 0.21,0.93 0.06,0.39 0.06,0.76 0.01,1.14 -0.04,0.36 -0.04,0.73 0,1.12 0.06,0.47 0.15,0.92 0.26,1.33 0.14,0.43 0.22,0.83 0.26,1.24 0.04,0.39 0.03,0.71 -0.01,0.94 0.07,0.64 0.15,1.24 0.26,1.82 0.1,0.58 0.19,1.19 0.25,1.82 -0.14,0.17 -0.18,0.54 -0.11,1.08 0.06,0.47 0.14,0.91 0.25,1.28 0.12,0.39 0.22,0.85 0.28,1.4 0.04,0.39 0.02,0.83 -0.08,1.32 0.22,0.61 0.36,1.18 0.43,1.74 0.06,0.63 0.09,1.21 0.07,1.72 -0.03,0.51 0,1.06 0.06,1.59 0.1,0.79 0.21,1.53 0.36,2.22 0.15,0.69 0.28,1.44 0.37,2.22 0.06,0.64 0,1.08 -0.22,1.33 -0.2,0.26 -0.26,0.71 -0.2,1.33 0.07,0.62 0.17,1.19 0.31,1.7 0.13,0.49 0.22,1.02 0.29,1.57 0.07,0.63 0.08,1.2 0.07,1.71 -0.03,0.53 0,1.06 0.06,1.61 0.06,0.54 0.14,0.93 0.25,1.15 0.04,0.4 -0.14,0.63 -0.53,0.67 -0.42,0.43 -0.79,0.94 -1.13,1.5 -0.33,0.54 -0.8,0.86 -1.43,0.93 -0.39,0.04 -0.71,0 -0.96,-0.14 -0.78,0.17 -1.54,0.32 -2.31,0.44 -0.78,0.13 -1.54,0.24 -2.33,0.32 -2.33,0.26 -4.65,0.46 -6.96,0.61 -2.29,0.12 -4.57,0.33 -6.83,0.58 -0.67,-0.32 -1.29,-0.75 -1.9,-1.28 -0.61,-0.53 -1.11,-1.12 -1.5,-1.79 0.07,-0.8 0.08,-1.65 0.07,-2.57 -0.03,-0.92 -0.09,-1.85 -0.2,-2.78 -0.43,-3.93 -0.94,-7.58 -1.56,-10.97 -0.61,-3.37 -1.13,-6.94 -1.54,-10.71 -0.1,-0.79 -0.14,-1.53 -0.14,-2.25 0,-0.72 -0.03,-1.47 -0.12,-2.26 -0.06,-0.46 -0.15,-0.94 -0.28,-1.44 -0.14,-0.5 -0.22,-1.03 -0.29,-1.58 -0.07,-0.63 -0.1,-1.28 -0.1,-1.94 0,-0.68 -0.03,-1.33 -0.1,-1.96 -0.06,-0.54 -0.15,-0.97 -0.26,-1.29 0.06,-0.24 0.09,-0.46 0.11,-0.65 0.01,-0.2 0.01,-0.41 -0.02,-0.65 -0.04,-0.32 -0.14,-0.6 -0.28,-0.86 -0.15,-0.26 -0.24,-0.6 -0.28,-0.99 -0.06,-0.39 -0.06,-0.83 -0.03,-1.3 0.03,-0.49 0.02,-0.96 -0.04,-1.42 -0.04,-0.32 -0.17,-0.79 -0.39,-1.4 0.39,-0.04 0.57,-0.53 0.54,-1.49 -0.03,-0.94 -0.08,-1.8 -0.17,-2.59 -0.07,-0.56 -0.14,-1.06 -0.22,-1.53 -0.09,-0.47 -0.17,-0.9 -0.2,-1.29 0.12,-0.25 0.23,-0.51 0.32,-0.8 0.08,-0.29 0.11,-0.6 0.08,-0.91 -0.07,-0.56 -0.18,-1.15 -0.39,-1.8 -0.18,-0.65 -0.44,-1.26 -0.78,-1.82 -0.35,-0.56 -0.75,-1 -1.22,-1.35 -0.46,-0.35 -1.01,-0.49 -1.64,-0.42 -0.93,0.11 -1.99,0.26 -3.18,0.48 -1.19,0.21 -2.37,0.39 -3.54,0.52 -0.71,0.08 -1.54,0.17 -2.51,0.29 -0.97,0.09 -1.87,0.18 -2.74,0.24 -0.86,0.07 -1.63,0.06 -2.31,-0.03 -0.68,-0.1 -1.08,-0.32 -1.21,-0.71 -0.42,-0.91 -0.79,-2.07 -1.14,-3.5 -0.36,-1.43 -0.56,-2.7 -0.6,-3.81 -0.11,-0.94 -0.09,-1.85 0.04,-2.75 -0.19,-0.29 -0.32,-0.75 -0.39,-1.38 -0.04,-0.4 -0.07,-0.82 -0.08,-1.3 -0.02,-0.47 -0.04,-0.91 -0.08,-1.31 -0.03,-0.3 -0.13,-0.58 -0.28,-0.79 -0.13,-0.22 -0.22,-0.48 -0.26,-0.81 -0.07,-0.62 0.02,-1.14 0.25,-1.51 0.24,-0.39 0.32,-0.89 0.25,-1.52l-0.07 -0.59c0.32,-0.75 0.8,-1.26 1.48,-1.53 0.68,-0.29 1.44,-0.47 2.29,-0.57l2.68 -0.31c0.78,-0.07 1.36,-0.18 1.74,-0.3 0.17,-0.03 0.25,-0.02 0.31,0.01 0.04,0.04 0.14,0.06 0.29,0.04 0.54,-0.07 1.03,-0.22 1.43,-0.46 0.4,-0.24 0.87,-0.41 1.43,-0.47 0.38,-0.03 0.82,-0.04 1.28,-0.03 0.48,0.03 0.9,0.03 1.31,-0.02 1,-0.11 1.97,-0.31 2.89,-0.57 0.92,-0.26 1.79,-0.43 2.65,-0.54 0.93,-0.1 1.83,-0.04 2.72,0.18z"/>
   <path class="fil0" d="M860.55 552.51c-0.04,-0.39 -0.18,-0.58 -0.42,-0.56 -0.22,0.03 -0.44,-0.06 -0.63,-0.28 0.04,0.24 -0.06,0.32 -0.25,0.26 -0.22,-0.06 -0.31,-0.01 -0.28,0.15 0,0.08 0.03,0.13 0.06,0.11 0.04,0 0.07,0.03 0.08,0.11l-0.22 0.14c0.02,0.17 0.21,0.31 0.57,0.42 0.37,0.11 0.47,0.18 0.32,0.21 0.15,-0.03 0.29,-0.1 0.39,-0.22 0.1,-0.14 0.24,-0.25 0.37,-0.35zm-3.35 2.87c-0.03,-0.3 -0.13,-0.46 -0.28,-0.44 -0.07,0.02 -0.11,0.1 -0.08,0.26 0.03,0.22 0.07,0.33 0.15,0.33 0.07,-0.01 0.11,-0.04 0.11,-0.07 -0.01,-0.04 0.03,-0.07 0.1,-0.08zm0 -5.35c-0.17,-0.07 -0.29,-0.15 -0.37,-0.26 -0.1,-0.11 -0.22,-0.15 -0.38,-0.14 -0.39,0.06 -0.56,0.26 -0.51,0.65 0.03,0.15 0.13,0.25 0.33,0.26 0.18,0.01 0.36,0.01 0.53,0 0.3,-0.03 0.44,-0.21 0.4,-0.52zm0.6 -7.46c0,-0.08 0,-0.14 0.04,-0.18 0.03,-0.04 0.04,-0.11 0.03,-0.2 -0.01,-0.24 -0.26,-0.32 -0.72,-0.28 -0.79,0.1 -1.17,0.22 -1.15,0.37 0.03,0.17 0.07,0.22 0.15,0.22 0.07,-0.02 0.13,0.07 0.14,0.24l0.35 -0.04c0.15,-0.03 0.29,-0.02 0.42,0.01 0.13,0.03 0.25,0.03 0.42,0.02 0.15,-0.03 0.26,-0.08 0.33,-0.17zm-1.8 -4.44c-0.26,-0.28 -0.59,-0.42 -0.97,-0.36 -0.41,0.04 -0.8,0.08 -1.18,0.13 -0.06,0.08 -0.08,0.21 -0.07,0.36 0.06,0.56 0.25,0.85 0.57,0.89 0.32,0.04 0.68,0.04 1.07,0 0.13,-0.17 0.29,-0.29 0.49,-0.36 0.18,-0.04 0.28,-0.15 0.26,-0.31 -0.02,-0.08 -0.04,-0.14 -0.08,-0.18 -0.04,-0.04 -0.07,-0.08 -0.09,-0.17zm-0.72 9.37c-0.33,-0.13 -0.65,-0.17 -0.96,-0.14 -0.32,0.04 -0.64,0.17 -0.97,0.35 -0.33,0.21 -0.47,0.46 -0.44,0.76 0,0.08 0.06,0.15 0.14,0.22 0.22,-0.09 0.47,-0.15 0.75,-0.14 0.28,0 0.48,-0.07 0.62,-0.25l0.25 0.09c0.22,-0.03 0.36,-0.14 0.37,-0.33 0.02,-0.21 0.08,-0.41 0.24,-0.57zm-1.67 7.44l0.09 -0.25c-0.01,-0.15 -0.11,-0.22 -0.26,-0.2 -0.15,0.03 -0.26,0.06 -0.33,0.11 -0.08,0.04 -0.21,0.07 -0.35,0.08 -0.17,0.03 -0.24,-0.02 -0.25,-0.08 0.02,0.15 -0.02,0.25 -0.1,0.25 -0.07,0.02 -0.11,0.06 -0.09,0.13 0.01,0.17 0.11,0.25 0.28,0.28 0.15,0.01 0.26,0.01 0.35,0.01 0.31,-0.03 0.53,-0.14 0.67,-0.32zm1.65 -39.61l-0.03 -0.24c-0.04,-0.31 -0.25,-0.44 -0.64,-0.41 -0.3,0.04 -0.61,0.15 -0.9,0.33 0.03,0.32 0.1,0.56 0.19,0.71l0.24 -0.03 0.58 -0.07c0.31,-0.04 0.49,-0.14 0.56,-0.3zm-1.89 35.35c-0.04,-0.46 -0.31,-0.67 -0.78,-0.61 -0.22,0.01 -0.48,0.15 -0.78,0.37 -0.29,0.22 -0.46,0.43 -0.53,0.6 0.04,0.3 0.14,0.54 0.32,0.68 0.22,-0.11 0.44,-0.15 0.68,-0.14 0.25,0.02 0.43,-0.07 0.57,-0.25l0.25 0.09c0.22,-0.03 0.32,-0.26 0.26,-0.75zm-3.7 -30.31c-0.07,-0.62 -0.41,-0.9 -1.04,-0.83 -0.07,0 -0.13,0.04 -0.15,0.14 -0.04,0.08 -0.13,0.13 -0.28,0.15l-0.12 0c-0.14,0.09 -0.21,0.24 -0.2,0.37 0.03,0.17 0.07,0.26 0.15,0.29 0.08,0.03 0.17,0.13 0.26,0.26 0.22,-0.1 0.47,-0.15 0.75,-0.14 0.28,0.01 0.48,-0.07 0.62,-0.25zm1.38 6.04c-0.18,-0.22 -0.39,-0.32 -0.63,-0.29l-0.47 0.06 -0.22 0.03c-0.2,0.25 -0.53,0.51 -0.98,0.75 -0.43,0.25 -0.89,0.52 -1.33,0.76 -0.44,0.24 -0.8,0.46 -1.09,0.65 -0.31,0.2 -0.43,0.41 -0.41,0.64 0.02,0.15 0.28,0.25 0.79,0.26 0.52,0.03 0.91,0.09 1.15,0.24 0.85,-0.1 1.6,-0.59 2.25,-1.44 0.65,-0.88 0.96,-1.43 0.94,-1.65zm3.06 3.11c0,-0.08 -0.06,-0.13 -0.13,-0.11 -0.08,0.01 -0.13,-0.03 -0.14,-0.1l-0.46 0.04 -1.64 0.19c-0.54,0.06 -0.9,0.2 -1.07,0.42 -0.18,0.22 -0.3,0.47 -0.39,0.75 -0.09,0.3 -0.22,0.54 -0.39,0.75 -0.17,0.24 -0.49,0.36 -0.96,0.42 -0.39,0.04 -0.76,0.01 -1.14,-0.11 -0.36,-0.11 -0.82,-0.14 -1.36,-0.07 -0.3,0.03 -0.58,0.1 -0.8,0.19 0.72,1.5 1.44,2.36 2.17,2.56 0.74,0.2 1.81,0.21 3.19,0.07 0.38,0.58 0.77,0.9 1.17,0.93 0.4,0.03 0.9,0.02 1.53,-0.06 0.54,-0.06 0.92,-0.22 1.13,-0.48l0.14 0.11c0.07,-0.01 0.1,-0.1 0.08,-0.25l-0.04 -0.47 -0.01 -0.11c-0.26,-0.29 -0.6,-0.41 -0.99,-0.37 -0.32,0.04 -0.62,0.14 -0.91,0.29 -0.31,0.14 -0.64,0.25 -1.03,0.29 -0.63,0.07 -1.02,-0.15 -1.2,-0.64 -0.17,-0.5 -0.36,-0.97 -0.57,-1.43 0.12,-0.25 0.4,-0.44 0.82,-0.57 0.42,-0.13 0.86,-0.25 1.32,-0.39 0.46,-0.12 0.86,-0.3 1.24,-0.54 0.36,-0.25 0.51,-0.6 0.47,-1.08l-0.03 -0.22zm-5.25 -14.43c-0.01,-0.07 -0.06,-0.11 -0.13,-0.1 -0.08,0.02 -0.12,-0.03 -0.12,-0.1l-0.02 -0.12 -0.58 0.07c-0.47,0.06 -0.89,0.2 -1.25,0.44 -0.38,0.24 -0.78,0.46 -1.22,0.67 0.02,0.15 0.22,0.26 0.63,0.35 0.39,0.07 0.64,0.11 0.71,0.09 0.32,-0.04 0.59,-0.14 0.86,-0.28 0.26,-0.15 0.54,-0.28 0.85,-0.39 0.07,0.07 0.15,0.1 0.24,0.1 0.08,-0.02 0.11,-0.1 0.09,-0.25l-0.04 -0.36 -0.02 -0.12zm-3.43 13.85c-0.18,-0.22 -0.39,-0.26 -0.6,-0.17 -0.24,0.11 -0.44,0.06 -0.61,-0.17 -0.24,0.03 -0.4,0.17 -0.49,0.42 -0.09,0.25 -0.18,0.54 -0.26,0.86 -0.08,0.33 -0.12,0.58 -0.15,0.79 -0.02,0.19 -0.03,0.25 -0.04,0.18 0.03,0.24 0.21,0.42 0.54,0.54l0.48 0.18c0.32,-0.04 0.5,-0.18 0.54,-0.42 0.06,-0.25 0.07,-0.53 0.03,-0.85 -0.03,-0.32 -0.04,-0.6 -0.04,-0.89 0.02,-0.28 0.21,-0.43 0.6,-0.48zm-0.57 19.36c-0.04,-0.39 -0.3,-0.53 -0.76,-0.44 -0.46,0.08 -0.86,0.07 -1.18,-0.04 0.02,0.15 -0.06,0.24 -0.21,0.26l-0.24 0.03c-0.07,0 -0.11,0.04 -0.09,0.13l0.01 0.11c-0.08,0.1 -0.15,0.14 -0.22,0.15 0.28,0.36 0.53,0.56 0.76,0.57 0.24,0.01 0.48,0.08 0.74,0.21l0.11 -0.02 0.47 -0.06c0.08,0 0.15,-0.08 0.21,-0.25 0.08,-0.01 0.13,0 0.13,0.04 0,0.04 0.04,0.06 0.11,0.04 0.17,-0.02 0.22,-0.26 0.17,-0.74zm2.83 -11.75c-0.25,-0.13 -0.6,-0.4 -1.04,-0.83 -0.44,-0.43 -0.74,-0.62 -0.89,-0.61l-0.47 0.04c-0.07,0.01 -0.13,-0.03 -0.13,-0.1 -0.39,0.04 -0.79,0.21 -1.18,0.49 -0.4,0.29 -0.79,0.62 -1.14,1.03 -0.35,0.39 -0.64,0.76 -0.88,1.11 -0.24,0.35 -0.35,0.58 -0.33,0.75 0.06,0.47 0.32,0.67 0.78,0.64 0.39,-0.06 0.74,-0.15 1.03,-0.31 0.31,-0.15 0.57,-0.25 0.81,-0.28 0.15,0 0.25,0 0.29,0.03 0.04,0.04 0.11,0.06 0.18,0.04 0.01,0.17 -0.04,0.29 -0.19,0.39 -0.15,0.1 -0.2,0.29 -0.17,0.61 0.03,0.24 0.13,0.46 0.31,0.68 0.19,0.22 0.24,0.33 0.17,0.33 0.07,0 0.14,-0.06 0.21,-0.14 0.1,0.07 0.14,0.14 0.15,0.22 0.78,-0.08 1.25,-0.37 1.43,-0.87 0.18,-0.5 0.58,-0.78 1.21,-0.86l1.06 -0.11c0.22,-0.03 0.61,-0.18 1.13,-0.49 0.52,-0.29 0.92,-0.58 1.19,-0.85l0.24 -0.03c0.17,-0.02 0.22,-0.1 0.21,-0.26 -0.01,-0.15 -0.22,-0.21 -0.59,-0.17l-1.06 0.11c-0.17,0.03 -0.56,0.03 -1.18,0.01 -0.64,0 -1.02,-0.19 -1.13,-0.58zm-6.21 10.11c-0.18,-0.22 -0.24,-0.46 -0.18,-0.69 0.04,-0.24 -0.21,-0.33 -0.75,-0.28 -0.15,0.03 -0.39,0.11 -0.68,0.26 -0.29,0.15 -0.43,0.31 -0.42,0.46 0.01,0.15 0.08,0.28 0.21,0.33 0.13,0.07 0.28,0.17 0.44,0.3 0.24,-0.1 0.48,-0.14 0.76,-0.14 0.28,0.01 0.47,-0.08 0.61,-0.25zm8.82 -23.86c-0.15,0.01 -0.32,0.06 -0.46,0.11 -0.17,0.06 -0.31,0.08 -0.47,0.11 -0.15,0.02 -0.32,-0.04 -0.49,-0.18 -0.46,0.13 -0.98,0.29 -1.59,0.47 -0.61,0.2 -1.1,0.43 -1.46,0.71 -0.35,0.35 -0.67,0.72 -0.93,1.11 -0.28,0.39 -0.74,0.63 -1.35,0.68 -0.63,0.07 -1.1,-0.07 -1.41,-0.43 -0.32,-0.36 -0.79,-0.5 -1.42,-0.43l-0.33 0.04c0.09,0.29 0.35,0.58 0.74,0.86 0.39,0.28 0.82,0.51 1.32,0.75 0.5,0.22 0.93,0.39 1.31,0.5 0.36,0.11 0.58,0.18 0.65,0.17 0.32,-0.04 0.67,-0.24 1.07,-0.6 0.39,-0.36 0.79,-0.76 1.21,-1.21 0.43,-0.44 0.87,-0.85 1.35,-1.22 0.47,-0.38 0.93,-0.59 1.4,-0.64 0.39,-0.04 0.76,0.06 1.15,0.29 0.37,0.24 0.78,0.42 1.18,0.53 0.39,-0.06 0.83,-0.11 1.33,-0.22 0.5,-0.08 0.93,-0.32 1.28,-0.68 -0.19,-0.36 -0.64,-0.63 -1.32,-0.81 -0.69,-0.15 -1.3,-0.19 -1.85,-0.14 -0.46,0.06 -0.78,0.13 -0.92,0.22zm2.25 17.14c-0.41,0.04 -0.75,0.04 -1.07,0 -0.32,-0.04 -0.65,-0.13 -0.97,-0.25 -0.53,0.22 -1,0.35 -1.43,0.41 -0.43,0.04 -0.7,0.32 -0.79,0.8 -0.42,0.52 -0.75,1.11 -0.99,1.78 -0.24,0.67 -0.82,1.04 -1.76,1.15 -0.39,0.04 -0.83,-0.07 -1.33,-0.33 -0.5,-0.26 -0.97,-0.56 -1.39,-0.92 -0.44,-0.35 -0.85,-0.67 -1.24,-0.93 -0.38,-0.28 -0.7,-0.4 -0.92,-0.37 -0.78,0.08 -1.26,0.33 -1.46,0.76 0.42,0.26 0.99,0.36 1.68,0.28l0.47 -0.04c0.28,0.36 0.65,0.74 1.13,1.11 0.47,0.39 0.96,0.78 1.43,1.15 0.47,0.39 0.88,0.69 1.22,0.94 0.33,0.23 0.58,0.35 0.75,0.33 0.53,-0.07 0.93,-0.25 1.18,-0.56 0.24,-0.31 0.53,-0.64 0.89,-0.98 0,-0.64 0.28,-1.14 0.83,-1.47 0.56,-0.35 1.15,-0.61 1.8,-0.79 0.64,-0.2 1.24,-0.36 1.76,-0.5 0.54,-0.14 0.79,-0.33 0.78,-0.57 -0.03,-0.24 -0.1,-0.42 -0.2,-0.57 -0.08,-0.15 -0.22,-0.29 -0.39,-0.43zm-9.94 -6.63l-0.04 -0.35c-0.03,-0.24 -0.19,-0.35 -0.5,-0.31 -0.39,0.04 -0.92,0.24 -1.6,0.6 -0.67,0.35 -0.97,0.71 -0.93,1.11 0.04,0.41 0.15,0.6 0.31,0.63 0.17,0.03 0.4,0.06 0.72,0.1 0.37,-0.21 0.82,-0.39 1.35,-0.57 0.53,-0.18 0.76,-0.58 0.7,-1.21zm-2.36 -4.26c-0.08,0.02 -0.13,-0.03 -0.13,-0.1l-0.35 0.04 -0.47 0.04c-0.15,0.01 -0.22,0.07 -0.22,0.14 0.21,0.39 0.72,0.53 1.58,0.43 -0.04,-0.4 -0.14,-0.58 -0.29,-0.57l-0.13 0.01zm0.65 27.21c-0.33,-0.13 -0.57,-0.18 -0.74,-0.15 -0.37,0.04 -1.02,0.2 -1.89,0.44 -0.87,0.26 -1.35,0.47 -1.4,0.63 0.03,0.32 0.09,0.56 0.18,0.71 0.61,-0.22 1.29,-0.44 2.07,-0.65 0.76,-0.21 1.35,-0.53 1.78,-0.97zm-2.29 -4.75c-0.15,0.09 -0.31,0.15 -0.46,0.17 -0.24,0.03 -0.46,0.01 -0.65,-0.04 -0.2,-0.06 -0.46,-0.07 -0.76,-0.04 -0.25,0.03 -0.43,0.09 -0.58,0.19 -0.29,0.2 -0.42,0.37 -0.4,0.53 0.03,0.24 0.15,0.35 0.39,0.36 0.24,0.01 0.44,0.1 0.61,0.24l0.6 -0.07c0.37,-0.04 0.8,-0.04 1.28,-0.03 0.49,0.03 0.94,0.02 1.42,-0.03 0.15,-0.03 0.44,-0.1 0.86,-0.22 0.42,-0.13 0.63,-0.26 0.59,-0.43 -0.01,-0.24 -0.33,-0.43 -0.94,-0.61 -0.61,-0.17 -1.03,-0.24 -1.26,-0.21 -0.31,0.03 -0.54,0.1 -0.68,0.2zm-0.43 -34.85l-0.01 -0.12 -0.14 -0.1c-0.31,0.03 -0.44,0.13 -0.43,0.28l0.13 0.11c0.07,-0.02 0.15,-0.03 0.22,-0.08 0.09,-0.04 0.15,-0.07 0.24,-0.09zm-1.61 15.36c-0.15,0.06 -0.3,0.06 -0.47,0 0.04,0.39 0.31,0.56 0.76,0.52l0.1 -0.26c-0.11,-0.21 -0.24,-0.31 -0.39,-0.25zm-0.25 12.72l-0.25 -0.1c-0.15,0.01 -0.32,0.1 -0.5,0.24 -0.18,0.14 -0.35,0.22 -0.5,0.24l0.24 -0.03 0.57 -0.07c0.25,-0.03 0.39,-0.11 0.44,-0.28zm-1.71 10.08c-0.18,-0.15 -0.31,-0.25 -0.39,-0.32 -0.1,-0.07 -0.25,-0.1 -0.49,-0.07 -0.24,0.03 -0.47,0.21 -0.69,0.56 -0.25,0.35 -0.32,0.52 -0.25,0.5 0.06,0.56 0.32,0.81 0.79,0.75 0.78,-0.09 1.12,-0.49 1.04,-1.2l-0.01 -0.22zm-2.22 3.46c-0.24,-0.04 -0.4,-0.14 -0.5,-0.25 -0.08,-0.1 -0.25,-0.14 -0.48,-0.11 -0.15,0.02 -0.29,0.13 -0.43,0.35 -0.14,0.21 -0.19,0.39 -0.17,0.56 0.04,0.39 0.17,0.56 0.4,0.48 0.22,-0.07 0.54,-0.08 0.94,-0.06 0.22,-0.1 0.32,-0.25 0.31,-0.44 -0.03,-0.19 -0.04,-0.37 -0.07,-0.53zm-0.72 -6.58c-0.03,-0.24 -0.2,-0.35 -0.52,-0.31l-0.46 0.06 -0.24 0.03c-0.14,0.09 -0.19,0.32 -0.15,0.67 0.03,0.36 0.04,0.48 0.04,0.42 0.17,0.14 0.48,0.18 0.96,0.12 0.29,-0.18 0.42,-0.44 0.39,-0.76l-0.03 -0.22zm0.18 11.29c-0.18,-0.22 -0.35,-0.32 -0.5,-0.31 -1.02,0.13 -1.6,0.59 -1.74,1.39 0.33,0.13 0.53,0.18 0.61,0.17 0.15,-0.02 0.47,-0.11 0.97,-0.3 0.48,-0.17 0.71,-0.41 0.68,-0.72l-0.03 -0.24zm-2.29 -2.6c-0.15,0.02 -0.24,-0.04 -0.25,-0.15 -0.01,-0.13 -0.1,-0.17 -0.25,-0.15 -0.33,-0.13 -0.57,-0.18 -0.74,-0.15 -0.39,0.04 -0.67,0.15 -0.85,0.33 -0.18,0.18 -0.25,0.35 -0.24,0.5 0.06,0.47 0.32,0.68 0.78,0.62 0.24,-0.03 0.56,-0.07 0.98,-0.17 0.42,-0.1 0.61,-0.33 0.57,-0.72l-0.01 -0.11zm-1.53 -9.59c-0.03,-0.15 -0.22,-0.21 -0.61,-0.17l-0.69 0.07c0.01,0.17 0.07,0.31 0.17,0.46 0.1,0.15 0.33,0.2 0.72,0.15 0.3,-0.03 0.44,-0.21 0.42,-0.51zm-2.71 25.67l-0.26 -0.19c-0.15,0.01 -0.26,0.06 -0.33,0.14 -0.07,0.1 -0.18,0.15 -0.33,0.17 0.02,0.15 0.17,0.22 0.49,0.18 0.3,-0.04 0.46,-0.13 0.44,-0.29zm1.01 -18.57c-0.17,-0.06 -0.3,-0.12 -0.43,-0.19 -0.14,-0.06 -0.28,-0.08 -0.43,-0.07 -0.3,0.04 -0.48,0.15 -0.56,0.36 -0.06,0.21 -0.11,0.35 -0.18,0.43 0.15,-0.01 0.21,0.09 0.15,0.29 -0.06,0.2 -0.01,0.3 0.15,0.28 0.07,-0.01 0.11,-0.04 0.11,-0.08 0,-0.03 0.03,-0.06 0.11,-0.06l0.25 0.21c0.15,-0.02 0.29,-0.07 0.4,-0.17 0.11,-0.08 0.24,-0.15 0.39,-0.17 0,-0.08 -0.03,-0.13 -0.07,-0.11 -0.04,0 -0.07,-0.03 -0.07,-0.1 -0.02,-0.08 0.01,-0.14 0.1,-0.14 0.08,-0.02 0.11,-0.1 0.09,-0.25l-0.03 -0.24zm1.89 6.46c-0.26,-0.21 -0.72,-0.36 -1.4,-0.43 -0.68,-0.09 -1.03,-0.21 -1.04,-0.36l-0.24 0.03 -0.81 0.08c-0.4,0.04 -0.61,0.22 -0.65,0.56 0,0.07 0.46,0.26 1.36,0.56 0.89,0.29 1.65,0.4 2.28,0.33 0.06,-0.15 0.17,-0.29 0.31,-0.39 0.15,-0.1 0.2,-0.22 0.19,-0.37zm-1.99 3.32c-0.09,-0.15 -0.3,-0.22 -0.62,-0.22 -0.31,-0.01 -0.54,0 -0.71,0.02 -1.47,0.17 -2.63,0.76 -3.44,1.82 0.32,0.13 0.65,0.17 1.01,0.13 0.35,-0.04 0.72,-0.08 1.11,-0.13 0.54,-0.06 1.14,-0.15 1.79,-0.26 0.65,-0.11 0.96,-0.48 0.89,-1.11l-0.03 -0.24zm-2.72 -7.56c-1.15,-0.42 -2.19,-0.6 -3.13,-0.49 0.02,0.17 -0.01,0.24 -0.09,0.25 -0.07,0.01 -0.1,0.06 -0.1,0.13l0.01 0.12c0.56,0.1 1.06,0.38 1.52,0.85 0.43,0.46 0.86,0.68 1.25,0.64 0.22,-0.03 0.39,-0.14 0.49,-0.31 0.11,-0.17 0.22,-0.33 0.36,-0.51 -0.04,-0.39 -0.15,-0.63 -0.31,-0.68zm-1.28 -8.32l-0.24 0.03c-0.07,0.01 -0.18,-0.02 -0.3,-0.08 -0.13,-0.06 -0.29,-0.09 -0.53,-0.06 -0.24,0.03 -0.49,0.17 -0.72,0.43 -0.25,0.28 -0.35,0.59 -0.3,0.98 0.03,0.25 0.19,0.35 0.51,0.32 0.38,-0.06 0.78,-0.21 1.18,-0.44 0.4,-0.24 0.6,-0.52 0.56,-0.83 -0.07,0.01 -0.11,-0.03 -0.12,-0.1l-0.03 -0.25zm-3.09 15.72c-0.25,-0.06 -0.47,-0.11 -0.67,-0.17 -0.2,-0.06 -0.41,-0.07 -0.65,-0.04 -0.17,0.02 -0.31,0.07 -0.46,0.17 -0.14,0.09 -0.21,0.26 -0.18,0.5 0.04,0.39 0.28,0.56 0.71,0.51 0.43,-0.04 0.76,-0.08 0.99,-0.11 0.07,-0.17 0.12,-0.29 0.19,-0.37 0.07,-0.1 0.1,-0.25 0.07,-0.49zm0.22 -4.32c-0.37,-0.6 -1.11,-0.82 -2.19,-0.69 -0.47,0.04 -0.82,0.12 -1.04,0.24 0.07,0.54 0.29,0.9 0.71,1.04 0.42,0.15 0.81,0.21 1.2,0.17 0.47,-0.06 0.85,-0.17 1.14,-0.36l0.13 -0.03c0.07,0 0.11,-0.04 0.09,-0.13l-0.03 -0.24zm-3.33 -7.72c0.07,-0.09 0.09,-0.21 0.08,-0.36 -0.02,-0.17 -0.11,-0.22 -0.26,-0.21 -0.46,0.04 -0.68,0.24 -0.64,0.56 0,0.07 0.09,0.1 0.24,0.08l0.47 -0.06 0.11 -0.01zm1.78 -5.43c-0.32,0.03 -0.48,-0.03 -0.5,-0.19 -0.44,0.22 -0.94,0.37 -1.48,0.47 -0.54,0.09 -0.86,0.39 -0.97,0.89 0.12,0.3 0.37,0.42 0.76,0.38 0.46,-0.04 0.96,-0.2 1.47,-0.46 0.53,-0.25 0.76,-0.54 0.74,-0.85l-0.02 -0.24zm-1.24 -3.68l-0.03 -0.24c-0.04,-0.3 -0.17,-0.43 -0.4,-0.36 -0.22,0.06 -0.43,-0.02 -0.61,-0.24 -0.3,0.19 -0.57,0.37 -0.82,0.57 -0.25,0.18 -0.4,0.44 -0.44,0.76 0.08,0.15 0.22,0.18 0.43,0.13 0.18,-0.06 0.32,-0.01 0.42,0.14 0.14,-0.17 0.39,-0.24 0.75,-0.21 0.36,0.04 0.58,-0.15 0.71,-0.56zm-4.17 1.89l0.09 -0.24c-0.03,-0.24 -0.19,-0.35 -0.5,-0.31 -0.32,0.04 -0.46,0.21 -0.41,0.53 0.01,0.15 0.07,0.28 0.15,0.33 0.31,-0.03 0.53,-0.14 0.67,-0.32zm-2.7 -3.03c-0.09,-0.14 -0.21,-0.21 -0.37,-0.19 -0.39,0.04 -0.64,0.24 -0.76,0.57 0.08,-0.01 0.17,0.02 0.25,0.08l-0.1 0.25c0.01,0.08 0.06,0.13 0.14,0.11 0.15,-0.01 0.35,-0.08 0.57,-0.19 0.22,-0.1 0.32,-0.31 0.28,-0.63zm-1.54 8.4c-0.1,-0.15 -0.26,-0.21 -0.5,-0.19 -0.15,0.03 -0.25,0.07 -0.28,0.15 -0.03,0.09 -0.17,0.14 -0.39,0.17l-0.47 0.04 -0.11 0.03c0,0.08 0.06,0.11 0.13,0.11 0.08,-0.02 0.13,0 0.13,0.04 0,0.04 0.08,0.04 0.24,0.03l0.24 -0.03 0.58 -0.07c0.24,-0.02 0.37,-0.13 0.44,-0.28zm-2.29 -6.78c-0.02,-0.15 -0.1,-0.2 -0.25,-0.15 -0.15,0.06 -0.28,-0.02 -0.37,-0.25l-0.24 0.03 -0.47 0.06c-0.31,0.03 -0.48,0.17 -0.54,0.41 0.67,0.32 1.28,0.44 1.82,0.39l0.46 -0.06c-0.01,-0.15 -0.08,-0.24 -0.19,-0.22 -0.13,0.01 -0.18,-0.04 -0.21,-0.21zm0.56 -14.24c-0.26,-0.29 -0.64,-0.41 -1.1,-0.35 -0.56,0.06 -1.03,0.28 -1.47,0.64 0.04,0.32 0.14,0.51 0.31,0.63 0.18,0.09 0.33,0.14 0.5,0.11 0.22,-0.02 0.58,-0.11 1.08,-0.29 0.48,-0.18 0.72,-0.39 0.69,-0.61l-0.01 -0.13zm-2.97 6.17c-0.03,-0.24 -0.17,-0.33 -0.39,-0.3l-0.21 0.26c0.02,0.07 0.21,0.08 0.6,0.04zm-0.15 -9.86l-0.03 -0.24c-0.03,-0.24 -0.15,-0.41 -0.4,-0.56 -0.26,-0.12 -0.46,-0.18 -0.61,-0.17 -0.39,0.06 -0.71,0.22 -0.94,0.53 -0.25,0.31 -0.33,0.69 -0.29,1.17 0.04,0.39 0.3,0.56 0.76,0.52 0.39,-0.06 0.69,-0.21 0.89,-0.47 0.21,-0.26 0.42,-0.52 0.63,-0.78zm0.83 21.46c-0.41,-0.11 -0.86,-0.37 -1.37,-0.79 -0.52,-0.42 -0.86,-0.63 -1.02,-0.6l-0.35 0.04c-0.15,0.01 -0.28,-0.06 -0.37,-0.2l-0.24 0.02 -0.7 0.08c-0.32,0.03 -0.46,0.22 -0.42,0.53 0.02,0.15 0.2,0.35 0.53,0.6 0.35,0.24 0.75,0.47 1.21,0.69 0.46,0.22 0.94,0.42 1.47,0.54 0.53,0.15 1.03,0.19 1.5,0.14l0.08 -0.25c-0.03,-0.17 -0.07,-0.29 -0.17,-0.4 -0.08,-0.11 -0.14,-0.24 -0.17,-0.4zm-1.52 -27.58l-0.01 -0.11c-0.02,-0.15 -0.04,-0.24 -0.07,-0.24 -0.04,0.02 -0.07,-0.07 -0.08,-0.22 -0.15,0.1 -0.31,0.15 -0.46,0.17 -0.17,0.02 -0.28,0.02 -0.36,-0.03 -0.08,-0.03 -0.2,-0.03 -0.35,-0.01l-0.35 0.04c0.11,0.39 0.36,0.53 0.75,0.46 0.39,-0.08 0.69,-0.1 0.93,-0.06zm-5.24 44.43c0,-0.08 -0.12,-0.14 -0.36,-0.19 -0.25,-0.06 -0.46,-0.07 -0.6,-0.06 -0.32,0.04 -0.47,0.12 -0.44,0.29 0.03,0.24 0.18,0.33 0.5,0.3 0.15,-0.03 0.29,-0.08 0.4,-0.17 0.1,-0.1 0.26,-0.15 0.5,-0.18zm-0.39 -11.04c-0.01,-0.15 -0.18,-0.2 -0.5,-0.18 -0.15,0.03 -0.22,0.07 -0.2,0.15 0.03,0.24 0.22,0.32 0.61,0.29 0.08,-0.01 0.13,-0.06 0.11,-0.14l-0.02 -0.13zm1.54 -8.51c-0.18,-0.13 -0.35,-0.19 -0.5,-0.17 -0.15,0.01 -0.47,0.12 -0.96,0.33 -0.49,0.22 -0.74,0.37 -0.72,0.44 0.04,0.32 0.21,0.46 0.53,0.42 0.31,-0.03 0.54,0.01 0.72,0.15 0.44,-0.13 0.76,-0.52 0.93,-1.18zm1.79 -16.86c-0.33,-0.13 -0.74,-0.17 -1.19,-0.11 -0.47,0.06 -0.85,0.17 -1.14,0.37l-0.23 0.03c-0.15,0.02 -0.25,0.07 -0.28,0.2 -0.02,0.12 -0.1,0.28 -0.24,0.44l0.03 0.24 0.04 0.36c0.01,0.15 0.15,0.28 0.44,0.36 0.28,0.08 0.51,0.13 0.67,0.11 0.78,-0.1 1.35,-0.4 1.72,-0.92 0.38,-0.51 0.49,-0.76 0.33,-0.75 -0.07,0 -0.13,-0.06 -0.14,-0.22l-0.02 -0.11zm-0.94 -8.6c-0.4,-0.03 -0.67,-0.14 -0.8,-0.32 -0.14,-0.19 -0.41,-0.26 -0.79,-0.21 -0.15,0.02 -0.32,0.07 -0.46,0.17 -0.15,0.09 -0.21,0.22 -0.19,0.37 0.01,0.15 0.22,0.32 0.58,0.47 0.37,0.15 0.71,0.22 1.03,0.18 0.08,0 0.21,-0.06 0.4,-0.17 0.18,-0.09 0.26,-0.22 0.25,-0.37l-0.02 -0.13zm-0.85 5.22c-0.18,-0.14 -0.33,-0.21 -0.5,-0.19 -0.15,0.03 -0.31,0.09 -0.43,0.24 -0.15,0.14 -0.31,0.22 -0.46,0.23l-0.24 -0.09c-0.17,0.01 -0.22,0.11 -0.21,0.26 0.04,0.3 0.2,0.44 0.52,0.42 0.47,-0.06 0.78,-0.17 0.9,-0.33 0.14,-0.18 0.28,-0.36 0.42,-0.53zm-4.11 55.74c-0.17,-0.15 -0.29,-0.21 -0.37,-0.21 -0.15,0.03 -0.33,0.08 -0.52,0.18 -0.18,0.1 -0.26,0.22 -0.25,0.39 0.03,0.15 0.18,0.22 0.48,0.18 -0.01,-0.15 0.1,-0.23 0.33,-0.22 0.24,0.02 0.35,-0.1 0.32,-0.32zm4.36 -43.85c-0.35,-0.36 -0.83,-0.52 -1.46,-0.44 -0.83,0.42 -1.54,0.69 -2.15,0.83l-0.12 0.02c-0.15,0.03 -0.2,0.22 -0.15,0.61 0.11,0.41 0.39,0.64 0.85,0.75 0.43,0.11 0.85,0.14 1.25,0.09 0.93,-0.11 1.6,-0.41 2.02,-0.94 -0.04,-0.39 -0.11,-0.7 -0.22,-0.92zm-1.72 12.09c-0.36,-0.44 -1.06,-0.59 -2.07,-0.48 -0.23,0.03 -0.39,0.08 -0.51,0.18 -0.1,0.09 -0.24,0.15 -0.39,0.17l-0.35 0.03c-0.08,0.02 -0.11,0.06 -0.11,0.14l0.01 0.11 -0.09 0.14c0.06,0.54 0.44,0.78 1.14,0.71 0.24,-0.03 0.46,-0.07 0.69,-0.14 0.22,-0.07 0.46,-0.11 0.7,-0.14 0.46,-0.06 0.83,0.07 1.09,0.35 0.26,0.29 0.61,0.53 1.03,0.72l0.22 -0.03 0.82 -0.08c0.24,-0.03 0.33,-0.13 0.32,-0.28 -0.04,-0.4 -0.36,-0.69 -0.97,-0.92 -0.61,-0.19 -1.13,-0.36 -1.53,-0.47zm8.94 -9.71c-1.1,-0.03 -2.04,-0.04 -2.83,-0.04 -0.78,0.01 -1.09,0.01 -0.93,-0.02 -1.03,0.13 -1.67,0.47 -1.96,1.07 -0.3,0.58 -0.67,0.9 -1.14,0.94 -0.39,0.06 -0.85,-0.06 -1.39,-0.32 -0.54,-0.25 -1.04,-0.35 -1.52,-0.31l-0.22 0.03c-0.32,-0.04 -0.64,-0.04 -0.94,-0.01 -0.41,0.04 -0.79,0.33 -1.21,0.86l-0.52 0.65c0.2,0.44 0.81,0.63 1.83,0.5l1.5 -0.17c1.01,-0.11 1.54,0.03 1.58,0.42 0.04,0.4 0.25,0.85 0.63,1.37 0.59,-0.24 1.18,-0.42 1.71,-0.57 0.53,-0.12 1.01,-0.42 1.43,-0.87 -0.06,-0.54 0.08,-0.92 0.42,-1.11 0.33,-0.2 0.64,-0.43 0.93,-0.71 0.46,-0.04 0.93,-0.03 1.42,0.08 0.49,0.11 0.92,0.14 1.31,0.1 0.3,-0.03 0.54,-0.1 0.69,-0.21l0.11 -0.02c0.24,-0.03 0.36,-0.09 0.38,-0.28 0.03,-0.15 0.07,-0.28 0.14,-0.37 -0.17,-0.04 -0.28,-0.26 -0.36,-0.61 -0.08,-0.33 -0.43,-0.48 -1.06,-0.42zm-12.36 14.03c-0.01,-0.17 -0.14,-0.26 -0.33,-0.32 -0.21,-0.06 -0.39,-0.17 -0.57,-0.3l-0.11 0.03 -0.46 0.04c-0.09,0.02 -0.12,0.06 -0.11,0.13 0.03,0.32 0.22,0.47 0.58,0.47 0.35,0 0.68,-0.01 1,-0.04zm-0.58 -16.97c-0.04,-0.39 -0.14,-0.59 -0.29,-0.57 -0.08,0.01 -0.11,0.14 -0.08,0.37 0.01,0.17 0.1,0.22 0.25,0.2l0.13 0zm3.46 -5.04c-0.49,-0.1 -0.96,-0.13 -1.43,-0.07 -0.46,0.04 -0.93,0.02 -1.42,-0.08 -0.14,0.18 -0.39,0.31 -0.74,0.39 -0.33,0.07 -0.48,0.35 -0.43,0.82 0.07,0.63 0.42,1.08 1.03,1.37 0.63,0.28 1.29,0.39 1.99,0.31 0.39,-0.04 0.76,-0.17 1.14,-0.36 0.37,-0.19 0.68,-0.32 0.9,-0.35 0.47,-0.04 0.76,0.19 0.92,0.74 0.13,0.54 0.42,0.9 0.82,1.1 0.63,-0.07 1.26,-0.18 1.92,-0.33 0.65,-0.15 0.93,-0.65 0.83,-1.53 -0.1,-0.86 -0.57,-1.24 -1.43,-1.15 -0.3,0.04 -0.59,0.14 -0.85,0.28 -0.26,0.15 -0.51,0.24 -0.74,0.26 -0.63,0.07 -1.07,-0.11 -1.36,-0.57 -0.29,-0.43 -0.67,-0.71 -1.15,-0.82zm-5.35 15.74c-0.08,-0.07 -0.21,-0.1 -0.36,-0.08 -0.31,0.04 -0.46,0.1 -0.44,0.17 0.01,0.24 0.18,0.33 0.5,0.31 0.22,-0.03 0.33,-0.15 0.3,-0.39zm-0.24 -7.6c-0.18,-0.14 -0.3,-0.21 -0.39,-0.19 -0.22,0.03 -0.33,0.13 -0.32,0.26 0,0.08 0.03,0.13 0.07,0.13 0.04,0 0.07,0.04 0.07,0.09 0.39,-0.03 0.58,-0.12 0.57,-0.29zm4.61 -14.8c0.06,-0.1 0.08,-0.21 0.07,-0.38 -0.01,-0.15 -0.26,-0.22 -0.72,-0.2 -0.47,0.01 -0.64,0 -0.49,-0.02 -0.36,0.19 -0.78,0.33 -1.25,0.39 -0.46,0.04 -0.89,0.11 -1.28,0.19 -0.37,0.08 -0.72,0.2 -1.01,0.36 -0.31,0.14 -0.43,0.37 -0.41,0.69 0.02,0.15 0.2,0.25 0.52,0.31 0.31,0.04 0.56,0.04 0.71,0.03 0.63,-0.07 1.17,-0.29 1.64,-0.65 0.46,-0.36 1.02,-0.6 1.64,-0.65l0.59 -0.07zm-8.5 37.4l-0.02 -0.13c-0.01,-0.08 -0.04,-0.11 -0.13,-0.11l-0.24 0.03 -0.11 0.02c-0.07,0.09 -0.11,0.18 -0.1,0.25l0.13 -0.01 0.35 -0.03 0.11 -0.02zm3.36 -28.25c-0.08,-0.17 -0.35,-0.26 -0.79,-0.33 -0.44,-0.07 -0.78,-0.1 -1.01,-0.07 -0.78,0.1 -1.22,0.35 -1.33,0.75 0.4,0.11 0.76,0.29 1.06,0.53 0.31,0.25 0.7,0.35 1.15,0.29 0.17,-0.02 0.36,-0.13 0.63,-0.31 0.26,-0.18 0.36,-0.4 0.33,-0.64l-0.03 -0.22zm-4.21 20.6l-0.01 -0.11c-0.02,-0.17 -0.14,-0.22 -0.37,-0.21 0.03,0.25 0.17,0.35 0.39,0.32zm16.09 -48.86c1.4,-0.07 2.5,0.26 3.29,1 0.79,0.75 1.44,1.67 1.96,2.75 0.52,1.1 0.97,2.28 1.39,3.54 0.42,1.26 0.92,2.37 1.5,3.35 0.3,0.61 0.53,1.22 0.67,1.83 0.15,0.61 0.31,1.32 0.47,2.1 0.21,0.53 0.52,1 0.93,1.43 0.41,0.43 0.64,0.96 0.71,1.6 0.02,0.15 -0.03,0.56 -0.11,1.2 0.26,0.29 0.52,0.56 0.74,0.8 0.22,0.26 0.47,0.53 0.74,0.82 -0.04,0.32 -0.04,0.68 0,1.07 0.1,0.86 0.33,1.56 0.71,2.07 0.37,0.51 0.6,1.12 0.68,1.83 0.54,0.64 0.9,1.47 1.08,2.43 0.18,0.97 0.58,1.75 1.19,2.3l0.06 0.47c0.06,0.47 0.14,0.87 0.25,1.22 0.13,0.35 0.28,0.67 0.47,0.96 0.53,0.58 0.82,1.4 0.86,2.47 0.04,1.07 0.39,1.83 1.07,2.32 0.38,1.15 0.81,2.28 1.32,3.36 0.51,1.1 1.32,1.86 2.37,2.29 0.01,0.08 0.09,0.11 0.25,0.1 0.63,-0.07 1.1,-0.65 1.41,-1.78 0.3,-1.1 0.46,-2 0.46,-2.72 -0.11,-1.02 0.06,-1.85 0.5,-2.5 0.43,-0.64 0.6,-1.49 0.48,-2.49 -0.04,-0.4 -0.12,-0.75 -0.24,-1.06 0.35,-0.52 0.57,-1.11 0.7,-1.81 0.11,-0.69 0.21,-1.41 0.29,-2.18 0.07,-0.75 0.14,-1.5 0.22,-2.22 0.07,-0.72 0.28,-1.35 0.63,-1.86 0.13,-0.17 0.24,-0.58 0.33,-1.22 0.07,-0.64 0.1,-1.17 0.06,-1.56 -0.02,-0.17 -0.04,-0.33 -0.11,-0.53 -0.06,-0.2 -0.1,-0.33 -0.11,-0.41 0.07,-0.87 0.32,-1.64 0.77,-2.29 0.43,-0.64 0.61,-1.4 0.51,-2.26 -0.06,-0.39 -0.13,-0.69 -0.22,-0.91 0.08,-0.65 0.19,-1.2 0.35,-1.65 0.14,-0.44 0.26,-0.96 0.36,-1.53 0.68,-0.96 0.96,-2.14 0.85,-3.56 -0.13,-1.42 -0.04,-2.74 0.21,-3.96 -0.07,-0.61 0.07,-1.22 0.39,-1.82 0.33,-0.6 0.46,-1.21 0.39,-1.83l-0.07 -0.71c-0.07,-0.54 0.08,-0.89 0.47,-1.01 0.52,-1.72 1.56,-2.76 3.14,-3.14 1.57,-0.38 3.19,-0.67 4.92,-0.86 1.79,-0.2 3.56,-0.35 5.3,-0.47 1.76,-0.13 3.53,-0.28 5.32,-0.47 0.86,-0.11 1.71,-0.22 2.56,-0.36 0.86,-0.12 1.71,-0.29 2.56,-0.46 0.25,0.21 0.54,0.35 0.86,0.43 0.33,0.08 0.58,0.28 0.78,0.57l0.03 0.24c-0.02,-0.08 0.22,0.11 0.71,0.57 0.48,0.47 0.76,1.06 0.85,1.76 0.03,0.31 0.02,0.54 -0.04,0.71 0.44,0.52 0.81,1.22 1.06,2.15 0.26,0.92 0.39,1.31 0.37,1.14 0.03,0.32 0.03,0.61 -0.03,0.91 -0.04,0.29 -0.06,0.58 -0.02,0.9 0.03,0.24 0.14,0.5 0.32,0.79l-0.08 0.25c0.03,0.32 0.14,0.51 0.29,0.62 0.18,0.1 0.29,0.35 0.32,0.74l0.17 1.41c0.09,0.87 0.36,1.43 0.78,1.69 0.13,0.47 0.25,0.92 0.38,1.33 0.12,0.43 0.2,0.86 0.26,1.35 0.07,0.54 0.07,0.97 0.03,1.31 0.44,0.43 0.74,0.97 0.89,1.62 0.15,0.67 0.28,1.35 0.35,2.04 0.08,0.71 0.19,1.42 0.35,2.11 0.15,0.7 0.46,1.25 0.9,1.68 0.02,0.15 0.02,0.33 -0.01,0.54 -0.02,0.19 -0.02,0.37 0,0.53 0.11,0.87 0.28,1.59 0.54,2.21 0.26,0.59 0.63,1.19 1.1,1.78l0.03 0.25c0.03,0.39 0,0.68 -0.08,0.9 -0.1,0.19 -0.14,0.46 -0.1,0.78 0.06,0.47 0.21,0.7 0.49,0.65 0.28,-0.03 0.43,0.11 0.46,0.43l0.01 0.12c0.1,0.14 0.17,0.36 0.2,0.68 0.04,0.41 0,0.76 -0.11,1.08 -0.13,0.33 -0.17,0.65 -0.14,0.97 0.06,0.39 0.26,0.65 0.68,0.76 0.31,0.6 0.5,1.2 0.61,1.76 0.11,0.6 0.18,1.2 0.25,1.83 0.43,0.26 0.67,0.63 0.72,1.1 0.03,0.32 0.03,0.65 -0.01,1.01 -0.03,0.38 -0.03,0.71 0,1.03 0.06,0.54 0.3,1.11 0.72,1.7 0.42,0.58 0.67,1.28 0.75,2.06 0.33,0.83 0.56,1.79 0.68,2.85 0.11,1.06 0.4,2 0.9,2.82l0.06 0.58 0.13 1.18c0.07,0.54 0.26,0.93 0.6,1.13 0.28,1.08 0.5,2.21 0.68,3.37 0.15,1.17 0.53,2.17 1.09,2.97 0.17,1.49 0.46,2.83 0.86,4.02 0.41,1.18 0.7,2.53 0.86,4.01 0.19,0.37 0.37,0.74 0.53,1.07 0.15,0.33 0.25,0.71 0.29,1.11 0.03,0.14 -0.03,0.47 -0.13,0.96 0.2,0.3 0.33,0.57 0.44,0.83 0.11,0.28 0.25,0.56 0.46,0.85 0.17,0.86 0.32,1.74 0.46,2.64 0.14,0.9 0.47,1.62 1.02,2.19 0.07,2.07 -0.41,3.56 -1.41,4.46 -1,0.91 -2.47,1.46 -4.4,1.68 -0.94,0.11 -1.87,0.18 -2.82,0.21 -0.94,0.03 -1.83,0.07 -2.7,0.18l-0.93 0.1c-0.24,-0.04 -0.54,-0.06 -0.89,-0.02 -0.35,0.04 -0.64,0.07 -0.87,0.08l-1.17 0.14c-0.78,0.09 -1.5,0.14 -2.17,0.14 -0.67,0 -1.32,-0.02 -1.94,-0.03l-0.02 -0.11c-0.72,-0.08 -1.42,-0.07 -2.11,0.06 -0.71,0.11 -1.24,-0.13 -1.63,-0.72 -0.33,-0.19 -0.69,-0.33 -1.1,-0.4 -0.4,-0.07 -0.62,-0.31 -0.68,-0.69 -0.01,-0.17 0.02,-0.32 0.07,-0.49 0.07,-0.17 0.08,-0.33 0.07,-0.48 -0.17,-1.49 -0.58,-2.79 -1.26,-3.91 -0.67,-1.12 -1.08,-2.3 -1.21,-3.57 0.26,-0.42 0.37,-0.87 0.32,-1.33 -0.07,-0.54 -0.31,-1 -0.74,-1.35 -0.43,-0.35 -0.68,-0.76 -0.74,-1.24 -0.02,-0.22 0.06,-0.54 0.26,-0.92 0.19,-0.37 0.28,-0.68 0.25,-0.93 -0.07,-0.63 -0.32,-1.24 -0.74,-1.82 -0.42,-0.59 -0.68,-1.26 -0.76,-2.06 -0.04,-0.46 -0.06,-0.96 -0.04,-1.48 0.03,-0.52 0,-1.02 -0.04,-1.47 -0.09,-0.86 -0.33,-1.6 -0.72,-2.19 -0.37,-0.6 -0.63,-1.36 -0.72,-2.31 -0.03,-0.31 -0.06,-0.64 -0.06,-1 0,-0.36 -0.01,-0.72 -0.06,-1.13 -0.09,-0.78 -0.3,-1.3 -0.65,-1.58l-0.06 -0.48c-0.03,-0.31 -0.09,-0.56 -0.19,-0.75 -0.11,-0.18 -0.17,-0.47 -0.21,-0.86 -0.46,-0.51 -0.67,-1.2 -0.65,-2.08 0.03,-0.87 -0.22,-1.47 -0.74,-1.82l-0.04 -0.47 -0.14 -1.29c-0.08,-0.63 -0.19,-1.04 -0.39,-1.26 0.51,-0.37 1.12,-0.64 1.86,-0.81 0.74,-0.17 1.04,-0.7 0.94,-1.65l-0.04 -0.36c0.12,-0.25 0.32,-0.43 0.58,-0.54 0.26,-0.09 0.53,-0.24 0.79,-0.37 0.25,-0.15 0.47,-0.3 0.65,-0.5 0.17,-0.17 0.24,-0.46 0.19,-0.85 -0.5,-0.26 -0.9,-0.37 -1.21,-0.35 -0.08,0.01 -0.43,0.11 -1.04,0.29 -0.61,0.18 -0.89,0.48 -0.83,0.87l0.04 0.47c0.06,0.47 -0.3,0.92 -1.04,1.31 -0.39,0.04 -0.69,0.18 -0.96,0.4 -0.25,0.22 -0.44,0.47 -0.63,0.72 -0.17,0.26 -0.35,0.52 -0.56,0.79 -0.21,0.25 -0.46,0.44 -0.76,0.56 -0.11,0.41 -0.24,0.78 -0.35,1.11 -0.12,0.33 -0.24,0.69 -0.35,1.11l0.03 0.35c0.07,0.56 -0.03,1.15 -0.26,1.82 -0.29,0.92 -0.44,1.85 -0.46,2.79 -0.02,0.96 -0.22,1.78 -0.61,2.46 -0.15,0.72 -0.32,1.46 -0.47,2.19 -0.15,0.74 -0.18,1.53 -0.08,2.39l0.03 0.36c0.08,0.71 -0.1,1.25 -0.52,1.67 -0.43,0.4 -0.61,0.96 -0.53,1.67l0.04 0.35c-0.04,1.11 -0.24,2.15 -0.61,3.09 -0.36,0.97 -0.47,2.03 -0.35,3.21 0.02,0.15 0.06,0.29 0.11,0.41 0.04,0.11 0.09,0.25 0.1,0.4 -0.26,0.43 -0.5,0.85 -0.68,1.26 -0.19,0.43 -0.25,0.94 -0.18,1.57l0.1 0.94c0.03,0.24 0,0.6 -0.06,1.09 -0.07,0.48 -0.14,0.98 -0.25,1.51 -0.09,0.53 -0.24,1.07 -0.4,1.6 -0.18,0.54 -0.37,0.93 -0.58,1.19l0.06 0.47c0.04,0.39 0.04,0.76 0,1.13 -0.04,0.37 -0.04,0.74 0.02,1.14 0.03,0.32 0.09,0.54 0.19,0.7 -0.43,0.44 -0.61,0.94 -0.56,1.48l0.04 0.35c-0.56,0.63 -1.08,1.22 -1.57,1.79 -0.49,0.57 -1.1,1.1 -1.83,1.57 -0.39,0.06 -0.72,0.07 -0.98,0.06 -0.28,0 -0.57,0.02 -0.89,0.04 -1.08,0.12 -2.11,0.29 -3.07,0.53 -0.96,0.22 -1.94,0.39 -2.96,0.51 -0.37,0.04 -0.74,0.06 -1.04,0.06 -0.32,-0.01 -0.67,0.02 -1.07,0.06 -0.38,0.04 -0.76,0.13 -1.14,0.25 -0.39,0.11 -0.76,0.21 -1.15,0.25 -0.47,0.06 -0.97,-0.09 -1.53,-0.43 -0.54,-0.33 -1.07,-0.72 -1.54,-1.19 -0.5,-0.46 -0.89,-0.93 -1.22,-1.41 -0.33,-0.48 -0.54,-0.83 -0.65,-1.06 0.04,-0.33 0.04,-0.76 -0.03,-1.32 -0.11,-1.01 -0.43,-1.81 -0.97,-2.39 -0.53,-0.57 -0.86,-1.42 -0.97,-2.51 -0.32,-0.68 -0.63,-1.36 -0.93,-2.03 -0.32,-0.68 -0.57,-1.44 -0.74,-2.31 -0.26,-0.29 -0.47,-0.64 -0.58,-1.07 -0.14,-0.41 -0.24,-0.87 -0.33,-1.33 -0.1,-0.46 -0.24,-0.9 -0.44,-1.32 -0.2,-0.41 -0.5,-0.68 -0.91,-0.79 -0.33,-2.97 -1.18,-5.31 -2.54,-6.97l-0.08 -0.71c-0.07,-0.63 -0.24,-1.1 -0.52,-1.43 -0.26,-0.33 -0.48,-0.8 -0.63,-1.43l-0.06 -0.47c-0.13,-1.08 -0.47,-1.98 -1.07,-2.67 -0.59,-0.7 -0.92,-1.47 -1.02,-2.33 -0.01,-0.15 0.04,-0.39 0.15,-0.72 -0.29,-0.6 -0.65,-1.15 -1.07,-1.67 -0.4,-0.51 -0.65,-1.15 -0.75,-1.94 -0.03,-0.3 -0.02,-0.56 0.04,-0.72 -0.35,-0.36 -0.69,-0.78 -1.03,-1.25 -0.32,-0.47 -0.79,-0.69 -1.42,-0.61 -0.62,0.07 -1.06,0.52 -1.33,1.33 -0.25,0.82 -0.35,1.58 -0.26,2.29 0.21,0.46 0.33,1 0.4,1.63 0.08,0.69 0.03,1.19 -0.18,1.46 0.02,0.15 0.04,0.26 0.08,0.35 0.06,0.07 0.08,0.18 0.11,0.33 0.08,0.79 -0.03,1.46 -0.32,2 -0.29,0.56 -0.4,1.14 -0.33,1.76 0.04,0.4 0.11,0.67 0.21,0.82 -0.2,0.42 -0.26,0.86 -0.21,1.33 0.04,0.3 0.08,0.6 0.15,0.87 0.07,0.26 0.11,0.49 0.14,0.64l0.01 0.24 0.03 0.24c0.07,0.56 -0.03,0.93 -0.28,1.17 -0.25,0.22 -0.35,0.65 -0.26,1.28 0.01,0.24 0.06,0.46 0.13,0.7 0.07,0.24 0.11,0.47 0.14,0.71 0.08,0.69 -0.03,1.23 -0.29,1.57l0.01 0.13c0.02,0.15 -0.03,0.24 -0.09,0.25 -0.09,0.02 -0.11,0.1 -0.1,0.25 0.01,0.17 0.11,0.36 0.25,0.63 0.15,0.26 0.24,0.51 0.26,0.75 0.07,0.63 0.02,1.21 -0.17,1.74 -0.18,0.54 -0.24,1.08 -0.17,1.64 0.03,0.31 0.14,0.6 0.33,0.85 0.18,0.26 0.3,0.58 0.33,0.97 0.07,0.64 -0.08,1.12 -0.48,1.5 -0.39,0.35 -0.56,0.8 -0.49,1.35 0.04,0.4 0.15,0.72 0.33,0.97 0.18,0.26 0.3,0.54 0.33,0.86 0.04,0.41 0,0.74 -0.12,1.03 -0.13,0.3 -0.17,0.56 -0.14,0.8 0.02,0.24 0.09,0.51 0.2,0.8 0.11,0.32 0.19,0.63 0.22,0.94 0.08,0.69 -0.01,1.33 -0.25,1.93 -0.25,0.59 -0.36,1.03 -0.33,1.35 0.04,0.3 0.14,0.57 0.28,0.79 0.14,0.22 0.22,0.5 0.26,0.82 0.01,0.15 -0.1,0.39 -0.33,0.74 -0.24,0.35 -0.53,0.72 -0.89,1.11 -0.35,0.4 -0.71,0.76 -1.11,1.08 -0.4,0.33 -0.72,0.5 -0.94,0.53 -0.37,0.21 -0.75,0.32 -1.14,0.36 -0.39,0.04 -0.78,0.1 -1.17,0.14 -0.78,0.08 -1.56,0.13 -2.35,0.14 -0.78,0.01 -1.57,0.06 -2.35,0.14 -0.3,0.04 -0.6,0.08 -0.86,0.17 -0.26,0.07 -0.56,0.11 -0.86,0.15 -0.75,-0.32 -1.63,-0.4 -2.64,-0.29 -0.78,0.08 -1.53,0.25 -2.24,0.48 -0.74,0.24 -1.48,0.41 -2.25,0.49 -1.56,0.18 -2.71,-0.13 -3.47,-0.92 -0.75,-0.79 -1.17,-1.54 -1.25,-2.24 -0.04,-0.47 -0.04,-0.98 0,-1.56 0.07,-0.56 0.06,-1.11 0,-1.67l-0.07 -0.71c0.08,-1.35 0.24,-2.72 0.48,-4.1 0.24,-1.37 0.32,-2.37 0.25,-3.02l-0.15 -1.4c-0.04,-0.4 -0.06,-0.75 -0.06,-1.07 0,-0.32 0.07,-0.65 0.18,-0.98l-0.04 -0.35c-0.07,-0.7 0.04,-1.31 0.33,-1.82 0.3,-0.52 0.42,-1.11 0.33,-1.83 -0.03,-0.31 -0.1,-0.57 -0.21,-0.81 0.14,-0.89 0.19,-1.78 0.18,-2.69 -0.03,-0.9 -0.08,-1.79 -0.18,-2.67 0.04,-0.39 0.15,-0.71 0.37,-0.93 0.21,-0.22 0.29,-0.53 0.25,-0.92 -0.03,-0.17 -0.11,-0.36 -0.25,-0.62 -0.15,-0.26 -0.25,-0.68 -0.31,-1.22 -0.07,-0.62 0.04,-1.04 0.33,-1.22 0.29,-0.21 0.42,-0.5 0.37,-0.87 -0.01,-0.17 -0.07,-0.28 -0.15,-0.35l-0.01 -0.12c-0.03,-0.24 -0.11,-0.42 -0.24,-0.57 -0.14,-0.14 -0.22,-0.32 -0.25,-0.56l-0.03 -0.24c0.24,-0.03 0.39,-0.26 0.46,-0.71 0.07,-0.44 0.11,-0.94 0.12,-1.5 0.03,-0.56 0.02,-1.1 0,-1.61 -0.01,-0.52 0.02,-0.85 0.07,-1.03 0.03,-0.39 0.08,-0.76 0.17,-1.08 0.09,-0.33 0.11,-0.68 0.07,-1.09 -0.04,-0.3 -0.14,-0.61 -0.28,-0.91 -0.17,-0.31 -0.25,-0.57 -0.28,-0.81 -0.07,-0.71 0.04,-1.35 0.37,-1.94 0.33,-0.6 0.43,-1.44 0.31,-2.54l-0.15 -1.41c-0.08,-0.78 0.06,-1.39 0.39,-1.83 -0.02,-0.15 0,-0.25 0.03,-0.29 0.03,-0.04 0.04,-0.1 0.04,-0.18 -0.03,-0.24 -0.09,-0.48 -0.2,-0.75 -0.11,-0.27 -0.17,-0.52 -0.2,-0.77 -0.07,-0.61 0.06,-1.19 0.4,-1.69 0.06,-0.89 0.03,-1.83 -0.08,-2.86 -0.11,-1.01 0.03,-1.94 0.41,-2.79 0.06,-0.15 0.07,-0.36 0.06,-0.59 -0.04,-0.31 -0.11,-0.6 -0.22,-0.86 -0.11,-0.26 -0.18,-0.53 -0.19,-0.76 -0.04,-0.31 0.07,-0.63 0.3,-0.92 0.25,-0.31 0.35,-0.58 0.32,-0.82 -0.02,-0.15 -0.07,-0.35 -0.18,-0.57 -0.1,-0.22 -0.15,-0.42 -0.18,-0.57 -0.1,-0.86 -0.02,-1.65 0.22,-2.35 0.22,-0.71 0.31,-1.46 0.22,-2.24 -0.03,-0.24 -0.1,-0.48 -0.21,-0.75 -0.11,-0.26 -0.17,-0.52 -0.2,-0.75 -0.06,-0.54 0.04,-1.06 0.31,-1.53 0.26,-0.46 0.36,-0.97 0.31,-1.51l-0.14 -0.11c-0.07,0.01 -0.12,-0.03 -0.12,-0.11 -0.15,-1.32 -0.11,-2.58 0.11,-3.76 0.22,-1.17 0.26,-2.43 0.13,-3.76 -0.02,-0.15 -0.07,-0.35 -0.13,-0.58 -0.07,-0.22 -0.13,-0.46 -0.14,-0.69 0.41,-0.53 0.69,-1.02 0.85,-1.46 0.14,-0.46 0.36,-0.89 0.68,-1.28 0.3,-0.39 0.8,-0.74 1.47,-1.06 0.67,-0.32 1.79,-0.56 3.35,-0.74 1.3,-0.14 2.56,-0.24 3.74,-0.31 1.18,-0.04 2.39,-0.14 3.63,-0.28 1.17,-0.14 2.33,-0.3 3.48,-0.46 1.17,-0.17 2.33,-0.32 3.5,-0.46l1.28 -0.14z"/>
   <path class="fil0" d="M941.87 558.12c-0.02,-0.15 -0.11,-0.25 -0.26,-0.26 -0.17,-0.03 -0.29,-0.03 -0.36,-0.03l0.03 0.24c0.02,0.17 0.1,0.22 0.26,0.21l0.22 -0.01c0.08,-0.02 0.11,-0.06 0.11,-0.14zm-8.26 9.5c-0.18,-0.12 -0.37,-0.19 -0.61,-0.17 -0.32,0.04 -0.46,0.17 -0.43,0.42l0.25 0.21c0.17,-0.03 0.29,-0.1 0.4,-0.22 0.1,-0.14 0.22,-0.22 0.39,-0.24zm-0.31 -8.06c-0.35,-0.28 -0.76,-0.4 -1.22,-0.35 -0.15,0.03 -0.35,0.08 -0.57,0.18 -0.22,0.11 -0.32,0.25 -0.3,0.4 0,0.08 0.18,0.17 0.5,0.29 0.33,0.14 0.57,0.18 0.72,0.17 0.39,-0.04 0.6,-0.13 0.63,-0.26 0.03,-0.11 0.11,-0.26 0.25,-0.43zm-0.53 -4.71c-0.09,-0.22 -0.3,-0.32 -0.61,-0.28l-0.71 0.07 -0.24 0.03c0.03,0.24 -0.07,0.35 -0.32,0.33 -0.24,-0.01 -0.35,0.03 -0.33,0.1 0.04,0.47 0.39,0.67 1.02,0.59 0.22,-0.01 0.5,-0.07 0.8,-0.15 0.31,-0.07 0.44,-0.22 0.42,-0.46l-0.03 -0.24zm-0.64 -7.92c-0.32,-0.04 -0.63,-0.04 -0.94,0 -0.31,0.03 -0.61,0.07 -0.92,0.1 -0.15,0.18 -0.29,0.28 -0.44,0.29 -0.17,0.02 -0.22,0.14 -0.19,0.37 0.02,0.15 0.06,0.28 0.15,0.35 0.07,-0.1 0.14,-0.14 0.21,-0.15 0.09,0.07 0.22,0.1 0.37,0.08 0.17,0.07 0.44,0.07 0.82,0.03 0.71,-0.08 1.04,-0.24 1.02,-0.48l-0.06 -0.46 -0.02 -0.13zm-2.78 28.2c-0.3,0.04 -0.47,-0.03 -0.5,-0.18l-0.11 0 -0.35 0.04c-0.24,0.03 -0.35,0.12 -0.32,0.28 0.01,0.17 0.15,0.26 0.44,0.31 0.28,0.06 0.5,0.07 0.65,0.06 0.15,-0.03 0.2,-0.18 0.18,-0.5zm1.99 -32.26c-0.03,-0.17 -0.07,-0.21 -0.14,-0.17 -0.07,0.06 -0.11,0.03 -0.13,-0.04l-0.02 -0.13c-0.24,0.03 -0.39,0.03 -0.48,0 -0.07,-0.03 -0.2,-0.04 -0.33,-0.01 -0.17,0.01 -0.32,0.07 -0.46,0.17 -0.31,0.19 -0.43,0.36 -0.42,0.51 0.01,0.17 0.17,0.25 0.43,0.27 0.28,0 0.57,-0.02 0.89,-0.04 0.39,-0.06 0.6,-0.24 0.65,-0.56zm-8.81 33.51c-0.03,-0.17 -0.15,-0.24 -0.39,-0.21l-0.7 0.09 -0.11 0.01 -0.22 0.15c0,0.07 0.1,0.17 0.26,0.26 0.17,0.1 0.27,0.19 0.27,0.26l0.11 -0.02 0.58 -0.07c0.25,-0.02 0.35,-0.07 0.35,-0.15 -0.01,-0.07 -0.04,-0.13 -0.08,-0.17 -0.04,-0.04 -0.07,-0.1 -0.07,-0.17zm1.21 -47.79l-0.01 -0.11c-0.03,-0.17 -0.18,-0.22 -0.49,-0.19 -0.25,0.03 -0.33,0.17 -0.32,0.4 0.02,0.08 0.06,0.15 0.14,0.21 0.39,-0.04 0.61,-0.14 0.68,-0.31zm-5.96 -0.51c-0.1,-0.15 -0.26,-0.21 -0.5,-0.18 -0.07,0.01 -0.41,0.1 -0.97,0.28 -0.57,0.18 -0.82,0.56 -0.75,1.1 0.47,0.11 0.75,0.15 0.83,0.15 0.15,-0.02 0.44,-0.13 0.85,-0.33 0.42,-0.21 0.6,-0.47 0.57,-0.79l-0.03 -0.22zm-5.02 41.18c-0.03,-0.24 -0.3,-0.32 -0.85,-0.26 -0.32,0.03 -0.46,0.12 -0.44,0.29 0.02,0.15 0.15,0.26 0.39,0.3l0.11 -0.01 0.6 -0.06c0.15,-0.03 0.22,-0.11 0.19,-0.26zm0.21 -38.74c-0.28,-0.36 -0.57,-0.53 -0.87,-0.5 -0.15,0.03 -0.31,0.11 -0.44,0.29 0.03,0.32 0.1,0.54 0.19,0.69l0.24 -0.03 0.47 -0.06c0.14,-0.02 0.22,-0.07 0.21,-0.14l-0.03 -0.24 0.24 -0.03zm-3.11 7.14c-0.15,-0.06 -0.36,-0.07 -0.58,-0.06l-0.82 0.09 -0.24 0.02c0.01,0.08 -0.06,0.15 -0.22,0.21 -0.14,0.07 -0.22,0.13 -0.21,0.21 0.02,0.07 0.03,0.11 0.07,0.11 0.04,-0.01 0.07,0.03 0.08,0.11l0.04 0.35c0.46,-0.06 0.85,-0.12 1.15,-0.25 0.29,-0.11 0.54,-0.37 0.72,-0.79zm-0.86 -20.64c-0.15,-0.06 -0.42,-0.07 -0.76,-0.07 -0.36,0 -0.61,0 -0.78,0.02 -0.54,0.06 -0.97,0.26 -1.29,0.56 -0.32,0.32 -0.47,0.56 -0.44,0.71 0.01,0.17 0.11,0.29 0.28,0.39 0.17,0.1 0.29,0.22 0.39,0.38 0.53,-0.14 1.19,-0.43 1.96,-0.88 0.8,-0.44 1.17,-0.71 1.17,-0.79 -0.02,-0.15 -0.07,-0.21 -0.14,-0.15 -0.08,0.04 -0.19,0 -0.37,-0.15zm-1.37 11c-0.24,-0.04 -0.68,-0.04 -1.29,0.03 -0.32,0.04 -0.6,0.09 -0.87,0.17 -0.26,0.06 -0.39,0.22 -0.36,0.46 0.06,0.46 0.43,0.67 1.13,0.59 0.24,-0.03 0.56,-0.09 0.98,-0.17 0.43,-0.09 0.63,-0.25 0.6,-0.5 -0.02,-0.06 -0.06,-0.12 -0.14,-0.15 -0.09,-0.03 -0.13,-0.08 -0.14,-0.17 0.07,-0.08 0.11,-0.17 0.1,-0.25zm0.81 -4.38c-0.57,-0.18 -1.2,-0.22 -1.91,-0.15 -0.69,0.08 -1.35,0.15 -1.97,0.24 -0.37,0.19 -0.74,0.32 -1.08,0.35 -0.36,0.04 -0.58,0.26 -0.69,0.68 0.09,0.22 0.39,0.32 0.86,0.26 0.3,-0.04 0.56,-0.11 0.73,-0.2 0.18,-0.11 0.36,-0.18 0.52,-0.19l0.47 -0.04c0.21,-0.18 0.56,-0.3 1.01,-0.35 0.47,-0.06 0.93,0.02 1.38,0.19 0.46,0.18 0.92,0.3 1.4,0.32 0.06,-0.17 0.13,-0.26 0.19,-0.32 0.09,-0.06 0.11,-0.15 0.09,-0.3 -0.26,-0.37 -0.6,-0.53 -1,-0.49zm-5.18 -10.61c-0.03,-0.24 -0.2,-0.33 -0.5,-0.3l-0.47 0.06 -0.22 0.03c-0.15,0.18 -0.21,0.35 -0.19,0.48 0.03,0.17 0.15,0.25 0.39,0.26 0.24,0.02 0.43,0.02 0.58,0 0.31,-0.04 0.46,-0.22 0.42,-0.53zm11.5 -19.76l0.47 -0.06c0.62,-0.07 1.18,-0.03 1.67,0.11 0.48,0.14 1.04,0.18 1.67,0.13 0.24,-0.03 0.47,-0.08 0.75,-0.15 0.26,-0.07 0.56,-0.13 0.87,-0.15 0.61,-0.07 1.33,-0.09 2.17,-0.07 0.83,0.03 1.61,0.07 2.38,0.14 0.75,0.08 1.39,0.18 1.92,0.26 0.53,0.1 0.82,0.15 0.9,0.14 0.48,0.11 0.98,0.21 1.5,0.32 0.53,0.1 1.03,0.15 1.5,0.18 0.43,0.35 0.92,0.57 1.43,0.67 0.53,0.09 1.07,0.19 1.63,0.3 0.57,0.08 1.11,0.21 1.64,0.35 0.52,0.14 0.97,0.43 1.33,0.86 0.98,0.36 1.82,0.87 2.53,1.57 0.71,0.67 1.35,1.44 1.92,2.33 -0.14,0.18 -0.15,0.41 -0.06,0.67 0.11,0.26 0.09,0.48 -0.04,0.65 -0.07,0.72 -0.28,1.41 -0.6,2.09 -0.3,0.67 -0.51,1.33 -0.59,1.97 -0.02,1.36 -0.32,2.46 -0.93,3.32 -0.61,0.86 -0.87,1.81 -0.75,2.83 -0.2,1.04 -0.7,2.17 -1.46,3.37 -0.78,1.21 -1.56,1.83 -2.33,1.93 -0.61,0.07 -1.31,0.07 -2.06,-0.02 -0.76,-0.07 -1.33,-0.43 -1.72,-1.11 -0.3,0.04 -0.51,-0.08 -0.63,-0.35 -0.11,-0.26 -0.32,-0.38 -0.62,-0.35 -0.7,-0.56 -1.57,-1 -2.63,-1.32 -1.06,-0.3 -2.1,-0.4 -3.1,-0.3 -0.86,0.09 -1.57,-0.06 -2.13,-0.47 -0.56,-0.42 -1.41,-0.54 -2.58,-0.42 -0.78,0.08 -1.65,0.32 -2.64,0.71 -0.97,0.4 -1.89,0.83 -2.74,1.32 -0.85,0.5 -1.57,0.96 -2.15,1.37 -0.58,0.43 -0.86,0.76 -0.83,0.99 0.03,0.24 0.12,0.43 0.3,0.57 -0.15,0.17 -0.18,0.57 -0.11,1.2l0.08 0.71c0.03,0.32 0.04,0.61 0.03,0.89 0,0.28 0,0.57 0.04,0.89 0.08,0.71 0.39,1.33 0.92,1.86 0.53,0.54 1.21,1 2.04,1.37 0.82,0.39 1.7,0.75 2.6,1.08 0.9,0.33 1.79,0.61 2.68,0.83 0.65,0.17 1.36,0.22 2.15,0.17 0.78,-0.04 1.46,0.1 2.06,0.43 0.5,0.33 1.24,0.57 2.19,0.71 0.96,0.12 1.58,0.18 1.9,0.14 1.53,0.37 3.03,0.56 4.47,0.52 1.46,-0.06 2.7,0.3 3.72,1.07 1.74,0.68 3.56,1.54 5.48,2.6 1.92,1.06 3.11,2.19 3.56,3.42 0.88,0.85 1.74,1.68 2.59,2.5 0.83,0.82 1.33,1.93 1.48,3.35 0.02,0.08 0,0.14 -0.04,0.18 -0.03,0.04 -0.04,0.09 -0.03,0.18 0.04,0.47 0.24,0.78 0.57,0.89 0.32,0.13 0.52,0.42 0.57,0.89l0.04 0.36c0.52,1.21 0.87,2.58 1.03,4.11 0.18,1.53 0.42,2.99 0.72,4.37 -0.14,0.1 -0.24,0.43 -0.29,1 -0.06,0.56 -0.07,1.21 -0.03,1.97 0.04,0.74 0.08,1.47 0.12,2.17 0.04,0.72 0.08,1.3 0.14,1.79 -0.35,0.43 -0.57,0.89 -0.67,1.37 -0.11,0.5 -0.17,1 -0.19,1.51 -0.02,0.52 -0.08,1 -0.2,1.44 -0.11,0.46 -0.33,0.86 -0.68,1.21 -0.38,1 -0.74,1.97 -1.11,2.93 -0.36,0.94 -0.76,1.89 -1.22,2.82 -0.08,0.64 -0.4,1.09 -0.96,1.36 -0.57,0.25 -1,0.69 -1.33,1.28 -0.37,0.19 -0.63,0.44 -0.75,0.74 -0.12,0.31 -0.33,0.58 -0.62,0.85 -0.64,1.2 -1.57,2.08 -2.75,2.7 -1.21,0.61 -2.17,1.47 -2.9,2.58 -1.07,0.36 -2.26,0.92 -3.6,1.65 -1.33,0.75 -2.82,1.25 -4.44,1.51 -1.74,0.6 -3.64,1.02 -5.69,1.25 -2.06,0.22 -4.1,0.53 -6.1,0.91 -0.67,0.31 -1.43,0.52 -2.28,0.61 -0.79,0.09 -1.57,0.12 -2.36,0.09 -0.79,-0.04 -1.61,0 -2.47,0.1 -0.15,-0.07 -0.26,-0.15 -0.32,-0.26 -0.04,-0.11 -0.15,-0.17 -0.32,-0.14l-0.22 0.03c-0.17,-0.07 -0.61,-0.18 -1.33,-0.33 -0.72,-0.15 -1.53,-0.33 -2.42,-0.5 -0.89,-0.18 -1.71,-0.35 -2.47,-0.5 -0.76,-0.15 -1.2,-0.26 -1.28,-0.33 -0.64,-0.08 -1.21,-0.26 -1.71,-0.51 -0.5,-0.26 -1.04,-0.53 -1.61,-0.78 -0.47,-0.67 -1.08,-0.98 -1.83,-0.98 -0.74,0 -1.41,-0.28 -2.04,-0.85 -0.07,-0.07 -0.25,-0.18 -0.5,-0.36 -0.26,-0.17 -0.53,-0.35 -0.83,-0.56 -0.29,-0.21 -0.56,-0.37 -0.76,-0.52 -0.21,-0.14 -0.32,-0.17 -0.3,-0.08 -1.06,-0.36 -1.99,-0.89 -2.78,-1.59 -0.78,-0.7 -1.25,-1.72 -1.39,-3.06 -0.04,-0.3 0,-0.79 0.13,-1.44 0.13,-0.65 0.25,-1.25 0.33,-1.82 -0.04,-0.32 0.08,-0.54 0.33,-0.69 0.26,-0.15 0.38,-0.37 0.33,-0.69 0.56,-0.7 0.98,-1.5 1.28,-2.41 0.3,-0.9 0.72,-1.71 1.27,-2.4 0.35,-0.52 0.67,-1.02 0.96,-1.48 0.31,-0.47 0.5,-0.99 0.6,-1.56 0.01,-0.56 0.18,-1.03 0.48,-1.41 0.32,-0.41 0.65,-0.75 1.02,-1.07 0.35,-0.32 0.69,-0.61 1.01,-0.89 0.32,-0.28 0.58,-0.67 0.76,-1.17 0.44,-0.2 0.94,-0.35 1.49,-0.4 0.62,-0.07 1.17,0.04 1.62,0.29 0.46,0.26 0.86,0.54 1.22,0.82 0.56,0.09 0.94,0.42 1.15,0.94 0.22,0.53 0.64,0.83 1.28,0.93 0.68,0.32 1.32,0.71 1.96,1.15 0.64,0.44 1.22,0.83 1.72,1.17 0.9,0.29 1.69,0.71 2.39,1.22 0.68,0.53 1.46,0.85 2.35,0.98 0.35,0.28 0.74,0.43 1.17,0.47 0.44,0.02 0.89,0.03 1.36,0.02 0.47,-0.02 0.93,0 1.36,0.03 0.43,0.03 0.79,0.19 1.06,0.47 0.93,-0.1 1.76,-0.31 2.53,-0.64 0.75,-0.32 1.56,-0.53 2.4,-0.63 0.47,-0.06 0.86,-0.06 1.18,-0.01 0.81,-0.49 1.61,-1.07 2.4,-1.75 0.8,-0.69 1.11,-1.62 0.99,-2.8 0.26,-0.43 0.58,-0.83 0.93,-1.24 0.35,-0.39 0.49,-0.9 0.42,-1.53l-0.03 -0.36c0.06,-0.08 0.08,-0.19 0.07,-0.36 -0.02,-0.08 -0.04,-0.15 -0.08,-0.24 -0.06,-0.07 -0.09,-0.18 -0.1,-0.35l-0.02 -0.11c-0.43,-0.19 -0.64,-0.54 -0.65,-1.06 -0.02,-0.52 -0.13,-0.96 -0.32,-1.33 -0.64,-1.44 -1.61,-2.46 -2.94,-3.06 -1.32,-0.61 -2.65,-1.24 -3.97,-1.87l-0.24 0.01c-0.86,0.1 -1.65,-0.04 -2.42,-0.44 -0.75,-0.39 -1.54,-0.57 -2.42,-0.56 -0.69,0.09 -1.4,-0.03 -2.1,-0.3 -0.69,-0.28 -1.13,-0.41 -1.28,-0.39 -2.07,-0.15 -4.1,-0.61 -6.11,-1.33 -2.01,-0.72 -3.89,-1.51 -5.62,-2.35 -0.42,-0.11 -0.92,-0.29 -1.54,-0.54 -0.61,-0.25 -1.22,-0.54 -1.81,-0.88 -0.58,-0.32 -1.08,-0.64 -1.51,-0.96 -0.43,-0.31 -0.65,-0.54 -0.67,-0.7 -0.86,-0.69 -1.72,-1.37 -2.59,-2.03 -0.86,-0.67 -1.44,-1.65 -1.75,-2.96 -0.4,-0.13 -0.79,-0.47 -1.18,-1.07 -0.37,-0.58 -0.6,-1.15 -0.65,-1.71 -0.03,-0.24 -0.04,-0.47 -0.03,-0.7 0.02,-0.24 0,-0.52 -0.03,-0.83 -0.08,-0.78 -0.33,-1.67 -0.76,-2.65 -0.43,-0.98 -0.69,-2.03 -0.82,-3.11 -0.03,-0.32 -0.06,-0.64 -0.04,-0.96 0,-0.32 -0.01,-0.64 -0.06,-0.94 -0.07,0 -0.12,-0.15 -0.15,-0.47 -0.06,-0.39 -0.03,-1.04 0.06,-1.96 0.11,-0.93 0.22,-1.87 0.35,-2.85 0.14,-0.97 0.26,-1.83 0.42,-2.61 0.15,-0.76 0.26,-1.2 0.33,-1.28 0.2,-1.07 0.49,-1.97 0.88,-2.72 0.4,-0.76 0.72,-1.6 1.03,-2.5 0.71,-0.72 1.24,-1.54 1.61,-2.5 0.36,-0.96 0.96,-1.68 1.76,-2.17 0.35,-0.43 0.64,-0.85 0.87,-1.24 0.22,-0.37 0.43,-0.78 0.63,-1.2 0.44,-0.28 0.87,-0.54 1.26,-0.8 0.42,-0.24 0.83,-0.5 1.28,-0.79 0.18,-0.5 0.5,-0.87 0.93,-1.12 0.46,-0.24 0.92,-0.47 1.4,-0.7 0.49,-0.21 0.97,-0.4 1.47,-0.58 0.49,-0.17 0.92,-0.43 1.26,-0.79 0.67,-0.39 1.49,-0.82 2.46,-1.28 0.97,-0.47 1.8,-0.75 2.5,-0.82 0.17,-0.03 0.35,-0.03 0.59,-0.01 0.24,0.01 0.43,0.01 0.58,0 1.02,-0.13 1.89,-0.36 2.64,-0.72 0.74,-0.36 1.69,-0.61 2.86,-0.74l0.93 -0.11z"/>
   <path class="fil1" d="M781.99 965.48c0.36,-1.39 0.93,-2.56 1.71,-3.49 0.76,-0.93 1.64,-1.65 2.63,-2.15 0.96,-0.46 1.97,-0.75 3.04,-0.83 1.07,-0.1 2.09,0 3.09,0.28 0.99,0.26 1.93,0.71 2.81,1.33 0.89,0.61 1.64,1.37 2.26,2.28 0.57,0.91 0.96,1.97 1.15,3.18 0.19,1.2 0.11,2.49 -0.26,3.88l-0.47 1.75 -4.91 -1.33 0.47 -1.75c0.32,-1.19 0.22,-2.17 -0.28,-2.92 -0.5,-0.74 -1.21,-1.22 -2.1,-1.47 -0.9,-0.25 -1.76,-0.18 -2.56,0.21 -0.81,0.39 -1.37,1.18 -1.69,2.37l-4.88 18.24c-0.32,1.2 -0.22,2.17 0.28,2.92 0.51,0.74 1.21,1.24 2.11,1.49 0.89,0.24 1.74,0.17 2.54,-0.21 0.82,-0.41 1.39,-1.2 1.71,-2.39l1.72 -6.5 -3.89 -1.06 1.17 -4.36 8.79 2.39 -2.89 10.86c-0.39,1.46 -0.97,2.62 -1.74,3.54 -0.75,0.9 -1.61,1.6 -2.56,2.07 -0.99,0.48 -2.03,0.78 -3.08,0.87 -1.09,0.08 -2.11,0 -3.11,-0.28 -0.98,-0.27 -1.93,-0.72 -2.8,-1.33 -0.89,-0.63 -1.61,-1.4 -2.2,-2.32 -0.62,-0.89 -1.03,-1.92 -1.24,-3.08 -0.2,-1.17 -0.11,-2.49 0.28,-3.93l4.87 -18.25z"/>
   <polygon class="fil1" points="806.54,999.25 811.04,963.78 816.08,964.43 812.22,994.81 822.19,996.11 821.54,1001.19 "/>
   <path class="fil1" d="M840.54 993.52c0.02,1.24 0.36,2.14 1.06,2.72 0.68,0.58 1.49,0.86 2.42,0.85 0.93,-0.02 1.74,-0.32 2.41,-0.9 0.68,-0.6 1,-1.52 0.98,-2.76l-0.25 -18.89c-0.02,-1.24 -0.38,-2.14 -1.07,-2.71 -0.68,-0.58 -1.49,-0.87 -2.42,-0.86 -0.93,0.02 -1.72,0.32 -2.4,0.9 -0.67,0.61 -1,1.53 -0.99,2.76l0.26 18.89zm-5.33 -18.82c-0.03,-1.43 0.21,-2.71 0.69,-3.82 0.49,-1.13 1.14,-2.06 1.94,-2.79 0.79,-0.72 1.69,-1.28 2.69,-1.65 1.02,-0.37 2.03,-0.58 3.06,-0.58 1.03,-0.03 2.06,0.15 3.07,0.5 1.02,0.36 1.94,0.87 2.78,1.57 0.82,0.72 1.47,1.64 1.98,2.74 0.52,1.09 0.78,2.37 0.79,3.8l0.25 18.89c0.03,1.51 -0.21,2.81 -0.68,3.87 -0.49,1.08 -1.13,1.99 -1.9,2.7 -0.82,0.75 -1.74,1.32 -2.75,1.69 -1,0.39 -2.03,0.58 -3.06,0.6 -1.03,0.01 -2.04,-0.15 -3.06,-0.52 -1.03,-0.35 -1.93,-0.89 -2.74,-1.61 -0.85,-0.71 -1.52,-1.58 -2.03,-2.64 -0.52,-1.07 -0.78,-2.36 -0.81,-3.86l-0.25 -18.89z"/>
   <path class="fil1" d="M870.68 983.08l1.96 11.29 2.15 -0.39c1.02,-0.18 1.78,-0.47 2.31,-0.86 0.52,-0.4 0.89,-0.89 1.08,-1.47 0.21,-0.58 0.28,-1.24 0.21,-1.97 -0.06,-0.75 -0.15,-1.54 -0.3,-2.4 -0.15,-0.89 -0.35,-1.65 -0.56,-2.29 -0.2,-0.64 -0.5,-1.17 -0.87,-1.58 -0.42,-0.4 -0.9,-0.67 -1.5,-0.78 -0.6,-0.12 -1.36,-0.09 -2.26,0.07l-2.21 0.39zm-2.46 -14.15l1.69 9.69 2.25 -0.4c1.67,-0.29 2.71,-0.92 3.14,-1.85 0.43,-0.94 0.5,-2.22 0.22,-3.85 -0.28,-1.57 -0.8,-2.71 -1.58,-3.39 -0.78,-0.68 -2,-0.87 -3.65,-0.57l-2.07 0.36zm0.3 31.36l-6.12 -35.22 7.3 -1.29c1.6,-0.29 3,-0.28 4.22,0.02 1.21,0.29 2.24,0.79 3.11,1.48 0.86,0.7 1.54,1.56 2.04,2.57 0.48,1.01 0.83,2.11 1.04,3.26l0.22 1.29c0.17,0.94 0.24,1.78 0.19,2.46 -0.03,0.68 -0.14,1.29 -0.36,1.85 -0.39,1.03 -1.09,1.97 -2.14,2.83 1.28,0.35 2.29,1.02 3.03,2.02 0.75,0.98 1.29,2.43 1.61,4.29l0.35 1.98c0.53,3.1 0.21,5.61 -1,7.53 -1.19,1.92 -3.41,3.15 -6.69,3.74l-6.81 1.2z"/>
   <path class="fil1" d="M905.46 978.21l-6.57 -11.42 -0.09 0.03 1.87 13.07 4.79 -1.68zm-7.76 15.98l-4.2 -36.42 4 -1.4 19.14 31.15 -4.81 1.68 -3.92 -6.76 -6.53 2.3 1.1 7.75 -4.79 1.69z"/>
   <polygon class="fil1" points="929.28,981.62 912.54,950.09 917.02,947.68 931.37,974.69 940.22,969.89 942.61,974.41 "/>
   <polygon class="fil1" points="743.15,1057.94 757.87,1013.15 764.22,1015.29 757.51,1035.74 757.63,1035.76 773.63,1018.43 779.99,1020.57 765.44,1035.59 766.9,1065.9 760.16,1063.65 759.46,1041.35 753.91,1046.68 749.51,1060.08 "/>
   <polygon class="fil1" points="783.7,1069.65 792.9,1023.38 799.47,1024.7 790.28,1070.98 "/>
   <polygon class="fil1" points="814.41,1074.56 818.2,1033.91 810.49,1033.18 811.07,1026.84 833.17,1028.94 832.59,1035.29 824.87,1034.55 821.07,1075.19 "/>
   <path class="fil1" d="M866.85 1062.03l0.12 2.92c0.06,1.46 -0.15,2.85 -0.65,4.17 -0.49,1.33 -1.21,2.51 -2.13,3.57 -0.92,1.07 -2.02,1.92 -3.28,2.56 -1.26,0.65 -2.64,1.02 -4.14,1.08 -1.25,0.04 -2.56,-0.08 -3.89,-0.37 -1.32,-0.3 -2.53,-0.86 -3.61,-1.71 -1.08,-0.83 -1.98,-1.94 -2.74,-3.3 -0.74,-1.36 -1.14,-3.13 -1.24,-5.29l-1.06 -25.96c-0.06,-1.54 0.14,-2.98 0.63,-4.33 0.46,-1.35 1.17,-2.53 2.08,-3.54 0.92,-1.02 2.04,-1.82 3.35,-2.43 1.31,-0.6 2.78,-0.93 4.39,-1.02 3.15,-0.13 5.75,0.81 7.8,2.81 1,0.97 1.81,2.15 2.42,3.51 0.6,1.36 0.94,2.87 1,4.5l0.11 2.64 -6.7 0.28 -0.1 -2.25c-0.04,-1.32 -0.46,-2.46 -1.25,-3.41 -0.78,-0.93 -1.81,-1.37 -3.07,-1.32 -1.67,0.07 -2.75,0.64 -3.25,1.69 -0.52,1.06 -0.72,2.39 -0.67,3.97l0.99 24.11c0.06,1.37 0.4,2.5 1.03,3.4 0.63,0.9 1.71,1.33 3.24,1.26 0.44,-0.03 0.9,-0.13 1.4,-0.29 0.5,-0.18 0.96,-0.46 1.38,-0.83 0.39,-0.35 0.69,-0.86 0.93,-1.48 0.24,-0.63 0.33,-1.41 0.29,-2.33l-0.1 -2.32 6.7 -0.28z"/>
   <polygon class="fil1" points="887.8,1073.01 878.53,1026.76 885.1,1025.41 889.06,1045.23 897.17,1043.56 893.2,1023.76 899.76,1022.41 909.03,1068.67 902.46,1070.01 898.35,1049.41 890.22,1051.07 894.36,1071.67 "/>
   <polygon class="fil1" points="929.65,1062.55 913.18,1018.39 931.86,1011.29 934.08,1017.23 921.66,1021.95 926.51,1034.93 937.31,1030.81 939.54,1036.76 928.73,1040.89 933.57,1053.84 945.97,1049.12 948.33,1055.45 "/>
   <polygon class="fil1" points="965.69,1047.22 942.43,1006.3 948,1003.05 970.8,1022.64 970.91,1022.57 956.89,997.91 962.7,994.55 985.96,1035.49 980.49,1038.66 957.63,1019.19 957.52,1019.25 971.49,1043.87 "/>
  </g>
 </g>
</svg>
