<?xml version="1.0" encoding="UTF-8"?>
<!DOCTYPE svg PUBLIC "-//W3C//DTD SVG 1.1//EN" "http://www.w3.org/Graphics/SVG/1.1/DTD/svg11.dtd">
<!-- Creator: CorelDRAW -->
<svg xmlns="http://www.w3.org/2000/svg" xml:space="preserve" width="1.66666in" height="1.66666in" version="1.1" style="shape-rendering:geometricPrecision; text-rendering:geometricPrecision; image-rendering:optimizeQuality; fill-rule:evenodd; clip-rule:evenodd"
viewBox="0 0 1666.66 1666.66"
 xmlns:xlink="http://www.w3.org/1999/xlink"
 xmlns:xodm="http://www.corel.com/coreldraw/odm/2003">
 <defs>
  <style type="text/css">
   <![CDATA[
    .fil0 {fill:#201E1E;fill-rule:nonzero}
   ]]>
  </style>
 </defs>
 <g id="Layer_x0020_1">
  <metadata id="CorelCorpID_0Corel-Layer"/>
  <g id="_2110134825024">
   <path class="fil0" d="M514 886.47c0,4.02 -2.96,7.25 -6.63,7.25 -3.65,0 -6.62,-3.24 -6.62,-7.25l0 -7.25c0,-4 2.97,-7.24 6.62,-7.24 3.67,0 6.63,3.24 6.63,7.24l0 7.25zm-37.54 102.5c-11.1,0 -20.1,-14.5 -20.1,-32.39 0,-17.88 9,-32.38 20.1,-32.38 11.09,0 20.09,14.5 20.09,32.38 0,17.89 -9,32.39 -20.09,32.39zm-24.3 -102.5c0,4.02 -2.97,7.25 -6.64,7.25 -3.65,0 -6.63,-3.24 -6.63,-7.25l0 -7.25c0,-4 2.97,-7.24 6.63,-7.24 3.67,0 6.64,3.24 6.64,7.24l0 7.25zm88.33 -3.62c0,-19.99 -14.85,-36.25 -33.13,-36.25 -7.96,0 -15.64,3.13 -21.65,8.82 -4.15,3.92 -7.33,8.89 -9.26,14.41 -1.94,-5.52 -5.13,-10.49 -9.27,-14.41 -6.01,-5.69 -13.7,-8.82 -21.67,-8.82 -18.26,0 -33.13,16.26 -33.13,36.25 0,14.9 8.26,27.75 20.06,33.3 -9.97,11.89 -15.64,27.5 -15.64,44.02 0,35.98 26.75,65.25 59.64,65.25 32.87,0 59.62,-29.26 59.62,-65.25 0,-16.52 -5.67,-32.13 -15.62,-44.02 11.78,-5.56 20.04,-18.4 20.04,-33.3z"/>
   <path class="fil0" d="M312.91 729.89c-16.35,0 -29.6,-9.85 -29.6,-21.99 0,-12.15 13.25,-22 29.6,-22 16.35,0 29.58,9.85 29.58,22 0,12.14 -13.24,21.99 -29.58,21.99zm64.1 4.6l6.61 0c3.67,0 6.64,3.24 6.64,7.24 0,4.01 -2.97,7.25 -6.64,7.25l-6.61 0c-3.67,0 -6.64,-3.24 -6.64,-7.25 0,-4 2.97,-7.24 6.64,-7.24zm0 -67.67l6.61 0c3.67,0 6.64,3.25 6.64,7.25 0,4 -2.97,7.25 -6.64,7.25l-6.61 0c-3.67,0 -6.64,-3.25 -6.64,-7.25 0,-4 2.97,-7.25 6.64,-7.25zm3.3 111.15c18.26,0 33.13,-16.25 33.13,-36.25 0,-8.7 -2.86,-17.11 -8.06,-23.68 -3.58,-4.54 -8.13,-8.03 -13.17,-10.14 5.04,-2.14 9.58,-5.61 13.17,-10.14 5.19,-6.58 8.06,-15 8.06,-23.69 0,-19.99 -14.86,-36.25 -33.13,-36.25 -13.63,0 -25.36,9.04 -30.44,21.94 -10.86,-10.9 -25.14,-17.11 -40.24,-17.11 -32.87,0 -59.64,29.26 -59.64,65.25 0,35.97 26.76,65.24 59.64,65.24 15.1,0 29.38,-6.19 40.24,-17.09 5.09,12.89 16.82,21.93 30.44,21.93z"/>
   <path class="fil0" d="M572.02 792.16c-25.57,0 -46.39,-22.76 -46.39,-50.74 0,-12.2 4.01,-23.96 11.29,-33.18 0.17,-0.22 0.35,-0.43 0.53,-0.65 -0.18,-0.22 -0.36,-0.44 -0.53,-0.67 -7.28,-9.2 -11.29,-20.99 -11.29,-33.17 0,-27.98 20.82,-50.75 46.39,-50.75 12.97,0 25.07,5.92 33.68,15.86 4.39,-2.83 9.04,-5.14 13.86,-6.91 -15.48,-13.53 -34.75,-21.03 -55.04,-21.03 -48.72,0 -88.35,43.36 -88.35,96.65 0,33.99 16.13,63.92 40.44,81.15 -12.13,-6.86 -25.87,-10.76 -40.44,-10.76 -14.58,0 -28.33,3.9 -40.46,10.76 24.32,-17.24 40.46,-47.17 40.46,-81.15 0,-53.29 -39.64,-96.65 -88.36,-96.65 -20.3,0 -39.56,7.5 -55.04,21.03 4.82,1.76 9.47,4.07 13.86,6.91 8.61,-9.94 20.71,-15.86 33.68,-15.86 25.57,0 46.39,22.76 46.39,50.75 0,12.18 -4.01,23.97 -11.29,33.17 -0.17,0.22 -0.35,0.44 -0.53,0.67 0.18,0.22 0.36,0.43 0.53,0.65 7.28,9.22 11.29,20.98 11.29,33.18 0,27.97 -20.82,50.74 -46.39,50.74 -12.97,0 -25.07,-5.91 -33.68,-15.85 -4.39,2.82 -9.04,5.12 -13.86,6.9 15.48,13.54 34.75,21.04 55.04,21.04 14.58,0 28.33,-3.91 40.47,-10.78 -24.33,17.22 -40.47,47.15 -40.47,81.15 0,22.21 6.86,43.29 19.23,60.22 1.61,-5.26 3.72,-10.35 6.31,-15.17 -9.08,-9.42 -14.5,-22.64 -14.5,-36.83 0,-28 20.82,-50.75 46.4,-50.75 11.13,0 21.89,4.37 30.31,12.35 0.21,0.18 0.4,0.37 0.61,0.57 0.2,-0.19 0.39,-0.39 0.6,-0.57 8.42,-7.97 19.18,-12.35 30.32,-12.35 25.57,0 46.39,22.75 46.39,50.75 0,14.19 -5.42,27.42 -14.5,36.83 2.58,4.82 4.71,9.9 6.3,15.17 12.38,-16.93 19.24,-38.01 19.24,-60.22 0,-34 -16.15,-63.93 -40.47,-81.15 12.14,6.86 25.89,10.78 40.47,10.78 20.3,0 39.56,-7.5 55.04,-21.04 -4.82,-1.78 -9.47,-4.08 -13.86,-6.9 -8.61,9.94 -20.71,15.85 -33.68,15.85z"/>
   <path class="fil0" d="M639.43 729.89c-16.35,0 -29.59,-9.85 -29.59,-21.99 0,-12.15 13.25,-22 29.59,-22 16.35,0 29.59,9.85 29.59,22 0,12.14 -13.24,21.99 -29.59,21.99zm-64.09 -48.57l-6.63 0c-3.65,0 -6.63,-3.25 -6.63,-7.25 0,-4 2.97,-7.25 6.63,-7.25l6.63 0c3.67,0 6.64,3.25 6.64,7.25 0,4 -2.97,7.25 -6.64,7.25zm0 67.65l-6.63 0c-3.65,0 -6.63,-3.24 -6.63,-7.25 0,-4 2.97,-7.24 6.63,-7.24l6.63 0c3.67,0 6.64,3.24 6.64,7.24 0,4.01 -2.97,7.25 -6.64,7.25zm67.37 -106.32c-15.1,0 -29.37,6.21 -40.24,17.11 -5.08,-12.9 -16.82,-21.94 -30.44,-21.94 -18.26,0 -33.14,16.26 -33.14,36.25 0,8.69 2.87,17.11 8.07,23.69 3.58,4.53 8.12,8 13.15,10.14 -5.03,2.11 -9.57,5.6 -13.15,10.14 -5.2,6.57 -8.07,14.98 -8.07,23.68 0,20 14.87,36.25 33.14,36.25 13.63,0 25.36,-9.04 30.44,-21.93 10.86,10.9 25.14,17.09 40.24,17.09 32.87,0 59.64,-29.26 59.64,-65.24 0,-35.98 -26.76,-65.25 -59.64,-65.25z"/>
   <polygon class="fil0" points="785,733.09 822.29,733.09 822.29,648.51 843.18,648.51 843.18,615.28 762.82,615.28 762.82,648.51 785,648.51 "/>
   <polygon class="fil0" points="890.12,691.94 911.18,691.94 911.18,733.09 948.47,733.09 948.47,615.28 911.18,615.28 911.18,658.71 890.12,658.71 890.12,615.28 852.84,615.28 852.84,733.09 890.12,733.09 "/>
   <path class="fil0" d="M998.46 647.45l8.19 0c5.89,0 8.83,3.83 8.83,11.53 0,7.68 -2.63,11.51 -7.86,11.51l-9.17 0 0 -23.04zm0.17 55.22l9.15 0 6.11 30.42 37.93 0 -10.61 -40.1c7.93,-7.03 11.9,-18.72 11.9,-35.07 0,-16.36 -3.59,-27.56 -10.78,-33.58 -7.18,-6.06 -19.07,-9.07 -35.68,-9.07l-45.32 0 0 117.82 37.29 0 0 -30.42z"/>
   <polygon class="fil0" points="1144.39,700.56 1101,700.56 1101,690.02 1134.75,690.02 1134.75,657.82 1101,657.82 1101,647.81 1144.39,647.81 1144.39,615.28 1063.71,615.28 1063.71,733.1 1144.39,733.1 "/>
   <polygon class="fil0" points="1235.85,700.56 1192.45,700.56 1192.45,690.02 1226.21,690.02 1226.21,657.82 1192.45,657.82 1192.45,647.81 1235.85,647.81 1235.85,615.28 1155.16,615.28 1155.16,733.1 1235.85,733.1 "/>
   <polygon class="fil0" points="893.98,880.52 893.98,762.7 836.93,762.7 830.01,807.72 821.65,762.7 766.2,762.7 766.2,880.52 803.49,880.52 803.49,819.85 805.26,819.85 814.41,879.28 845.61,879.28 854.91,819.85 856.7,819.85 856.7,880.52 "/>
   <path class="fil0" d="M944.85 800.07c1.78,-4.4 5.5,-6.6 11.18,-6.6 5.67,0 9.35,2.14 11,6.42 1.67,4.28 2.48,11.5 2.48,21.63 0,10.14 -0.85,17.39 -2.56,21.72 -1.72,4.35 -5.4,6.5 -11.02,6.5 -5.64,0 -9.32,-2.19 -11.09,-6.59 -1.76,-4.39 -2.65,-11.57 -2.65,-21.53 0,-9.96 0.89,-17.15 2.65,-21.54zm-40.26 21.44c0,21.39 4.11,36.96 12.29,46.69 8.21,9.74 21.22,14.6 39.07,14.6 17.83,0 30.82,-4.83 38.97,-14.51 8.14,-9.67 12.21,-25.22 12.21,-46.68 0,-21.46 -4.07,-37.02 -12.21,-46.7 -8.15,-9.68 -21.17,-14.51 -39.06,-14.51 -17.9,0 -30.92,4.83 -39.06,14.51 -8.15,9.68 -12.22,25.21 -12.22,46.6z"/>
   <polygon class="fil0" points="1017.74,880.52 1055.02,880.52 1055.02,832.51 1057.44,832.51 1081.87,880.52 1118.69,880.52 1118.69,762.7 1081.4,762.7 1081.4,807.35 1079.13,807.35 1054.4,762.7 1017.74,762.7 "/>
   <polygon class="fil0" points="1225.89,880.52 1207.08,819.68 1224.28,762.7 1187.32,762.7 1175.26,804.38 1168.83,804.38 1168.83,762.7 1131.54,762.7 1131.54,880.52 1168.83,880.52 1168.83,841.3 1175.41,841.3 1188.43,880.52 "/>
   <polygon class="fil0" points="1232.63,880.52 1313.33,880.52 1313.33,847.98 1269.93,847.98 1269.93,837.44 1303.68,837.44 1303.68,805.24 1269.93,805.24 1269.93,795.23 1313.33,795.23 1313.33,762.7 1232.63,762.7 "/>
   <polygon class="fil0" points="1377.29,762.7 1366.84,797.35 1356.72,762.7 1317.18,762.7 1347.87,843.58 1347.87,880.52 1385.16,880.52 1385.16,843.58 1416.66,762.7 "/>
   <path class="fil0" d="M844.07 962.61c-3.48,-2.86 -7.4,-5.11 -11.74,-6.68 -4.35,-1.59 -9.92,-3.2 -16.71,-4.85 -6.8,-1.64 -10.86,-2.8 -12.14,-3.51 -1.29,-0.7 -1.93,-1.7 -1.93,-2.99 0,-1.29 0.56,-2.14 1.68,-2.56 1.12,-0.4 5.12,-0.61 11.98,-0.61 6.85,0 17.83,0.89 32.94,2.64l0.97 -31.65 -6.76 -1.22c-13.71,-2.24 -25.65,-3.35 -35.83,-3.35 -14.47,0 -25.19,2.93 -32.15,8.79 -6.97,5.86 -10.44,16.71 -10.44,32.53 0,12.43 2.7,21.37 8.11,26.82 5.42,5.46 15.62,9.47 30.62,12.06 5.68,0.93 9.15,1.67 10.44,2.18 1.28,0.54 1.93,1.39 1.93,2.56 0,2.71 -2.79,4.04 -8.36,4.04 -10.5,0 -23.94,-1.29 -40.33,-3.86l-1.61 31.13 6.26 1.58c4.07,1.06 9.89,2.11 17.44,3.17 7.56,1.06 14.75,1.58 21.61,1.58 14.25,0 24.92,-3.11 31.99,-9.32 7.08,-6.21 10.61,-16.59 10.61,-31.12 0,-7.03 -0.56,-12.64 -1.69,-16.81 -1.13,-4.15 -3.42,-7.67 -6.91,-10.54z"/>
   <path class="fil0" d="M921.87 990.49c-1.78,4.46 -5.41,6.68 -10.93,6.68 -5.51,0 -9.26,-2.26 -11.25,-6.76 -1.99,-4.52 -2.97,-11.64 -2.97,-21.37 0,-9.72 0.98,-16.85 2.97,-21.36 1.98,-4.52 5.74,-6.78 11.25,-6.78 5.53,0 9.15,2.21 10.93,6.6 1.78,4.4 2.65,11.56 2.65,21.46 0,9.91 -0.87,17.09 -2.65,21.54zm28.2 -68.32c-8.04,-9.56 -21.11,-14.33 -39.22,-14.33 -18.1,0 -31.1,4.78 -38.97,14.33 -7.87,9.56 -11.82,25.18 -11.82,46.86 0,21.69 3.98,37.32 11.98,46.87 7.97,9.56 20.92,14.32 38.81,14.32 2.15,0 3.71,-0.06 4.67,-0.17l15.75 25.67 28.29 -15.29 -12.86 -20.93c10.29,-9.37 15.43,-25.56 15.43,-48.53 0,-22.98 -4.03,-39.25 -12.06,-48.8z"/>
   <path class="fil0" d="M1029.47 987.33c0,3.39 -0.75,5.8 -2.25,7.21 -1.5,1.4 -4.07,2.11 -7.71,2.11 -3.65,0 -6.24,-0.71 -7.79,-2.11 -1.56,-1.41 -2.33,-3.82 -2.33,-7.21l0 -77.21 -37.3 0 0 75.61c0,16.54 3.8,28.08 11.42,34.65 7.6,6.57 19.57,9.85 35.92,9.85 16.35,0 28.32,-3.37 35.93,-10.11 7.6,-6.74 11.41,-18.43 11.41,-35.08l0 -74.92 -37.29 0 0 77.21z"/>
   <path class="fil0" d="M1114.82 983.28l6.11 -41.15 4.01 0 5.79 41.15 -15.92 0zm-20.25 -73.15l-23.79 117.82 36.65 0 2.57 -13.54 24.58 0 3.06 13.54 37.61 0 -24.26 -117.82 -56.42 0z"/>
   <path class="fil0" d="M1238.58 990.14c-2.68,3.06 -6.8,4.57 -12.37,4.57l-6.6 0 0 -51.35 6.6 0c6.86,0 11.28,1.75 13.26,5.28 1.97,3.51 2.97,10.56 2.97,21.09 0,10.56 -1.29,17.35 -3.86,20.41zm-10.76 -80.02l-45.48 0 0 117.82 47.08 0c18.13,0 31.08,-5 38.9,-15.03 7.82,-10.03 11.74,-25.09 11.74,-45.21 0,-20.09 -4.07,-34.72 -12.22,-43.87 -8.14,-9.14 -21.47,-13.71 -40.02,-13.71z"/>
   <polygon class="fil0" points="1269.91,648.93 1273.87,648.93 1273.87,618.8 1282.57,618.8 1282.57,615.28 1261.22,615.28 1261.22,618.8 1269.91,618.8 "/>
   <polygon class="fil0" points="1290.46,622.63 1300.14,648.93 1303.68,648.93 1313.3,622.52 1313.3,648.93 1317.28,648.93 1317.28,615.85 1312.52,615.85 1301.97,643.62 1291.25,615.85 1286.5,615.85 1286.5,648.93 1290.46,648.93 "/>
  </g>
 </g>
</svg>
