<?xml version="1.0" encoding="UTF-8"?>
<!DOCTYPE svg PUBLIC "-//W3C//DTD SVG 1.1//EN" "http://www.w3.org/Graphics/SVG/1.1/DTD/svg11.dtd">
<!-- Creator: CorelDRAW -->
<svg xmlns="http://www.w3.org/2000/svg" xml:space="preserve" width="1.66666in" height="1.66666in" version="1.1" style="shape-rendering:geometricPrecision; text-rendering:geometricPrecision; image-rendering:optimizeQuality; fill-rule:evenodd; clip-rule:evenodd"
viewBox="0 0 1666.66 1666.66"
 xmlns:xlink="http://www.w3.org/1999/xlink"
 xmlns:xodm="http://www.corel.com/coreldraw/odm/2003">
 <defs>
  <style type="text/css">
   <![CDATA[
    .fil2 {fill:#4FC7E6;fill-rule:nonzero}
    .fil1 {fill:#3CB663;fill-rule:nonzero}
    .fil0 {fill:#201E1E;fill-rule:nonzero}
   ]]>
  </style>
 </defs>
 <g id="Layer_x0020_1">
  <metadata id="CorelCorpID_0Corel-Layer"/>
  <g id="_2110163589696">
   <path class="fil0" d="M1151.99 654.25c0.01,-4.53 -1.93,-4.44 -5.2,-4.44 -51.57,0.07 -103.12,0.13 -154.69,-0.07 -4.83,-0.02 -6.32,0.85 -6.29,6.06 0.24,50.69 0.29,101.39 0.08,152.1 -0.13,29.74 -2.81,59.22 -11.06,87.98 -13.99,48.71 -44.47,81.58 -93.24,96.35 -31.81,9.63 -64.39,10.42 -96.86,4.29 -54,-10.21 -91.3,-40.54 -108.89,-93.46 -10.12,-30.47 -13.26,-62.02 -13.3,-93.87 -0.17,-132.99 -0.1,-265.97 0.04,-398.97 0,-4.35 -1.04,-5.36 -5.36,-5.35 -52.26,0.17 -104.53,0.2 -156.78,-0.03 -5.26,-0.03 -6.03,1.53 -6.01,6.29 0.17,72.75 0.11,145.5 0.11,218.24 0,62.15 -0.08,124.32 0.03,186.47 0.07,37.26 3.92,74.12 13.56,110.2 24.76,92.74 80.93,157.94 170.72,193.1 41.14,16.11 84.25,22.49 128.24,23.74 46.59,1.33 92.6,-2.39 137.39,-15.94 81.44,-24.67 141.7,-74.26 176.87,-152.5 21.78,-48.4 29.72,-99.86 30.32,-152.47 0.62,-55.89 0.11,-111.8 0.32,-167.71z"/>
   <path class="fil1" d="M1168.69 452.69c-6.26,-1.24 -12.68,-1.75 -18.75,-3.91 -14.78,-1.82 -29.25,-5.3 -43.9,-7.83 -10.9,-1.88 -21.75,-4.52 -32.74,-5.46 -29.19,-2.5 -59.79,16.63 -71.33,43.63 -6.07,14.21 -7.26,29.51 -10.32,44.39 -3.22,15.58 -5.83,31.29 -8.74,46.93 -1.22,6.58 -1.24,6.57 5.67,7.46 0.83,0.11 1.63,0.44 2.43,0.67 23.83,4.44 47.69,8.74 71.48,13.39 43.28,8.48 86.38,-19.18 95.67,-62.28 5.18,-24.03 9.14,-48.32 13.87,-72.44 0.67,-3.43 -0.37,-3.96 -3.35,-4.54z"/>
   <path class="fil2" d="M982.91 570.44c2.9,-15.65 5.52,-31.35 8.74,-46.93 3.06,-14.87 4.25,-30.18 10.32,-44.39 11.54,-27 42.14,-46.14 71.33,-43.62 10.98,0.93 21.83,3.57 32.74,5.46 14.65,2.52 29.13,6 43.9,7.83 0.03,-11.46 -0.17,-22.92 0.18,-34.36 0.13,-4.5 -1.4,-5.4 -5.6,-5.37 -29.68,0.17 -59.36,0.07 -89.03,0.09 -42.03,0.03 -74.46,32.46 -74.53,74.56 -0.04,28.46 0,56.93 0,85.39 0,9.91 0,9.91 10.04,9.46 0,0 0,0 0,0 -0.81,-0.22 -1.6,-0.54 -2.43,-0.65 -6.9,-0.9 -6.89,-0.87 -5.67,-7.46z"/>
   <path class="fil0" d="M542.62 1237.32c0,5.01 -1.03,8.62 -3.08,10.83 -2.06,2.21 -4.94,3.31 -8.65,3.31 -3.7,0 -6.59,-1.1 -8.64,-3.31 -2.07,-2.21 -3.09,-5.82 -3.09,-10.83l0 -29.03 -12.18 0 0 29.47c0,7.73 2.11,13.67 6.32,17.83 4.21,4.17 10.06,6.24 17.53,6.24 7.47,0 13.3,-2.07 17.53,-6.24 4.21,-4.17 6.31,-10.1 6.31,-17.83l0 -29.47 -12.03 0 0 29.03z"/>
   <path class="fil0" d="M597.22 1234.12c-1.86,1.63 -4.67,2.44 -8.42,2.44l-9.93 0 0 -18.35 9.93 0c3.75,0 6.56,0.79 8.42,2.4 1.86,1.61 2.78,3.86 2.78,6.76 0,2.86 -0.92,5.11 -2.78,6.74zm4.44 9.89c3.41,-1.5 6.04,-3.67 7.89,-6.5 1.86,-2.83 2.78,-6.21 2.78,-10.13 0,-3.96 -0.92,-7.36 -2.78,-10.22 -1.85,-2.86 -4.48,-5.06 -7.89,-6.58 -3.41,-1.53 -7.47,-2.29 -12.19,-2.29l-22.79 0 0 52.64 12.19 0 0 -14.65 10.6 0c0.19,0 0.37,-0.02 0.57,-0.02l10.11 14.67 13.17 0 -11.76 -16.88c0.03,-0.01 0.07,-0.03 0.11,-0.04z"/>
   <path class="fil0" d="M655.47 1250.22c-1.63,1.03 -4.03,1.54 -7.18,1.54l-14.22 0 0 -13.01 14.22 0c3.15,0 5.56,0.54 7.18,1.63 1.62,1.07 2.44,2.71 2.44,4.92 0,2.26 -0.82,3.9 -2.44,4.93zm-21.41 -32.75l12.11 0c2.96,0 5.24,0.52 6.8,1.54 1.58,1.03 2.37,2.57 2.37,4.63 0,2.09 -0.79,3.67 -2.37,4.69 -1.57,1.03 -3.85,1.54 -6.8,1.54l-12.11 0 0 -12.41zm28.06 16.59c-0.47,-0.21 -0.97,-0.36 -1.49,-0.53 2.06,-1.08 3.72,-2.53 4.94,-4.36 1.36,-2.03 2.04,-4.43 2.04,-7.18 0,-4.11 -1.68,-7.43 -5.02,-9.93 -3.33,-2.52 -8.31,-3.76 -14.92,-3.76l-25.72 0 0 52.65 27.22 0c6.92,0 12.15,-1.28 15.72,-3.8 3.56,-2.53 5.33,-6.06 5.33,-10.57 0,-3.06 -0.71,-5.64 -2.14,-7.74 -1.43,-2.11 -3.43,-3.71 -5.98,-4.78z"/>
   <path class="fil0" d="M693.61 1240.4l8.37 -20.15 8.35 20.15 -16.72 0zm2.44 -32.11l-23.47 52.64 12.48 0 4.69 -11.28 24.41 0 4.68 11.28 12.78 0 -23.54 -52.64 -12.03 0z"/>
   <polygon class="fil0" points="773.36,1240.23 747.2,1208.28 737.11,1208.28 737.11,1260.94 749.14,1260.94 749.14,1228.98 775.39,1260.94 785.39,1260.94 785.39,1208.28 773.36,1208.28 "/>
   <polygon class="fil0" points="831.35,1218.06 858.94,1218.06 858.94,1208.29 819.17,1208.29 819.17,1260.94 831.35,1260.94 831.35,1241.76 855.72,1241.76 855.72,1231.98 831.35,1231.98 "/>
   <path class="fil0" d="M879.15 1240.4l8.37 -20.15 8.35 20.15 -16.72 0zm2.44 -32.11l-23.47 52.64 12.49 0 4.69 -11.28 24.4 0 4.68 11.28 12.78 0 -23.54 -52.64 -12.03 0z"/>
   <path class="fil0" d="M953.19 1234.12c-1.86,1.63 -4.67,2.44 -8.43,2.44l-9.92 0 0 -18.35 9.92 0c3.76,0 6.57,0.79 8.43,2.4 1.86,1.61 2.78,3.86 2.78,6.76 0,2.86 -0.92,5.11 -2.78,6.74zm4.43 9.89c3.42,-1.5 6.04,-3.67 7.91,-6.5 1.86,-2.83 2.78,-6.21 2.78,-10.13 0,-3.96 -0.92,-7.36 -2.78,-10.22 -1.86,-2.86 -4.49,-5.06 -7.91,-6.58 -3.4,-1.53 -7.46,-2.29 -12.18,-2.29l-22.79 0 0 52.64 12.19 0 0 -14.65 10.6 0c0.19,0 0.37,-0.02 0.57,-0.02l10.11 14.67 13.17 0 -11.76 -16.88c0.03,-0.01 0.07,-0.03 0.09,-0.04z"/>
   <polygon class="fil0" points="1027.12,1208.29 1007.73,1240.98 988.01,1208.29 977.93,1208.29 977.93,1260.94 989.37,1260.94 989.37,1230.01 1004.79,1255.37 1010.27,1255.37 1025.77,1229.33 1025.84,1260.94 1037.27,1260.94 1037.12,1208.29 "/>
   <polygon class="fil0" points="1061.87,1238.97 1086.31,1238.97 1086.31,1229.5 1061.87,1229.5 1061.87,1218.07 1089.55,1218.07 1089.55,1208.29 1049.76,1208.29 1049.76,1260.93 1090.52,1260.93 1090.52,1251.15 1061.87,1251.15 "/>
   <path class="fil0" d="M1130.76 1234.12c-1.86,1.63 -4.67,2.44 -8.43,2.44l-9.92 0 0 -18.35 9.92 0c3.76,0 6.57,0.79 8.43,2.4 1.86,1.61 2.78,3.86 2.78,6.76 0,2.86 -0.92,5.11 -2.78,6.74zm4.43 9.89c3.42,-1.5 6.04,-3.67 7.9,-6.5 1.86,-2.83 2.78,-6.21 2.78,-10.13 0,-3.96 -0.92,-7.36 -2.78,-10.22 -1.86,-2.86 -4.48,-5.06 -7.9,-6.58 -3.41,-1.53 -7.46,-2.29 -12.18,-2.29l-22.79 0 0 52.64 12.19 0 0 -14.65 10.6 0c0.19,0 0.37,-0.02 0.57,-0.02l10.11 14.67 13.17 0 -11.76 -16.88c0.03,-0.01 0.07,-0.03 0.1,-0.04z"/>
  </g>
 </g>
</svg>
