<?xml version="1.0" encoding="UTF-8"?>
<!DOCTYPE svg PUBLIC "-//W3C//DTD SVG 1.1//EN" "http://www.w3.org/Graphics/SVG/1.1/DTD/svg11.dtd">
<!-- Creator: CorelDRAW -->
<svg xmlns="http://www.w3.org/2000/svg" xml:space="preserve" width="1.66666in" height="1.66666in" version="1.1" style="shape-rendering:geometricPrecision; text-rendering:geometricPrecision; image-rendering:optimizeQuality; fill-rule:evenodd; clip-rule:evenodd"
viewBox="0 0 1666.66 1666.66"
 xmlns:xlink="http://www.w3.org/1999/xlink"
 xmlns:xodm="http://www.corel.com/coreldraw/odm/2003">
 <defs>
  <style type="text/css">
   <![CDATA[
    .fil1 {fill:#FEFEFE;fill-rule:nonzero}
    .fil0 {fill:#201E1E;fill-rule:nonzero}
   ]]>
  </style>
 </defs>
 <g id="Layer_x0020_1">
  <metadata id="CorelCorpID_0Corel-Layer"/>
  <g id="_2108290378608">
   <path class="fil0" d="M1248.41 1053.55l-830.15 0c-11.63,0 -21.04,-9.42 -21.04,-21.04l0 -398.36c0,-11.61 9.41,-21.03 21.04,-21.03l830.15 0c11.63,0 21.04,9.42 21.04,21.03l0 398.36c0,11.62 -9.42,21.04 -21.04,21.04z"/>
   <path class="fil1" d="M577.98 717.21l1.68 188.07c-0.25,9.64 -2,18.33 -5.28,25.81 -2.69,6.43 -6.87,12.61 -12.93,17.5 -6.06,5.19 -14.25,8.19 -25.18,8.28 -10.97,0.1 -19.51,-2.74 -25.65,-7.83 -6.15,-4.78 -10.15,-10.89 -12.96,-17.28 -3.42,-7.4 -5.31,-16.08 -5.7,-25.71l-1.68 -188.07 32.87 -0.28 1.68 188.06c0.06,6.78 1.62,11.24 4.71,14.75 1.53,1.59 3.67,2.57 6.41,2.54 5.76,-0.06 8.49,-3.93 9.67,-8.78 0.87,-2.3 1.14,-5.17 1.11,-8.7l-1.68 -188.08 32.92 -0.28z"/>
   <path class="fil1" d="M657.13 779.96c-0.07,-7.71 -0.44,-16.39 -2.63,-23.14 -2.21,-6.44 -5.59,-10.93 -10.76,-10.89 -8.51,0.4 -11.19,9.78 -11.07,23.63 0.08,8.07 3.5,16.36 8.44,25.37 4.96,8.96 11.44,18.22 17.91,28.15 7.74,11.86 15.47,24.01 21.35,35.89 5.9,11.86 9.96,24.06 10.07,36.96 0.14,15.76 -2.15,30.61 -9.07,41.61 -6.91,11 -18.11,18.21 -36.07,18.36 -21.02,0.19 -32.94,-8.08 -39.76,-20.93 -6.81,-12.79 -8.49,-29.83 -8.64,-47.58l32.22 -3.47c0.08,9.96 0.5,19.94 2.99,27.32 2.19,7.72 5.91,12.85 12.91,12.78 9.74,-0.08 13.29,-11.04 13.15,-26.19 -0.07,-7.74 -3.79,-16.72 -8.75,-26 -2.79,-4.49 -5.56,-9.31 -8.64,-14.11 -6.48,-9.58 -13.58,-20.5 -21.01,-32.35 -7.39,-11.85 -13,-24.03 -16.47,-36.56 -1.86,-6.11 -2.86,-12.51 -2.92,-18.97 -0.11,-12.89 2.52,-26.76 9.42,-37.44 6.93,-10.36 17.5,-17.85 33.04,-18.31 19.8,-0.53 31.43,8.11 37.94,20.6 6.52,12.8 8.47,28.59 8.59,41.78l-32.25 3.5z"/>
   <polygon class="fil1" points="706.58,716.08 781.77,715.42 782.09,751.17 739.77,751.54 740.33,813.68 770.79,813.4 771.12,851.4 740.66,851.67 741.24,916.72 783.57,916.35 783.89,952.1 708.69,952.75 "/>
   <polygon class="fil1" points="800.11,715.26 832.98,714.96 834.8,919.44 878.36,919.05 878.65,951.27 802.22,951.93 "/>
   <polygon class="fil1" points="889.96,714.47 965.2,713.8 965.52,749.55 923.15,749.93 923.71,812.06 954.17,811.79 954.5,849.79 924.04,850.05 924.63,915.11 966.99,914.73 967.31,950.48 892.07,951.13 "/>
   <path class="fil1" d="M1038.57 776.6c-0.07,-7.71 -0.44,-16.39 -2.67,-23.14 -2.17,-6.44 -5.56,-10.93 -10.72,-10.89 -8.56,0.4 -11.2,9.78 -11.07,23.63 0.08,8.07 3.5,16.36 8.44,25.37 4.96,8.96 11.44,18.22 17.92,28.15 7.69,11.86 15.43,24.01 21.33,35.89 5.88,11.86 9.96,24.06 10.08,36.96 0.14,15.76 -2.18,30.61 -9.07,41.61 -6.9,11 -18.11,18.21 -36.07,18.36 -21.01,0.19 -32.98,-8.08 -39.79,-20.93 -6.82,-12.79 -8.48,-29.83 -8.65,-47.58l32.25 -3.47c0.1,9.96 0.48,19.94 3,27.32 2.19,7.72 5.89,12.85 12.92,12.78 9.74,-0.08 13.29,-11.04 13.15,-26.19 -0.07,-7.75 -3.79,-16.72 -8.76,-26 -2.78,-4.5 -5.57,-9.31 -8.67,-14.11 -6.48,-9.59 -13.57,-20.5 -20.97,-32.35 -7.43,-11.85 -13,-24.03 -16.47,-36.56 -1.9,-6.11 -2.86,-12.51 -2.92,-18.97 -0.11,-12.89 2.52,-26.76 9.41,-37.44 6.9,-10.36 17.51,-17.85 33.03,-18.31 19.8,-0.53 31.46,8.1 37.97,20.6 6.5,12.8 8.47,28.59 8.58,41.78l-32.25 3.5z"/>
   <path class="fil1" d="M1143.04 775.68c-0.07,-7.72 -0.44,-16.41 -2.63,-23.15 -2.21,-6.43 -5.59,-10.92 -10.76,-10.87 -8.53,0.39 -11.19,9.78 -11.07,23.62 0.08,8.07 3.5,16.36 8.44,25.38 4.96,8.96 11.44,18.22 17.91,28.15 7.74,11.86 15.47,24.02 21.33,35.88 5.92,11.87 9.97,24.07 10.08,36.96 0.14,15.78 -2.15,30.63 -9.07,41.63 -6.91,10.98 -18.11,18.21 -36.07,18.36 -21.02,0.19 -32.94,-8.09 -39.76,-20.92 -6.81,-12.81 -8.48,-29.86 -8.64,-47.6l32.21 -3.47c0.09,9.94 0.51,19.94 3,27.32 2.19,7.72 5.91,12.83 12.91,12.78 9.74,-0.08 13.3,-11.04 13.15,-26.2 -0.07,-7.75 -3.79,-16.72 -8.75,-26 -2.79,-4.5 -5.56,-9.3 -8.65,-14.11 -6.47,-9.58 -13.57,-20.5 -21,-32.35 -7.39,-11.85 -13,-24.04 -16.47,-36.56 -1.87,-6.11 -2.86,-12.52 -2.92,-18.97 -0.11,-12.89 2.52,-26.76 9.4,-37.44 6.94,-10.37 17.52,-17.86 33.06,-18.31 19.78,-0.53 31.43,8.1 37.94,20.59 6.5,12.82 8.47,28.61 8.59,41.78l-32.25 3.52z"/>
  </g>
 </g>
</svg>
