<?xml version="1.0" encoding="UTF-8"?>
<!DOCTYPE svg PUBLIC "-//W3C//DTD SVG 1.1//EN" "http://www.w3.org/Graphics/SVG/1.1/DTD/svg11.dtd">
<!-- Creator: CorelDRAW -->
<svg xmlns="http://www.w3.org/2000/svg" xml:space="preserve" width="1.66666in" height="1.66666in" version="1.1" style="shape-rendering:geometricPrecision; text-rendering:geometricPrecision; image-rendering:optimizeQuality; fill-rule:evenodd; clip-rule:evenodd"
viewBox="0 0 1666.66 1666.66"
 xmlns:xlink="http://www.w3.org/1999/xlink"
 xmlns:xodm="http://www.corel.com/coreldraw/odm/2003">
 <defs>
  <style type="text/css">
   <![CDATA[
    .str0 {stroke:#F68B40;stroke-width:3;stroke-miterlimit:10}
    .fil0 {fill:none;fill-rule:nonzero}
    .fil7 {fill:#F68B40;fill-rule:nonzero}
    .fil4 {fill:#464197;fill-rule:nonzero}
    .fil8 {fill:url(#id0)}
    .fil1 {fill:url(#id1)}
    .fil2 {fill:url(#id2)}
    .fil5 {fill:url(#id3)}
    .fil3 {fill:url(#id4)}
    .fil6 {fill:url(#id5)}
   ]]>
  </style>
  <linearGradient id="id0" gradientUnits="userSpaceOnUse" x1="958.73" y1="1056.3" x2="958.73" y2="911.27">
   <stop offset="0" style="stop-opacity:1; stop-color:#A161A6"/>
   <stop offset="1" style="stop-opacity:1; stop-color:#464197"/>
  </linearGradient>
  <linearGradient id="id1" gradientUnits="userSpaceOnUse" x1="285.17" y1="823.56" x2="541.49" y2="823.56">
   <stop offset="0" style="stop-opacity:1; stop-color:#B1306F"/>
   <stop offset="1" style="stop-opacity:1; stop-color:#6D2847"/>
  </linearGradient>
  <linearGradient id="id2" gradientUnits="userSpaceOnUse" x1="897.88" y1="604.64" x2="272.57" y2="604.64">
   <stop offset="0" style="stop-opacity:1; stop-color:#D93438"/>
   <stop offset="1" style="stop-opacity:1; stop-color:#F47F3B"/>
  </linearGradient>
  <linearGradient id="id3" gradientUnits="userSpaceOnUse" x1="391.49" y1="738.59" x2="756.11" y2="738.59">
   <stop offset="0" style="stop-opacity:1; stop-color:#EE4274"/>
   <stop offset="1" style="stop-opacity:1; stop-color:#6D2847"/>
  </linearGradient>
  <linearGradient id="id4" gradientUnits="userSpaceOnUse" x1="712.09" y1="678" x2="508.16" y2="791.78">
   <stop offset="0" style="stop-opacity:1; stop-color:#FAB683"/>
   <stop offset="1" style="stop-opacity:1; stop-color:#FAB683"/>
  </linearGradient>
  <linearGradient id="id5" gradientUnits="userSpaceOnUse" xlink:href="#id0" x1="100.11" y1="544.55" x2="370.36" y2="1076.32">
  </linearGradient>
 </defs>
 <g id="Layer_x0020_1">
  <metadata id="CorelCorpID_0Corel-Layer"/>
  <g id="_2110135838096">
   <path class="fil0 str0" d="M1283.64 813.37c-0.43,-0.59 -0.52,-1.39 -0.18,-2.06 0.32,-0.65 0.97,-1.08 1.69,-1.08l0 0c14.6,0.03 27.49,3.49 39.43,10.57 14.97,8.89 26.07,21.83 32.97,38.48 0.19,0.49 0.19,1.03 0.01,1.5 -0.19,0.49 -0.57,0.87 -1.04,1.07l-6.42 2.75c-0.24,0.1 -0.49,0.15 -0.74,0.15 -0.64,0 -1.26,-0.35 -1.61,-0.94l-0.13 -0.18c-0.18,-0.28 -0.42,-0.65 -0.63,-1.11 -10.47,-22.82 -28.06,-36.39 -52.29,-40.33l-0.14 -0.03c-3.63,-0.58 -7.74,-1.26 -9.22,-6.58 -0.06,-0.19 -0.46,-0.67 -0.78,-1.04 -0.31,-0.36 -0.63,-0.74 -0.94,-1.17z"/>
   <path class="fil0 str0" d="M1242.09 833.69c0.9,-0.53 2.43,-0.86 3.68,-0.35 1.68,0.69 3.25,1.57 4.78,2.42l0.19 0.11c0.82,0.46 1.28,1.26 1.56,1.85 0.58,1.21 1.14,2.43 1.72,3.74l0.67 1.44c0.25,0.57 0.22,1.22 -0.06,1.76 0.43,-0.21 0.94,-0.24 1.42,-0.07 0.62,0.22 1.25,0.44 1.87,0.67 1.8,0.64 3.67,1.29 5.5,2.03 1.01,0.4 1.96,1.4 2.35,2.5 1.1,3.06 0.63,6.21 -1.29,8.63 -2.04,2.58 -5.36,3.89 -9,3.59 0.1,3.49 -0.85,6.5 -2.69,8.53 -1.61,1.76 -3.8,2.71 -6.3,2.71l-0.06 0c-2.56,-0.01 -4.76,-1 -6.4,-2.85 -1.79,-2.03 -2.68,-4.94 -2.56,-8.26 -4.5,0.25 -7.64,-1.29 -9.6,-4.67 -1.86,-3.22 -1.72,-6.74 0.39,-9.91 2.47,-3.69 6.08,-4.21 9.15,-4.07 -0.22,-4.61 1.32,-7.83 4.67,-9.81z"/>
   <path class="fil0 str0" d="M1239.98 846.16c-0.06,0.17 -0.14,0.32 -0.24,0.47 -2.9,4.24 -2.9,8.17 0.02,12.35 0.12,0.18 0.22,0.37 0.28,0.57 0.17,0.07 0.33,0.15 0.49,0.26 4.09,2.92 7.89,2.9 11.91,-0.07 0.18,-0.14 0.39,-0.24 0.6,-0.29 0.06,-0.22 0.15,-0.43 0.28,-0.61 2.67,-3.86 2.83,-7.58 0.5,-11.36 -0.38,-0.61 -0.39,-1.36 -0.07,-1.97 -0.56,0.26 -1.22,0.24 -1.76,-0.11 -4.06,-2.48 -7.69,-2.33 -11.47,0.49 -0.17,0.12 -0.35,0.22 -0.53,0.28z"/>
   <path class="fil0 str0" d="M1234.16 876.33c0.48,-0.3 1.32,-0.47 2,-0.2 0.92,0.37 1.78,0.86 2.6,1.32l0.11 0.06c0.44,0.25 0.69,0.7 0.85,1.02 0.31,0.65 0.61,1.32 0.93,2.03l0.36 0.79c0.14,0.31 0.13,0.67 -0.03,0.94 0.24,-0.11 0.51,-0.13 0.78,-0.03 0.33,0.13 0.67,0.24 1.01,0.36 0.99,0.35 1.99,0.71 2.99,1.09 0.56,0.22 1.07,0.76 1.28,1.36 0.6,1.67 0.35,3.37 -0.69,4.69 -1.11,1.41 -2.92,2.11 -4.91,1.96 0.06,1.9 -0.46,3.53 -1.46,4.64 -0.87,0.96 -2.07,1.47 -3.43,1.47l-0.02 0c-1.4,-0.01 -2.61,-0.54 -3.48,-1.56 -0.97,-1.1 -1.46,-2.68 -1.39,-4.49 -2.46,0.14 -4.17,-0.7 -5.22,-2.54 -1.01,-1.75 -0.94,-3.67 0.21,-5.39 1.35,-2.01 3.31,-2.28 4.97,-2.21 -0.11,-2.51 0.72,-4.26 2.54,-5.33z"/>
   <path class="fil0 str0" d="M1233.01 883.11c-0.03,0.08 -0.07,0.18 -0.12,0.25 -1.58,2.3 -1.58,4.44 0,6.72 0.07,0.1 0.12,0.19 0.15,0.32 0.1,0.03 0.18,0.07 0.27,0.13 2.23,1.6 4.29,1.58 6.48,-0.03 0.1,-0.08 0.21,-0.13 0.32,-0.17 0.03,-0.11 0.08,-0.22 0.15,-0.32 1.44,-2.11 1.54,-4.12 0.28,-6.19 -0.2,-0.32 -0.22,-0.74 -0.04,-1.07 -0.31,0.15 -0.67,0.13 -0.96,-0.06 -2.2,-1.35 -4.18,-1.26 -6.23,0.26 -0.1,0.07 -0.2,0.13 -0.3,0.15z"/>
   <path class="fil0 str0" d="M1218.56 890.51c0.49,-0.29 1.32,-0.47 2,-0.19 0.92,0.37 1.78,0.86 2.6,1.32l0.11 0.06c0.44,0.25 0.69,0.69 0.85,1.01 0.31,0.65 0.61,1.32 0.93,2.03l0.36 0.8c0.14,0.3 0.13,0.67 -0.03,0.94 0.24,-0.11 0.52,-0.12 0.76,-0.03 0.35,0.13 0.68,0.24 1.03,0.36 0.99,0.35 1.99,0.71 2.99,1.1 0.56,0.22 1.07,0.76 1.28,1.36 0.6,1.67 0.35,3.37 -0.69,4.69 -1.11,1.4 -2.92,2.11 -4.9,1.96 0.06,1.91 -0.46,3.53 -1.46,4.64 -0.87,0.96 -2.07,1.47 -3.43,1.47l-0.03 0c-1.39,-0.02 -2.6,-0.54 -3.47,-1.56 -0.97,-1.09 -1.46,-2.68 -1.39,-4.48 -2.46,0.14 -4.17,-0.71 -5.22,-2.54 -1.02,-1.75 -0.94,-3.67 0.21,-5.39 1.35,-2.02 3.3,-2.28 4.97,-2.21 -0.11,-2.52 0.72,-4.26 2.54,-5.33z"/>
   <path class="fil0 str0" d="M1217.41 897.3c-0.03,0.08 -0.07,0.18 -0.13,0.25 -1.58,2.31 -1.58,4.44 0,6.72 0.07,0.1 0.13,0.19 0.15,0.32 0.09,0.03 0.18,0.07 0.26,0.13 2.24,1.6 4.29,1.58 6.48,-0.03 0.1,-0.08 0.21,-0.13 0.32,-0.17 0.03,-0.11 0.09,-0.22 0.15,-0.32 1.44,-2.11 1.54,-4.12 0.28,-6.19 -0.21,-0.32 -0.22,-0.74 -0.04,-1.07 -0.3,0.15 -0.67,0.13 -0.96,-0.06 -2.21,-1.35 -4.18,-1.26 -6.24,0.26 -0.1,0.07 -0.2,0.13 -0.29,0.15z"/>
   <path class="fil0 str0" d="M1246.47 858.44l0.03 0c1.39,-0.01 2.79,-0.65 3.85,-1.76 1.06,-1.11 1.62,-2.56 1.59,-3.97 -0.04,-1.44 -0.69,-2.89 -1.8,-3.96 -1.1,-1.04 -2.5,-1.6 -3.88,-1.54 -1.41,0.07 -2.8,0.76 -3.82,1.93 -1,1.14 -1.51,2.59 -1.43,4 0.17,2.83 2.72,5.3 5.46,5.3z"/>
   <path class="fil0 str0" d="M1214.08 865.83c0.03,0 0.06,0 0.1,0 1.39,-0.03 2.79,-0.7 3.83,-1.83 1.03,-1.13 1.6,-2.57 1.54,-3.97 -0.06,-1.44 -0.74,-2.87 -1.86,-3.93 -1.11,-1.04 -2.53,-1.58 -3.89,-1.5 -2.76,0.17 -5.18,2.79 -5.19,5.61 0,1.43 0.62,2.87 1.69,3.97 1.06,1.06 2.43,1.65 3.78,1.65z"/>
   <path class="fil0 str0" d="M1194.39 860.45c0.03,1.06 0.87,1.89 1.9,1.89l6.79 0c0.91,0 1.68,-0.65 1.86,-1.57 0.08,-0.37 0.14,-0.78 0.21,-1.18 0.14,-0.82 0.28,-1.68 0.53,-2.43 0.24,-0.69 0.63,-1.4 1.03,-2.17 0.21,-0.39 0.42,-0.78 0.61,-1.18 0.03,-0.07 0.06,-0.13 0.09,-0.19 0.24,-0.06 0.46,-0.15 0.65,-0.31 4.13,-3 7.94,-3.02 12.03,-0.03 0.53,0.37 1.2,0.46 1.8,0.22 0.59,-0.24 1.04,-0.78 1.17,-1.42l0.57 -2.85c0.2,-1 -0.38,-1.98 -1.33,-2.26 -3.31,-0.98 -5.74,-2.61 -7.61,-5.12 -0.97,-1.3 -3.25,-1.6 -4.5,-0.97 -4.67,2.29 -5.28,6.65 -5.15,10.07 -3.46,-0.09 -6.28,0.83 -8.18,2.72 -1.68,1.68 -2.53,4.03 -2.44,6.78z"/>
   <path class="fil0 str0" d="M1213.59 873.37l6.15 3.35c0.28,0.14 0.59,0.22 0.89,0.22 0.29,0 0.6,-0.07 0.86,-0.22 0.56,-0.3 0.93,-0.85 1.01,-1.47l0.71 -5.44 6.6 -1.46c0.72,-0.15 1.29,-0.74 1.46,-1.47 0.15,-0.75 -0.11,-1.51 -0.7,-1.98l-4.61 -3.63c-0.46,-0.36 -1.04,-0.48 -1.59,-0.36 -0.56,0.14 -1.02,0.52 -1.26,1.04l-2.5 5.21c-0.03,0.07 -0.06,0.14 -0.09,0.19l-6.67 2.46c-0.71,0.26 -1.21,0.93 -1.26,1.71 -0.04,0.76 0.35,1.5 1.02,1.86z"/>
   <path class="fil0 str0" d="M1333.35 883.98c0.14,0 0.26,-0.01 0.4,-0.04 0.64,-0.15 1.17,-0.63 1.39,-1.26 1.58,-4.59 4.33,-7.47 8.64,-9.09 1.53,-0.57 2.38,-3.07 1.89,-4.53 -4.74,-14.22 -13.24,-25.32 -26,-33.93 -0.57,-0.37 -1.28,-0.43 -1.89,-0.11 -0.59,0.3 -1,0.92 -1.06,1.59 -1.35,19.15 3.64,34.44 15.26,46.76 0.36,0.39 0.85,0.6 1.36,0.6z"/>
   <path class="fil0 str0" d="M1361.68 985.06c-0.75,-1.17 -1.11,-2.86 -1.32,-4.03 -0.26,-1.41 -0.36,-2.86 -0.47,-4.39 -0.06,-0.68 -0.1,-1.36 -0.17,-2.06 -0.08,-0.89 -0.74,-1.6 -1.58,-1.74l-3.22 -0.56c-0.56,-0.09 -1.13,0.07 -1.54,0.44 -0.43,0.38 -0.68,0.92 -0.68,1.49l0 30.01c0,1.09 0.86,1.96 1.91,1.96l7.04 0c1.06,0 1.91,-0.87 1.91,-1.96 0,-1.14 0,-2.28 -0.02,-3.4 -0.02,-2.64 -0.03,-5.14 0.04,-7.68 0.06,-2.44 -0.11,-5.32 -1.89,-8.09z"/>
   <path class="fil0 str0" d="M1296.81 861.98c6.14,26.33 22.11,44.92 47.46,55.25 0.22,0.08 0.46,0.14 0.7,0.14 0.33,0 0.65,-0.1 0.94,-0.26 0.51,-0.29 0.85,-0.81 0.94,-1.39 0.14,-0.98 0.39,-2 0.62,-2.98 0.82,-3.42 1.75,-7.29 -1.14,-11.04 -0.08,-0.25 -0.24,-0.57 -0.5,-0.86 -0.18,-0.18 -0.36,-0.36 -0.53,-0.56 -0.56,-0.59 -1.14,-1.22 -1.83,-1.79 -1,-0.82 -2.01,-1.61 -3.03,-2.4 -1.25,-0.97 -2.54,-1.99 -3.76,-3.02 -0.36,-0.3 -0.72,-0.74 -1.09,-1.18 -0.43,-0.51 -0.91,-1.08 -1.5,-1.58 -13.49,-11.64 -20.53,-26.62 -20.92,-44.57 -0.04,-2.06 -0.04,-4.17 -0.03,-6.2 0,-1.78 0.01,-3.57 -0.02,-5.35 0,-0.26 -0.08,-2.68 -1.75,-3.44 -5.22,-2.46 -9.76,-3.87 -14.29,-4.46 -0.54,-0.08 -1.09,0.09 -1.5,0.47 -0.41,0.37 -0.64,0.92 -0.64,1.48 0.03,2.56 0.02,5.14 -0.01,7.65 -0.07,8.57 -0.14,17.43 1.87,26.08z"/>
   <path class="fil0 str0" d="M1371.09 903.77c-0.67,-0.26 -1.42,-0.12 -1.94,0.38 -0.43,0.39 -0.83,0.78 -1.21,1.17 -0.75,0.74 -1.4,1.37 -2.08,1.82 -2.26,1.47 -2.57,3.52 -2.56,5.31 0.06,6.96 0.06,14.03 0.04,20.87l-0.02 17.74c0,8.36 -0.01,17.03 0.03,25.54 0.02,4.67 1.86,8.92 5.07,11.68 2.43,2.09 5.39,3.17 8.56,3.17 0.82,0 1.65,-0.07 2.48,-0.22 0.99,-0.17 1.68,-1.09 1.57,-2.13l-8.74 -83.7c-0.07,-0.72 -0.54,-1.35 -1.21,-1.61z"/>
   <path class="fil0 str0" d="M1210.1 930.16c-0.85,-4.33 -1.7,-8.65 -2.56,-13l-1.21 -6.15c-0.21,-1.03 -1.14,-1.71 -2.15,-1.56l-4.68 0.74c-0.93,0.14 -1.61,0.97 -1.61,1.93l0 23.81 13.32 0c-0.36,-1.92 -0.74,-3.85 -1.11,-5.76z"/>
   <path class="fil0 str0" d="M1194.39 921.11l-0.02 -9.51c0,-0.99 -0.18,-2.36 -1.07,-3.26 -1.06,-1.06 -2.17,-2.03 -3.33,-3.06 -0.46,-0.4 -0.92,-0.8 -1.39,-1.24 -0.54,-0.47 -1.29,-0.61 -1.94,-0.33 -0.67,0.26 -1.13,0.87 -1.19,1.61l-3.2 30.6 12.15 0c0,-4.96 -0.01,-9.91 -0.01,-14.81z"/>
   <path class="fil0 str0" d="M1357.69 891.69c0.11,0.01 0.24,0.01 0.35,0.01 1.25,0 2.52,-0.51 3.54,-1.44 1.15,-1.03 1.86,-2.46 1.93,-3.91 0.08,-1.39 -0.46,-2.85 -1.47,-3.99 -1.03,-1.15 -2.42,-1.85 -3.82,-1.89 -1.36,-0.07 -2.79,0.53 -3.87,1.59 -1.1,1.07 -1.75,2.51 -1.76,3.94 -0.04,2.82 2.35,5.49 5.11,5.7z"/>
   <path class="fil0 str0" d="M1224.88 828.87l0 0c1.4,0 2.81,-0.64 3.86,-1.75 1.06,-1.11 1.64,-2.56 1.61,-3.97 -0.03,-1.44 -0.68,-2.87 -1.79,-3.94 -1.08,-1.06 -2.5,-1.62 -3.87,-1.57 -1.41,0.06 -2.81,0.76 -3.82,1.92 -1,1.14 -1.53,2.59 -1.46,3.98 0.17,2.85 2.72,5.33 5.47,5.33z"/>
   <path class="fil0 str0" d="M1199.59 880.46c-1.41,0.03 -2.81,0.69 -3.85,1.83 -1.01,1.12 -1.57,2.57 -1.51,3.98 0.11,2.83 2.63,5.36 5.37,5.42 0.03,0 0.06,0 0.08,0 1.36,0 2.74,-0.6 3.78,-1.67 1.08,-1.09 1.69,-2.53 1.69,-3.96 0,-1.43 -0.63,-2.87 -1.71,-3.96 -1.07,-1.08 -2.5,-1.71 -3.86,-1.65z"/>
   <path class="fil0 str0" d="M1344.04 930.2l1.39 -7.08c0.18,-0.93 -0.32,-1.86 -1.18,-2.21l-0.82 -0.32c-0.51,-0.21 -0.98,-0.39 -1.46,-0.57 -30.07,-11.33 -50.33,-41.04 -50.4,-73.91 0,-2.89 0,-5.79 0,-8.68 0,-2.81 0,-5.6 -0.02,-8.41 0,-0.5 -0.06,-0.94 -0.13,-1.35 -0.01,-0.14 -0.04,-0.29 -0.06,-0.43 -0.09,-0.86 -0.75,-1.56 -1.58,-1.69 -0.83,-0.14 -1.67,0.3 -2.03,1.09 -1.57,3.44 -3.32,5.74 -5.64,7.41 -1.08,0.78 -1.58,2.32 -1.53,3.43 0.11,2.18 0.17,4.42 0.22,6.57 0.13,5.25 0.25,10.69 1.18,15.96 5.69,32.28 23.64,55.58 53.33,69.28 1.39,0.64 2.83,1.15 4.22,1.64 0.64,0.24 1.31,0.47 1.96,0.72 0.22,0.08 0.44,0.13 0.67,0.13 0.32,0 0.64,-0.08 0.93,-0.25 0.47,-0.28 0.82,-0.76 0.93,-1.32z"/>
   <path class="fil0 str0" d="M1276.1 842.8c-0.64,-0.33 -1.4,-0.28 -1.98,0.15l-4.29 3.18c-0.64,0.48 -0.93,1.32 -0.72,2.11 1.63,5.97 0.29,10.78 -4.08,14.7 -0.87,0.78 -1.18,1.91 -1.39,2.74l-0.07 0.25c-6.53,23.74 -20.85,41.18 -42.53,51.86 -1.64,0.8 -3.32,1.48 -5.08,2.22 -0.82,0.33 -1.65,0.68 -2.49,1.03 -0.83,0.36 -1.31,1.28 -1.13,2.18l0.25 1.35c0.26,1.33 0.51,2.63 0.76,3.93 0.08,0.39 0.18,0.76 0.3,1.21l0.17 0.62c0.14,0.53 0.48,0.97 0.94,1.22 0.28,0.15 0.58,0.22 0.89,0.22 0.21,0 0.43,-0.03 0.63,-0.09 20.33,-7.24 36.35,-20.31 47.57,-38.83 8.72,-14.39 13.19,-30.64 13.28,-48.29 0.02,-0.74 -0.39,-1.42 -1.03,-1.75z"/>
   <path class="fil0 str0" d="M1264.81 817.64c-1.35,-0.1 -2.78,0.43 -3.89,1.44 -1.14,1.04 -1.85,2.46 -1.92,3.92 -0.07,1.4 0.47,2.86 1.49,3.98 1.03,1.15 2.42,1.83 3.83,1.88 0.04,0.01 0.1,0.01 0.14,0.01 1.33,0 2.68,-0.58 3.74,-1.61 1.08,-1.08 1.72,-2.52 1.75,-3.96 0.03,-2.82 -2.37,-5.47 -5.14,-5.67z"/>
   <path class="fil0 str0" d="M1273.51 832.57c0.31,3.97 -0.86,6.94 -3.54,9.08 -1.7,1.36 -3.57,2.04 -5.44,2.04 -1.47,0 -2.96,-0.42 -4.42,-1.27 -4.63,-2.68 -4.85,-7.41 -4.71,-9.89 -4.04,0.29 -7.02,-1 -9.06,-3.93 -2.22,-3.18 -2.35,-6.78 -0.38,-10.12 2.43,-4.14 6.38,-4.68 9.43,-4.56 -0.14,-3.19 0.4,-7.26 4.56,-9.76 3.08,-1.86 6.43,-1.76 9.42,0.25 3.04,2.07 4.4,5.19 4.15,9.54 2.87,-0.21 6.53,0.22 9.12,4 2.14,3.12 2.29,6.65 0.43,9.91 -1.94,3.39 -5.1,4.93 -9.57,4.7z"/>
   <path class="fil0 str0" d="M1271.2 817.17c-0.14,-0.19 -0.25,-0.4 -0.3,-0.62 -0.15,-0.07 -0.29,-0.14 -0.43,-0.24 -4.11,-2.97 -7.91,-2.96 -12,0.04 -0.15,0.11 -0.33,0.21 -0.51,0.26 -0.06,0.15 -0.13,0.31 -0.22,0.43 -2.89,4.26 -2.9,8.17 -0.01,12.3 0.13,0.17 0.21,0.35 0.26,0.54 0.17,0.06 0.33,0.14 0.48,0.25 4.15,3 7.83,3.02 11.96,0.04 0.19,-0.14 0.4,-0.24 0.63,-0.29 0.04,-0.15 0.11,-0.29 0.21,-0.43 2.87,-4.4 2.86,-8.3 -0.06,-12.29z"/>
   <path class="fil0 str0" d="M1383.1 1009.86l-50.07 0c-1.06,0 -1.9,0.88 -1.9,1.96l0 7.19c0,1.07 0.85,1.94 1.9,1.94l50.07 0c1.06,0 1.9,-0.87 1.9,-1.94l0 -7.19c0,-1.08 -0.85,-1.96 -1.9,-1.96z"/>
   <path class="fil0 str0" d="M1357.88 969.04c0.47,0 0.91,-0.18 1.26,-0.5 0.4,-0.38 0.64,-0.91 0.64,-1.46l0 -55c0,-0.97 -0.69,-1.79 -1.64,-1.93l-4.63 -0.67c-1,-0.14 -1.93,0.54 -2.13,1.56l-1.35 6.87c-2.61,13.31 -5.21,26.5 -7.75,39.71 -0.24,1.18 0.14,2.63 0.89,3.53 3.79,4.57 8.67,7.21 14.49,7.87 0.07,0.02 0.14,0.02 0.21,0.02z"/>
   <path class="fil0 str0" d="M1215.82 813.94c-0.18,-2.94 0.24,-6.75 3.93,-9.38 3.07,-2.19 6.5,-2.33 9.65,-0.4 3.26,2 4.76,5.2 4.54,9.75 0.21,0 0.4,0.01 0.61,0.01 0.87,0.02 1.78,0.04 2.71,0.24 4.26,0.85 4.74,2.58 4.24,6.4 -0.21,1.61 -0.17,3.3 -0.11,5.24 0.03,0.94 0.06,1.92 0.06,2.94 0,0.72 -0.37,1.39 -1,1.72 -2.82,1.56 -4.9,4.19 -6.02,7.59 -0.04,0.26 -0.12,0.75 -0.48,1.22 -1.43,1.94 -7.31,3.93 -10.74,3.93 -0.69,0 -1.29,-0.08 -1.72,-0.26 -3.94,-1.64 -6,-5.57 -5.57,-10.57 -3.58,0.61 -6.89,-0.64 -8.96,-3.49 -2.35,-3.19 -2.61,-6.68 -0.78,-10.08 2.42,-4.47 6.47,-5.03 9.64,-4.87z"/>
   <path class="fil0 str0" d="M1217.98 829.15c0.21,0.3 0.32,0.65 0.35,1 0.11,0.04 0.24,0.08 0.35,0.14 6.82,3.31 9.86,2.22 12.57,-0.6 2.7,-2.82 3.78,-6.09 0.36,-12.96 -0.01,-0.03 -0.01,-0.04 -0.03,-0.06 -0.25,-0.06 -0.48,-0.17 -0.71,-0.32 -4.06,-3 -7.86,-3.02 -11.98,-0.04 -0.15,0.11 -0.31,0.2 -0.47,0.25 -0.06,0.18 -0.14,0.35 -0.25,0.51 -2.87,4.22 -2.93,8.07 -0.18,12.07z"/>
   <path class="fil0 str0" d="M1213.2 917c16.58,-4.56 38.7,-25.29 42.26,-39.63 0.18,-0.72 -0.07,-1.48 -0.63,-1.97 -0.56,-0.48 -1.33,-0.6 -2,-0.28 -6.91,3.2 -12.53,1.76 -17.17,-4.43 -0.56,-0.74 -1.53,-0.97 -2.35,-0.57l-1.43 0.74c-1.13,0.57 -2.2,1.11 -3.28,1.64 -1.29,0.63 -6.24,8.74 -6.03,10.44 0.03,0.21 0.07,0.4 0.14,0.57 1.17,6.35 -1.98,12.31 -7.69,14.5 -2,0.78 -3.15,2.02 -3.83,4.13 -0.11,0.35 -0.4,0.81 -0.69,1.26 -0.58,0.93 -1.32,2.1 -1.25,3.5 0.11,2.17 0.6,4.24 1.07,6.25 0.18,0.79 0.36,1.57 0.53,2.36 0.1,0.53 0.42,0.99 0.86,1.26 0.3,0.2 0.65,0.29 1,0.29 0.15,0 0.32,-0.03 0.48,-0.07z"/>
   <path class="fil0 str0" d="M1184.89 818.17c0.14,0.97 0.96,1.67 1.88,1.67 0.09,0 0.18,-0.01 0.26,-0.03l3.4 -0.48c3.61,-0.52 6.94,-1 10.28,-1.5 0.48,-0.08 1.74,-0.35 2.61,-1.26 1.08,-1.15 2.14,-2.36 3.15,-3.53l1.14 -1.29c0.37,-0.42 0.54,-0.99 0.47,-1.56 -0.07,-0.56 -0.37,-1.07 -0.83,-1.37 -6.4,-4.36 -13.75,-6.29 -22.47,-5.92 -0.54,0.03 -1.04,0.28 -1.39,0.71 -0.35,0.43 -0.5,0.99 -0.41,1.54l1.91 13.03z"/>
   <path class="fil0 str0" d="M1199.04 848.02c0.08,-0.07 0.39,-0.21 0.58,-0.29 0.65,-0.29 1.53,-0.68 2.08,-1.58 0.71,-1.14 1.18,-2.35 1.65,-3.53 0.17,-0.46 0.35,-0.91 0.54,-1.37 0.24,-0.56 0.2,-1.18 -0.07,-1.71 -0.26,-0.53 -0.76,-0.9 -1.35,-1l-12.03 -2.14 0.58 -3.5 11.17 1.89c0.68,0.11 1.36,-0.15 1.78,-0.7 0.43,-0.56 0.56,-1.29 0.3,-1.94l-3.48 -9.28c-0.31,-0.79 -1.08,-1.31 -1.9,-1.24 -8.38,0.6 -16.47,3.43 -24.07,8.42 -0.83,0.54 -1.11,1.65 -0.65,2.54 3.46,6.83 8.22,11.86 14.56,15.38 1.53,0.85 3.52,1.96 5.71,1.96 1.47,0 3.03,-0.5 4.6,-1.9z"/>
   <path class="fil0 str0" d="M1208.73 895.39c0.28,4.09 -0.96,7.14 -3.78,9.29 -1.58,1.19 -3.42,1.8 -5.25,1.8 -1.6,0 -3.19,-0.46 -4.67,-1.37 -3.24,-2.03 -4.65,-5.26 -4.32,-9.9 -3.54,0.61 -6.89,-0.67 -8.94,-3.47 -2.35,-3.2 -2.63,-6.68 -0.78,-10.08 2.42,-4.47 6.46,-5.04 9.63,-4.89 -0.14,-3.22 0.42,-7.31 4.58,-9.79 3.2,-1.91 6.61,-1.75 9.64,0.44 2.93,2.12 4.21,5.25 3.89,9.53 3.52,-0.58 6.85,0.71 8.87,3.48 2.33,3.17 2.61,6.75 0.78,10.1 -1.93,3.51 -5.08,5.11 -9.65,4.86z"/>
   <path class="fil0 str0" d="M1206.59 880.19c-0.17,-0.24 -0.26,-0.5 -0.32,-0.76 -0.21,-0.07 -0.42,-0.17 -0.6,-0.29 -4.14,-2.97 -7.94,-2.96 -11.97,0.06 -0.17,0.13 -0.33,0.22 -0.51,0.28 -0.06,0.15 -0.13,0.3 -0.22,0.43 -2.87,4.22 -2.93,8.07 -0.18,12.07 0.17,0.25 0.28,0.53 0.32,0.82 0.24,0.06 0.44,0.15 0.65,0.29 4.08,2.91 7.86,2.89 11.88,-0.07 0.17,-0.13 0.35,-0.22 0.54,-0.28 0.06,-0.17 0.14,-0.33 0.24,-0.48 2.87,-4.22 2.93,-8.06 0.18,-12.06z"/>
   <path class="fil0 str0" d="M1388.53 1014.16c0,1.63 0.01,3.25 -0.02,4.87 -0.03,3.29 -2.17,5.52 -5.32,5.52 -17.14,0.03 -34.1,0.03 -50.37,0 -3,0 -5.21,-2.25 -5.26,-5.35 -0.03,-2.54 -0.03,-5.09 0,-7.56 0.06,-3.07 2.26,-5.32 5.29,-5.33 3.26,-0.03 6.53,-0.03 9.86,-0.02l4.4 0c1,0 1.83,-0.79 1.89,-1.82 0.03,-0.26 0.04,-0.5 0.06,-0.72 0.04,-0.56 0.08,-1.06 0.08,-1.56 0,-2.8 0,-5.61 0,-8.43 0,-6.61 -0.02,-13.46 0.04,-20.19 0.03,-2.41 -1.17,-3.6 -2.38,-4.63 -2.09,-1.76 -4.11,-3.75 -6.06,-5.68 -0.63,-0.61 -1.25,-1.24 -1.89,-1.85 -0.51,-0.5 -0.75,-1.1 -0.43,-2.61 0.82,-4 1.61,-8 2.4,-12.02 0.47,-2.39 0.94,-4.78 1.43,-7.17 0.19,-1 0.72,-3.64 -2.49,-4.83 -29.29,-10.9 -49.07,-32.03 -58.78,-62.75 -0.13,-0.39 -0.32,-0.64 -0.46,-0.81 -0.04,-0.06 -0.11,-0.15 -0.22,-0.29 -0.42,-0.57 -1.1,-0.85 -1.78,-0.75 -0.68,0.1 -1.25,0.57 -1.5,1.22l-0.29 0.75c-0.19,0.52 -0.37,0.96 -0.53,1.43 -9.83,29.72 -29.25,50.24 -57.71,60.98 -0.94,0.35 -1.65,0.79 -2.17,1.33l-5.14 0c-0.36,-1.92 -0.74,-3.85 -1.11,-5.76 -0.85,-4.33 -1.69,-8.67 -2.56,-13l-1.21 -6.17c-0.21,-1.01 -1.14,-1.69 -2.15,-1.54l-4.68 0.74c-0.92,0.14 -1.61,0.96 -1.61,1.93l0 23.81 -3.48 0c0,-4.97 -0.02,-9.92 -0.02,-14.81l-0.01 -9.53c0,-0.98 -0.19,-2.35 -1.07,-3.25 -1.06,-1.07 -2.17,-2.04 -3.33,-3.07 -0.46,-0.39 -0.92,-0.79 -1.41,-1.22 -0.53,-0.47 -1.28,-0.61 -1.93,-0.35 -0.67,0.26 -1.13,0.89 -1.19,1.61l-3.21 30.61 -3.53 0c0.14,-1.26 0.26,-2.53 0.4,-3.79l1.81 -17.02c0.54,-5.14 1.11,-10.46 1.59,-15.69 0.11,-1.26 -0.64,-2.56 -1.43,-3.29 -3.71,-3.44 -5.35,-8 -4.53,-12.52 0.8,-4.42 3.85,-7.97 8.36,-9.75 1.57,-0.61 6.43,-8.65 6.28,-10.38 -0.04,-0.46 -0.1,-0.91 -0.15,-1.37 -0.11,-1.04 -0.22,-2.01 -0.19,-2.93 0.03,-0.81 0.22,-1.67 0.43,-2.68 0.11,-0.52 0.22,-1.06 0.32,-1.63 0.17,-0.92 -0.33,-1.83 -1.18,-2.18 -8.99,-3.57 -15.57,-10.4 -21.83,-22.71l12.58 -7.98c0.79,-0.5 1.11,-1.5 0.76,-2.39 -2.1,-5.39 -2.03,-11.33 -1.94,-17.63 0.02,-0.86 0.03,-1.7 0.03,-2.57 9.91,-0.65 21.1,-0.02 30.79,7.64 0.43,0.33 0.99,0.47 1.52,0.36 0.54,-0.1 1,-0.44 1.28,-0.93 2.1,-3.65 4.61,-5.79 7.94,-6.74 6.04,-1.7 12.41,1.42 14.76,7.28 0.72,1.78 1.83,3.72 4.57,4.57 0.51,0.15 1.08,0.54 1.69,0.93 0.33,0.22 0.67,0.44 1,0.64 0.53,0.31 1.18,0.33 1.74,0.07l1.41 -0.67c1.28,-0.6 2.59,-1.22 3.89,-1.89 0.97,-0.5 1.59,-1.5 1.82,-2.28 1.58,-4.9 5.4,-8.25 10.23,-8.97 4.77,-0.69 9.42,1.38 12.15,5.43 1.04,1.54 3.26,1.78 3.92,1.82 2.26,0.13 4.57,0.18 6.79,0.24 4.08,0.11 8.29,0.21 12.32,0.78 19.04,2.67 35.44,11.75 48.75,26.97 6.48,7.42 11.6,16.13 15.21,25.89 0.47,1.31 1.5,2.58 2.76,3.46 2.51,1.72 4.28,3.97 5.39,6.85 0.5,1.29 1.68,2.48 2.94,2.98 4.47,1.79 7.5,5.39 8.3,9.89 0.8,4.53 -0.81,9 -4.42,12.31 -0.97,0.89 -1.57,2.54 -1.44,3.93 1.24,12.5 2.61,26.08 4.24,41.53 0.8,7.68 1.63,15.36 2.44,23.04 0.64,5.91 1.26,11.83 1.89,17.75 0.36,3.33 0.68,6.65 1.02,10.07l0.25 2.59c-1.12,0 -2.23,0.02 -3.32,0.04 -4.26,0.1 -8.3,0.18 -12.11,-1.67 -0.58,-0.29 -1.28,-0.25 -1.82,0.11 -0.56,0.36 -0.89,0.98 -0.89,1.65l0 9.24c0,1.08 0.85,1.96 1.91,1.96l4.19 0c3.11,0 6.19,0 9.29,0 4.22,0 6.11,1.94 6.13,6.29l0 1.57z"/>
   <path class="fil0 str0" d="M1372.3 905.39c-0.07,-0.72 -0.54,-1.35 -1.2,-1.61 -0.67,-0.26 -1.42,-0.13 -1.96,0.36 -0.42,0.4 -0.82,0.79 -1.21,1.18 -0.74,0.74 -1.39,1.37 -2.07,1.82 -2.26,1.47 -2.57,3.5 -2.56,5.3 0.06,6.94 0.04,14.03 0.04,20.88l-0.01 17.74c0,8.36 -0.02,17.01 0.03,25.53 0.01,4.67 1.86,8.93 5.07,11.69 2.42,2.08 5.39,3.17 8.54,3.17 0.83,0 1.67,-0.07 2.5,-0.22 0.98,-0.18 1.68,-1.11 1.57,-2.13l-8.74 -83.71z"/>
   <path class="fil0 str0" d="M1363.57 993.16c0.06,-2.44 -0.11,-5.32 -1.89,-8.1 -0.74,-1.18 -1.11,-2.87 -1.32,-4.04 -0.25,-1.41 -0.36,-2.85 -0.47,-4.39 -0.04,-0.68 -0.1,-1.36 -0.17,-2.04 -0.08,-0.89 -0.72,-1.61 -1.58,-1.75l-3.22 -0.54c-0.56,-0.09 -1.11,0.07 -1.54,0.44 -0.43,0.36 -0.67,0.91 -0.67,1.49l0 30.01c0,1.07 0.85,1.94 1.9,1.94l7.03 0c1.06,0 1.9,-0.87 1.9,-1.94 0,-1.15 0,-2.28 -0.02,-3.4 -0.01,-2.65 -0.01,-5.14 0.04,-7.68z"/>
   <path class="fil0 str0" d="M1294.94 835.89c-0.07,8.57 -0.15,17.43 1.87,26.08 6.14,26.33 22.09,44.92 47.46,55.25 0.22,0.08 0.46,0.14 0.7,0.14 0.33,0 0.65,-0.1 0.94,-0.26 0.5,-0.29 0.85,-0.81 0.93,-1.39 0.15,-0.98 0.4,-2 0.64,-2.98 0.82,-3.42 1.75,-7.29 -1.15,-11.04 -0.07,-0.25 -0.22,-0.57 -0.5,-0.86 -0.18,-0.18 -0.35,-0.36 -0.51,-0.56 -0.57,-0.59 -1.15,-1.22 -1.85,-1.79 -1,-0.82 -2.02,-1.61 -3.03,-2.4 -1.24,-0.97 -2.53,-1.99 -3.75,-3.02 -0.36,-0.3 -0.72,-0.72 -1.1,-1.18 -0.43,-0.5 -0.92,-1.08 -1.5,-1.58 -13.5,-11.62 -20.53,-26.62 -20.92,-44.57 -0.06,-2.06 -0.04,-4.17 -0.03,-6.2 0,-1.78 0,-3.56 -0.01,-5.35 -0.02,-0.26 -0.1,-2.68 -1.75,-3.44 -5.24,-2.46 -9.78,-3.87 -14.29,-4.46 -0.54,-0.08 -1.09,0.09 -1.5,0.47 -0.42,0.37 -0.65,0.92 -0.64,1.48 0.03,2.56 0,5.14 -0.01,7.65z"/>
   <path class="fil0 str0" d="M1331.99 883.39c0.36,0.39 0.86,0.59 1.36,0.59 0.14,0 0.28,-0.01 0.4,-0.04 0.65,-0.15 1.18,-0.63 1.39,-1.26 1.59,-4.6 4.33,-7.49 8.64,-9.09 1.53,-0.57 2.37,-3.07 1.9,-4.53 -4.75,-14.22 -13.25,-25.32 -26.01,-33.93 -0.56,-0.39 -1.28,-0.43 -1.88,-0.13 -0.61,0.31 -1.01,0.92 -1.06,1.61 -1.36,19.15 3.63,34.44 15.25,46.76z"/>
   <path class="fil0 str0" d="M1283.64 813.37c0.32,0.43 0.64,0.81 0.94,1.17 0.32,0.37 0.72,0.85 0.78,1.04 1.49,5.32 5.6,6 9.22,6.58l0.14 0.03c24.24,3.94 41.82,17.51 52.29,40.33 0.21,0.46 0.44,0.83 0.63,1.11l0.13 0.18c0.35,0.6 0.97,0.94 1.61,0.94 0.25,0 0.5,-0.06 0.74,-0.15l6.42 -2.75c0.47,-0.2 0.85,-0.58 1.04,-1.07 0.18,-0.47 0.18,-1.01 -0.01,-1.5 -6.91,-16.65 -18,-29.59 -32.97,-38.48 -11.94,-7.08 -24.83,-10.54 -39.43,-10.57l0 0c-0.72,0 -1.37,0.43 -1.69,1.08 -0.33,0.67 -0.25,1.46 0.18,2.06z"/>
   <path class="fil0 str0" d="M1182.98 805.13l1.92 13.03c0.14,0.97 0.94,1.67 1.87,1.67 0.08,0 0.18,0 0.26,-0.02l3.4 -0.48c3.61,-0.53 6.94,-1 10.28,-1.52 0.48,-0.07 1.72,-0.35 2.59,-1.26 1.1,-1.14 2.15,-2.35 3.17,-3.51l1.14 -1.29c0.36,-0.43 0.54,-1 0.47,-1.56 -0.07,-0.57 -0.37,-1.07 -0.83,-1.39 -6.4,-4.35 -13.75,-6.29 -22.47,-5.91 -0.54,0.02 -1.04,0.28 -1.39,0.71 -0.35,0.42 -0.5,0.99 -0.42,1.53z"/>
   <path class="fil0 str0" d="M1194.44 849.93c1.47,0 3.03,-0.5 4.6,-1.9 0.08,-0.08 0.39,-0.21 0.58,-0.31 0.64,-0.28 1.53,-0.68 2.08,-1.57 0.71,-1.14 1.18,-2.36 1.64,-3.54 0.18,-0.44 0.36,-0.9 0.56,-1.36 0.24,-0.56 0.21,-1.18 -0.07,-1.71 -0.28,-0.53 -0.78,-0.9 -1.35,-1l-12.04 -2.14 0.6 -3.51 11.17 1.89c0.68,0.13 1.35,-0.15 1.78,-0.69 0.43,-0.54 0.54,-1.28 0.3,-1.93l-3.48 -9.28c-0.31,-0.79 -1.1,-1.31 -1.92,-1.24 -8.36,0.6 -16.46,3.43 -24.06,8.42 -0.83,0.54 -1.13,1.65 -0.67,2.54 3.47,6.82 8.22,11.85 14.56,15.38 1.53,0.85 3.53,1.96 5.72,1.96z"/>
   <path class="fil0 str0" d="M1211.72 916.77c0.31,0.19 0.65,0.29 1,0.29 0.17,0 0.33,-0.03 0.48,-0.07 16.59,-4.56 38.7,-25.28 42.27,-39.61 0.18,-0.74 -0.07,-1.5 -0.63,-1.98 -0.56,-0.49 -1.33,-0.6 -2,-0.28 -6.92,3.21 -12.53,1.76 -17.17,-4.43 -0.54,-0.74 -1.53,-0.97 -2.35,-0.56l-1.43 0.72c-1.13,0.57 -2.2,1.11 -3.28,1.64 -1.29,0.64 -6.22,8.75 -6.03,10.44 0.03,0.21 0.08,0.41 0.14,0.57 1.18,6.35 -1.99,12.31 -7.7,14.51 -2,0.77 -3.15,2 -3.83,4.11 -0.11,0.35 -0.4,0.82 -0.69,1.26 -0.58,0.94 -1.32,2.11 -1.25,3.5 0.11,2.17 0.59,4.24 1.07,6.25 0.18,0.79 0.36,1.57 0.53,2.36 0.1,0.53 0.42,0.98 0.86,1.26z"/>
   <path class="fil0 str0" d="M1277.13 844.54c0,-0.74 -0.39,-1.42 -1.03,-1.75 -0.64,-0.33 -1.4,-0.28 -1.98,0.15l-4.29 3.19c-0.65,0.47 -0.93,1.32 -0.72,2.1 1.63,5.97 0.29,10.78 -4.08,14.7 -0.87,0.78 -1.18,1.91 -1.4,2.75l-0.07 0.25c-6.53,23.72 -20.83,41.18 -42.53,51.85 -1.63,0.8 -3.31,1.5 -5.07,2.22 -0.83,0.35 -1.65,0.68 -2.48,1.04 -0.83,0.36 -1.31,1.26 -1.13,2.18l0.25 1.33c0.25,1.33 0.5,2.64 0.76,3.93 0.07,0.39 0.18,0.76 0.3,1.21l0.17 0.62c0.14,0.53 0.47,0.97 0.94,1.22 0.28,0.15 0.59,0.24 0.89,0.24 0.21,0 0.42,-0.04 0.63,-0.11 20.33,-7.24 36.33,-20.3 47.57,-38.82 8.72,-14.4 13.19,-30.65 13.28,-48.3z"/>
   <path class="fil0 str0" d="M1343.1 931.52c0.49,-0.28 0.83,-0.76 0.93,-1.32l1.4 -7.08c0.18,-0.93 -0.32,-1.86 -1.19,-2.21l-0.81 -0.32c-0.53,-0.21 -0.98,-0.39 -1.46,-0.57 -30.08,-11.33 -50.33,-41.03 -50.41,-73.91 -0.01,-2.89 -0.01,-5.79 -0.01,-8.68 0,-2.81 0,-5.6 0,-8.41 0,-0.5 -0.07,-0.94 -0.13,-1.35 -0.03,-0.14 -0.04,-0.28 -0.06,-0.43 -0.11,-0.86 -0.75,-1.56 -1.58,-1.69 -0.85,-0.14 -1.67,0.3 -2.03,1.09 -1.58,3.44 -3.32,5.74 -5.65,7.41 -1.07,0.78 -1.57,2.32 -1.52,3.43 0.11,2.18 0.15,4.42 0.21,6.57 0.13,5.26 0.26,10.69 1.2,15.97 5.68,32.27 23.62,55.57 53.33,69.27 1.38,0.64 2.82,1.15 4.21,1.64 0.65,0.24 1.31,0.47 1.97,0.72 0.21,0.08 0.43,0.13 0.65,0.13 0.32,0 0.64,-0.08 0.93,-0.25z"/>
   <path class="fil0 str0" d="M1357.67 969.03c0.07,0.01 0.14,0.01 0.21,0.01 0.47,0 0.92,-0.18 1.26,-0.5 0.41,-0.37 0.64,-0.9 0.64,-1.46l0 -55c0,-0.97 -0.7,-1.79 -1.64,-1.93l-4.62 -0.67c-1,-0.14 -1.93,0.53 -2.13,1.54l-1.35 6.89c-2.61,13.29 -5.21,26.5 -7.75,39.71 -0.24,1.18 0.14,2.62 0.89,3.53 3.79,4.56 8.67,7.21 14.48,7.87z"/>
   <path class="fil0 str0" d="M1385 1011.81c0,-1.08 -0.85,-1.96 -1.9,-1.96l-50.07 0c-1.06,0 -1.9,0.87 -1.9,1.96l0 7.2c0,1.08 0.85,1.96 1.9,1.96l50.07 0c1.06,0 1.9,-0.87 1.9,-1.96l0 -7.2z"/>
   <path class="fil0 str0" d="M1239.74 846.63c0.1,-0.15 0.18,-0.3 0.24,-0.47 0.18,-0.06 0.36,-0.15 0.53,-0.28 3.78,-2.82 7.42,-2.97 11.47,-0.47 0.54,0.33 1.21,0.36 1.76,0.1 -0.32,0.61 -0.31,1.36 0.07,1.97 2.33,3.8 2.17,7.5 -0.5,11.36 -0.13,0.2 -0.22,0.39 -0.28,0.61 -0.21,0.06 -0.42,0.15 -0.6,0.3 -4.03,2.97 -7.82,2.98 -11.91,0.07 -0.15,-0.11 -0.32,-0.19 -0.49,-0.25 -0.06,-0.21 -0.15,-0.41 -0.28,-0.59 -2.92,-4.18 -2.92,-8.11 -0.02,-12.35z"/>
   <path class="fil0 str0" d="M1241.01 853.13c0.18,2.83 2.72,5.31 5.46,5.31l0.03 0c1.39,0 2.81,-0.65 3.86,-1.76 1.04,-1.11 1.63,-2.56 1.58,-3.97 -0.03,-1.44 -0.69,-2.89 -1.8,-3.94 -1.09,-1.06 -2.5,-1.61 -3.88,-1.56 -1.4,0.07 -2.8,0.78 -3.82,1.94 -1,1.14 -1.51,2.58 -1.43,3.98z"/>
   <path class="fil0 str0" d="M1271.2 817.17c2.92,3.99 2.93,7.89 0.06,12.29 -0.1,0.14 -0.17,0.28 -0.21,0.43 -0.22,0.06 -0.43,0.15 -0.63,0.29 -4.13,2.97 -7.81,2.96 -11.96,-0.04 -0.15,-0.11 -0.32,-0.19 -0.48,-0.25 -0.06,-0.2 -0.14,-0.38 -0.26,-0.54 -2.89,-4.14 -2.87,-8.04 0.01,-12.3 0.1,-0.13 0.17,-0.28 0.22,-0.43 0.18,-0.06 0.36,-0.15 0.51,-0.26 4.09,-3 7.89,-3.01 12,-0.04 0.14,0.09 0.28,0.17 0.43,0.24 0.06,0.22 0.17,0.43 0.3,0.62z"/>
   <path class="fil0 str0" d="M1269.94 823.31c0.03,-2.82 -2.36,-5.47 -5.14,-5.67 -1.35,-0.1 -2.77,0.42 -3.89,1.43 -1.14,1.04 -1.83,2.47 -1.92,3.93 -0.07,1.4 0.47,2.85 1.48,3.98 1.03,1.15 2.43,1.83 3.83,1.87 0.06,0 0.1,0 0.15,0 1.32,0 2.68,-0.57 3.72,-1.59 1.1,-1.09 1.74,-2.53 1.75,-3.96z"/>
   <path class="fil0 str0" d="M1352.08 879.13c4.13,-2.97 7.82,-2.96 11.97,0.06 0.35,0.25 0.75,0.37 1.17,0.36 0.19,0.72 0.42,1.43 0.63,2.11 0.5,1.57 0.96,3.04 0.96,4.38 -0.01,1.42 -0.48,2.93 -0.98,4.54 -0.24,0.72 -0.47,1.49 -0.67,2.25 -0.47,-0.07 -0.97,0.04 -1.36,0.33 -3.92,2.83 -7.65,2.78 -11.75,-0.18 -0.24,-0.17 -0.48,-0.26 -0.75,-0.32 -0.02,-0.03 -0.03,-0.07 -0.04,-0.11 -2.87,-6.33 -2.87,-7.29 0.04,-12.89 0.04,-0.07 0.07,-0.14 0.09,-0.22 0.25,-0.04 0.49,-0.15 0.7,-0.31z"/>
   <path class="fil0 str0" d="M1352.57 886c-0.04,2.82 2.35,5.47 5.11,5.7 0.11,0 0.24,0 0.35,0 1.25,0 2.53,-0.52 3.54,-1.43 1.15,-1.04 1.86,-2.47 1.93,-3.92 0.08,-1.4 -0.46,-2.85 -1.46,-3.98 -1.04,-1.15 -2.43,-1.85 -3.83,-1.9 -1.36,-0.07 -2.79,0.53 -3.88,1.58 -1.09,1.08 -1.74,2.51 -1.76,3.96z"/>
   <path class="fil0 str0" d="M1217.98 829.15c-2.75,-4 -2.69,-7.85 0.18,-12.07 0.11,-0.17 0.2,-0.33 0.25,-0.51 0.17,-0.06 0.32,-0.14 0.47,-0.25 4.12,-2.97 7.93,-2.96 11.98,0.04 0.22,0.15 0.46,0.26 0.71,0.32 0.02,0.01 0.02,0.03 0.03,0.06 3.42,6.86 2.33,10.14 -0.36,12.96 -2.71,2.82 -5.75,3.91 -12.57,0.6 -0.11,-0.06 -0.24,-0.1 -0.35,-0.14 -0.03,-0.35 -0.14,-0.7 -0.35,-1z"/>
   <path class="fil0 str0" d="M1219.42 823.54c0.17,2.83 2.72,5.33 5.47,5.33l0 0c1.39,0 2.79,-0.64 3.85,-1.75 1.06,-1.11 1.65,-2.56 1.61,-3.97 -0.03,-1.44 -0.68,-2.89 -1.78,-3.96 -1.1,-1.04 -2.5,-1.61 -3.88,-1.56 -1.41,0.06 -2.8,0.75 -3.83,1.92 -1,1.14 -1.53,2.58 -1.44,3.98z"/>
   <path class="fil0 str0" d="M1206.59 880.19c2.75,4 2.69,7.83 -0.18,12.06 -0.1,0.15 -0.18,0.32 -0.24,0.48 -0.19,0.06 -0.37,0.15 -0.54,0.28 -4.02,2.96 -7.8,2.98 -11.88,0.07 -0.21,-0.14 -0.42,-0.24 -0.65,-0.29 -0.04,-0.3 -0.15,-0.57 -0.32,-0.82 -2.75,-4 -2.69,-7.85 0.18,-12.07 0.1,-0.14 0.17,-0.28 0.22,-0.43 0.18,-0.06 0.35,-0.15 0.51,-0.28 4.03,-3.02 7.83,-3.03 11.97,-0.06 0.18,0.13 0.39,0.22 0.6,0.29 0.06,0.26 0.15,0.53 0.32,0.76z"/>
   <path class="fil0 str0" d="M1205.16 886.07c0,-1.43 -0.63,-2.87 -1.71,-3.96 -1.07,-1.08 -2.52,-1.71 -3.86,-1.65 -1.4,0.03 -2.8,0.71 -3.85,1.83 -1.01,1.13 -1.58,2.57 -1.53,3.99 0.13,2.83 2.64,5.37 5.39,5.42 0.03,0 0.06,0 0.08,0 1.36,0 2.72,-0.6 3.78,-1.67 1.09,-1.08 1.7,-2.53 1.7,-3.96z"/>
   <path class="fil1" d="M300.76 632.96c-30.17,30.17 -30.17,79.59 0,109.75l84.54 84.56 -84.54 84.54c-30.17,30.17 -30.17,79.58 0,109.75 30.15,30.15 79.58,30.15 109.75,0l105.85 -105.86c48.63,-48.63 48.63,-128.25 0,-176.88l-105.85 -105.86c-15.08,-15.09 -34.98,-22.61 -54.87,-22.61 -19.9,0 -39.79,7.53 -54.87,22.61z"/>
   <path class="fil2" d="M545.77 632.96c-30.32,30.32 -30.32,79.44 0,109.75 30.29,30.32 79.43,30.32 109.75,0 25,-25 29.28,-63.25 12.82,-92.78 -17.03,0.39 -34.85,-0.76 -53.46,-3.59 -21.9,-2.19 -43.78,-8.19 -64.74,-17.43 -1.5,1.28 -2.96,2.63 -4.37,4.04z"/>
   <g>
    <path class="fil3" d="M545.77 742.71c30.29,30.32 79.43,30.32 109.75,0 8.46,-8.46 14.56,-18.44 18.26,-29.1 -47.24,-23.29 -96.61,-39.18 -147.15,-49.18 -8.43,26.72 -2.06,57.09 19.14,78.28z"/>
   </g>
   <path class="fil4" d="M545.78 632.96c19.99,11.12 41.16,18.65 63.56,20.89 21.76,3.3 42.54,4.15 62.35,2.86 -3.75,-8.63 -9.14,-16.71 -16.17,-23.74 -15.1,-15.09 -34.99,-22.61 -54.89,-22.61 -19.89,0 -39.79,7.52 -54.85,22.61z"/>
   <path class="fil5" d="M391.5 652.44c0,100.72 27.89,178.35 83.68,232.89 12.3,12.02 25.44,22.7 39.5,32.06l1.68 -1.68c48.63,-48.63 48.63,-128.25 0,-176.88l-105.85 -105.86c-5.74,-5.72 -12.17,-10.36 -19.01,-13.92l0 33.39z"/>
   <path class="fil6" d="M300.76 911.81c-30.17,30.17 -30.17,79.58 0,109.75 28.57,28.57 74.43,30.07 104.82,4.52 0.67,-61.15 -12.14,-123.46 -35.08,-184l-69.74 69.74z"/>
   <path class="fil7" d="M938.06 840.41c0,-7.12 -1.78,-12.64 -5.35,-16.51 -3.57,-3.88 -9,-5.82 -16.3,-5.82 -7.32,0 -12.74,1.94 -16.25,5.82 -3.51,3.87 -5.28,9.39 -5.28,16.51l0 9.61 43.18 0 0 -9.61zm0 51.85l0 -26.53 -43.18 0 0 26.53 -16.92 0 0 -51.85c0,-5.96 0.83,-11.3 2.5,-16.04 1.67,-4.74 4.12,-8.75 7.37,-12.04 3.25,-3.31 7.29,-5.85 12.11,-7.65 4.83,-1.8 10.36,-2.71 16.58,-2.71 6.24,0 11.76,0.91 16.59,2.71 4.83,1.81 8.89,4.35 12.18,7.65 3.31,3.29 5.81,7.31 7.52,12.04 1.72,4.74 2.58,10.08 2.58,16.04l0 51.85 -17.33 0zm-92.46 -60.37c-2.35,-4.33 -5.72,-7.72 -10.14,-10.15 -4.43,-2.43 -9.49,-3.65 -15.17,-3.65 -4.43,0 -8.44,0.75 -12.06,2.24 -3.59,1.48 -6.69,3.56 -9.26,6.22 -2.57,2.67 -4.58,5.82 -6.03,9.47 -1.44,3.65 -2.17,7.65 -2.17,11.98 0,4.33 0.72,8.32 2.17,11.97 1.44,3.65 3.46,6.85 6.03,9.54 2.57,2.71 5.67,4.81 9.26,6.31 3.61,1.48 7.63,2.22 12.06,2.22 7.04,0 12.97,-1.57 17.79,-4.74 4.83,-3.15 8.28,-7.63 10.36,-13.4l0 -0.26 -33.57 0 0 -15.43 52.39 0 0 8.25c-0.54,6.06 -2.06,11.63 -4.54,16.72 -2.49,5.1 -5.79,9.47 -9.94,13.13 -4.15,3.67 -8.99,6.53 -14.49,8.6 -5.5,2.08 -11.5,3.11 -18,3.11 -6.96,0 -13.29,-1.14 -19.03,-3.44 -5.72,-2.31 -10.68,-5.5 -14.89,-9.61 -4.2,-4.11 -7.44,-8.96 -9.74,-14.56 -2.31,-5.6 -3.46,-11.72 -3.46,-18.41 0,-6.58 1.15,-12.7 3.46,-18.35 2.29,-5.64 5.54,-10.51 9.74,-14.61 4.2,-4.11 9.17,-7.32 14.89,-9.61 5.74,-2.31 12.07,-3.46 19.03,-3.46 5.42,0 10.49,0.72 15.22,2.17 4.74,1.44 9.03,3.47 12.86,6.09 3.83,2.61 7.15,5.75 9.96,9.41 2.79,3.65 4.96,7.74 6.48,12.25l-19.22 0zm-100.85 -28.15l16.93 0 0 53.33c0,5.68 -0.82,10.81 -2.44,15.36 -1.62,4.56 -4.01,8.44 -7.17,11.64 -3.17,3.21 -7.04,5.67 -11.64,7.37 -4.61,1.72 -9.89,2.57 -15.85,2.57 -6.04,0 -11.41,-0.85 -16.11,-2.57 -4.68,-1.71 -8.61,-4.17 -11.76,-7.37 -3.17,-3.19 -5.58,-7.08 -7.25,-11.64 -1.67,-4.56 -2.5,-9.68 -2.5,-15.36l0 -53.33 17.32 0 0 53.33c0,6.58 1.68,11.74 5.01,15.43 3.33,3.7 8.39,5.54 15.15,5.54 6.86,0 11.96,-1.85 15.31,-5.54 3.33,-3.69 5,-8.85 5,-15.43l0 -53.33zm-117.35 88.53l0 -37.36 -33.85 -51.17 20.44 0 21.79 35.46 0.26 0 22.07 -35.46 20.03 0 -33.43 50.76 0 37.76 -17.32 0z"/>
   <path class="fil8" d="M1323.91 995.76l0 -0.3c-0.08,-6.24 -2.62,-10.87 -7.59,-13.93 -5.06,-3.11 -12.2,-4.67 -21.42,-4.67 -3.2,0 -8.03,0.22 -14.5,0.67 -2.67,0.26 -4.75,0.41 -6.25,0.41 -1.51,0 -2.74,-0.36 -3.67,-1.07 -0.94,-0.71 -1.4,-1.68 -1.4,-2.92 0,-1.61 1.11,-3.01 3.32,-4.26 2.22,-1.24 4.89,-1.87 8,-1.87 4.43,0 8.85,0.56 13.24,1.67 4.39,1.11 9.11,3 14.17,5.65l15.31 -15.43c-5.5,-4 -11.82,-6.99 -18.96,-8.99 -7.14,-1.98 -14.22,-2.98 -21.24,-2.98 -14.28,0 -25.09,2.15 -32.46,6.46 -7.36,4.29 -11.06,10.36 -11.06,18.15 0,6.74 2.47,11.61 7.39,14.58 4.93,2.96 11.35,4.44 19.24,4.44 4.87,0 9.62,-0.26 14.24,-0.81 0.89,-0.08 2.06,-0.17 3.51,-0.25 1.47,-0.1 2.78,-0.14 3.93,-0.14 1.86,0 3.32,0.39 4.41,1.19 1.06,0.81 1.58,1.92 1.58,3.33 0,1.76 -1.08,3.21 -3.25,4.32 -2.17,1.11 -5.26,1.67 -9.25,1.67 -4.17,0 -9.14,-0.82 -14.92,-2.47 -5.75,-1.64 -10.68,-3.92 -14.75,-6.85l-13.99 19.03c6.74,4.26 13.96,7.43 21.63,9.52 7.68,2.08 15.25,3.14 22.69,3.14 13.13,0 23.42,-2.15 30.86,-6.47 7.46,-4.29 11.19,-11.24 11.19,-20.82zm-304.72 -84.49l-0.51 0c-5.45,0.04 -9.52,1.48 -12.18,4.26 -2.71,2.83 -4.06,6.42 -4.06,10.78 0,4.43 1.35,8.01 4.06,10.76 2.7,2.75 6.86,4.13 12.44,4.13 5.5,0 9.63,-1.38 12.38,-4.13 2.74,-2.75 4.12,-6.33 4.12,-10.76 0,-4.26 -1.41,-7.83 -4.26,-10.72 -2.79,-2.83 -6.79,-4.27 -11.99,-4.32zm-58.79 6.92c0,4.44 0.17,12.07 0.53,22.89 0.35,11.18 0.53,19.29 0.53,24.35 -2.39,-6.03 -6.06,-10.48 -10.97,-13.36 -4.93,-2.89 -10.83,-4.33 -17.76,-4.33 -5.94,0 -11.24,1.79 -15.9,5.39 -4.65,3.59 -8.28,8.33 -10.85,14.24 -2.56,5.91 -3.85,12.18 -3.85,18.83 0,6.74 1.29,12.92 3.85,18.56 2.57,5.64 6.18,10.08 10.79,13.37 4.61,3.28 9.79,4.93 15.56,4.93 6.65,0 12.42,-1.4 17.3,-4.21 4.88,-2.78 8.6,-7.15 11.17,-13.1l-0.39 15.96 30.07 0c-0.54,-16.67 -0.81,-33.92 -0.81,-51.76 0,-17.99 0.26,-35.24 0.81,-51.75l-30.07 0zm-24.22 78.25c-2.48,-2.85 -3.72,-6.53 -3.72,-11.06 0,-4.07 1.35,-7.39 4.06,-9.91 2.71,-2.53 6.06,-3.78 10.04,-3.78 4.18,0 7.62,1.11 10.37,3.32 2.75,2.21 4.13,5.68 4.13,10.37 0,5.32 -1.38,9.2 -4.13,11.65 -2.75,2.43 -6.29,3.65 -10.64,3.65 -4.25,0 -7.64,-1.42 -10.11,-4.25zm-73.44 -78.25c0,4.44 0.17,12.07 0.54,22.89 0.35,11.18 0.52,19.29 0.52,24.35 -2.39,-6.03 -6.04,-10.48 -10.97,-13.36 -4.92,-2.89 -10.83,-4.33 -17.76,-4.33 -5.93,0 -11.24,1.79 -15.91,5.39 -4.65,3.59 -8.26,8.33 -10.85,14.24 -2.56,5.91 -3.85,12.18 -3.85,18.83 0,6.74 1.29,12.92 3.85,18.56 2.58,5.64 6.18,10.08 10.79,13.37 4.61,3.28 9.81,4.93 15.56,4.93 6.65,0 12.43,-1.4 17.31,-4.21 4.87,-2.78 8.6,-7.15 11.18,-13.1l-0.4 15.96 30.07 0c-0.53,-16.67 -0.79,-33.92 -0.79,-51.76 0,-17.99 0.26,-35.24 0.79,-51.75l-30.07 0zm-24.21 78.25c-2.5,-2.85 -3.74,-6.53 -3.74,-11.06 0,-4.07 1.36,-7.39 4.06,-9.91 2.71,-2.53 6.06,-3.78 10.06,-3.78 4.17,0 7.63,1.11 10.37,3.32 2.75,2.21 4.13,5.68 4.13,10.37 0,5.32 -1.37,9.2 -4.13,11.65 -2.75,2.43 -6.3,3.65 -10.64,3.65 -4.26,0 -7.64,-1.42 -10.11,-4.25zm316 -43.78c-4.63,3.28 -8.21,7.74 -10.78,13.36 -2.58,5.64 -3.86,11.82 -3.86,18.56 0,6.58 1.28,12.58 3.86,18.04 2.57,5.46 6.18,9.78 10.85,12.97 4.65,3.2 9.94,4.79 15.91,4.79 14.64,0 24.2,-6.3 28.74,-18.9 0.08,1.43 0.11,2.58 0.06,3.47 -0.03,0.87 -0.06,1.6 -0.06,2.13 -0.09,0.79 -0.14,2.13 -0.14,4 0,12.75 -7.54,19.14 -22.61,19.14 -4.61,0 -9.06,-0.6 -13.32,-1.78 -4.25,-1.21 -8.76,-3.18 -13.57,-5.93l-5.98 20.36c3.46,4.08 8.53,7.33 15.17,9.78 6.65,2.43 14.2,3.67 22.63,3.67 8.51,0 16.24,-1.54 23.15,-4.61 6.92,-3.04 12.47,-7.96 16.71,-14.7 4.19,-6.74 6.3,-15.39 6.3,-25.93 0,-26.79 0.22,-47.47 0.67,-62.02l-25.54 0 -3.32 14.5c-4.53,-10.56 -14.29,-15.83 -29.28,-15.83 -5.78,0 -10.96,1.64 -15.57,4.93zm19.75 42.64c-2.71,-2.53 -4.06,-5.83 -4.06,-9.92 0,-4.53 1.25,-8.19 3.72,-11.04 2.49,-2.83 5.86,-4.26 10.11,-4.26 4.89,0 8.57,1.18 11.06,3.53 2.47,2.35 3.72,6.28 3.72,11.78 0,3.11 -0.8,5.7 -2.4,7.8 -1.58,2.08 -3.5,3.58 -5.71,4.51 -2.22,0.93 -4.35,1.4 -6.39,1.4 -4,0 -7.35,-1.28 -10.06,-3.79zm-86.54 -42.46c-4.35,3.43 -7.54,8.68 -9.59,15.78l-3.86 -19.56c-5.68,0.25 -10.15,0.39 -13.43,0.39 -3.11,0 -7.58,-0.14 -13.44,-0.39 0.71,12.94 1.07,25.1 1.07,36.46 0,11.35 -0.36,23.42 -1.07,36.18l31.81 0c-0.36,-7.18 -0.54,-13.78 -0.54,-19.82 0,-2.83 0.1,-7.62 0.26,-14.37 0.36,-4.51 1.56,-8.08 3.6,-10.69 2.04,-2.63 4.52,-3.94 7.46,-3.94 2.91,0 5.33,1.17 7.25,3.46 1.9,2.32 2.86,5.42 2.86,9.32 0,11 -0.28,23.03 -0.81,36.06l29.94 0c-0.46,-7.1 -0.67,-16.53 -0.67,-28.33l0 -19.17c0,-4.96 -1,-9.44 -3,-13.43 -2,-3.98 -4.94,-7.17 -8.85,-9.51 -3.91,-2.35 -8.52,-3.53 -13.83,-3.53 -5.76,0 -10.83,1.71 -15.17,5.11zm-368.96 5.26c-7.19,6.93 -10.78,15.93 -10.78,27.01 0,11.35 3.61,20.52 10.83,27.47 7.22,6.97 18.39,10.46 33.46,10.46 11.62,0 21.06,-1.86 28.28,-5.53 7.22,-3.7 12.22,-8.63 14.97,-14.83 -9.85,-3.37 -17.75,-6.53 -23.68,-9.46 -1.94,2.67 -4.57,4.72 -7.85,6.19 -3.29,1.46 -6.79,2.19 -10.51,2.19 -5.15,0 -9.11,-1.22 -11.92,-3.67 -2.79,-2.43 -4.54,-5.61 -5.25,-9.51l43.37 0 16.5 0c0.18,-1.14 0.27,-2.88 0.27,-5.18 0,-6.93 -1.78,-13.06 -5.32,-18.43 -3.56,-5.37 -8.65,-9.56 -15.3,-12.57 -6.65,-3.03 -14.5,-4.53 -23.56,-4.53 -15.15,0 -26.33,3.46 -33.52,10.37zm24.47 12.24c2.83,-1.67 6.47,-2.53 10.9,-2.53 3.82,0 6.93,0.87 9.32,2.61 2.4,1.72 4.12,4.02 5.19,6.85l-31.4 0c1.14,-2.93 3.15,-5.24 5.98,-6.93zm260.13 -21.28c0.71,13.75 1.06,26.17 1.06,37.25 0,9.32 -0.31,21.13 -0.92,35.39l31.65 0c-0.61,-13.83 -0.92,-25.63 -0.92,-35.39 0,-11.61 0.35,-24.03 1.06,-37.25l-31.93 0zm-319.21 0l-11.43 52.15 -7.46 -52.15 -26.21 0 -7.72 52.02 -11.32 -52.02 -26.47 0 14.78 72.64 34.2 0 9.44 -33.92 8.39 33.92 35.53 0 14.76 -72.64 -26.48 0z"/>
  </g>
 </g>
</svg>
