<?xml version="1.0" encoding="UTF-8"?>
<!DOCTYPE svg PUBLIC "-//W3C//DTD SVG 1.1//EN" "http://www.w3.org/Graphics/SVG/1.1/DTD/svg11.dtd">
<!-- Creator: CorelDRAW -->
<svg xmlns="http://www.w3.org/2000/svg" xml:space="preserve" width="1.66666in" height="1.66666in" version="1.1" style="shape-rendering:geometricPrecision; text-rendering:geometricPrecision; image-rendering:optimizeQuality; fill-rule:evenodd; clip-rule:evenodd"
viewBox="0 0 1666.66 1666.66"
 xmlns:xlink="http://www.w3.org/1999/xlink"
 xmlns:xodm="http://www.corel.com/coreldraw/odm/2003">
 <defs>
  <style type="text/css">
   <![CDATA[
    .fil12 {fill:none}
    .fil14 {fill:#B1306F}
    .fil6 {fill:#FA4F01}
    .fil8 {fill:#464197;fill-rule:nonzero}
    .fil13 {fill:black;fill-rule:nonzero}
    .fil3 {fill:url(#id1)}
    .fil7 {fill:url(#id2)}
    .fil0 {fill:url(#id3)}
    .fil1 {fill:url(#id4)}
    .fil4 {fill:url(#id5)}
    .fil2 {fill:url(#id6)}
    .fil10 {fill:url(#id7)}
    .fil9 {fill:url(#id8)}
    .fil5 {fill:url(#id9)}
    .fil11 {fill:url(#id10)}
   ]]>
  </style>
    <clipPath id="id0">
     <path d="M559.66 689.01c0,-26.53 10.75,-50.55 28.14,-67.93 17.39,-17.39 41.4,-28.14 67.93,-28.14l0 -18.91 0 18.91c26.53,0 50.55,10.75 67.93,28.14 17.39,17.39 28.14,41.4 28.14,67.93 0,26.53 -10.76,50.54 -28.14,67.93 -11.04,11.04 -24.76,19.41 -40.09,24.04l-0.01 0c-0.25,0.05 -0.51,0.13 -0.76,0.23l0 0 -0.02 0.01 -0.04 0.02 -0.01 0 -0.01 0 -0 0 -0.02 0.01 -0.01 0 -0.06 0.03 -0.02 0.01 -0.07 0.04 -0.03 0.01 -0.01 0 -0.02 0.01 -0.01 0 -0.01 0 -0 0 -0.07 0.04 -0 0 -0.02 0.01 -0 0 -0.05 0.03 -0.01 0.01 -0.01 0 -0.09 0.06 -0.09 0.06 -0.09 0.06 -0.09 0.06 -0.08 0.06 -0.08 0.06 -0.08 0.07 -0.08 0.07 -0.07 0.07c-0.05,0.05 -0.1,0.09 -0.15,0.14 -0.07,0.07 -0.14,0.15 -0.2,0.22l-0.06 0.08 -0.06 0.07 -0.06 0.08 -0.06 0.08c-0.04,0.06 -0.07,0.11 -0.11,0.17 -0.05,0.08 -0.1,0.17 -0.15,0.26 -0.04,0.09 -0.09,0.18 -0.13,0.26 -0.02,0.06 -0.05,0.12 -0.07,0.19 -0.02,0.06 -0.05,0.12 -0.06,0.19l-0.03 0.09 -0.02 0.09 -0.03 0.09 -0.02 0.1 -0.02 0.09c-0.01,0.06 -0.02,0.13 -0.03,0.19l-0.02 0.1 -0.01 0.1 -0.01 0.09 -0.01 0.1 -0 0.1 0 0.1 0 0.1 0 0.1 0.01 0.1 0.01 0.1 0.01 0.1 0.01 0.1c0.02,0.1 0.04,0.2 0.06,0.29l0.02 0.1 0.03 0.1 0.03 0.1 0.03 0.09 0.03 0.1 0.04 0.09 0.04 0.09 0.04 0.09 0.04 0.09 0.04 0.09 0.05 0.09 0.05 0.09 0.05 0.08 0 0.01 0.1 0.15 0.03 0.04 0.01 0.02c0.04,0.05 0.07,0.1 0.11,0.15l0.02 0.04 0.04 0.05c0.1,0.13 0.21,0.24 0.32,0.35l0.02 0.02c0.12,0.11 0.24,0.22 0.37,0.31l0.06 0.04 0.05 0.04c0.23,0.16 0.48,0.3 0.74,0.41l0.01 0c0.12,0.05 0.24,0.09 0.36,0.13l0 0c0.37,0.11 0.75,0.18 1.14,0.19l0 0c0.21,0.01 0.43,-0 0.64,-0.04l0 0c28.53,-1.66 51.17,-17.7 52.17,-18.69l7.18 -7.06 44.68 -0.47 11.73 -26.99 -30.13 -33.48 0.18 -13.33 0.13 -10.07 30.81 -33.5 -11.33 -27.7 -44.78 -1.44 -8.48 -8.63 -7.06 -7.18 -0.47 -44.68 -26.99 -11.73 -33.48 30.13 -13.33 -0.18 -10.07 -0.13 -33.5 -30.81 -27.7 11.33 -1.44 44.78 -8.63 8.48 -7.18 7.06 -44.68 0.47 -11.73 26.99 11.54 12.83 33.98 33.98 3.33 0z"/>
    </clipPath>
  <linearGradient id="id1" gradientUnits="userSpaceOnUse" x1="340.36" y1="824.93" x2="596.27" y2="824.93">
   <stop offset="0" style="stop-opacity:1; stop-color:#B1306F"/>
   <stop offset="1" style="stop-opacity:1; stop-color:#6D2847"/>
  </linearGradient>
  <linearGradient id="id2" gradientUnits="userSpaceOnUse" x1="952.79" y1="583.96" x2="327.98" y2="583.96">
   <stop offset="0" style="stop-opacity:1; stop-color:#D93438"/>
   <stop offset="1" style="stop-opacity:1; stop-color:#F47F3B"/>
  </linearGradient>
  <linearGradient id="id3" gradientUnits="userSpaceOnUse" x1="340.35" y1="824.93" x2="596.26" y2="824.93">
   <stop offset="0" style="stop-opacity:1; stop-color:#B21162"/>
   <stop offset="1" style="stop-opacity:1; stop-color:#6E0937"/>
  </linearGradient>
  <linearGradient id="id4" gradientUnits="userSpaceOnUse" x1="446.51" y1="740.09" x2="810.54" y2="740.09">
   <stop offset="0" style="stop-opacity:1; stop-color:#FF1162"/>
   <stop offset="1" style="stop-opacity:1; stop-color:#6E0937"/>
  </linearGradient>
  <linearGradient id="id5" gradientUnits="userSpaceOnUse" x1="446.5" y1="740.09" x2="810.56" y2="740.09">
   <stop offset="0" style="stop-opacity:1; stop-color:#EE4274"/>
   <stop offset="1" style="stop-opacity:1; stop-color:#6D2847"/>
  </linearGradient>
  <linearGradient id="id6" gradientUnits="userSpaceOnUse" x1="78" y1="645.49" x2="503.01" y2="978.15">
   <stop offset="0" style="stop-opacity:1; stop-color:fuchsia"/>
   <stop offset="1" style="stop-opacity:1; stop-color:#3E1B91"/>
  </linearGradient>
  <linearGradient id="id7" gradientUnits="userSpaceOnUse" xlink:href="#id5" x1="510.79" y1="641.65" x2="1168.14" y2="641.65">
  </linearGradient>
  <linearGradient id="id8" gradientUnits="userSpaceOnUse" x1="767.15" y1="679.12" x2="563.37" y2="792.81">
   <stop offset="0" style="stop-opacity:1; stop-color:#FAB683"/>
   <stop offset="1" style="stop-opacity:1; stop-color:#FAB683"/>
  </linearGradient>
  <linearGradient id="id9" gradientUnits="userSpaceOnUse" x1="155.6" y1="546.33" x2="425.41" y2="1077.3">
   <stop offset="0" style="stop-opacity:1; stop-color:#A161A6"/>
   <stop offset="1" style="stop-opacity:1; stop-color:#464197"/>
  </linearGradient>
  <linearGradient id="id10" gradientUnits="userSpaceOnUse" xlink:href="#id1" x1="429.67" y1="346.42" x2="1003.61" y2="346.42">
  </linearGradient>
 </defs>
 <g id="Layer_x0020_1">
  <metadata id="CorelCorpID_0Corel-Layer"/>
  <g id="_2108255624688">
   <path class="fil0" d="M355.92 634.64c-30.12,30.11 -30.12,79.46 0,109.57l84.41 84.41 -84.41 84.41c-30.12,30.12 -30.12,79.46 0,109.57 30.11,30.11 79.45,30.11 109.57,0l105.69 -105.69c48.54,-48.55 48.54,-128.05 0,-176.59l-105.69 -105.69c-15.06,-15.06 -34.93,-22.59 -54.79,-22.59 -19.86,0 -39.73,7.53 -54.78,22.59z"/>
   <path class="fil1" d="M446.51 654.06c0,100.57 27.85,178.07 83.56,232.53 12.26,11.99 25.41,22.66 39.43,32.01l1.69 -1.68c48.54,-48.55 48.54,-128.05 0,-176.59l-105.69 -105.69c-5.72,-5.72 -12.14,-10.36 -18.98,-13.91l0 33.33z"/>
   <path class="fil2" d="M355.92 913.04c-30.12,30.12 -30.12,79.46 0,109.57 28.53,28.53 74.31,30.03 104.65,4.51 0.67,-61.07 -12.12,-123.27 -35.03,-183.71l-69.63 69.63z"/>
   <path class="fil3" d="M355.92 634.64c-30.12,30.11 -30.12,79.46 0,109.57l84.41 84.41 -84.41 84.41c-30.12,30.12 -30.12,79.46 0,109.57 30.11,30.11 79.45,30.11 109.57,0l105.69 -105.69c48.54,-48.55 48.54,-128.05 0,-176.59l-105.69 -105.69c-15.06,-15.06 -34.93,-22.59 -54.79,-22.59 -19.86,0 -39.73,7.53 -54.78,22.59z"/>
   <path class="fil4" d="M446.51 654.06c0,100.57 27.85,178.07 83.56,232.53 12.26,11.99 25.41,22.66 39.43,32.01l1.69 -1.68c48.54,-48.55 48.54,-128.05 0,-176.59l-105.69 -105.69c-5.72,-5.72 -12.14,-10.36 -18.98,-13.91l0 33.33z"/>
   <path class="fil5" d="M355.92 913.04c-30.12,30.12 -30.12,79.46 0,109.57 28.53,28.53 74.31,30.03 104.65,4.51 0.67,-61.07 -12.12,-123.27 -35.03,-183.71l-69.63 69.63z"/>
   <path class="fil6" d="M655.73 611.52c42.8,0 77.49,34.7 77.49,77.5 0,42.8 -34.69,77.49 -77.49,77.49 -42.8,0 -77.5,-34.69 -77.5,-77.49 0,-42.8 34.7,-77.5 77.5,-77.5z"/>
   <path class="fil7" d="M655.73 611.52c42.8,0 77.49,34.7 77.49,77.5 0,42.8 -34.7,77.49 -77.49,77.49 -42.8,0 -77.5,-34.69 -77.5,-77.49 0,-42.8 34.7,-77.5 77.5,-77.5z"/>
   <path class="fil8" d="M600.96 634.11c19.98,11.11 41.14,18.63 63.52,20.87 21.73,3.29 42.52,4.16 62.31,2.87 -3.75,-8.63 -9.14,-16.71 -16.17,-23.74 -15.07,-15.07 -34.95,-22.61 -54.83,-22.61 -19.88,0 -39.76,7.54 -54.83,22.6z"/>
   <path class="fil9" d="M600.95 743.79c30.28,30.28 79.38,30.29 109.67,0 8.46,-8.46 14.55,-18.44 18.26,-29.09 -47.2,-23.26 -96.54,-39.15 -147.05,-49.14 -8.43,26.7 -2.05,57.06 19.12,78.23z"/>
   <path class="fil10" d="M559.66 689.01c0,-26.53 10.75,-50.55 28.14,-67.93 17.39,-17.39 41.4,-28.14 67.93,-28.14l0 -18.91 0 18.91c26.53,0 50.55,10.75 67.93,28.14 17.39,17.39 28.14,41.4 28.14,67.93 0,26.53 -10.76,50.54 -28.14,67.93 -11.04,11.04 -24.76,19.41 -40.09,24.04l-0.01 0c-0.25,0.05 -0.51,0.13 -0.76,0.23l0 0 -0.02 0.01 -0.04 0.02 -0.01 0 -0.01 0 -0 0 -0.02 0.01 -0.01 0 -0.06 0.03 -0.02 0.01 -0.07 0.04 -0.03 0.01 -0.01 0 -0.02 0.01 -0.01 0 -0.01 0 -0 0 -0.07 0.04 -0 0 -0.02 0.01 -0 0 -0.05 0.03 -0.01 0.01 -0.01 0 -0.09 0.06 -0.09 0.06 -0.09 0.06 -0.09 0.06 -0.08 0.06 -0.08 0.06 -0.08 0.07 -0.08 0.07 -0.07 0.07c-0.05,0.05 -0.1,0.09 -0.15,0.14 -0.07,0.07 -0.14,0.15 -0.2,0.22l-0.06 0.08 -0.06 0.07 -0.06 0.08 -0.06 0.08c-0.04,0.06 -0.07,0.11 -0.11,0.17 -0.05,0.08 -0.1,0.17 -0.15,0.26 -0.04,0.09 -0.09,0.18 -0.13,0.26 -0.02,0.06 -0.05,0.12 -0.07,0.19 -0.02,0.06 -0.05,0.12 -0.06,0.19l-0.03 0.09 -0.02 0.09 -0.03 0.09 -0.02 0.1 -0.02 0.09c-0.01,0.06 -0.02,0.13 -0.03,0.19l-0.02 0.1 -0.01 0.1 -0.01 0.09 -0.01 0.1 -0 0.1 0 0.1 0 0.1 0 0.1 0.01 0.1 0.01 0.1 0.01 0.1 0.01 0.1c0.02,0.1 0.04,0.2 0.06,0.29l0.02 0.1 0.03 0.1 0.03 0.1 0.03 0.09 0.03 0.1 0.04 0.09 0.04 0.09 0.04 0.09 0.04 0.09 0.04 0.09 0.05 0.09 0.05 0.09 0.05 0.08 0 0.01 0.1 0.15 0.03 0.04 0.01 0.02c0.04,0.05 0.07,0.1 0.11,0.15l0.02 0.04 0.04 0.05c0.1,0.13 0.21,0.24 0.32,0.35l0.02 0.02c0.12,0.11 0.24,0.22 0.37,0.31l0.06 0.04 0.05 0.04c0.23,0.16 0.48,0.3 0.74,0.41l0.01 0c0.12,0.05 0.24,0.09 0.36,0.13l0 0c0.37,0.11 0.75,0.18 1.14,0.19l0 0c0.21,0.01 0.43,-0 0.64,-0.04l0 0c28.53,-1.66 51.17,-17.7 52.17,-18.69l7.18 -7.06 44.68 -0.47 11.73 -26.99 -30.13 -33.48 0.18 -13.33 0.13 -10.07 30.81 -33.5 -11.33 -27.7 -44.78 -1.44 -8.48 -8.63 -7.06 -7.18 -0.47 -44.68 -26.99 -11.73 -33.48 30.13 -13.33 -0.18 -10.07 -0.13 -33.5 -30.81 -27.7 11.33 -1.44 44.78 -8.63 8.48 -7.18 7.06 -44.68 0.47 -11.73 26.99 11.54 12.83 33.98 33.98 3.33 0z"/>
   <g style="clip-path:url(#id0)">
    <g>
     <circle class="fil11" cx="721.46" cy="351.67" r="307.54"/>
     <circle class="fil8" cx="536.8" cy="1045.2" r="382.62"/>
    </g>
   </g>
   <path class="fil12" d="M559.66 689.01c0,-26.53 10.75,-50.55 28.14,-67.93 17.39,-17.39 41.4,-28.14 67.93,-28.14l0 -18.91 0 18.91c26.53,0 50.55,10.75 67.93,28.14 17.39,17.39 28.14,41.4 28.14,67.93 0,26.53 -10.76,50.54 -28.14,67.93 -11.04,11.04 -24.76,19.41 -40.09,24.04l-0.01 0c-0.25,0.05 -0.51,0.13 -0.76,0.23l0 0 -0.02 0.01 -0.04 0.02 -0.01 0 -0.01 0 -0 0 -0.02 0.01 -0.01 0 -0.06 0.03 -0.02 0.01 -0.07 0.04 -0.03 0.01 -0.01 0 -0.02 0.01 -0.01 0 -0.01 0 -0 0 -0.07 0.04 -0 0 -0.02 0.01 -0 0 -0.05 0.03 -0.01 0.01 -0.01 0 -0.09 0.06 -0.09 0.06 -0.09 0.06 -0.09 0.06 -0.08 0.06 -0.08 0.06 -0.08 0.07 -0.08 0.07 -0.07 0.07c-0.05,0.05 -0.1,0.09 -0.15,0.14 -0.07,0.07 -0.14,0.15 -0.2,0.22l-0.06 0.08 -0.06 0.07 -0.06 0.08 -0.06 0.08c-0.04,0.06 -0.07,0.11 -0.11,0.17 -0.05,0.08 -0.1,0.17 -0.15,0.26 -0.04,0.09 -0.09,0.18 -0.13,0.26 -0.02,0.06 -0.05,0.12 -0.07,0.19 -0.02,0.06 -0.05,0.12 -0.06,0.19l-0.03 0.09 -0.02 0.09 -0.03 0.09 -0.02 0.1 -0.02 0.09c-0.01,0.06 -0.02,0.13 -0.03,0.19l-0.02 0.1 -0.01 0.1 -0.01 0.09 -0.01 0.1 -0 0.1 0 0.1 0 0.1 0 0.1 0.01 0.1 0.01 0.1 0.01 0.1 0.01 0.1c0.02,0.1 0.04,0.2 0.06,0.29l0.02 0.1 0.03 0.1 0.03 0.1 0.03 0.09 0.03 0.1 0.04 0.09 0.04 0.09 0.04 0.09 0.04 0.09 0.04 0.09 0.05 0.09 0.05 0.09 0.05 0.08 0 0.01 0.1 0.15 0.03 0.04 0.01 0.02c0.04,0.05 0.07,0.1 0.11,0.15l0.02 0.04 0.04 0.05c0.1,0.13 0.21,0.24 0.32,0.35l0.02 0.02c0.12,0.11 0.24,0.22 0.37,0.31l0.06 0.04 0.05 0.04c0.23,0.16 0.48,0.3 0.74,0.41l0.01 0c0.12,0.05 0.24,0.09 0.36,0.13l0 0c0.37,0.11 0.75,0.18 1.14,0.19l0 0c0.21,0.01 0.43,-0 0.64,-0.04l0 0c28.53,-1.66 51.17,-17.7 52.17,-18.69l7.18 -7.06 44.68 -0.47 11.73 -26.99 -30.13 -33.48 0.18 -13.33 0.13 -10.07 30.81 -33.5 -11.33 -27.7 -44.78 -1.44 -8.48 -8.63 -7.06 -7.18 -0.47 -44.68 -26.99 -11.73 -33.48 30.13 -13.33 -0.18 -10.07 -0.13 -33.5 -30.81 -27.7 11.33 -1.44 44.78 -8.63 8.48 -7.18 7.06 -44.68 0.47 -11.73 26.99 11.54 12.83 33.98 33.98 3.33 0z"/>
   <path class="fil13" d="M669.61 918.7l0 -40.46 -36.65 -55.41 22.14 0 23.6 38.41 0.29 0 23.89 -38.41 21.7 0 -36.21 54.96 0 40.91 -18.76 0zm127.09 -95.87l18.33 0 0 57.76c0,6.16 -0.88,11.7 -2.64,16.64 -1.76,4.94 -4.35,9.14 -7.77,12.61 -3.42,3.47 -7.63,6.13 -12.61,7.99 -4.98,1.85 -10.7,2.78 -17.15,2.78 -6.55,0 -12.37,-0.93 -17.44,-2.78 -5.08,-1.86 -9.34,-4.52 -12.75,-7.99 -3.42,-3.47 -6.04,-7.67 -7.85,-12.61 -1.81,-4.94 -2.71,-10.48 -2.71,-16.64l0 -57.76 18.76 0 0 57.76c0,7.14 1.81,12.71 5.43,16.71 3.62,4.01 9.09,6 16.41,6 7.43,0 12.95,-2 16.57,-6 3.62,-4 5.43,-9.57 5.43,-16.71l0 -57.76zm209.33 39.72c0,-7.72 -1.93,-13.68 -5.79,-17.88 -3.86,-4.2 -9.75,-6.3 -17.67,-6.3 -7.91,0 -13.78,2.11 -17.59,6.3 -3.81,4.2 -5.72,10.16 -5.72,17.88l0 10.4 46.76 0 0 -10.4zm0 56.15l0 -28.73 -46.76 0 0 28.73 -18.32 0 0 -56.15c0,-6.45 0.9,-12.24 2.71,-17.37 1.81,-5.13 4.47,-9.48 7.99,-13.05 3.52,-3.56 7.89,-6.32 13.11,-8.28 5.23,-1.96 11.22,-2.93 17.96,-2.93 6.75,0 12.73,0.97 17.96,2.93 5.23,1.96 9.62,4.72 13.19,8.28 3.57,3.57 6.28,7.92 8.14,13.05 1.85,5.13 2.79,10.92 2.79,17.37l0 56.15 -18.77 0zm-100.12 -65.38c-2.54,-4.69 -6.21,-8.36 -10.99,-11 -4.8,-2.64 -10.26,-3.96 -16.42,-3.96 -4.79,0 -9.15,0.81 -13.05,2.42 -3.91,1.61 -7.25,3.86 -10.04,6.74 -2.79,2.88 -4.96,6.31 -6.52,10.26 -1.56,3.96 -2.35,8.28 -2.35,12.97 0,4.69 0.78,9.02 2.35,12.98 1.56,3.96 3.73,7.4 6.52,10.33 2.79,2.94 6.13,5.21 10.04,6.82 3.91,1.61 8.26,2.42 13.05,2.42 7.62,0 14.05,-1.71 19.28,-5.13 5.22,-3.42 8.96,-8.26 11.21,-14.51l0 -0.3 -36.35 0 0 -16.7 56.72 0 0 8.93c-0.58,6.55 -2.22,12.59 -4.91,18.11 -2.69,5.52 -6.29,10.26 -10.78,14.22 -4.5,3.96 -9.72,7.06 -15.69,9.31 -5.96,2.25 -12.46,3.37 -19.49,3.37 -7.53,0 -14.39,-1.25 -20.6,-3.74 -6.21,-2.49 -11.58,-5.96 -16.13,-10.41 -4.54,-4.44 -8.06,-9.7 -10.55,-15.75 -2.5,-6.06 -3.74,-12.71 -3.74,-19.94 0,-7.13 1.24,-13.75 3.74,-19.86 2.49,-6.1 6.01,-11.38 10.55,-15.83 4.54,-4.44 9.92,-7.92 16.13,-10.41 6.21,-2.49 13.07,-3.74 20.6,-3.74 5.86,0 11.36,0.79 16.48,2.35 5.14,1.57 9.78,3.76 13.93,6.6 4.15,2.83 7.74,6.22 10.77,10.18 3.03,3.96 5.37,8.38 7.04,13.27l-20.81 0z"/>
   <path class="fil14" d="M681.3 953.54c14.07,0 23.85,2.49 29.37,7.47 5.51,4.98 8.27,12 8.27,21.05 0,6.22 -1.09,11.5 -3.28,15.85 -2.19,4.35 -6.05,7.74 -11.56,10.18 -5.51,2.44 -13.11,3.66 -22.8,3.66l-22.05 0 0 18.66 -26.08 0c0.57,-13.71 0.85,-26.54 0.85,-38.49 0,-11.94 -0.28,-24.77 -0.85,-38.48l26.08 0 0 0.11 22.05 0zm-7.42 37.74c5.87,0 10.27,-0.23 13.2,-0.69 2.93,-0.46 4.98,-1.29 6.15,-2.49 1.17,-1.2 1.75,-2.97 1.75,-5.3 0,-2.33 -0.55,-4.08 -1.64,-5.25 -1.1,-1.17 -3.11,-1.96 -6.04,-2.38 -2.93,-0.43 -7.41,-0.64 -13.41,-0.64l-14.63 0 0 16.75 14.63 0zm635.6 39.12c0.43,-10.39 0.64,-19.97 0.64,-28.73 0,-3.11 -0.76,-5.58 -2.28,-7.42 -1.52,-1.84 -3.44,-2.76 -5.78,-2.76 -2.33,0 -4.31,1.04 -5.94,3.13 -1.63,2.09 -2.58,4.93 -2.86,8.54 -0.14,5.37 -0.21,9.19 -0.21,11.45 0,4.81 0.14,10.07 0.43,15.8l-25.34 0c0.57,-10.18 0.85,-19.79 0.85,-28.84 0,-9.05 -0.28,-18.73 -0.85,-29.05 4.67,0.21 8.24,0.32 10.71,0.32 2.61,0 6.19,-0.11 10.71,-0.32l3.07 15.59c1.63,-5.65 4.17,-9.84 7.63,-12.56 3.46,-2.72 7.49,-4.08 12.09,-4.08 4.24,0 7.92,0.94 11.03,2.81 3.11,1.87 5.46,4.4 7.05,7.58 1.59,3.18 2.39,6.75 2.39,10.71l0 15.27c0,9.4 0.18,16.93 0.53,22.58l-23.85 0zm-557.46 -42.2c2.97,-10.67 10.35,-16.01 22.16,-16.01 2.05,0 4.03,0.14 5.94,0.42l-3.39 23.75c-5.09,-1.91 -9.26,-2.86 -12.51,-2.86 -4.03,0 -7,1.2 -8.91,3.61 -1.91,2.4 -2.86,5.62 -2.86,9.65l0 -0.11 -0.11 7c0,5.02 0.14,10.6 0.43,16.75l-25.34 0c0.56,-10.18 0.85,-19.79 0.85,-28.84 0,-9.05 -0.28,-18.73 -0.85,-29.05 4.67,0.21 8.23,0.32 10.7,0.32 2.62,0 6.19,-0.11 10.71,-0.32l3.18 15.69zm67.54 43.26c-12.09,0 -20.97,-2.77 -26.66,-8.32 -5.69,-5.55 -8.54,-12.85 -8.54,-21.89 0,-8.83 2.84,-16.01 8.54,-21.52 5.69,-5.51 14.57,-8.27 26.66,-8.27 8.13,0 14.93,1.32 20.41,3.98 5.48,2.65 9.52,6.22 12.14,10.71 2.61,4.49 3.92,9.52 3.92,15.11 0,9.12 -3.02,16.43 -9.06,21.95 -6.04,5.51 -15.18,8.27 -27.41,8.27zm0.43 -18.02c4.59,0 8.02,-1.09 10.28,-3.29 2.26,-2.19 3.39,-5.12 3.39,-8.8 0,-3.46 -1.13,-6.31 -3.39,-8.54 -2.26,-2.22 -5.69,-3.34 -10.28,-3.34 -4.59,0 -7.95,1.09 -10.07,3.29 -2.12,2.19 -3.18,5.05 -3.18,8.59 0,3.68 1.06,6.61 3.18,8.8 2.12,2.19 5.48,3.29 10.07,3.29zm112.81 -65.52c-0.43,13.15 -0.63,26.89 -0.63,41.24 0,14.21 0.21,27.96 0.63,41.24l-23.96 0 0.32 -12.72c-2.05,4.74 -5.02,8.22 -8.91,10.44 -3.89,2.22 -8.48,3.34 -13.78,3.34 -4.59,0 -8.73,-1.31 -12.41,-3.92 -3.68,-2.62 -6.54,-6.17 -8.59,-10.66 -2.05,-4.49 -3.07,-9.42 -3.07,-14.79 0,-5.3 1.02,-10.3 3.07,-15 2.05,-4.7 4.93,-8.48 8.64,-11.34 3.71,-2.87 7.94,-4.3 12.67,-4.3 5.51,0 10.23,1.15 14.15,3.44 3.92,2.3 6.84,5.85 8.74,10.66 0,-4.03 -0.14,-10.5 -0.42,-19.41 -0.28,-8.62 -0.43,-14.7 -0.43,-18.23l23.96 0zm-35.2 65.73c3.46,0 6.29,-0.97 8.48,-2.92 2.19,-1.94 3.29,-5.04 3.29,-9.28 0,-3.74 -1.1,-6.5 -3.29,-8.27 -2.19,-1.77 -4.95,-2.65 -8.27,-2.65 -3.18,0 -5.85,1.01 -8,3.02 -2.16,2.01 -3.23,4.65 -3.23,7.9 0,3.61 0.99,6.54 2.97,8.8 1.98,2.26 4.67,3.39 8.06,3.39zm108.89 -41.14c-0.5,8.91 -0.74,18.52 -0.74,28.84 0,10.39 0.24,20.07 0.74,29.05 -4.52,-0.21 -8.09,-0.32 -10.71,-0.32 -2.47,0 -6.04,0.11 -10.71,0.32l-3.07 -15.59c-1.62,5.65 -4.17,9.84 -7.63,12.56 -3.46,2.72 -7.49,4.08 -12.09,4.08 -4.24,0 -7.91,-0.94 -11.02,-2.81 -3.11,-1.87 -5.46,-4.4 -7.05,-7.58 -1.59,-3.18 -2.39,-6.75 -2.39,-10.71l0 -15.27c0,-9.4 -0.18,-16.93 -0.53,-22.58l23.86 0c-0.43,10.39 -0.64,20.68 -0.64,30.85 0,3.11 0.76,5.58 2.28,7.42 1.52,1.84 3.44,2.76 5.78,2.76 2.19,0 4.11,-0.97 5.78,-2.92 1.66,-1.94 2.67,-4.61 3.02,-8l0 -2.44c0.14,-5.51 0.21,-9.33 0.21,-11.45 0,-4.88 -0.14,-10.29 -0.43,-16.22l25.34 0zm30 28.94c0.14,3.61 1.29,6.5 3.44,8.69 2.16,2.19 5.35,3.29 9.59,3.29 2.33,0 4.42,-0.44 6.26,-1.33 1.84,-0.88 3.54,-2.21 5.09,-3.97 6.01,2.33 13.04,4.35 21.1,6.04 -2.33,5.44 -6.27,9.68 -11.82,12.72 -5.55,3.04 -12.74,4.56 -21.57,4.56 -11.8,0 -20.53,-2.76 -26.19,-8.27 -5.66,-5.52 -8.48,-12.76 -8.48,-21.74 0,-8.98 2.83,-16.22 8.48,-21.74 5.65,-5.51 14.38,-8.27 26.19,-8.27 8.83,0 16.03,1.52 21.57,4.56 5.55,3.04 9.49,7.28 11.82,12.72 -6.29,1.34 -13.32,3.35 -21.1,6.04 -1.56,-1.77 -3.25,-3.09 -5.09,-3.98 -1.83,-0.89 -3.92,-1.33 -6.26,-1.33 -4.24,0 -7.44,1.09 -9.59,3.29 -2.15,2.19 -3.3,5.09 -3.44,8.69zm101.46 -9.96c-6.5,-0.43 -12.44,-0.74 -17.81,-0.96l-0.11 11.24c0,3.81 0.83,6.8 2.49,8.96 1.66,2.16 4.61,3.24 8.85,3.24 1.63,0 3.18,-0.14 4.67,-0.43 -0.28,2.61 -0.43,5.27 -0.43,7.95 0,1.27 0.07,4.17 0.21,8.69 -3.11,0.57 -5.72,0.92 -7.85,1.06 -2.12,0.14 -4.88,0.21 -8.27,0.21 -8.27,0 -14.12,-2 -17.55,-5.99 -3.43,-4 -5.14,-9.56 -5.14,-16.7l0.11 -17.92c-3.32,0.14 -6.79,0.35 -10.39,0.64l0 -18.77c3.67,0 6.78,-1.17 9.33,-3.5 2.54,-2.33 4.06,-5.12 4.56,-8.37l28.84 0c-3.6,4.95 -7.6,8.91 -11.98,11.87l20.46 0 0 18.77zm20.57 -25.24c-4.45,0 -7.76,-1.09 -9.91,-3.29 -2.16,-2.19 -3.23,-5.05 -3.23,-8.59 0,-3.46 1.07,-6.33 3.23,-8.59 2.16,-2.26 5.46,-3.39 9.91,-3.39 4.24,0 7.49,1.15 9.76,3.45 2.26,2.3 3.39,5.14 3.39,8.53 0,3.54 -1.09,6.4 -3.28,8.59 -2.19,2.19 -5.48,3.29 -9.86,3.29zm-12.3 64.15c0.5,-11.38 0.74,-20.78 0.74,-28.2 0,-8.84 -0.28,-18.73 -0.85,-29.69l25.44 0c-0.56,10.53 -0.85,20.43 -0.85,29.69 0,7.77 0.25,17.17 0.74,28.2l-25.24 0zm-424.19 15.14c-0.49,11.94 -0.74,24.78 -0.74,38.49 0,13.71 0.25,26.54 0.74,38.48l-24.91 0 0 -28.84 -39.02 0 0 28.84 -24.92 0c0.57,-13.71 0.85,-26.54 0.85,-38.48 0,-11.94 -0.28,-24.78 -0.85,-38.49l24.92 0 0 28.84 39.02 0 0 -28.84 24.91 0zm42.62 78.03c-12.09,0 -20.98,-2.77 -26.67,-8.32 -5.69,-5.55 -8.54,-12.85 -8.54,-21.89 0,-8.84 2.85,-16.01 8.54,-21.52 5.69,-5.52 14.58,-8.27 26.67,-8.27 8.13,0 14.93,1.33 20.41,3.98 5.48,2.65 9.52,6.22 12.14,10.71 2.62,4.49 3.93,9.52 3.93,15.11 0,9.11 -3.02,16.43 -9.07,21.94 -6.04,5.51 -15.18,8.27 -27.41,8.27zm0.43 -18.02c4.59,0 8.02,-1.09 10.28,-3.28 2.26,-2.19 3.39,-5.13 3.39,-8.8 0,-3.46 -1.13,-6.31 -3.39,-8.54 -2.26,-2.23 -5.69,-3.34 -10.28,-3.34 -4.59,0 -7.95,1.1 -10.07,3.29 -2.12,2.19 -3.18,5.06 -3.18,8.59 0,3.67 1.06,6.61 3.18,8.8 2.12,2.19 5.48,3.28 10.07,3.28zm108.67 -40.92c-0.49,8.91 -0.74,18.52 -0.74,28.84 0,10.39 0.25,20.07 0.74,29.05 -4.52,-0.21 -8.09,-0.32 -10.7,-0.32 -2.48,0 -6.04,0.11 -10.71,0.32l-3.07 -15.58c-1.63,5.65 -4.17,9.84 -7.63,12.56 -3.46,2.72 -7.49,4.08 -12.09,4.08 -4.24,0 -7.92,-0.93 -11.03,-2.81 -3.11,-1.87 -5.46,-4.4 -7.05,-7.58 -1.59,-3.18 -2.39,-6.75 -2.39,-10.71l0 -15.26c0,-9.4 -0.17,-16.93 -0.53,-22.58l23.85 0c-0.43,10.39 -0.64,20.67 -0.64,30.85 0,3.11 0.76,5.58 2.28,7.42 1.52,1.84 3.44,2.76 5.78,2.76 2.19,0 4.12,-0.97 5.78,-2.91 1.66,-1.94 2.67,-4.61 3.02,-8l0 -2.44c0.14,-5.51 0.21,-9.33 0.21,-11.45 0,-4.88 -0.14,-10.28 -0.43,-16.22l25.34 0zm42.73 58.94c-5.94,0 -11.96,-0.83 -18.08,-2.49 -6.11,-1.66 -11.85,-4.19 -17.22,-7.58l11.13 -15.16c3.25,2.33 7.17,4.15 11.77,5.46 4.59,1.31 8.56,1.96 11.87,1.96 3.18,0 5.64,-0.44 7.37,-1.32 1.73,-0.89 2.6,-2.03 2.6,-3.45 0,-1.13 -0.43,-2.01 -1.27,-2.65 -0.85,-0.63 -2.02,-0.95 -3.5,-0.95 -0.92,0 -1.96,0.04 -3.13,0.11 -1.17,0.07 -2.1,0.14 -2.81,0.21 -3.68,0.42 -7.46,0.63 -11.35,0.63 -6.29,0 -11.39,-1.18 -15.32,-3.55 -3.92,-2.37 -5.88,-6.24 -5.88,-11.61 0,-6.22 2.93,-11.04 8.8,-14.47 5.87,-3.43 14.49,-5.15 25.87,-5.15 5.58,0 11.22,0.8 16.91,2.39 5.69,1.59 10.72,3.98 15.11,7.16l-12.19 12.3c-4.03,-2.12 -7.79,-3.62 -11.29,-4.51 -3.5,-0.88 -7.02,-1.32 -10.55,-1.32 -2.47,0 -4.59,0.49 -6.36,1.48 -1.77,0.99 -2.65,2.12 -2.65,3.39 0,0.99 0.37,1.77 1.11,2.33 0.74,0.57 1.71,0.85 2.91,0.85 1.2,0 2.86,-0.11 4.98,-0.31 5.16,-0.35 9.01,-0.53 11.56,-0.53 7.35,0 13.04,1.24 17.07,3.71 4.03,2.47 6.04,6.25 6.04,11.34 0,7.63 -2.97,13.17 -8.91,16.59 -5.94,3.43 -14.14,5.14 -24.6,5.14zm97.01 -27.56l-34.56 0c0.56,3.11 1.96,5.64 4.19,7.58 2.23,1.94 5.39,2.92 9.49,2.92 2.97,0 5.76,-0.58 8.38,-1.75 2.61,-1.17 4.7,-2.81 6.26,-4.93 4.74,2.33 11.02,4.84 18.87,7.53 -2.19,4.95 -6.17,8.89 -11.93,11.82 -5.76,2.93 -13.27,4.4 -22.53,4.4 -12.02,0 -20.9,-2.77 -26.67,-8.32 -5.76,-5.55 -8.64,-12.85 -8.64,-21.89 0,-8.84 2.86,-16.01 8.59,-21.52 5.72,-5.52 14.63,-8.27 26.72,-8.27 7.21,0 13.46,1.2 18.77,3.61 5.3,2.4 9.36,5.74 12.19,10.02 2.83,4.28 4.24,9.17 4.24,14.69 0,1.83 -0.07,3.21 -0.21,4.13l-13.15 0zm-20.36 -16.43c-3.53,0 -6.43,0.67 -8.69,2.01 -2.26,1.35 -3.85,3.18 -4.77,5.52l25.02 0c-0.85,-2.26 -2.22,-4.08 -4.13,-5.46 -1.91,-1.38 -4.38,-2.07 -7.42,-2.07z"/>
   <path class="fil14" d="M1222.94 1033.61l-6.62 -0.09 -9.47 8.52 -7.63 -3.32 -0.13 -12.63 -4.4 -4.47 -12.67 -0.41 -3.2 -7.83 8.72 -9.48 0.09 -6.62 -8.52 -9.47 3.32 -7.63 12.64 -0.13 4.47 -4.4 0.41 -12.67 7.83 -3.2 9.48 8.72 6.62 0.09 9.47 -8.52 7.63 3.32 0.13 12.63 4.4 4.47 12.67 0.41 3.2 7.83 -8.72 9.48 -0.09 6.62 8.52 9.47 -3.32 7.63 -12.63 0.13 -4.47 4.4 -0.41 12.67 -7.83 3.2 -9.48 -8.72zm10.9 -32.56c0.01,4.11 -1.79,8.3 -5.62,11.2 -5.27,4.02 -13.04,3.36 -17.85,-1.51 -2.89,-2.9 -4.09,-6.34 -4.02,-9.69 -0.07,-3.35 1.13,-6.8 4.02,-9.69 4.81,-4.87 12.58,-5.54 17.85,-1.52 3.83,2.91 5.63,7.09 5.62,11.2z"/>
  </g>
 </g>
</svg>
