<?xml version="1.0" encoding="UTF-8"?>
<!DOCTYPE svg PUBLIC "-//W3C//DTD SVG 1.1//EN" "http://www.w3.org/Graphics/SVG/1.1/DTD/svg11.dtd">
<!-- Creator: CorelDRAW -->
<svg xmlns="http://www.w3.org/2000/svg" xml:space="preserve" width="1.66666in" height="1.66666in" version="1.1" style="shape-rendering:geometricPrecision; text-rendering:geometricPrecision; image-rendering:optimizeQuality; fill-rule:evenodd; clip-rule:evenodd"
viewBox="0 0 1666.66 1666.66"
 xmlns:xlink="http://www.w3.org/1999/xlink"
 xmlns:xodm="http://www.corel.com/coreldraw/odm/2003">
 <defs>
  <style type="text/css">
   <![CDATA[
    .fil0 {fill:#9DCC5E;fill-rule:nonzero}
    .fil2 {fill:#3E3E40;fill-rule:nonzero}
    .fil1 {fill:#2C5C87;fill-rule:nonzero}
   ]]>
  </style>
 </defs>
 <g id="Layer_x0020_1">
  <metadata id="CorelCorpID_0Corel-Layer"/>
  <g id="_2110134840624">
   <path class="fil0" d="M923.2 630.2c-73.36,-10.19 -120.29,-10.02 -192.82,1.14l0.97 6.31 -0.49 -3.15 0.5 3.15 37.65 -4.52c52.49,-4.26 125.04,7.06 182.99,21.02 13.82,-5.32 26.97,-8.49 38.75,-10.33 -22.24,-5.9 -44.76,-10.44 -67.56,-13.61z"/>
   <polygon class="fil0" points="730.3,631.38 730.46,634.96 731.33,637.64 "/>
   <path class="fil0" d="M587.92 1024.63c6.12,0.92 12.24,1.83 18.35,2.76 6.13,0.92 12.25,1.83 18.36,2.75 2.12,0.32 3.87,-1.37 3.87,-3.79 0,-2.41 -1.75,-4.75 -3.87,-5.2 -6.11,-1.29 -12.24,-2.57 -18.36,-3.86 -6.11,-1.29 -12.22,-2.59 -18.35,-3.86 -11.21,-2.36 -21.46,0.25 -28.68,7.22 -5,4.82 -8.6,11.65 -10.44,19.59l0 -0.39 -111.06 0c-26.26,0 -89.44,1.07 -111.46,-0.17 -27.86,-1.57 -46.59,-10.69 -41.22,-44.09 8.86,-55.02 92.81,-171.75 131.37,-215.61 -26.89,18.97 -50.64,42.86 -72.42,67.38 -34.83,39.21 -136.37,170.61 -54.64,209.97 12.72,5.97 27.24,7.82 41.17,8.01 72.49,1.02 145.68,0.03 218.25,0.03l0 -0.4c1.85,7.93 5.44,14.76 10.44,19.6 7.22,6.97 17.47,9.56 28.68,7.19l0.01 0c6.11,-1.28 12.24,-2.57 18.33,-3.86 6.11,-1.29 12.25,-2.57 18.36,-3.86 2.12,-0.44 3.87,-2.78 3.87,-5.18 0,-2.41 -1.75,-4.11 -3.87,-3.79 -6.11,0.91 -12.24,1.85 -18.36,2.76 -6.11,0.92 -12.22,1.83 -18.35,2.75 -2.14,0.33 -3.86,-1.96 -3.86,-5.13 0,-3.15 1.72,-5.87 3.86,-6.06 6.12,-0.56 12.24,-1.12 18.35,-1.67 6.13,-0.56 12.25,-1.1 18.36,-1.65 2.12,-0.19 3.87,-2.3 3.87,-4.72 0,-2.41 -1.75,-4.32 -3.87,-4.25 -6.11,0.18 -12.24,0.37 -18.36,0.56 -6.11,0.18 -12.22,0.36 -18.35,0.54 -2.14,0.06 -3.86,-2.43 -3.86,-5.6 0,-3.15 1.72,-5.65 3.86,-5.59 6.12,0.19 12.24,0.36 18.35,0.56 6.13,0.18 12.25,0.36 18.36,0.56 2.12,0.06 3.87,-1.85 3.87,-4.26 0,-2.41 -1.75,-4.53 -3.87,-4.72 -6.11,-0.56 -12.24,-1.11 -18.36,-1.65 -6.11,-0.56 -12.22,-1.09 -18.35,-1.65 -2.14,-0.2 -3.86,-2.92 -3.86,-6.07 0,-3.15 1.72,-5.44 3.86,-5.13z"/>
   <path class="fil1" d="M1402.48 969.41c-35.39,-114.57 -216.8,-285.46 -345.07,-306.32 -19.53,-3.18 -38.28,-2.46 -55.53,1.42 -3.36,0.75 -6.64,1.65 -9.89,2.64 -56.75,17.35 -94.29,69.86 -83.5,128.87 20.89,114.26 180.06,120.6 208.46,29.52 20.41,-65.5 -43.76,-100.76 -81.91,-68.24 -0.43,-1.43 -0.61,-2.96 -0.53,-4.53 0.28,-4.57 -1.06,-8.81 -4.47,-13.33 -7.2,-9.51 -20.76,-11.4 -30.28,-4.21 -14.82,11.18 -20.01,35.1 -23.86,60.81 -0.53,3.51 0.29,6.74 2.43,9.57 2.15,2.85 5.03,4.51 8.56,4.96 25.78,3.33 50.19,4.86 65.01,-6.33 9.52,-7.19 11.41,-20.76 4.21,-30.29 -3.42,-4.51 -7.12,-6.96 -11.59,-7.94 -1.14,-0.25 -2.18,-0.68 -3.18,-1.19 7.37,-5.65 16.5,-8.71 25.85,-8.53 24.01,0.74 38.83,18.53 39.39,41.93 1.8,76.39 -112.83,98.37 -159.85,35.22 -45.49,-61.11 -1.56,-140.89 71.03,-148.08 121.68,-12.07 302.15,164.69 350.56,267.03 22.72,48.06 25.39,87.3 -33.97,87.5 -211.28,0.69 -422.52,0.97 -633.71,7.85l0 -8.61c0,-1.74 -1.11,-3.22 -3.02,-4.03 -1.9,-0.82 -4.04,-0.72 -5.82,0.25l-24.83 13.48c-1.61,0.88 -2.5,2.22 -2.5,3.8 0,1.56 0.89,2.9 2.5,3.78l24.83 13.5c1.78,0.97 3.92,1.06 5.82,0.25 1.91,-0.82 3.02,-2.31 3.02,-4.03l0 -8.6c211.01,6.89 422.18,8 633.3,7.85 60.71,-0.04 87.14,-35.76 68.56,-95.94z"/>
   <polygon class="fil2" points="697.45,912.37 697.45,888.3 718.76,855.97 705.99,855.97 691.94,878.57 691.76,878.57 677.88,855.97 664.85,855.97 686.41,888.57 686.41,912.37 "/>
   <path class="fil2" d="M724.35 855.97l0 33.97c0,3.63 0.53,6.89 1.6,9.79 1.06,2.9 2.59,5.37 4.61,7.42 2.02,2.04 4.52,3.61 7.5,4.69 2.98,1.1 6.42,1.64 10.26,1.64 3.79,0 7.15,-0.54 10.08,-1.64 2.94,-1.08 5.42,-2.65 7.43,-4.69 2,-2.04 3.53,-4.52 4.56,-7.42 1.04,-2.9 1.56,-6.17 1.56,-9.79l0 -33.97 -10.78 0 0 33.97c0,4.21 -1.06,7.48 -3.19,9.83 -2.13,2.36 -5.37,3.54 -9.74,3.54 -4.32,0 -7.53,-1.18 -9.67,-3.54 -2.13,-2.35 -3.18,-5.63 -3.18,-9.83l0 -33.97 -11.04 0z"/>
   <path class="fil2" d="M795.71 870.5c1.64,-1.69 3.61,-3.03 5.91,-3.97 2.3,-0.94 4.86,-1.42 7.68,-1.42 3.62,0 6.83,0.76 9.65,2.32 2.82,1.56 4.97,3.7 6.47,6.47l12.25 0c-0.99,-2.87 -2.36,-5.47 -4.14,-7.8 -1.79,-2.32 -3.91,-4.32 -6.35,-5.99 -2.44,-1.67 -5.17,-2.96 -8.19,-3.89 -3.02,-0.92 -6.25,-1.38 -9.69,-1.38 -4.43,0 -8.47,0.74 -12.13,2.2 -3.65,1.47 -6.81,3.51 -9.49,6.13 -2.67,2.61 -4.74,5.72 -6.19,9.3 -1.47,3.6 -2.21,7.5 -2.21,11.7 0,4.25 0.74,8.17 2.21,11.73 1.46,3.56 3.53,6.65 6.19,9.27 2.68,2.61 5.83,4.65 9.49,6.12 3.65,1.46 7.69,2.2 12.13,2.2 4.14,0 7.96,-0.65 11.47,-1.99 3.5,-1.32 6.57,-3.14 9.22,-5.47 2.64,-2.33 4.76,-5.11 6.35,-8.36 1.57,-3.25 2.54,-6.81 2.87,-10.65l0 -5.26 -33.36 0 0 9.83 21.37 0 0 0.18c-1.32,3.67 -3.52,6.52 -6.6,8.53 -3.07,2.02 -6.85,3.02 -11.33,3.02 -2.82,0 -5.38,-0.47 -7.68,-1.42 -2.29,-0.94 -4.26,-2.28 -5.91,-4.02 -1.64,-1.72 -2.91,-3.75 -3.83,-6.07 -0.92,-2.33 -1.39,-4.87 -1.39,-7.64 0,-2.77 0.47,-5.31 1.39,-7.64 0.92,-2.32 2.19,-4.33 3.83,-6.03z"/>
   <path class="fil2" d="M884.32 885.46l-27.51 0 0 -6.12c0,-4.54 1.12,-8.04 3.37,-10.52 2.24,-2.47 5.68,-3.71 10.35,-3.71 4.65,0 8.11,1.24 10.39,3.71 2.26,2.47 3.4,5.97 3.4,10.52l0 6.12zm4.61 -24.01c-2.09,-2.1 -4.68,-3.72 -7.76,-4.88 -3.07,-1.15 -6.58,-1.72 -10.56,-1.72 -3.97,0 -7.48,0.57 -10.57,1.72 -3.07,1.15 -5.64,2.78 -7.72,4.88 -2.07,2.09 -3.62,4.65 -4.69,7.68 -1.07,3.01 -1.6,6.41 -1.6,10.21l0 33.03 10.78 0 0 -16.91 27.51 0 0 16.91 11.04 0 0 -33.03c0,-3.8 -0.56,-7.2 -1.64,-10.21 -1.1,-3.03 -2.7,-5.59 -4.8,-7.68z"/>
   <path class="fil0" d="M1180.87 914.53c-2.2,-2.22 -5.35,-3.35 -9.46,-3.35 -4.32,0 -7.53,1.09 -9.61,3.29 -2.1,2.19 -3.14,4.97 -3.14,8.33 0,3.43 1.04,6.21 3.14,8.33 2.08,2.13 5.29,3.18 9.61,3.18 4.25,0 7.43,-1.06 9.56,-3.18 2.13,-2.13 3.2,-4.9 3.2,-8.33 0,-3.29 -1.1,-6.06 -3.29,-8.28z"/>
   <path class="fil0" d="M1242.05 1000.55c1.38,3.22 2.49,6.43 3.35,9.61 0.85,3.19 1.93,7.63 3.24,13.32 10.56,0.21 19.33,-2.18 26.32,-7.15 7,-4.96 12.35,-11.56 16.04,-19.79 7.14,-16.11 13.96,-32.83 20.47,-50.18l2.36 -5.96 -23.65 0c-0.96,4.72 -4.01,14.53 -9.15,29.4l-2.67 8.13c-0.56,-1.78 -1.29,-3.98 -2.22,-6.63 -0.92,-2.64 -1.59,-4.61 -2,-5.91 -1.44,-4.18 -2.88,-8.54 -4.32,-13.06 -1.44,-4.53 -2.57,-8.51 -3.39,-11.93l-24.38 0c6.38,14.53 11.25,26.02 14.6,34.44 3.36,8.43 6.28,16.32 8.75,23.65 -3.15,2.26 -7.41,3.39 -12.75,3.39 -3.29,0 -6.83,-0.44 -10.6,-1.33z"/>
   <path class="fil0" d="M909.49 974.48c-1.24,-1.61 -1.85,-3.61 -1.85,-6.02 0,-4.25 0.96,-7.29 2.87,-9.1 1.92,-1.82 4.76,-2.74 8.53,-2.74 3.3,0 5.91,1.1 7.82,3.29 1.91,2.2 2.89,5.04 2.89,8.54 0,3.15 -1.06,5.71 -3.14,7.65 -2.1,1.96 -4.68,2.93 -7.76,2.93 -1.58,0 -3.22,-0.35 -4.94,-1.07 -1.71,-0.72 -3.18,-1.89 -4.42,-3.5zm6.32 19.75c3.81,2.22 8.39,3.33 13.74,3.33 4.59,0 8.68,-1.39 12.28,-4.17 3.61,-2.78 6.4,-6.44 8.39,-11 1.98,-4.56 2.98,-9.4 2.98,-14.56 0,-5.21 -1,-9.98 -2.98,-14.33 -1.99,-4.36 -4.76,-7.81 -8.33,-10.33 -3.56,-2.54 -7.57,-3.81 -12.03,-3.81 -5.21,0 -9.74,1.11 -13.57,3.33 -3.85,2.24 -6.72,5.75 -8.64,10.54l-2.98 -12.85 -19.75 0c0.42,12.75 0.63,26.09 0.63,40 0,13.92 -0.21,27.25 -0.63,40l23.25 0c0,-3.43 -0.14,-9.32 -0.42,-17.69 -0.28,-8.64 -0.42,-14.9 -0.42,-18.82 1.86,4.67 4.68,8.11 8.48,10.35z"/>
   <path class="fil0" d="M812.42 958.39c0,5.21 1.9,8.96 5.71,11.26 3.8,2.29 8.75,3.44 14.86,3.44 3.76,0 7.43,-0.21 11,-0.63 0.68,-0.07 1.6,-0.14 2.72,-0.19 1.14,-0.07 2.14,-0.11 3.04,-0.11 1.43,0 2.57,0.31 3.39,0.93 0.82,0.61 1.24,1.47 1.24,2.57 0,1.38 -0.85,2.49 -2.53,3.35 -1.68,0.85 -4.06,1.28 -7.14,1.28 -3.22,0 -7.07,-0.64 -11.52,-1.9 -4.46,-1.26 -8.26,-3.03 -11.42,-5.29l-10.8 14.71c5.21,3.28 10.78,5.74 16.71,7.35 5.93,1.61 11.78,2.42 17.54,2.42 10.14,0 18.1,-1.67 23.86,-4.99 5.75,-3.33 8.63,-8.69 8.63,-16.09 0,-4.93 -1.94,-8.6 -5.86,-11 -3.9,-2.41 -9.42,-3.6 -16.56,-3.6 -2.46,0 -6.2,0.17 -11.21,0.51 -2.06,0.21 -3.67,0.31 -4.83,0.31 -1.15,0 -2.09,-0.28 -2.82,-0.82 -0.72,-0.56 -1.08,-1.31 -1.08,-2.26 0,-1.24 0.86,-2.33 2.57,-3.29 1.72,-0.96 3.78,-1.44 6.17,-1.44 3.43,0 6.85,0.43 10.24,1.29 3.39,0.86 7.04,2.31 10.96,4.36l11.82 -11.92c-4.25,-3.08 -9.14,-5.4 -14.65,-6.94 -5.52,-1.54 -10.99,-2.32 -16.41,-2.32 -11.04,0 -19.4,1.67 -25.08,4.98 -5.69,3.33 -8.54,8.02 -8.54,14.04z"/>
   <path class="fil0" d="M962.14 940.39c0.54,10.63 0.82,20.22 0.82,28.79 0,7.19 -0.24,16.32 -0.72,27.36l24.48 0c-0.48,-10.7 -0.72,-19.82 -0.72,-27.36 0,-8.98 0.28,-18.58 0.82,-28.79l-24.68 0z"/>
   <path class="fil0" d="M1076.59 959.21c2.68,-1.17 5.76,-1.75 9.25,-1.75 1.86,0 3.29,0.29 4.32,0.88 1.03,0.58 1.54,1.29 1.54,2.11 0,0.96 -0.51,1.75 -1.54,2.36 -1.03,0.63 -2.81,0.93 -5.35,0.93 -6.17,0 -11.31,0.24 -15.42,0.72 2.12,-2.33 4.53,-4.08 7.19,-5.25zm15.22 13.06c-1.17,2.4 -3.3,4.35 -6.38,5.82 -3.08,1.47 -6.56,2.21 -10.39,2.21 -3.57,0 -5.35,-1 -5.35,-2.99 0,-1.85 1.92,-3.15 5.76,-3.9l3.7 -0.63c2.82,-0.4 5.21,-0.83 7.19,-1.28 1.99,-0.44 3.81,-1.08 5.46,-1.9l0 2.67zm-43.92 8.43c0,5.42 1.74,9.5 5.19,12.24 3.46,2.75 8.63,4.13 15.47,4.13 5.9,0 10.75,-1.37 14.56,-4.13 3.81,-2.74 6.71,-6.92 8.7,-12.54l0 2.57c0,4.13 0.96,7.5 2.87,10.14 1.92,2.64 5.83,3.96 11.72,3.96 2.68,0 4.82,-0.07 6.43,-0.21 1.61,-0.14 3.51,-0.37 5.7,-0.72l0.41 -9.67c-1.64,-0.42 -2.74,-1.09 -3.28,-2.06 -0.56,-0.96 -0.83,-2.61 -0.83,-4.93l0 -12.24c0,-9.47 -2.56,-16.47 -7.65,-21.04 -5.11,-4.56 -12.94,-6.83 -23.5,-6.83 -7.54,0 -13.96,1.36 -19.24,4.07 -5.28,2.71 -9.97,6.67 -14.08,11.87 5.21,2.74 10.41,5.96 15.62,9.67 -6.17,0.96 -10.72,2.71 -13.67,5.24 -2.96,2.54 -4.43,6.04 -4.43,10.48z"/>
   <path class="fil0" d="M728.09 996.54c-0.35,-5.48 -0.51,-12.79 -0.51,-21.9l0 -14.81c0,-3.85 -0.78,-7.3 -2.32,-10.39 -1.54,-3.08 -3.82,-5.54 -6.83,-7.35 -3.01,-1.82 -6.58,-2.73 -10.69,-2.73 -4.11,0 -7.79,1.15 -11.06,3.44 -3.25,2.31 -5.71,5.85 -7.35,10.65l0.1 -5.46 -0.1 -31.67 -24.47 0c0.54,9.88 0.82,23.24 0.82,40.1 0,16.87 -0.28,30.24 -0.82,40.11l24.57 0c-0.28,-5.41 -0.4,-13.71 -0.4,-24.89l0.09 0.21c0,-4.04 0.83,-7.24 2.52,-9.57 1.68,-2.32 3.72,-3.49 6.13,-3.49 2.26,0 4.13,0.89 5.59,2.67 1.47,1.79 2.21,4.18 2.21,7.19 0,8.52 -0.19,17.79 -0.61,27.87l23.14 0z"/>
   <path class="fil0" d="M1231.77 929.08l-27.97 0c-0.47,3.15 -1.96,5.86 -4.42,8.13 -2.47,2.26 -5.49,3.39 -9.06,3.39l0 18.21c3.5,-0.28 6.86,-0.48 10.08,-0.62l-0.11 17.39c0,6.92 1.67,12.32 5,16.2 3.32,3.87 8.98,5.8 17.01,5.8 3.29,0 5.96,-0.07 8.02,-0.2 2.06,-0.14 4.59,-0.47 7.61,-1.03 -0.14,-4.39 -0.21,-7.19 -0.21,-8.43 0,-2.61 0.14,-5.18 0.42,-7.71 -1.44,0.26 -2.94,0.4 -4.53,0.4 -4.11,0 -6.97,-1.04 -8.58,-3.12 -1.61,-2.1 -2.42,-5 -2.42,-8.7l0.09 -10.9c5.22,0.21 10.97,0.52 17.28,0.93l0 -18.21 -19.85 0c4.25,-2.87 8.13,-6.7 11.63,-11.51z"/>
   <path class="fil0" d="M983.63 914.53c-2.19,-2.22 -5.35,-3.35 -9.46,-3.35 -4.32,0 -7.53,1.09 -9.61,3.29 -2.1,2.19 -3.14,4.97 -3.14,8.33 0,3.43 1.04,6.21 3.14,8.33 2.08,2.13 5.29,3.18 9.61,3.18 4.25,0 7.43,-1.06 9.56,-3.18 2.13,-2.13 3.19,-4.9 3.19,-8.33 0,-3.29 -1.09,-6.06 -3.29,-8.28z"/>
   <path class="fil0" d="M779.82 960.09c2.19,2.15 3.29,4.92 3.29,8.28 0,3.57 -1.1,6.41 -3.29,8.54 -2.2,2.13 -5.52,3.18 -9.97,3.18 -4.46,0 -7.71,-1.06 -9.78,-3.18 -2.06,-2.13 -3.08,-4.97 -3.08,-8.54 0,-3.43 1.03,-6.21 3.08,-8.33 2.07,-2.13 5.32,-3.18 9.78,-3.18 4.46,0 7.78,1.07 9.97,3.24zm-36.25 -12.69c-5.51,5.35 -8.28,12.3 -8.28,20.87 0,8.76 2.76,15.85 8.28,21.24 5.52,5.37 14.14,8.07 25.86,8.07 11.86,0 20.72,-2.68 26.58,-8.03 5.86,-5.35 8.79,-12.44 8.79,-21.28 0,-5.42 -1.26,-10.31 -3.81,-14.65 -2.53,-4.36 -6.46,-7.82 -11.78,-10.39 -5.31,-2.57 -11.9,-3.86 -19.79,-3.86 -11.72,0 -20.35,2.68 -25.86,8.03z"/>
   <path class="fil0" d="M1125.13 996.54l24.26 0c-0.13,-4.59 -0.2,-12 -0.2,-22.21 0,-8.5 0.03,-14.8 0.1,-18.93 -0.07,-3.29 -0.1,-8.36 -0.1,-15.21 0,-6.18 0.07,-14.13 0.2,-23.86l-24.26 0 0.09 11.11c0.14,12.06 0.21,21.39 0.21,27.96 0,6.93 -0.07,16.76 -0.21,29.52l-0.09 11.62z"/>
   <path class="fil0" d="M1034.54 929.08l-27.97 0c-0.47,3.15 -1.96,5.86 -4.42,8.13 -2.47,2.26 -5.49,3.39 -9.06,3.39l0 18.21c3.5,-0.28 6.86,-0.48 10.08,-0.62l-0.11 17.39c0,6.92 1.67,12.32 4.98,16.2 3.33,3.87 9,5.8 17.03,5.8 3.29,0 5.96,-0.07 8.02,-0.2 2.06,-0.14 4.59,-0.47 7.61,-1.03 -0.14,-4.39 -0.21,-7.19 -0.21,-8.43 0,-2.61 0.14,-5.18 0.42,-7.71 -1.44,0.26 -2.94,0.4 -4.53,0.4 -4.11,0 -6.97,-1.04 -8.58,-3.12 -1.61,-2.1 -2.42,-5 -2.42,-8.7l0.09 -10.9c5.22,0.21 10.97,0.52 17.28,0.93l0 -18.21 -19.85 0c4.25,-2.87 8.13,-6.7 11.63,-11.51z"/>
   <path class="fil0" d="M1159.37 940.39c0.56,10.63 0.82,20.22 0.82,28.79 0,7.19 -0.24,16.32 -0.72,27.36l24.48 0c-0.48,-10.7 -0.72,-19.82 -0.72,-27.36 0,-8.98 0.28,-18.58 0.82,-28.79l-24.68 0z"/>
   <path class="fil0" d="M815.39 610.2l27 0c1.72,0 3.21,-1.11 4.03,-3 0.81,-1.9 0.72,-4.06 -0.25,-5.83l-13.5 -24.83c-0.87,-1.6 -2.22,-2.49 -3.78,-2.49 -1.57,0 -2.92,0.89 -3.79,2.49l-13.5 24.83c-0.96,1.78 -1.06,3.93 -0.24,5.83 0.8,1.89 2.29,3 4.03,3z"/>
   <path class="fil1" d="M487.16 815.07l-70.53 70.53c-25.17,25.17 -25.17,66.39 0,91.56 25.17,25.15 66.39,25.15 91.54,0l88.31 -88.31c40.57,-40.57 40.57,-106.98 0,-147.56l-88.31 -88.3c-12.57,-12.59 -29.17,-18.86 -45.76,-18.86 -16.59,0 -33.19,6.28 -45.78,18.86 -25.17,25.17 -25.17,66.39 0,91.56l70.53 70.53z"/>
   <path class="fil1" d="M667.13 763.17c35.76,0 64.75,-28.98 64.75,-64.75 0,-35.75 -28.98,-64.75 -64.75,-64.75 -35.76,0 -64.75,29 -64.75,64.75 0,35.76 28.99,64.75 64.75,64.75z"/>
  </g>
 </g>
</svg>
