<?xml version="1.0" encoding="UTF-8"?>
<!DOCTYPE svg PUBLIC "-//W3C//DTD SVG 1.1//EN" "http://www.w3.org/Graphics/SVG/1.1/DTD/svg11.dtd">
<!-- Creator: CorelDRAW -->
<svg xmlns="http://www.w3.org/2000/svg" xml:space="preserve" width="1.66666in" height="1.66666in" version="1.1" style="shape-rendering:geometricPrecision; text-rendering:geometricPrecision; image-rendering:optimizeQuality; fill-rule:evenodd; clip-rule:evenodd"
viewBox="0 0 1666.66 1666.66"
 xmlns:xlink="http://www.w3.org/1999/xlink"
 xmlns:xodm="http://www.corel.com/coreldraw/odm/2003">
 <defs>
  <style type="text/css">
   <![CDATA[
    .fil11 {fill:#FAB581}
    .fil8 {fill:#F16439}
    .fil6 {fill:#EE3C6F}
    .fil9 {fill:#EB5D40}
    .fil5 {fill:#902E5B}
    .fil1 {fill:#854B9B}
    .fil7 {fill:#634B9C}
    .fil10 {fill:#595CA7}
    .fil0 {fill:#854B9B;fill-rule:nonzero}
    .fil3 {fill:url(#id0)}
    .fil2 {fill:url(#id1)}
    .fil4 {fill:url(#id2)}
   ]]>
  </style>
  <linearGradient id="id0" gradientUnits="userSpaceOnUse" x1="500.63" y1="770.34" x2="863.96" y2="770.34">
   <stop offset="0" style="stop-opacity:1; stop-color:#EE4274"/>
   <stop offset="1" style="stop-opacity:1; stop-color:#6D2847"/>
  </linearGradient>
  <linearGradient id="id1" gradientUnits="userSpaceOnUse" x1="393.73" y1="833.61" x2="650.04" y2="833.61">
   <stop offset="0" style="stop-opacity:1; stop-color:#B1306F"/>
   <stop offset="1" style="stop-opacity:1; stop-color:#6D2847"/>
  </linearGradient>
  <linearGradient id="id2" gradientUnits="userSpaceOnUse" x1="102.06" y1="680.3" x2="530.67" y2="1024.61">
   <stop offset="0" style="stop-opacity:1; stop-color:#A161A6"/>
   <stop offset="1" style="stop-opacity:1; stop-color:#464197"/>
  </linearGradient>
 </defs>
 <g id="Layer_x0020_1">
  <metadata id="CorelCorpID_0Corel-Layer"/>
  <g id="_2108447920736">
   <path class="fil0" d="M751.99 1059.6c-7.6,-2.06 -14.74,-5.21 -21.41,-9.42l13.82 -18.83c4.04,2.89 8.92,5.15 14.64,6.78 5.69,1.62 10.61,2.43 14.75,2.43 3.94,0 7,-0.54 9.15,-1.64 2.15,-1.1 3.24,-2.53 3.24,-4.28 0,-1.4 -0.53,-2.51 -1.58,-3.29 -1.06,-0.79 -2.52,-1.19 -4.36,-1.19 -1.14,0 -2.43,0.04 -3.87,0.14 -1.46,0.08 -2.61,0.17 -3.5,0.26 -4.57,0.52 -9.26,0.79 -14.1,0.79 -7.8,0 -14.15,-1.47 -19.03,-4.42 -4.87,-2.94 -7.32,-7.75 -7.32,-14.43 0,-7.72 3.65,-13.72 10.94,-17.99 7.29,-4.25 18,-6.37 32.14,-6.37 6.94,0 13.94,0.97 21.02,2.96 7.07,1.97 13.32,4.94 18.78,8.89l-15.15 15.28c-5.01,-2.63 -9.68,-4.5 -14.03,-5.6 -4.35,-1.09 -8.72,-1.64 -13.11,-1.64 -3.08,0 -5.71,0.61 -7.9,1.83 -2.2,1.24 -3.29,2.64 -3.29,4.22 0,1.24 0.46,2.19 1.37,2.9 0.93,0.7 2.13,1.04 3.63,1.04 1.48,0 3.56,-0.13 6.19,-0.39 6.42,-0.44 11.2,-0.65 14.36,-0.65 9.14,0 16.21,1.53 21.21,4.61 5.01,3.07 7.5,7.76 7.5,14.09 0,9.47 -3.68,16.35 -11.06,20.61 -7.38,4.25 -17.57,6.39 -30.57,6.39 -7.37,0 -14.86,-1.03 -22.46,-3.09z"/>
   <path class="fil0" d="M882.34 1013.03c-8.09,-0.53 -15.46,-0.92 -22.13,-1.18l-0.14 13.96c0,4.74 1.03,8.46 3.09,11.13 2.07,2.68 5.74,4.03 11,4.03 2.02,0 3.96,-0.18 5.79,-0.53 -0.35,3.25 -0.53,6.54 -0.53,9.87 0,1.58 0.1,5.18 0.28,10.81 -3.87,0.71 -7.13,1.14 -9.76,1.32 -2.63,0.17 -6.06,0.26 -10.26,0.26 -10.28,0 -17.54,-2.48 -21.81,-7.44 -4.26,-4.96 -6.39,-11.87 -6.39,-20.75l0.13 -22.26c-4.13,0.18 -8.43,0.44 -12.9,0.79l0 -23.32c4.57,0 8.43,-1.44 11.58,-4.35 3.17,-2.9 5.06,-6.36 5.67,-10.4l35.83 0c-4.47,6.14 -9.43,11.07 -14.87,14.75l25.42 0 0 23.32z"/>
   <path class="fil0" d="M970.34 1025.28c0,12.92 0.3,24.94 0.91,36.1 -5.61,-0.27 -10.06,-0.39 -13.3,-0.39 -3.07,0 -7.5,0.12 -13.31,0.39l-3.82 -19.36c-2.01,7.03 -5.18,12.22 -9.47,15.61 -4.32,3.37 -9.32,5.07 -15.03,5.07 -5.26,0 -9.83,-1.17 -13.71,-3.5 -3.86,-2.32 -6.78,-5.46 -8.75,-9.42 -1.97,-3.94 -2.96,-8.39 -2.96,-13.31l0 -18.97c0,-11.67 -0.24,-21.03 -0.67,-28.06l29.64 0c-0.53,12.92 -0.79,25.7 -0.79,38.35 0,3.86 0.94,6.93 2.83,9.21 1.89,2.29 4.29,3.43 7.18,3.43 2.72,0 5.11,-1.21 7.18,-3.63 2.06,-2.42 3.32,-5.74 3.75,-9.94l0 -3.03c0.18,-6.86 0.26,-11.6 0.26,-14.24 0,-6.06 -0.17,-12.78 -0.53,-20.15l31.48 0c-0.61,11.07 -0.91,23.02 -0.91,35.83z"/>
   <path class="fil0" d="M1034.76 1036.94c2.72,-2.42 4.08,-6.26 4.08,-11.53 0,-4.65 -1.36,-8.08 -4.08,-10.28 -2.72,-2.18 -6.15,-3.29 -10.28,-3.29 -3.94,0 -7.26,1.25 -9.94,3.75 -2.68,2.51 -4.01,5.78 -4.01,9.82 0,4.47 1.24,8.12 3.69,10.93 2.44,2.81 5.79,4.22 10,4.22 4.31,0 7.82,-1.2 10.54,-3.62zm32.42 -26.81c0,17.65 0.25,34.74 0.78,51.24l-29.76 0 0.39 -15.81c-2.54,5.89 -6.24,10.21 -11.07,12.99 -4.82,2.76 -10.53,4.14 -17.12,4.14 -5.71,0 -10.85,-1.61 -15.42,-4.87 -4.56,-3.24 -8.11,-7.65 -10.67,-13.24 -2.54,-5.57 -3.82,-11.69 -3.82,-18.37 0,-6.58 1.28,-12.79 3.82,-18.64 2.56,-5.85 6.13,-10.54 10.74,-14.09 4.61,-3.56 9.86,-5.33 15.75,-5.33 6.85,0 12.71,1.43 17.58,4.28 4.87,2.86 8.5,7.26 10.87,13.24 0,-5 -0.18,-13.04 -0.53,-24.11 -0.36,-10.7 -0.53,-18.25 -0.53,-22.65l29.76 0c-0.53,16.33 -0.78,33.41 -0.78,51.25z"/>
   <path class="fil0" d="M1080.87 1061.38c0.61,-14.14 0.92,-25.82 0.92,-35.04 0,-10.97 -0.35,-23.26 -1.04,-36.89l31.61 0c-0.7,13.09 -1.06,25.39 -1.06,36.89 0,9.67 0.31,21.35 0.93,35.04l-31.36 0z"/>
   <path class="fil0" d="M1223.42 1059.6c-7.6,-2.06 -14.74,-5.21 -21.4,-9.42l13.82 -18.83c4.04,2.89 8.92,5.15 14.64,6.78 5.7,1.62 10.61,2.43 14.75,2.43 3.94,0 7,-0.54 9.15,-1.64 2.15,-1.1 3.22,-2.53 3.22,-4.28 0,-1.4 -0.52,-2.51 -1.57,-3.29 -1.06,-0.79 -2.51,-1.19 -4.36,-1.19 -1.14,0 -2.43,0.04 -3.88,0.14 -1.46,0.08 -2.61,0.17 -3.5,0.26 -4.57,0.52 -9.26,0.79 -14.08,0.79 -7.82,0 -14.17,-1.47 -19.04,-4.42 -4.88,-2.94 -7.32,-7.75 -7.32,-14.43 0,-7.72 3.65,-13.72 10.94,-17.99 7.29,-4.25 18,-6.37 32.14,-6.37 6.94,0 13.94,0.97 21.01,2.96 7.07,1.97 13.32,4.94 18.78,8.89l-15.15 15.28c-5.02,-2.63 -9.68,-4.5 -14.03,-5.6 -4.35,-1.09 -8.72,-1.64 -13.11,-1.64 -3.09,0 -5.71,0.61 -7.91,1.83 -2.19,1.24 -3.29,2.64 -3.29,4.22 0,1.24 0.46,2.19 1.37,2.9 0.93,0.7 2.13,1.04 3.63,1.04 1.49,0 3.56,-0.13 6.2,-0.39 6.41,-0.44 11.19,-0.65 14.36,-0.65 9.14,0 16.21,1.53 21.21,4.61 5.02,3.07 7.5,7.76 7.5,14.09 0,9.47 -3.68,16.35 -11.06,20.61 -7.39,4.25 -17.57,6.39 -30.57,6.39 -7.37,0 -14.86,-1.03 -22.46,-3.09z"/>
   <polygon class="fil0" points="749.56,957.73 749.56,927.25 721.93,885.48 738.63,885.48 756.41,914.43 756.63,914.43 774.64,885.48 790.99,885.48 763.7,926.91 763.7,957.73 "/>
   <path class="fil0" d="M845.33 885.48l13.8 0 0 43.53c0,4.64 -0.65,8.82 -1.98,12.54 -1.32,3.71 -3.28,6.87 -5.85,9.5 -2.58,2.61 -5.75,4.61 -9.52,6.02 -3.75,1.4 -8.06,2.09 -12.92,2.09 -4.93,0 -9.32,-0.69 -13.15,-2.09 -3.82,-1.41 -7.03,-3.41 -9.61,-6.02 -2.57,-2.63 -4.54,-5.79 -5.9,-9.5 -1.36,-3.72 -2.04,-7.9 -2.04,-12.54l0 -43.53 14.14 0 0 43.53c0,5.38 1.36,9.57 4.08,12.6 2.72,3.02 6.85,4.52 12.37,4.52 5.6,0 9.75,-1.5 12.49,-4.52 2.72,-3.03 4.08,-7.22 4.08,-12.6l0 -43.53z"/>
   <path class="fil0" d="M927.63 908.46c-1.92,-3.54 -4.68,-6.31 -8.28,-8.29 -3.61,-1.99 -7.74,-2.97 -12.37,-2.97 -3.61,0 -6.89,0.61 -9.83,1.82 -2.94,1.21 -5.47,2.9 -7.57,5.08 -2.1,2.17 -3.74,4.75 -4.92,7.72 -1.18,2.99 -1.76,6.25 -1.76,9.78 0,3.54 0.58,6.81 1.76,9.78 1.18,2.98 2.82,5.58 4.92,7.79 2.09,2.21 4.62,3.91 7.57,5.14 2.94,1.21 6.22,1.82 9.83,1.82 5.74,0 10.58,-1.29 14.53,-3.86 3.93,-2.58 6.75,-6.22 8.44,-10.94l0 -0.22 -27.39 0 0 -12.58 42.74 0 0 6.74c-0.43,4.93 -1.67,9.48 -3.69,13.64 -2.03,4.17 -4.74,7.74 -8.11,10.72 -3.4,2.98 -7.33,5.32 -11.83,7.01 -4.49,1.69 -9.39,2.54 -14.68,2.54 -5.68,0 -10.85,-0.94 -15.53,-2.82 -4.68,-1.88 -8.72,-4.49 -12.15,-7.85 -3.42,-3.35 -6.07,-7.3 -7.94,-11.87 -1.89,-4.56 -2.82,-9.57 -2.82,-15.03 0,-5.36 0.93,-10.36 2.82,-14.97 1.87,-4.6 4.53,-8.57 7.94,-11.92 3.43,-3.36 7.47,-5.97 12.15,-7.85 4.68,-1.87 9.85,-2.82 15.53,-2.82 4.42,0 8.56,0.6 12.42,1.76 3.87,1.18 7.37,2.85 10.5,4.97 3.12,2.14 5.83,4.69 8.12,7.68 2.28,2.98 4.04,6.32 5.3,10l-15.68 0z"/>
   <path class="fil0" d="M1003.08 915.43c0,-5.82 -1.46,-10.31 -4.36,-13.47 -2.92,-3.17 -7.35,-4.75 -13.31,-4.75 -5.97,0 -10.39,1.58 -13.26,4.75 -2.87,3.17 -4.3,7.65 -4.3,13.47l0 7.83 35.24 0 0 -7.83zm0 42.3l0 -21.65 -35.24 0 0 21.65 -13.81 0 0 -42.3c0,-4.86 0.68,-9.22 2.04,-13.1 1.36,-3.86 3.36,-7.14 6.01,-9.83 2.65,-2.68 5.94,-4.76 9.89,-6.24 3.94,-1.47 8.44,-2.21 13.53,-2.21 5.08,0 9.6,0.74 13.54,2.21 3.93,1.47 7.25,3.56 9.94,6.24 2.68,2.7 4.72,5.97 6.13,9.83 1.41,3.87 2.1,8.24 2.1,13.1l0 42.3 -14.14 0z"/>
   <path class="fil1" d="M1084.69 953.31c-6.14,6.14 -6.14,16.09 0,22.22 6.14,6.14 16.08,6.14 22.22,0 6.11,-6.11 6.11,-16.11 0,-22.22 -6.11,-6.09 -16.11,-6.09 -22.22,0z"/>
   <path class="fil2" d="M403.4 625.43c-32.32,32.3 -32.32,85.26 0,117.6l90.6 90.58 -90.6 90.59c-32.32,32.33 -32.32,85.3 0,117.6 32.32,32.33 85.28,32.33 117.6,0l113.44 -113.42c52.1,-52.11 52.1,-137.44 0,-189.54l-113.44 -113.42c-16.15,-16.17 -37.47,-24.25 -58.79,-24.25 -21.32,0 -42.64,8.09 -58.81,24.25z"/>
   <path class="fil3" d="M500.63 610.49l0 35.78c0,107.93 29.89,191.11 89.68,249.56 13.17,12.86 27.28,24.32 42.32,34.36l1.82 -1.81c52.1,-52.11 52.1,-137.44 0,-189.54l-113.44 -113.42c-6.14,-6.15 -13.03,-11.13 -20.37,-14.93z"/>
   <path class="fil4" d="M403.4 924.2c-32.32,32.33 -32.32,85.3 0,117.6 30.63,30.63 79.76,32.25 112.32,4.86 0.72,-65.54 -13,-132.31 -37.59,-197.18l-74.74 74.72z"/>
   <path class="fil5" d="M403.41 625.41c-32.32,32.32 -32.32,85.28 0,117.6l90.59 90.6 -90.59 90.59c-32.32,32.33 -32.32,85.28 0,117.61 32.32,32.32 85.28,32.32 117.59,0l113.43 -113.44c52.11,-52.1 52.11,-137.42 0,-189.53l-113.43 -113.43c-16.15,-16.17 -37.47,-24.24 -58.79,-24.24 -21.32,0 -42.64,8.07 -58.8,24.24z"/>
   <path class="fil6" d="M500.63 646.27c0,107.93 29.89,191.12 89.68,249.56 13.15,12.87 27.26,24.32 42.32,34.36l1.8 -1.8c52.1,-52.1 52.1,-137.43 0,-189.53l-113.43 -113.43c-6.14,-6.14 -13.03,-11.12 -20.37,-14.93l0 35.78z"/>
   <path class="fil7" d="M403.41 924.21c-32.32,32.32 -32.32,85.28 0,117.59 30.62,30.63 79.75,32.24 112.32,4.85 0.72,-65.54 -13,-132.3 -37.58,-197.18l-74.74 74.74z"/>
   <path class="fil8" d="M725.18 600.6c45.93,0 83.17,37.24 83.17,83.17 0,45.94 -37.24,83.18 -83.17,83.18 -45.93,0 -83.17,-37.24 -83.17,-83.18 0,-45.93 37.24,-83.17 83.17,-83.17z"/>
   <path class="fil9" d="M725.18 600.6c45.93,0 83.17,37.24 83.17,83.17 0,45.94 -37.24,83.18 -83.17,83.18 -45.93,0 -83.17,-37.24 -83.17,-83.18 0,-45.93 37.24,-83.17 83.17,-83.17z"/>
   <path class="fil10" d="M666.4 624.86c21.44,11.93 44.15,19.98 68.17,22.4 23.33,3.53 45.64,4.46 66.87,3.08 -4.01,-9.26 -9.8,-17.93 -17.35,-25.47 -16.18,-16.18 -37.51,-24.26 -58.85,-24.26 -21.33,0 -42.67,8.08 -58.85,24.25z"/>
   <path class="fil11" d="M666.39 742.56c32.5,32.5 85.19,32.5 117.71,0 9.08,-9.08 15.61,-19.79 19.59,-31.22 -50.67,-24.97 -103.61,-42.01 -157.82,-52.74 -9.04,28.65 -2.21,61.24 20.52,83.96z"/>
   <path class="fil1" d="M1140.66 1006.81c-4.11,0 -7.43,3.33 -7.43,7.43 0,4.11 3.32,7.43 7.43,7.43 4.11,0 7.43,-3.32 7.43,-7.43 0,-4.1 -3.32,-7.43 -7.43,-7.43zm0 20.68c-4.11,0 -7.43,3.33 -7.43,7.44 0,4.1 3.32,7.43 7.43,7.43 4.11,0 7.43,-3.33 7.43,-7.43 0,-4.11 -3.32,-7.44 -7.43,-7.44zm17.92 10.35c-4.11,0 -7.43,3.33 -7.43,7.43 0,4.11 3.32,7.43 7.43,7.43 4.1,0 7.43,-3.32 7.43,-7.43 0,-4.1 -3.33,-7.43 -7.43,-7.43zm0 -41.38c-4.11,0 -7.43,3.33 -7.43,7.43 0,4.11 3.32,7.43 7.43,7.43 4.1,0 7.43,-3.32 7.43,-7.43 0,-4.1 -3.33,-7.43 -7.43,-7.43zm17.92 10.35c-4.11,0 -7.43,3.33 -7.43,7.43 0,4.11 3.32,7.43 7.43,7.43 4.09,0 7.43,-3.32 7.43,-7.43 0,-4.1 -3.33,-7.43 -7.43,-7.43zm-36.5 49.94c-17.76,-10.25 -23.85,-32.97 -13.6,-50.75 10.26,-17.76 32.98,-23.85 50.75,-13.6 17.78,10.26 23.86,32.99 13.61,50.75 -10.26,17.78 -32.99,23.86 -50.76,13.59zm36.5 -29.26c-4.11,0 -7.43,3.33 -7.43,7.44 0,4.1 3.32,7.43 7.43,7.43 4.09,0 7.43,-3.33 7.43,-7.43 0,-4.11 -3.33,-7.44 -7.43,-7.44z"/>
  </g>
 </g>
</svg>
